<svg width="32" height="33" viewBox="0 0 32 33" fill="none" xmlns="http://www.w3.org/2000/svg">
<g clip-path="url(#clip0_1319_10030)">
<path d="M24.2639 3.93507C27.1638 5.52254 29.3571 8.26116 30.596 11.0276C30.0821 9.93217 29.4856 8.85529 28.7331 7.90838C29.8159 9.3566 30.5317 10.7584 30.9814 12.5501C30.6786 12.0674 30.3574 10.9255 30.0454 10.7491C28.21 6.83151 24.8237 3.57302 20.7124 2.18979C22.4836 2.32904 23.2636 3.33165 24.2639 3.93507Z" fill="#D38235"/>
<path d="M31.5319 17.3682C31.5044 16.9319 31.486 16.5049 31.4585 16.0871C31.5044 16.5327 31.5319 16.969 31.5319 17.3682Z" fill="#D38235"/>
<path d="M2.90917 14.0266C2.80822 14.4629 2.76234 14.9178 2.70728 15.3541C2.72563 14.9085 2.78987 14.4629 2.90917 14.0266Z" fill="#D38235"/>
<path d="M18.7485 2.90424C18.5007 2.90424 18.2529 2.88567 18.0051 2.86711C16.1514 2.60717 14.2059 2.69072 12.3154 3.17346C14.3527 2.62574 16.6837 2.32867 18.7576 2.90424H18.7485Z" fill="#D38235"/>
<path d="M20.6113 3.74942C22.4008 4.30643 24.071 5.35545 25.2824 6.63657C24.0435 5.3833 22.4192 4.36213 20.6113 3.74942Z" fill="#D38235"/>
<path d="M7.74526 25.4266C7.74526 25.4266 7.8095 25.3988 7.84621 25.4266C7.88291 25.4545 7.91962 25.473 7.95633 25.4916C8.13987 25.7515 8.37847 25.9558 8.58036 26.1879C8.78226 26.4292 9.02086 26.6335 9.25946 26.847C9.1218 26.7634 8.96579 26.7356 8.83732 26.6428C8.36012 26.1229 8.33259 25.9465 7.73608 25.4452L7.74526 25.4266Z" fill="#D38235"/>
<path d="M3.02832 13.5337V13.4873C3.05585 13.3388 3.07421 13.181 3.12927 13.0417C3.13844 13.0232 3.14762 13.0139 3.1568 12.9953C3.10174 13.1717 3.06503 13.3574 3.02832 13.543V13.5337Z" fill="#D38235"/>
<path d="M7.23135 24.8135C7.27723 24.7578 7.31394 24.7114 7.32311 24.6371C7.51583 24.9342 7.74525 25.1942 7.95632 25.4819C7.91962 25.4634 7.88291 25.4355 7.8462 25.4262C7.66266 25.2777 7.45159 24.9713 7.22217 24.8228L7.23135 24.8135Z" fill="#D38235"/>
<path d="M5.13912 17.3128C5.1483 17.0993 5.029 16.895 5.00146 16.7929C5.09323 16.2174 5.28595 15.6789 5.44196 15.0291C5.44196 14.927 5.48784 14.7134 5.46949 14.4999C5.55208 14.3978 5.6255 14.2771 5.69891 14.1564C5.2676 15.5397 5.09323 17.0436 5.20336 18.5939C5.16665 18.1854 5.13912 17.7584 5.13912 17.3221V17.3128Z" fill="#D38235"/>
<path d="M29.3295 17.7024C29.3662 18.8443 29.0817 20.0604 28.733 21.2208C28.32 22.3627 27.8612 23.4674 27.3932 24.4886C28.2099 23.4581 28.889 22.0099 29.3111 20.7752C29.7608 19.5405 29.9902 18.5008 30.2747 18.3151C30.4216 18.2223 30.4858 18.4172 30.5042 18.7979C30.4858 19.1785 30.394 19.7448 30.2564 20.3853C29.9352 21.6664 29.2286 23.1332 28.733 24.108C28.8554 23.9533 28.9747 23.7954 29.0909 23.6345C28.9074 23.8666 28.7514 24.1173 28.6596 24.3679C29.045 23.9223 29.6507 22.929 29.9076 22.6691C29.8893 22.8547 29.8709 23.0404 29.8434 23.2261C30.082 22.9104 30.3206 22.4927 30.5776 22.0192C30.807 21.5458 30.9997 20.998 31.2016 20.4596C31.3484 19.9026 31.5228 19.3456 31.6421 18.8164C31.743 18.2873 31.8623 17.7952 31.9816 17.3775C31.6237 19.3827 31.0364 21.4808 29.9994 23.4674C28.9808 25.4541 27.5584 27.3201 25.7597 28.8518C23.961 30.365 21.7677 31.4976 19.4459 32.0732C17.115 32.6395 14.6647 32.6023 12.4164 32.0268C7.34155 30.8849 3.13851 27.3943 0.97275 22.9197C0.752504 22.5019 0.541434 21.7314 0.339541 20.8681C0.183533 20.0047 0.0458792 19.0392 0.0550561 18.2409C-0.100952 16.8298 0.00917144 15.4001 0.201887 13.9798C0.468019 12.578 0.798388 11.1669 1.36736 9.83934C3.89102 4.16716 9.78261 0.528058 16.2432 0.463074C17.5647 0.509491 19.189 1.15005 16.1331 1.18718C13.6186 1.41927 11.15 2.13409 8.91998 3.32237C9.10352 3.04387 10.2231 2.57041 10.7187 2.28263C8.92916 2.86748 7.51591 3.63801 6.07513 4.83557C7.03871 4.05576 8.05735 3.32237 9.17694 2.76537C6.38715 4.1486 3.76254 6.62727 2.22999 9.68153C1.71608 10.7863 0.669911 11.6125 0.64238 13.4785C1.88127 9.14309 4.99225 5.42043 8.91998 3.32237C8.91998 3.32237 8.91081 3.34094 8.90163 3.34094C10.6361 2.37546 12.398 1.85559 14.2885 1.59565C13.7012 1.71634 13.1138 1.81846 12.5999 1.93914C15.3347 1.4007 18.1061 1.58637 20.7032 2.35689C16.9773 1.53067 12.8385 1.93914 9.32377 3.80511C5.809 5.63395 3.04674 8.93885 2.00974 12.6151C2.49612 11.6589 2.92744 10.4985 3.55147 9.47729C4.12962 8.42826 4.88213 7.5092 5.63464 6.97076C3.25781 9.42159 1.75279 12.7358 1.41324 16.2635C1.40407 15.9943 1.39489 15.7436 1.41324 15.4837C0.917689 17.6746 1.3123 20.0975 1.99139 22.2049C1.40407 20.2461 1.2297 18.213 1.42242 16.2728C1.42242 17.1733 1.4316 18.1202 1.53254 19.2527C1.53254 18.9464 1.56925 18.5658 1.57843 18.1573C1.59678 17.7488 1.57843 17.3125 1.65184 16.8762C1.67937 16.3006 1.70691 15.725 1.81703 15.168C1.86291 14.8895 1.89962 14.6017 1.96386 14.3232L2.18411 13.497C1.75279 15.1959 1.6702 16.9597 1.96386 18.5101C1.91798 16.1706 2.29423 13.757 3.28534 11.6496C2.83567 12.8379 2.45941 14.0633 2.34011 15.3259C1.98221 17.4239 2.07398 19.6334 2.69802 21.7314C2.66131 21.6572 2.64295 21.5736 2.61542 21.4901C2.65213 21.6572 2.71637 21.8057 2.77143 21.9635C3.02839 22.7805 3.36793 23.5695 3.76254 24.3401C3.96443 24.6743 4.18468 24.9899 4.40493 25.2963C4.63435 25.6026 4.90966 25.8718 5.15744 26.1411L5.38686 26.4474C5.20332 26.2896 5.07484 26.2339 5.35015 26.6238C6.51562 28.2855 8.38772 29.4367 10.3424 30.5971C10.5994 30.7642 10.9206 30.8942 11.2876 31.0241C11.6547 31.1541 12.0493 31.2934 12.4806 31.3583C12.7009 31.4605 12.8294 31.4697 12.9487 31.4512C13.1322 31.479 13.3157 31.5347 13.5085 31.5533C13.9673 31.6183 14.4261 31.6926 14.8758 31.7111C14.4353 31.6647 13.9765 31.609 13.5085 31.5533C13.3341 31.5347 13.1689 31.479 13.0037 31.4419C13.1322 31.4233 13.2607 31.4048 13.5085 31.4512C10.4158 30.7735 7.48838 28.9818 5.38686 26.4474C5.56122 26.5774 5.76311 26.7259 5.87324 26.8095C5.62546 26.6052 5.37768 26.3917 5.15744 26.1503C4.83624 25.7233 4.50587 25.3055 4.23974 24.8414L3.8176 24.1637L3.45052 23.4489C3.61571 23.7181 3.78089 23.9687 3.96443 24.1637C2.57872 21.4808 1.93633 18.3708 2.34011 15.3166C2.56036 13.8962 3.03756 12.5315 3.67077 11.269C4.2948 10.0064 5.11155 8.84602 6.07513 7.8434C4.94637 8.83673 3.95526 10.1364 3.28534 11.631C4.12044 9.62582 5.42357 7.80627 7.05706 6.37662C8.69056 4.93769 10.7003 3.96293 12.7927 3.50804C12.086 3.87009 11.1683 4.40853 10.8471 4.83557C10.9114 4.90984 12.1594 4.52922 11.4803 4.85414C9.09435 6.19095 7.47003 7.37923 7.23142 8.65106C7.23142 8.72533 7.38743 8.66963 7.60768 8.56751C7.84628 8.47468 8.13994 8.36328 8.42443 8.25188C8.97504 8.01979 9.48895 7.96409 9.17694 8.27044C8.66303 8.78103 7.72698 9.68153 7.002 10.8698C6.7634 11.1854 6.56151 11.5475 6.32291 11.9095C6.2862 11.9467 6.2862 12.0488 6.27702 12.1788C5.62546 13.5249 5.28591 14.8988 5.16661 15.6786C5.10237 15.9664 5.03814 16.2449 5.01978 16.542C4.9739 16.6905 4.91884 16.8205 4.84542 16.9226C4.8913 17.1083 4.90048 17.2939 4.93719 17.4796C4.94637 17.8695 4.93719 18.2594 4.95554 18.6493C5.0106 19.0299 5.03814 19.4198 5.10237 19.8005C5.16661 20.2275 5.15744 20.6731 5.26756 21.0909C5.30427 21.063 5.34097 20.9795 5.41439 21.0445C5.5704 21.4993 5.70805 21.9635 5.9283 22.3998C6.11184 22.8454 6.35962 23.2632 6.60739 23.6717C6.74505 24.043 6.92859 24.3679 7.01118 24.7114C7.48838 25.0085 8.09406 25.6305 8.80068 26.2525C9.51648 26.8652 10.3424 27.4872 11.1041 27.8214V27.8028C11.4803 27.9885 11.8566 28.1834 12.2604 28.3227L12.8569 28.5547L13.4717 28.7219C13.6002 28.7961 13.7195 28.8797 13.8296 28.9632C14.0499 28.9447 14.2793 28.9632 14.3894 28.9447C15.0502 29.1303 15.6375 29.2232 16.2248 29.3438C16.335 29.316 16.5368 29.1582 16.7571 29.1489C16.9865 29.1489 17.2068 29.1303 17.427 29.1303C17.6473 29.1118 17.8583 29.0561 18.0694 29.0282C18.5741 28.9911 19.0605 28.8611 19.5652 28.7497C21.2538 28.3505 22.8322 27.5614 24.1996 26.4845C24.273 26.4845 24.3281 26.5217 24.3831 26.5681C24.5208 26.3174 24.8695 26.1225 24.9888 25.8997C24.9705 25.9461 24.9705 25.9925 24.998 26.0111C25.4568 25.3334 25.6954 25.352 26.1635 24.7764C26.2644 24.6371 26.3011 24.4793 26.3837 24.3401C26.4388 24.2844 26.4846 24.2101 26.5305 24.1451C27.2188 23.5974 27.54 22.799 27.8795 21.9264C28.0723 21.4993 28.2833 21.0723 28.4118 20.6174L28.6412 19.9397L28.8064 19.2435C28.9991 18.5101 29.146 18.2223 29.3111 17.6931L29.3295 17.7024Z" fill="#D38235"/>
<path d="M9.44312 26.9951C10.058 27.5428 10.7554 28.007 11.4712 28.4155C10.6728 28.0349 9.91114 27.7099 9.44312 26.9951Z" fill="#D38235"/>
<path d="M9.76435 8.06583C10.0764 7.96371 10.4343 7.88016 10.7738 7.73163C9.902 8.18652 9.15867 8.84564 8.44287 9.52333C7.76377 10.2382 7.14892 11.0272 6.65336 11.8999H6.63501C7.02044 11.1851 7.58941 10.3774 8.2318 9.73685C8.83748 9.06844 9.46151 8.53 9.75517 8.06583H9.76435Z" fill="#D38235"/>
<path d="M7.85547 25.426C7.85547 25.426 7.92888 25.4627 7.96559 25.481C7.96559 25.481 7.89218 25.4535 7.85547 25.426Z" fill="#D38235"/>
<path d="M12.5081 3.9719L12.7375 3.9162C12.1593 4.07402 11.6179 4.34324 11.0581 4.55676C11.4894 4.35252 11.9758 4.11115 12.5081 3.9719Z" fill="#D38235"/>
<path d="M18.8586 3.83295C20.0425 4.06503 21.2263 4.38067 22.3184 4.93768C23.7041 5.68035 24.9062 6.67368 25.8056 7.81554C24.8695 6.85006 23.8142 6.00527 22.6487 5.3183C21.4741 4.64061 20.1893 4.15787 18.8586 3.84223V3.83295Z" fill="#D38235"/>
<path d="M13.2607 6.54372C13.6737 6.4973 14.0775 6.43232 14.4905 6.46017C14.0775 6.48802 13.6921 6.6087 13.2974 6.69225C13.3617 6.62727 13.2791 6.59013 13.2607 6.54372Z" fill="#D38235"/>
<path d="M8.13079 6.34878L8.41528 6.12598C8.19503 6.34878 7.97478 6.5623 7.74536 6.7851C7.82795 6.68298 7.99314 6.49731 8.12162 6.34878H8.13079Z" fill="#D38235"/>
<path d="M17.5739 6.5066C17.2802 6.44161 16.9865 6.44161 16.6929 6.40448C16.8672 6.38591 17.0416 6.35806 17.2251 6.31165C17.3169 6.38591 17.4362 6.43233 17.5739 6.5066Z" fill="#D38235"/>
<path d="M21.8778 7.98314C22.0521 8.09454 22.2173 8.19665 22.3825 8.30806C22.5293 8.42874 22.6853 8.55871 22.8322 8.67939C22.4651 8.39161 22.0429 8.15024 21.6392 7.91815C21.7493 7.93672 21.8502 7.946 21.8869 7.98314H21.8778Z" fill="#D38235"/>
</g>
<defs>
<clipPath id="clip0_1319_10030">
<rect width="32" height="32" fill="white" transform="translate(0 0.463074)"/>
</clipPath>
</defs>
</svg>
