<svg width="159" height="33" viewBox="0 0 159 33" fill="none" xmlns="http://www.w3.org/2000/svg">
<g clip-path="url(#clip0_335_4036)">
<path d="M66.7953 15.0451H63.7297V10.971H60.163V21.971H63.7297V18.0715H66.7953V21.971H70.3915V10.971H66.7953V15.0451ZM100.075 15.0451H97.0095V10.971H93.4132V21.971H97.0095V18.0715H100.075V21.971H103.642V10.971H100.075V15.0451ZM154.785 14.172H153.075V10.971H149.508V21.971H154.814C157.143 21.971 159.029 20.7197 159.029 18.4789V17.6932C159.029 15.4525 157.143 14.172 154.814 14.172M154.461 19.2646H153.105V16.8493H154.313C155.315 16.8493 155.551 17.5768 155.551 18.0715C155.551 19.0609 154.726 19.2646 154.461 19.2646ZM131.734 17.8096H135.772V15.1906H131.734V13.8519H136.126V10.971H128.137V21.971H136.45V19.09H131.704V17.7805L131.734 17.8096ZM127.283 10.971H123.421L121.534 15.1324H120.65V10.971H117.083V21.971H120.65V18.0715H121.534L123.48 21.971H127.607L124.571 16.4128L127.341 10.971H127.283ZM77.6135 10.7964H75.8448C73.5161 10.7964 71.6296 12.426 71.6296 14.9578V18.0424C71.6296 20.5742 73.5161 22.2038 75.8448 22.2038H77.6135C79.9422 22.2038 81.8287 20.5742 81.8287 18.0424V14.9578C81.8287 12.2805 79.9422 10.7964 77.6135 10.7964ZM78.2325 18.2752C78.2325 19.0027 77.6135 19.5847 76.8765 19.5847H76.5523C75.8154 19.5847 75.2258 19.0027 75.2258 18.2752V14.6959C75.2258 13.9683 75.8154 13.3863 76.5523 13.3863H76.8765C77.6135 13.3863 78.2325 13.9683 78.2325 14.6959V18.2752ZM139.132 16.7911C139.132 18.4789 138.69 18.7117 138.042 19.0027C137.747 19.1191 137.01 19.1191 137.01 19.1191V22.0001H138.425C141.432 22.0001 142.552 20.2832 142.611 16.3837C142.611 15.5107 142.611 14.6377 142.611 13.8519H144.615V21.971H148.182V10.971H139.132V16.7911ZM88.3726 10.971H83.0667V21.971H86.663V19.2646H88.3726C90.7013 19.2646 92.5879 18.0133 92.5879 15.7435V14.4631C92.5879 12.2223 90.7013 10.9419 88.3726 10.9419M89.1096 15.3943C89.1096 15.8017 88.9032 16.5583 87.8715 16.5583H86.663V13.6482H88.0189C88.3726 13.6482 89.1096 13.9392 89.1096 14.7832V15.3652V15.3943ZM108.712 16.5292V10.9419H105.322V21.9419H108.476L112.161 16.4128V21.9419H115.551V10.9419H112.397L108.712 16.5292Z" fill="#626261"/>
<path d="M16.7136 21.8836L33.4271 33V11.1455L16.7136 0V21.8836Z" fill="#00589C"/>
<path d="M16.7136 0C7.48721 0 0 7.39153 0 16.5C0 25.6085 7.48721 33 16.7136 33V0Z" fill="#0080C8"/>
<path d="M33.4272 33C42.6535 33 50.1408 25.6085 50.1408 16.5C50.1408 7.39153 42.6535 0 33.4272 0V33Z" fill="#0080C8"/>
</g>
<defs>
<clipPath id="clip0_335_4036">
<rect width="159" height="33" fill="white"/>
</clipPath>
</defs>
</svg>
