<svg xmlns="http://www.w3.org/2000/svg" width="55" height="55" viewBox="0 0 55 55" fill="none">
<rect width="55" height="55" fill="#0077C8"/>
<path d="M32.4784 20.739L20.7393 26.9999ZM32.4784 33.2608L20.7393 26.9999Z" fill="#004C97"/>
<path d="M32.4784 20.739L20.7393 26.9999L32.4784 33.2608" stroke="#004C97"/>
<path d="M35.4999 20.3478C35.4999 21.3684 34.6726 22.1957 33.652 22.1957C32.6315 22.1957 31.8042 21.3684 31.8042 20.3478C31.8042 19.3273 32.6315 18.5 33.652 18.5C34.6726 18.5 35.4999 19.3273 35.4999 20.3478Z" fill="#004C97" stroke="#004C97"/>
<path d="M35.4999 33.6523C35.4999 34.6728 34.6726 35.5001 33.652 35.5001C32.6315 35.5001 31.8042 34.6728 31.8042 33.6523C31.8042 32.6317 32.6315 31.8044 33.652 31.8044C34.6726 31.8044 35.4999 32.6317 35.4999 33.6523Z" fill="#004C97" stroke="#004C97"/>
<path d="M22.1957 26.9999C22.1957 28.0205 21.3684 28.8478 20.3478 28.8478C19.3273 28.8478 18.5 28.0205 18.5 26.9999C18.5 25.9794 19.3273 25.1521 20.3478 25.1521C21.3684 25.1521 22.1957 25.9794 22.1957 26.9999Z" fill="#004C97" stroke="#004C97"/>
</svg>