<svg width="185" height="153" viewBox="0 0 185 153" fill="none" xmlns="http://www.w3.org/2000/svg">
<g clip-path="url(#clip0_4411_11618)">
<path d="M19.4072 66H19.4781C30.1752 66 38.8853 74.7536 38.8853 85.5C38.8853 96.2464 30.1574 105 19.4427 105C8.72791 105 0 96.2641 0 85.5178V85.4822C0 74.7536 8.71017 66 19.4072 66ZM54.9397 79.682C53.6447 81.2477 53.0238 83.5251 53.0593 85.7847C53.0238 88.062 53.6447 90.3394 54.9397 91.9051C57.4233 94.912 61.0422 95.0009 63.5789 92.1542C63.7741 91.8339 64.1821 91.8873 64.1644 92.2787V94.5205C64.1644 94.6807 64.0579 94.8942 63.7386 95.0543C62.4259 95.5525 61.0067 95.8016 59.5166 95.8016H59.215C56.4299 95.8016 53.8221 94.9475 51.7466 93.0972C49.7065 91.2824 48.7131 88.5424 48.7663 85.7847C48.7131 83.0447 49.7065 80.3047 51.7466 78.49C53.8221 76.6396 56.4299 75.7856 59.215 75.7856H59.5166C61.0067 75.7856 62.4259 76.0347 63.7386 76.5328C64.0579 76.693 64.1466 76.9065 64.1644 77.0666V79.3084C64.1821 79.6998 63.7741 79.7532 63.5789 79.4329C61.0422 76.5862 57.4233 76.6752 54.9397 79.682ZM151 76.2482V95.0721C151 95.2322 150.858 95.3568 150.698 95.3568H147.629C147.47 95.3568 147.328 95.2322 147.328 95.0543V86.2473H137.855V95.0543C137.855 95.2322 137.713 95.3568 137.536 95.3568H134.484C134.307 95.3568 134.165 95.2322 134.165 95.0543V76.266C134.165 76.088 134.307 75.9457 134.484 75.9457H137.536C137.713 75.9457 137.855 76.088 137.855 76.266V84.8239H147.328V76.266C147.328 76.088 147.47 75.9457 147.629 75.9457H150.698C150.858 75.9457 151 76.088 151 76.2482ZM72.9987 92.2254C74.1695 93.6309 75.6064 94.0935 77.0434 94.1113C78.5512 94.1469 80.0591 93.6843 81.2476 92.2254C83.8022 89.1296 83.8376 82.4398 81.3186 79.3262C80.0768 77.8139 78.6577 77.2979 77.2207 77.2801C75.7306 77.2445 74.2227 77.7427 72.9455 79.3262C70.4265 82.4398 70.4442 89.1296 72.9987 92.2254ZM120.523 75.9457H121.854C122.084 75.9457 122.244 76.0347 122.35 76.266L130.83 95.0543C130.901 95.2322 130.83 95.3568 130.653 95.3568H127.584C127.424 95.3568 127.229 95.2322 127.14 95.0543L124.55 89.3075H116.142L113.552 95.0543C113.481 95.2144 113.427 95.3568 113.285 95.3568H111.778C111.618 95.3568 111.529 95.2322 111.618 95.0543L120.097 76.266C120.204 76.0347 120.293 75.9457 120.523 75.9457ZM123.912 87.8841L120.346 79.9845L116.78 87.8841H123.912ZM97.4085 75.9457H100.477C100.477 75.9457 100.548 75.9457 100.584 75.9813H105.835C109.01 75.9813 111.618 78.5789 111.618 81.7815C111.618 84.984 109.01 87.5817 105.835 87.5817H100.779V95.0543C100.779 95.2322 100.655 95.3568 100.477 95.3568H97.4085C97.2488 95.3568 97.1069 95.2322 97.1069 95.0543V76.266C97.1069 76.088 97.2488 75.9457 97.4085 75.9457ZM100.779 77.3691V86.1939H104.15C106.58 86.1939 108.567 84.2012 108.567 81.7815C108.567 79.3618 106.58 77.3691 104.15 77.3691H100.779ZM69.7346 93.1328C65.8141 89.4854 65.7432 82.1373 69.7523 78.5078C73.797 74.8604 80.4494 74.8604 84.5117 78.5078C88.5209 82.1373 88.4322 89.4854 84.5117 93.1328C80.8042 96.5844 73.4067 96.5844 69.7169 93.1328H69.7346ZM37.0404 85.1086C36.8275 75.5543 29.0221 67.8504 19.4427 67.8504C14.99 67.8504 10.9276 69.505 7.84093 72.245H18.6266L20.0636 68.9001C20.1523 68.7044 20.4361 68.74 20.4716 68.9535L21.0747 72.2628H29.9268C29.9268 72.2628 30.0687 72.2984 30.1042 72.3695L32.8893 76.604C33.0312 76.8175 32.7652 77.0488 32.57 76.8887L29.5365 74.2555C29.5365 74.2555 29.4478 74.2021 29.3946 74.2021L21.4295 74.2377L24.4453 90.9977C24.4985 91.229 24.8178 91.2468 24.871 91.0333L28.7737 78.1341C28.8269 77.9384 29.1285 77.9384 29.1817 78.1341L32.0378 87.9197C32.091 88.0976 32.3217 88.1332 32.4281 87.9909L34.4682 85.2331C34.4682 85.2331 34.6278 85.1086 34.7165 85.1086H37.0404ZM7.23778 72.7965C4.0269 75.8923 1.98684 80.198 1.84492 84.984H13.0387C13.1273 84.984 13.1983 84.9307 13.2338 84.8595L13.9079 83.2582L7.23778 72.7965ZM15.9125 78.6145L17.7574 74.2555H13.4999C13.3225 74.2911 13.2338 74.469 13.3225 74.6113L15.9125 78.6145ZM19.4072 72.2628H20.0636L19.9394 71.5867C19.9039 71.4621 19.7442 71.4443 19.691 71.5867L19.4072 72.2806V72.2628ZM1.84492 85.9982C1.98684 90.8198 4.06238 95.161 7.30874 98.2746L16.1786 87.386C16.3027 87.2436 16.3205 87.0301 16.2141 86.87L14.5465 84.2546L13.9079 85.838C13.9079 85.838 13.7837 85.9626 13.695 85.9626L1.84492 85.9982ZM24.2679 95.3034H30.051C30.051 95.3034 30.1397 95.2856 30.1752 95.2678L34.1488 92.4033C34.344 92.261 34.5923 92.4922 34.4504 92.688L30.3703 98.8262C30.3703 98.8262 30.2639 98.9329 30.1929 98.9329H8.03607C11.1228 101.566 15.0965 103.15 19.4427 103.15C28.9511 103.15 36.7034 95.5525 37.0227 86.1049H34.7343C34.7343 86.1049 34.5923 86.1405 34.5569 86.1939L32.0023 89.7701C31.9137 89.9124 31.683 89.8768 31.6298 89.7167L29.0576 81.8704C29.0043 81.6747 28.7205 81.6747 28.6496 81.8704L24.7113 94.4672C24.6404 94.6807 24.3388 94.6629 24.2856 94.4672L20.4361 74.2733H18.5912L16.4624 79.5219L20.2055 85.3043C20.3119 85.4644 20.2942 85.6779 20.17 85.8203L12.6484 94.9475C12.5419 95.0899 12.6484 95.3034 12.8258 95.3034H24.2679Z" fill="#2E3C77"/>
</g>
<defs>
<clipPath id="clip0_4411_11618">
<rect width="151" height="39" fill="white" transform="translate(0 66)"/>
</clipPath>
</defs>
</svg>
