<svg width="185" height="153" viewBox="0 0 185 153" fill="none" xmlns="http://www.w3.org/2000/svg">
<path fill-rule="evenodd" clip-rule="evenodd" d="M36.3543 124.454C35.029 123.437 32.7227 122.867 29.5213 121.574C28.2305 120.28 25.9586 120.263 24.53 118.814C23.4801 118.451 22.2925 117.796 21.6729 117.089C20.8123 116.088 16.0275 114.743 14.9087 112.466C11.3976 110.534 9.00521 106.842 6.44069 103.806C4.13434 99.4936 2.91231 94.2669 1.96567 89.4886C1.08788 87.2116 1.41487 86.6596 2.3615 84.3309C2.3615 82.3126 3.27373 79.6561 4.90883 78.2934C6.40623 77.0341 7.83481 71.8764 8.09298 72.0316C6.37183 68.1849 5.66614 67.3914 8.72979 66.8739C12.4475 66.2701 15.0637 62.3371 18.3683 61.1469C20.2271 60.4741 22.3441 60.8536 24.2718 60.3189C28.5747 59.1286 32.6022 58.9044 37.1288 58.2661C39.177 58.2661 40.9326 58.4731 42.8603 59.2666C45.0978 59.6634 47.3525 60.0946 49.6244 60.5259C51.3972 60.6121 53.5314 60.5259 55.0977 61.5091C58.7121 61.9749 58.867 62.8201 61.7758 64.7004C66.7671 66.5634 71.3798 70.3066 74.9942 74.2396C75.6655 76.6374 78.7291 78.9144 79.8995 81.6571C80.7257 85.0036 81.4486 88.2984 82.7738 91.4724C84.7532 93.6459 83.359 97.1649 81.1215 98.7864C79.6413 102.15 78.6087 106.514 76.2507 109.309C75.2352 111.362 73.8066 113.069 72.2748 114.829C71.965 115.174 71.7757 115.329 71.4487 115.553C69.1767 117.14 66.5434 117.934 63.91 118.814C60.1235 120.073 56.2681 121.091 52.2922 121.66C49.3318 122.902 46.1649 123.333 43.566 125.024C39.0049 128.008 40.1753 127.37 36.3543 124.454ZM35.597 115.536L35.1839 112.362L43.6348 112.103L45.0634 116.088L43.2389 119.831L34.8913 118.641L35.597 115.536ZM10.0723 74.4294C10.2444 74.4984 10.4337 74.5846 10.6231 74.7054C11.2599 75.2746 11.5181 76.0336 11.4664 76.7064C11.9828 76.6029 12.5852 76.7064 13.0327 77.0341L13.1532 76.8271C12.8262 76.3959 12.6885 75.8266 12.7745 75.3264C12.1033 75.4126 11.3287 75.2056 10.7263 74.6019C10.5887 74.4121 10.4682 74.2051 10.3993 74.0154C10.296 74.1534 10.1756 74.2914 10.0723 74.4294ZM10.9845 73.1701C11.0533 73.5324 11.0705 73.9119 10.9673 74.2569C11.0189 74.3259 11.0706 74.3776 11.1222 74.4294C11.0706 73.8601 11.346 73.2564 11.759 72.9631C11.8623 73.4116 11.7934 73.9464 11.4148 74.3086C11.2943 74.4294 11.4148 74.7054 11.7418 74.8434C13.0499 75.3264 14.7711 74.1534 13.8588 73.0839C13.3597 72.5491 12.5163 73.0839 12.7917 73.6531C12.9982 72.9114 13.4802 73.0494 13.6867 73.2564C14.0137 73.5669 13.8072 73.9119 13.6695 74.0844C13.463 74.3259 12.981 74.4466 12.5852 74.2051C11.9828 73.6704 12.2582 73.1184 12.4819 72.8251C13.0327 72.1869 13.6695 72.3421 14.0137 72.6354C14.8399 73.3599 14.4268 74.3259 13.9965 74.7399C13.7556 74.9986 13.4113 75.1884 13.0327 75.2746C13.2564 75.5679 13.3941 75.9646 13.4113 76.3269C13.9277 75.3954 14.117 75.1711 14.2031 74.8951C14.7194 74.7744 14.685 74.5501 14.9087 74.0326C15.6144 73.3944 16.389 72.6699 17.1979 71.9281C16.802 71.9109 16.3717 71.7384 16.0791 71.4796C15.9586 71.8591 15.7521 72.1869 15.4767 72.4111C15.0465 72.8251 14.0481 73.1701 13.3941 72.2904C13.1015 71.9454 12.9983 71.3071 13.6695 70.7724C13.9621 70.5826 14.5301 70.3411 15.0292 70.9621C15.253 71.3761 15.0808 71.8419 14.8399 72.0489C14.6505 72.1696 14.3063 72.3594 14.0137 72.0144C13.8244 71.7901 13.7211 71.2899 14.4612 71.1346C13.9104 70.8414 13.3253 71.6521 13.8416 72.1696C14.8571 73.1529 16.1135 71.4796 15.7004 70.1514C15.5972 69.8236 15.3218 69.6856 15.2013 69.8064C14.8227 70.1686 14.2719 70.2031 13.8416 70.0651C14.1514 69.6684 14.771 69.4269 15.339 69.5131C15.2874 69.4614 15.2357 69.4096 15.1669 69.3579C14.3924 69.5131 13.4974 69.1509 12.8778 68.7886C12.3614 70.4274 11.8279 71.8246 10.9845 73.1701ZM12.9467 68.5644C13.6867 68.4436 14.6162 68.3746 15.5284 69.1336C16.0963 69.7719 16.2512 70.5481 16.1307 71.2209C16.5954 71.1691 17.129 71.3071 17.5249 71.6176L17.7314 71.4279C17.4905 70.9966 17.4561 70.4446 17.5937 69.9961C16.9053 69.9961 16.1652 69.7029 15.6316 69.0301C14.9604 67.8226 15.4079 66.7876 15.666 66.0631C15.9414 66.7186 16.2684 67.8571 15.9242 68.7196C15.9586 68.7886 16.0103 68.8404 16.0447 68.9094C16.0619 68.3401 16.4061 67.7709 16.8536 67.5294C16.9053 67.9779 16.7848 68.5126 16.3545 68.8231C16.234 68.9266 16.3028 69.2199 16.6127 69.3751C17.8519 70.0306 19.7108 69.0646 18.919 67.8916C18.506 67.3051 17.611 67.7364 17.8003 68.3229C18.0929 67.6329 18.5576 67.8226 18.7469 68.0469C19.0223 68.4091 18.7813 68.7024 18.6264 68.8576C18.3855 69.0819 17.9036 69.1509 17.5421 68.8576C17.0085 68.2539 17.3356 67.7364 17.5937 67.4776C18.2134 66.9084 18.833 67.1326 19.1256 67.4776C19.8657 68.2884 19.3493 69.2026 18.8674 69.5649C18.6092 69.7891 18.2478 69.9271 17.8519 69.9789C18.0413 70.3066 18.1445 70.7206 18.0929 71.1001C19.5387 69.8064 21.0533 68.5816 22.5162 67.8226C22.74 67.5294 22.9982 67.2706 23.2736 67.0291C22.8088 67.0981 22.2581 66.9084 21.8966 66.5979C21.7762 66.9774 21.5868 67.3051 21.3114 67.5294C20.8812 67.9434 19.8829 68.2884 19.2116 67.4259C18.9362 67.0636 18.8158 66.4254 19.487 65.9079C19.7796 65.7009 20.3476 65.4594 20.8467 66.0804C21.0705 66.4944 20.9156 66.9601 20.6574 67.1671C20.4853 67.2879 20.1411 67.4776 19.8312 67.1326C19.6419 66.9084 19.5387 66.4254 20.2787 66.2529C19.728 65.9596 19.16 66.7704 19.6591 67.2879C20.6746 68.2711 21.9483 66.5979 21.5352 65.2696C21.4319 64.9419 21.1393 64.8211 21.0361 64.9246C20.6402 65.2869 20.1066 65.3214 19.6591 65.1834C19.6763 65.1661 19.6936 65.1489 19.7108 65.1316C18.3855 65.6146 16.9225 65.9251 15.7349 65.9596C15.0981 66.7531 14.0826 68.1159 13.0499 68.2711L12.9467 68.5644ZM20.9156 64.6141C21.0016 64.6141 21.0705 64.6141 21.1565 64.6314C21.1221 64.5969 21.1049 64.5624 21.0705 64.5451L20.9156 64.6141ZM21.4319 64.3381C21.9311 64.9591 22.0687 65.7009 21.9655 66.3391C22.4818 66.2874 23.0842 66.4599 23.4801 66.8566C23.5317 66.8049 23.6006 66.7531 23.6522 66.7186C23.3424 66.2529 23.2563 65.6146 23.4112 65.1144C22.7744 65.1144 22.086 64.8556 21.5524 64.2691L21.4319 64.3381ZM22.4302 63.7171C22.3613 63.8034 22.2753 63.8724 22.1892 63.9414C22.0515 64.0449 22.1376 64.3381 22.4474 64.5106C23.635 65.1316 25.4078 64.2519 24.8226 63.1306C24.7537 63.1651 24.6849 63.1996 24.5988 63.2169C24.8226 63.5446 24.5988 63.8379 24.4612 63.9759C24.2202 64.2001 23.7211 64.2691 23.3596 63.9759C23.2563 63.8379 23.1703 63.7171 23.1359 63.5964C22.9121 63.6481 22.6712 63.6826 22.4302 63.7171ZM25.2185 62.9926C25.5283 63.6826 25.098 64.3899 24.7021 64.6831C24.4267 64.9074 24.0653 65.0626 23.6866 65.0971C23.9276 65.5284 24.0309 66.1321 23.8415 66.5806C28.6091 63.3031 38.9877 64.9764 43.3078 65.0799C45.5625 65.3731 47.6795 65.9251 49.8654 66.5634L50.0031 67.0809L48.5917 68.1159C46.8189 68.1676 45.7346 67.7019 44.0651 67.7019C38.523 66.4599 33.6865 65.6491 28.0239 66.2701C26.6298 66.7531 25.2701 67.2534 23.8932 67.7709C23.4801 69.4786 20.1238 70.7206 19.2116 72.1006C18.0585 73.8601 17.6454 73.4979 16.3029 74.4294C15.4423 75.8784 15.4423 75.8784 14.5301 77.0169C13.0155 80.1909 12.5164 84.0894 12.5164 87.5911C13.6179 89.7991 13.7211 92.2314 14.3235 94.5774C15.1153 96.1816 16.6299 98.2689 20.3476 104.03C24.0997 107.308 27.9895 110.585 32.344 113L32.6194 115.64L32.585 115.622C25.4422 112.983 20.9156 107.998 16.5955 101.736C13.9277 98.8726 11.0017 94.4221 10.3305 90.5581C9.96902 88.4364 10.1067 86.3491 10.5198 84.2101C11.1738 82.1574 11.8279 80.1046 12.5164 78.0519C12.6713 77.7414 12.809 77.4654 12.9467 77.2066C12.4819 77.3964 11.8623 77.2584 11.4492 76.9824C11.3803 77.3619 11.2082 77.7241 10.9673 77.9829C10.5886 78.4314 9.64198 78.8971 8.86746 78.1209C8.81583 78.0519 8.74698 77.9829 8.71256 77.8966C8.33391 79.0006 7.86923 80.0356 7.0775 80.5876C6.97423 81.1914 7.14631 81.5536 6.56112 81.6916C6.44064 82.7094 5.90711 83.4684 5.63173 84.9519C5.35635 86.5561 5.3391 88.1949 5.21862 89.8509C5.35631 91.3171 5.64892 92.7661 6.04481 94.1634L7.67992 93.3181L7.43892 92.8179L9.28058 91.8519L12.0344 97.1476L10.1928 98.1136L9.90017 97.5789L7.74873 98.7001C8.00691 99.2349 8.28229 99.7696 8.55767 100.287L10.6575 98.9244L10.3649 98.4586L12.1032 97.3201L15.3562 102.305L13.6179 103.461L13.2908 102.944L11.1222 104.358C11.5009 104.876 11.8795 105.393 12.2926 105.893L14.2203 104.117L13.8416 103.72L15.3734 102.305L19.401 106.687L17.8691 108.101L17.4561 107.67L15.4767 109.481C16.6816 110.706 17.938 111.845 19.2288 112.897C21.1049 113.932 22.9637 114.984 24.8226 116.054C27.9207 118.745 32.1375 119.003 35.3216 121.263C39.6073 122.281 39.5557 122.54 40.4335 122.609C41.9309 122.747 43.4799 122.643 44.9429 122.281C47.4902 121.643 50.8464 121.004 53.0839 119.9C54.2027 119.348 55.3731 118.883 56.5779 118.469L56.182 117.365L56.9738 115.622L55.3214 114.794L55.5108 114.311C52.9807 115.053 50.5883 115.64 49.4351 115.933L48.9876 114.484C51.6382 114.001 54.4953 113.725 56.7328 113.035C58.781 112.414 60.0546 111.5 63.8584 109.982C64.151 109.05 64.8394 107.653 65.8033 107.411C65.8033 107.308 65.8377 107.187 65.8721 107.066C67.6449 105.721 68.626 103.409 70.0545 101.684C70.3127 100.908 70.4332 99.7524 71.1216 99.3039C70.9495 98.5966 71.7412 97.5789 72.0338 96.9234C72.0166 96.4404 72.0166 96.2679 72.4125 94.5774C71.2249 95.3191 69.3661 95.1811 68.4194 94.1289L68.3506 94.0599L70.0201 92.5419L70.0545 89.6611L67.9891 89.6266C67.9547 90.9894 67.9203 92.3694 67.8859 93.7494C67.3867 95.7676 66.9909 97.8549 66.5089 99.9076C65.8721 100.184 65.3386 103.202 64.237 104.237C63.6518 105.928 60.8636 107.153 59.4866 108.291C58.3162 108.826 57.1975 109.55 55.9411 109.895C53.6003 110.516 51.4316 110.551 49.022 110.568C44.874 109.913 40.5712 109.792 36.3543 109.292C30.4852 107.774 24.4267 104.738 21.6212 99.0969C21.2082 98.6139 20.8123 98.1481 20.4337 97.6996C18.7986 93.6631 15.6316 90.8686 14.2891 86.6079C14.2891 85.2796 14.0826 83.9169 14.2891 82.6231C14.4785 81.4501 15.0637 80.3634 15.4767 79.2766C18.1789 76.2406 20.5541 72.5836 24.289 70.9449C24.7882 68.3229 36.0962 69.0474 36.9567 69.0474C43.4799 69.8409 43.4799 69.8409 44.461 69.8409C45.5797 70.1341 46.7157 70.4446 47.8861 70.7551L48.8155 68.5299H48.7983L50.6571 67.4259L50.1236 65.3386L52.0685 64.1829L52.6192 66.3391L54.5297 65.2179L55.0805 67.3914L53.2388 68.4954L53.7724 70.5826H53.7552L53.7896 70.5999L55.6485 69.4959L55.0977 67.3914L57.0426 66.2529L57.5934 68.4091L59.3834 67.3569L59.9341 69.5131L61.8618 68.3746L62.4126 70.5654L60.5537 71.6694L61.0873 73.7566L61.1045 73.7739V73.7566L62.9634 72.6699L62.4298 70.5654L64.3575 69.4269L64.9255 71.6004L63.0666 72.7044L63.6002 74.7916L62.6019 77.1721C64.5296 78.7246 66.1475 80.6394 67.3007 83.0371C67.5588 84.1411 67.8342 85.2796 68.0924 86.4009L68.0752 86.9529H68.3334L68.2989 89.1781L70.5192 89.2126L70.4676 92.7489L69.0218 94.0599C69.1251 94.1289 69.2284 94.1979 69.3316 94.2496L70.4504 93.1456V93.4044C70.4332 93.7839 70.4332 94.1806 70.4332 94.5774C70.5709 94.5946 70.7086 94.5946 70.8462 94.5946L70.8807 93.1456L71.965 94.3186C72.0683 94.2496 72.1715 94.1979 72.2748 94.1289L70.8807 92.7489L70.9495 89.2299L73.1698 89.2644L73.2042 87.0391H73.6517L73.6001 89.7301L71.3798 89.6784L71.3282 92.5591L72.6018 93.8011C72.7912 93.0076 73.0665 91.9554 73.4108 90.5581C74.8565 88.8159 73.2214 84.6414 72.6018 82.7439C71.3626 81.1396 70.3471 79.4491 69.3661 77.6896C69.2456 77.6551 69.1079 77.7069 69.0218 77.6379C68.9186 77.5516 69.0907 77.3274 68.9874 77.2756C68.3162 76.9996 67.6793 75.9474 67.2146 75.3091C66.8532 75.2056 66.8187 75.2056 63.8928 73.1184L65.0804 72.4801C65.9065 73.0149 66.6122 73.4634 67.3007 74.0671C67.3695 74.1361 67.3523 74.3776 67.4384 74.4466C70.743 77.3619 73.6861 80.1564 74.7016 84.5896C75.4762 87.9879 74.891 91.1964 73.996 94.5429C71.6208 100.494 71.1561 102.029 69.4521 104.807C67.9547 107.256 67.7137 106.997 66.4573 108.671C65.5967 109.119 65.5967 109.119 64.478 110.033C64.478 110.413 64.1165 110.81 63.5141 111.224L64.9427 111.914L64.9599 111.931L65.7516 110.189L66.7155 110.723L65.9582 112.414L67.6621 113.259L67.9375 114.053C69.1251 113.414 70.2611 112.604 70.2266 111.569C70.5881 110.413 72.206 110.258 73.2731 109.913C73.3075 109.757 73.3419 109.637 73.3763 109.516C73.5312 109.43 73.7034 109.361 73.8927 109.309C76.0269 104.979 77.1113 100.287 78.884 95.8366C79.0045 93.9046 79.125 91.9726 79.2799 90.0751C78.2128 82.2781 74.5295 74.4639 67.1974 70.7379C66.8876 70.3411 66.5778 69.9789 66.268 69.6166C56.75 62.7684 42.8259 61.4229 31.449 61.1469C30.0033 61.3021 28.5919 61.4746 27.1806 61.6644C27.1634 61.7506 27.2322 61.9404 27.1289 61.9921C26.4577 62.4061 25.8553 62.7339 25.2185 62.9926ZM9.16008 76.4304C9.46989 76.2406 9.88298 76.1371 10.3477 76.6029C10.6231 76.9824 10.5026 77.4654 10.2788 77.6896C10.1239 77.8449 9.7969 78.0519 9.46989 77.7586C9.24614 77.5516 9.09123 77.0859 9.7969 76.8271C9.21171 76.6029 8.74698 77.4826 9.29775 77.9311C10.4337 78.7936 11.5008 76.9824 10.9156 75.7059C10.7779 75.3954 10.4853 75.2919 10.3821 75.4126C10.1067 75.7404 9.72804 75.8784 9.34939 75.8784C9.28054 76.0509 9.22892 76.2406 9.16008 76.4304ZM9.5215 75.3954C9.79689 75.2056 10.1412 75.1021 10.4682 75.1194C10.4165 75.0676 10.3649 75.0159 10.2961 74.9814C10.0895 75.0504 9.86575 75.0849 9.642 75.0849C9.59037 75.1884 9.55593 75.2919 9.5215 75.3954ZM71.4487 85.3486L72.4469 84.0721L72.8084 84.3481L70.9667 86.7286L71.0528 83.4511L71.5003 83.4684L71.4487 85.3486ZM63.0494 111.5C62.0339 112.086 60.5537 112.673 58.9359 113.225L59.2113 113.38L58.4539 115.088L60.1407 115.933L61.3799 113.19L63.8239 114.398L64.478 112.931L62.8085 112.103L63.0494 111.5ZM57.9204 113.57C57.3868 113.742 56.8705 113.915 56.3369 114.07L57.4385 114.622V114.587H57.4557L57.9204 113.57ZM48.6089 70.9449C48.9876 71.0484 49.3835 71.1691 49.7621 71.2726L50.3301 69.9099L49.2286 69.4614L48.6089 70.9449ZM51.1907 71.7039C51.5693 71.8074 51.948 71.9281 52.3266 72.0489L52.7913 70.9449L51.6898 70.4791L51.1907 71.7039ZM53.7896 72.5319C54.1511 72.6699 54.5297 72.8079 54.9084 72.9459L55.3042 71.9799L54.2027 71.5314L53.7896 72.5319ZM56.1992 73.4634C56.5607 73.6186 56.9393 73.7739 57.2836 73.9464L57.645 73.0839L56.5435 72.6354L56.1992 73.4634ZM58.6261 74.6019C58.9875 74.7744 59.3317 74.9814 59.676 75.1711L60.1235 74.1189L59.0219 73.6531L58.6261 74.6019ZM61.0013 75.9819C61.3283 76.2061 61.6725 76.4476 61.9995 76.6891L62.6191 75.1539L61.5348 74.7054L61.0013 75.9819ZM57.4557 68.5126L55.7345 69.5304L56.2681 71.6176L57.9892 70.5999L57.4557 68.5126ZM58.6088 72.7044L60.4505 71.6176L59.9169 69.5476L58.0925 70.6344L58.6088 72.7044ZM51.2939 69.5476L53.1356 68.4436L52.602 66.3736L50.7604 67.4604L51.2939 69.5476ZM44.6675 97.4926C41.6899 97.1304 34.4094 94.4049 34.702 90.6789C35.1667 90.3856 35.6487 90.1096 36.1134 89.8509C38.3509 89.8509 39.9343 90.2649 44.0479 89.9544C48.7638 89.6094 53.4454 88.2121 58.1613 87.8844C58.4023 88.1604 58.4023 88.1604 58.5228 89.1609C58.4023 89.1609 58.2818 89.1954 58.1613 89.2299C56.6812 92.1451 54.8739 94.4049 51.9824 96.0091C49.5556 96.6301 47.1287 97.0096 44.6675 97.4926ZM53.9445 108.998C54.0306 108.429 54.392 108.395 54.8395 108.17C54.8395 106.204 53.2388 104.927 53.8585 102.961C54.7879 101.891 56.182 100.132 57.3868 99.3384C57.0942 98.4414 56.4058 98.0274 56.0271 97.0959C56.0615 96.5094 56.0788 95.9229 56.1476 95.3191C56.3713 95.3191 56.6467 95.3191 56.9221 95.3191C57.4213 96.5094 58.0064 97.4236 58.781 98.4759C58.9875 99.4591 58.9875 99.4591 58.9531 101.719C57.8343 102.426 56.5951 102.806 55.4591 103.616C55.4591 104.807 55.855 105.669 56.2337 106.79C56.991 107.084 56.9221 107.049 57.6622 106.773C57.7655 105.548 57.1803 104.858 57.2491 103.565C59.676 102.719 59.676 102.719 60.6226 102.185C61.6553 99.8041 58.5744 95.6469 58.5744 92.9214C59.762 90.4201 60.7947 87.9189 61.7758 85.3314C62.3093 85.1244 62.8429 84.9519 63.3764 84.7621C63.5313 83.8479 63.7895 83.6926 63.3764 83.2786C63.0838 82.9854 62.0856 81.7779 61.3971 81.7434C60.4505 81.6744 59.9169 82.3299 59.1424 82.4851C59.0736 83.4511 59.0219 84.4689 58.9531 85.4866C51.5521 87.0219 43.7209 87.2289 36.1822 87.8671C33.9619 87.6774 33.9619 87.6774 32.3785 87.2634C31.5007 86.7804 28.3854 85.5039 27.9379 84.3826C29.9688 82.6749 31.6556 80.8119 31.3974 77.2756C31.7933 77.1549 32.1719 76.7754 33.7726 76.1544C33.7726 75.7404 34.0996 75.7749 34.4266 75.6714C34.4611 75.4299 34.4955 75.1884 34.5127 74.9641C33.6521 74.5501 31.8793 75.2919 31.2941 75.9646C30.9671 75.9646 30.6401 75.9646 30.3303 75.9646C30.0721 75.4989 29.8312 75.0504 29.5902 74.6019C29.3837 74.5674 29.2115 74.5501 29.0394 74.5156C29.332 70.6171 35.27 70.4446 38.1443 70.4446C46.4059 71.8074 55.5452 73.1701 62.4642 78.1381C63.0494 78.7936 63.669 79.4836 64.3059 80.1564C65.5107 82.2436 67.5072 85.2106 66.2852 87.6774C66.4917 89.3506 66.4917 89.3506 66.7327 89.8509C66.9048 89.9026 66.2852 91.7484 65.5107 97.5271C64.6501 100.287 64.3575 102.633 62.5847 104.807C62.1888 106.031 60.657 106.497 59.762 107.48C57.1287 108.291 57.1287 108.291 53.9445 108.998ZM47.2492 108.998C40.8982 108.291 40.8982 108.291 36.7502 107.515C35.5626 107.101 35.5626 107.101 33.7726 106.911C32.5678 106.359 31.3458 105.79 30.1237 105.221C26.5438 102.098 24.4267 99.6316 22.2064 95.5261C19.814 93.8011 17.611 89.6439 16.2857 87.2116C16.2168 85.8661 16.1308 84.5034 15.6833 83.2269C15.6833 78.1899 22.9293 70.6516 27.8518 70.0479C28.6436 70.4446 28.6436 70.4446 29.9172 70.7379C28.3854 73.1184 27.6109 72.1869 25.4766 71.6349C24.8742 71.7729 24.289 71.9626 23.6866 72.1351C23.635 72.4629 23.5834 72.7906 23.5145 73.1184C26.9224 74.1189 30.2787 77.1031 28.9362 80.8464C28.1444 81.7606 27.3699 82.8129 26.0618 83.0371C26.0618 82.6921 26.0618 82.3644 26.0618 82.0366C28.7124 80.8809 28.11 77.7241 26.5093 75.8439C25.6832 75.3954 25.6832 75.3954 24.3751 74.3086C23.7899 74.3086 23.1875 74.3086 22.6023 74.3086C21.9999 74.8951 22.0343 75.1366 22.086 75.9991C24.7365 76.4994 25.5971 77.0686 25.4766 79.8631C24.7882 79.9839 24.3235 80.8464 23.876 81.3466C23.2736 81.4674 22.6884 81.5881 22.1204 81.7434C21.3803 81.0879 20.9328 80.5531 19.9517 80.4496C19.5731 81.0189 19.2977 81.3466 19.2461 82.0366C19.4526 82.2954 19.6591 82.5714 19.9001 82.8646C17.938 82.9854 17.5249 82.5024 17.5249 84.2619C17.9724 84.5034 17.9724 84.5034 19.5387 84.6241C19.9345 85.2796 20.2271 85.9351 20.9328 86.1939C20.9328 86.3146 20.9328 86.4699 20.9328 86.6079C20.6746 86.6769 20.3992 86.7286 20.1411 86.7804C19.8312 87.9706 19.5042 89.4369 20.1411 90.5581C23.0326 90.7479 22.6195 89.8509 23.1014 86.7804C23.2219 86.7804 23.3596 86.7804 23.5145 86.7804C23.5145 86.6424 23.5145 86.5216 23.5145 86.4009C24.9775 86.1076 25.6832 85.8661 27.1634 86.1939C27.8862 86.9184 28.4714 87.6601 29.5386 88.1604C30.468 89.3506 33.1186 93.1801 34.1857 93.5424C34.5127 94.2496 35.4765 95.0259 35.4765 95.7159C34.0996 96.4749 30.1237 97.7859 29.9172 99.8731C30.8983 101.978 30.3131 105.514 33.3939 105.514C34.4094 104.237 32.8948 102.875 32.4473 101.598C32.2924 101.529 32.1547 101.512 31.9998 101.477C31.8793 101.063 31.7933 100.667 31.7072 100.287C33.0325 98.5966 36.8018 97.1304 38.9361 96.8889C38.8672 97.4064 38.85 98.9761 39.1254 99.1831C37.628 99.6661 36.1822 100.132 34.7192 100.615C34.4094 101.874 34.8397 102.547 34.9602 103.651C35.7003 104.393 35.6142 105.307 36.9567 105.635C36.1478 103.133 35.6487 102.167 35.6487 101.736C36.5609 101.063 36.9567 101.15 38.1443 101.15C41.6899 99.5799 41.6899 99.5799 42.4988 98.9761C46.8534 98.8381 50.3301 98.4931 54.3576 96.7164C54.7535 97.8721 55.855 98.5621 55.4247 99.8731C52.9635 101.357 51.4833 102.34 51.4833 105.428C51.9652 106.532 52.4643 107.653 52.9635 108.791C51.0358 108.843 49.1425 108.912 47.2492 108.998ZM69.039 88.3329L70.0889 88.3501L70.1062 87.3496L68.2817 84.8311L68.6604 84.5551L70.5536 87.2116L70.5364 88.8159L68.5743 88.7814L68.6087 86.9701H69.0563L69.039 88.3329ZM71.4142 87.3841L71.397 88.3846L72.4469 88.4019L72.4813 87.0391H72.9288L72.8944 88.8504L70.9323 88.8159L70.9667 87.2116L72.9633 84.6414L73.3075 84.9174L71.4142 87.3841ZM70.1922 85.3314L70.2094 83.4511H70.6569L70.6225 86.7114L68.8669 84.2791L69.2456 84.0031L70.1922 85.3314ZM69.7791 94.4394C69.848 94.4566 69.9168 94.4739 69.9857 94.4911V94.2496L69.7791 94.4394ZM71.2937 94.5256C71.3626 94.5256 71.4314 94.5084 71.5003 94.4911L71.311 94.2669L71.2937 94.5256ZM43.893 116.019C43.9102 115.916 43.9962 115.829 44.0995 115.829C44.2028 115.847 44.2888 115.933 44.2716 116.036C44.2716 116.14 44.1856 116.226 44.0823 116.226C43.979 116.209 43.893 116.123 43.893 116.019ZM41.1908 116.606C41.2768 116.537 41.3973 116.571 41.4662 116.657C41.5178 116.761 41.4834 116.864 41.3973 116.933C41.3112 116.985 41.1908 116.951 41.1391 116.864C41.0703 116.778 41.1047 116.657 41.1908 116.606ZM40.9154 116.14C41.0014 116.088 41.1219 116.105 41.1736 116.209C41.2252 116.295 41.208 116.416 41.1219 116.468C41.0187 116.519 40.8982 116.502 40.8465 116.399C40.7949 116.312 40.8293 116.192 40.9154 116.14ZM42.9291 119.383C43.0152 119.314 43.1357 119.348 43.1873 119.435C43.2562 119.538 43.2217 119.642 43.1357 119.711C43.0496 119.762 42.9291 119.728 42.8603 119.642C42.8087 119.555 42.8431 119.435 42.9291 119.383ZM41.5006 117.054C41.5866 117.002 41.7071 117.037 41.7588 117.123C41.8104 117.209 41.7932 117.33 41.6899 117.382C41.6038 117.451 41.4834 117.416 41.4317 117.33C41.3801 117.244 41.3973 117.123 41.5006 117.054ZM41.776 117.52C41.8792 117.468 41.9825 117.503 42.0513 117.589C42.103 117.675 42.0686 117.796 41.9825 117.848C41.8964 117.917 41.776 117.882 41.7243 117.796C41.6555 117.692 41.6899 117.589 41.776 117.52ZM42.0686 117.986C42.1546 117.934 42.2751 117.968 42.3267 118.055C42.3956 118.141 42.3612 118.262 42.2751 118.313C42.189 118.365 42.0686 118.348 41.9997 118.262C41.9481 118.158 41.9825 118.037 42.0686 117.986ZM42.3612 118.451C42.4472 118.4 42.5677 118.417 42.6193 118.52C42.671 118.607 42.6537 118.727 42.5677 118.779C42.4644 118.831 42.3439 118.814 42.2923 118.727C42.2407 118.624 42.2579 118.503 42.3612 118.451ZM42.6537 118.917C42.7398 118.865 42.8603 118.883 42.9119 118.986C42.9636 119.072 42.9463 119.193 42.8431 119.245C42.757 119.297 42.6365 119.279 42.5849 119.176C42.5333 119.09 42.5505 118.969 42.6537 118.917ZM35.5282 118.193C35.5798 118.279 35.7003 118.296 35.7863 118.227C35.8724 118.158 35.8896 118.037 35.838 117.951C35.7691 117.865 35.6487 117.848 35.5626 117.917C35.4765 117.986 35.4593 118.106 35.5282 118.193ZM35.0807 118.503C35.1495 118.589 35.27 118.607 35.3561 118.555C35.4421 118.486 35.4593 118.365 35.3905 118.279C35.3388 118.193 35.2184 118.175 35.1323 118.244C35.0462 118.296 35.029 118.417 35.0807 118.503ZM38.1615 116.261C38.2304 116.347 38.3509 116.364 38.4369 116.312C38.523 116.243 38.5402 116.123 38.4713 116.036C38.4197 115.95 38.2992 115.933 38.2132 115.985C38.1271 116.054 38.0927 116.174 38.1615 116.261ZM35.9757 117.865C36.0273 117.951 36.1478 117.968 36.2338 117.917C36.3199 117.848 36.3371 117.727 36.2855 117.641C36.2166 117.554 36.0962 117.537 36.0101 117.606C35.924 117.658 35.9068 117.779 35.9757 117.865ZM36.406 117.554C36.4748 117.641 36.5953 117.658 36.6813 117.589C36.7674 117.537 36.7846 117.399 36.7158 117.313C36.6641 117.244 36.5437 117.209 36.4576 117.278C36.3715 117.347 36.3543 117.468 36.406 117.554ZM36.8535 117.227C36.9051 117.313 37.0256 117.33 37.1116 117.261C37.1977 117.209 37.2321 117.089 37.1633 117.002C37.0944 116.916 36.9739 116.899 36.8879 116.951C36.8018 117.02 36.7846 117.14 36.8535 117.227ZM37.2837 116.899C37.3526 116.985 37.4731 117.002 37.5591 116.951C37.6452 116.882 37.6624 116.761 37.5936 116.675C37.5419 116.588 37.4214 116.571 37.3354 116.64C37.2493 116.692 37.2321 116.813 37.2837 116.899ZM37.7313 116.588C37.7829 116.675 37.9206 116.692 38.0066 116.623C38.0755 116.554 38.1099 116.433 38.0411 116.347C37.9722 116.261 37.8517 116.243 37.7657 116.312C37.6796 116.381 37.6624 116.502 37.7313 116.588ZM41.2768 115.105C41.3629 115.157 41.4834 115.157 41.5522 115.07C41.6211 114.984 41.6038 114.863 41.535 114.794C41.4489 114.725 41.3285 114.743 41.2596 114.829C41.1908 114.915 41.208 115.036 41.2768 115.105ZM40.9498 115.519C41.0359 115.588 41.1563 115.571 41.2252 115.484C41.2768 115.415 41.2768 115.277 41.1908 115.226C41.1047 115.157 40.9842 115.174 40.9154 115.243C40.8465 115.329 40.8637 115.45 40.9498 115.519ZM43.3422 112.552C43.4111 112.621 43.5315 112.604 43.6004 112.517C43.6692 112.431 43.652 112.31 43.5832 112.241C43.4971 112.172 43.3766 112.19 43.3078 112.276C43.2389 112.362 43.2562 112.483 43.3422 112.552ZM41.6383 114.674C41.7243 114.743 41.8448 114.725 41.9137 114.639C41.9653 114.57 41.9653 114.432 41.8792 114.38C41.7932 114.311 41.6727 114.329 41.6038 114.398C41.535 114.484 41.5522 114.605 41.6383 114.674ZM41.9825 114.242C42.0513 114.311 42.1718 114.311 42.2407 114.225C42.3095 114.139 42.2923 114.018 42.2235 113.949C42.1374 113.88 42.0169 113.897 41.9481 113.984C41.8792 114.07 41.8964 114.191 41.9825 114.242ZM42.3095 113.828C42.3956 113.897 42.5161 113.88 42.5849 113.794C42.6537 113.708 42.6365 113.587 42.5505 113.518C42.4816 113.449 42.3612 113.466 42.2923 113.552C42.2235 113.639 42.2407 113.759 42.3095 113.828ZM42.6537 113.397C42.7398 113.466 42.8603 113.449 42.9291 113.363C42.998 113.294 42.9808 113.156 42.8947 113.104C42.8087 113.035 42.6882 113.035 42.6365 113.121C42.5677 113.207 42.5677 113.328 42.6537 113.397ZM42.998 112.966C43.084 113.035 43.2045 113.018 43.2734 112.949C43.3422 112.862 43.325 112.742 43.2389 112.673C43.1529 112.604 43.0324 112.621 42.9636 112.707C42.8947 112.776 42.9119 112.897 42.998 112.966ZM35.838 112.897C35.9068 112.828 36.0273 112.811 36.1134 112.897C36.1822 112.966 36.1994 113.087 36.1134 113.173C36.0445 113.242 35.924 113.242 35.8552 113.173C35.7691 113.104 35.7691 112.983 35.838 112.897ZM35.4421 112.535C35.511 112.448 35.6314 112.448 35.7175 112.517C35.7863 112.586 35.8036 112.724 35.7175 112.793C35.6487 112.88 35.5282 112.88 35.4593 112.811C35.3733 112.724 35.3733 112.604 35.4421 112.535ZM38.2304 115.122C38.2992 115.053 38.4197 115.053 38.5058 115.122C38.5746 115.191 38.5918 115.312 38.5058 115.398C38.4369 115.467 38.3164 115.467 38.2476 115.398C38.1615 115.329 38.1615 115.208 38.2304 115.122ZM36.2511 113.259C36.3199 113.19 36.4404 113.19 36.5092 113.259C36.5953 113.328 36.5953 113.449 36.5264 113.535C36.4576 113.604 36.3371 113.621 36.2511 113.535C36.1822 113.466 36.165 113.345 36.2511 113.259ZM36.6469 113.639C36.7158 113.57 36.8362 113.552 36.9223 113.621C36.9911 113.708 36.9911 113.828 36.9223 113.897C36.8535 113.984 36.733 113.984 36.6469 113.915C36.5781 113.846 36.5781 113.725 36.6469 113.639ZM37.0428 114.018C37.1116 113.932 37.2321 113.932 37.3182 114.001C37.387 114.07 37.387 114.191 37.3182 114.277C37.2493 114.363 37.1288 114.363 37.0428 114.277C36.9739 114.208 36.9739 114.087 37.0428 114.018ZM37.4387 114.38C37.5075 114.311 37.628 114.294 37.714 114.38C37.7829 114.449 37.8001 114.57 37.714 114.656C37.6452 114.725 37.5247 114.725 37.4559 114.656C37.3698 114.587 37.3698 114.467 37.4387 114.38ZM37.8345 114.76C37.9034 114.674 38.0411 114.674 38.1099 114.743C38.1787 114.829 38.196 114.95 38.1271 115.019C38.0411 115.105 37.9206 115.105 37.8517 115.036C37.7657 114.95 37.7657 114.829 37.8345 114.76ZM39.0049 115.726C39.0221 115.622 39.1082 115.536 39.2114 115.536C39.3147 115.553 39.4008 115.64 39.4008 115.743C39.3836 115.847 39.2975 115.933 39.1942 115.933C39.091 115.916 39.0049 115.829 39.0049 115.726ZM39.5557 115.76C39.5557 115.657 39.6589 115.571 39.7622 115.571C39.8655 115.571 39.9515 115.674 39.9343 115.778C39.9343 115.881 39.8483 115.967 39.7278 115.95C39.6245 115.95 39.5557 115.864 39.5557 115.76ZM40.1064 115.795C40.1064 115.674 40.1925 115.605 40.2958 115.605C40.4162 115.605 40.4851 115.709 40.4851 115.812C40.4679 115.916 40.3818 116.002 40.2786 115.985C40.1753 115.985 40.0892 115.898 40.1064 115.795ZM40.64 115.812C40.6572 115.709 40.7433 115.64 40.8465 115.64C40.9498 115.64 41.0359 115.743 41.0187 115.847C41.0187 115.95 40.9326 116.036 40.8293 116.019C40.7088 116.019 40.64 115.933 40.64 115.812ZM41.1908 115.847C41.1908 115.743 41.2768 115.657 41.3973 115.674C41.5006 115.674 41.5866 115.76 41.5694 115.881C41.5694 115.985 41.4662 116.071 41.3629 116.054C41.2596 116.054 41.1736 115.95 41.1908 115.847ZM41.7243 115.881C41.7415 115.778 41.8276 115.691 41.9309 115.709C42.0341 115.709 42.1202 115.795 42.1202 115.916C42.103 116.019 42.0169 116.088 41.9137 116.088C41.8104 116.088 41.7243 115.985 41.7243 115.881ZM42.2751 115.916C42.2751 115.812 42.3784 115.726 42.4816 115.743C42.5849 115.743 42.671 115.829 42.6537 115.933C42.6537 116.054 42.5677 116.123 42.4472 116.123C42.3439 116.123 42.2751 116.019 42.2751 115.916ZM42.8259 115.95C42.8259 115.847 42.9119 115.76 43.0152 115.76C43.1357 115.778 43.2045 115.864 43.2045 115.967C43.2045 116.088 43.1012 116.157 42.998 116.157C42.8947 116.14 42.8087 116.054 42.8259 115.95ZM43.3594 115.985C43.3766 115.881 43.4627 115.795 43.566 115.795C43.6692 115.812 43.7553 115.898 43.7553 116.002C43.7381 116.105 43.652 116.192 43.5487 116.192C43.4283 116.174 43.3594 116.088 43.3594 115.985ZM38.4713 115.691C38.4713 115.588 38.5574 115.502 38.6779 115.502C38.7812 115.519 38.85 115.605 38.85 115.709C38.85 115.812 38.7467 115.898 38.6435 115.898C38.5402 115.881 38.4541 115.795 38.4713 115.691ZM35.7519 115.519C35.7519 115.415 35.8552 115.346 35.9585 115.346C36.0617 115.346 36.1478 115.45 36.1306 115.553C36.1306 115.657 36.0445 115.743 35.9412 115.726C35.8208 115.726 35.7519 115.64 35.7519 115.519ZM36.3027 115.553C36.3027 115.45 36.3887 115.364 36.492 115.381C36.6125 115.381 36.6813 115.467 36.6813 115.588C36.6813 115.691 36.5781 115.76 36.4748 115.76C36.3715 115.76 36.2855 115.657 36.3027 115.553ZM36.8363 115.588C36.8535 115.484 36.9395 115.398 37.0428 115.415C37.1461 115.415 37.2321 115.502 37.2321 115.622C37.2149 115.726 37.1288 115.795 37.0256 115.795C36.9223 115.795 36.8363 115.691 36.8363 115.588ZM37.387 115.622C37.387 115.519 37.4903 115.433 37.5936 115.45C37.6968 115.45 37.7829 115.536 37.7657 115.64C37.7657 115.76 37.6624 115.829 37.5591 115.829C37.4559 115.829 37.3698 115.726 37.387 115.622ZM37.9206 115.657C37.9378 115.553 38.0238 115.467 38.1271 115.467C38.2304 115.484 38.3164 115.571 38.3164 115.674C38.2992 115.795 38.2132 115.864 38.1099 115.864C38.0066 115.847 37.9206 115.76 37.9206 115.657ZM44.4437 116.054C44.4437 115.933 44.5298 115.864 44.6503 115.864C44.7536 115.881 44.8224 115.967 44.8224 116.071C44.8224 116.174 44.7191 116.261 44.6159 116.243C44.5126 116.243 44.4265 116.157 44.4437 116.054ZM34.8053 118.952L34.6504 119.642L43.9274 121.056L46.337 116.157L44.5298 110.965L35.0118 111.258L35.0807 111.965L43.9274 111.758L45.3732 116.14L43.4283 120.194L34.8053 118.952ZM34.9258 119.124L34.8225 119.521L43.8413 120.901L46.1649 116.14L44.4265 111.12L35.1839 111.396L35.2184 111.81L44.0307 111.603L45.5453 116.157L43.5143 120.366L34.9258 119.124ZM47.2148 116.243L45.4937 110.792L47.1287 110.723L48.9704 116.416L46.4231 121.556L44.8396 121.298L47.2148 116.243ZM46.4919 111.569C46.3887 111.603 46.2854 111.551 46.251 111.448C46.2165 111.362 46.2682 111.241 46.3714 111.206C46.4747 111.172 46.578 111.224 46.6124 111.327C46.6468 111.431 46.5952 111.534 46.4919 111.569ZM48.1098 116.381C48.0065 116.33 47.8861 116.381 47.8516 116.468C47.8 116.571 47.8344 116.692 47.9377 116.726C48.041 116.778 48.1442 116.744 48.1959 116.64C48.2475 116.537 48.1959 116.433 48.1098 116.381ZM45.9412 120.797C45.8551 120.746 45.7346 120.797 45.683 120.884C45.6486 120.987 45.683 121.091 45.7863 121.142C45.8723 121.194 45.9928 121.16 46.0444 121.056C46.0788 120.953 46.0444 120.849 45.9412 120.797ZM47.8688 116.864C47.7656 116.83 47.6623 116.864 47.6107 116.968C47.559 117.054 47.5935 117.175 47.6967 117.227C47.8 117.261 47.9033 117.227 47.9549 117.123C48.0065 117.037 47.9549 116.916 47.8688 116.864ZM47.6279 117.365C47.5246 117.313 47.4213 117.347 47.3697 117.451C47.3181 117.554 47.3697 117.658 47.4558 117.71C47.559 117.761 47.6623 117.727 47.7139 117.623C47.7656 117.52 47.7139 117.416 47.6279 117.365ZM47.3869 117.848C47.3009 117.813 47.1804 117.848 47.1287 117.951C47.0771 118.037 47.1287 118.158 47.2148 118.21C47.3181 118.244 47.4213 118.21 47.473 118.106C47.5246 118.02 47.4902 117.899 47.3869 117.848ZM47.146 118.348C47.0599 118.296 46.9394 118.331 46.8878 118.434C46.8362 118.538 46.8878 118.641 46.9738 118.693C47.0771 118.745 47.1804 118.693 47.232 118.607C47.2837 118.503 47.2492 118.382 47.146 118.348ZM46.905 118.831C46.8189 118.796 46.6985 118.831 46.6468 118.917C46.5952 119.021 46.6468 119.141 46.7329 119.176C46.8362 119.228 46.9566 119.193 46.9911 119.09C47.0427 119.003 47.0083 118.883 46.905 118.831ZM46.664 119.331C46.578 119.279 46.4575 119.314 46.4059 119.417C46.3714 119.504 46.4059 119.624 46.4919 119.676C46.5952 119.711 46.7157 119.676 46.7501 119.59C46.8017 119.486 46.7673 119.366 46.664 119.331ZM46.4231 119.814C46.337 119.762 46.2165 119.814 46.1649 119.9C46.1305 120.004 46.1649 120.125 46.251 120.159C46.3542 120.211 46.4747 120.176 46.5091 120.073C46.5608 119.987 46.5263 119.866 46.4231 119.814ZM46.1821 120.314C46.0961 120.263 45.9756 120.297 45.9239 120.401C45.8895 120.487 45.9239 120.608 46.0272 120.659C46.1133 120.694 46.2337 120.659 46.2682 120.573C46.3198 120.47 46.2854 120.349 46.1821 120.314ZM48.127 116.209C48.0237 116.243 47.9033 116.192 47.8688 116.088C47.8344 115.985 47.8861 115.881 47.9893 115.847C48.0926 115.812 48.1959 115.864 48.2303 115.967C48.2647 116.071 48.2131 116.174 48.127 116.209ZM47.9377 115.691C47.8344 115.726 47.7312 115.674 47.6967 115.571C47.6623 115.484 47.7139 115.364 47.8172 115.329C47.9205 115.295 48.0238 115.346 48.0582 115.45C48.0926 115.553 48.041 115.657 47.9377 115.691ZM47.7656 115.174C47.6623 115.208 47.5418 115.157 47.5074 115.053C47.473 114.967 47.5246 114.846 47.6279 114.812C47.7312 114.777 47.8344 114.829 47.8688 114.932C47.9205 115.036 47.8516 115.139 47.7656 115.174ZM47.5762 114.656C47.473 114.708 47.3697 114.656 47.3353 114.553C47.3009 114.449 47.3525 114.329 47.4558 114.294C47.559 114.26 47.6623 114.311 47.6967 114.415C47.7312 114.518 47.6795 114.622 47.5762 114.656ZM47.4041 114.156C47.3009 114.191 47.1804 114.139 47.146 114.035C47.1115 113.932 47.1632 113.828 47.2664 113.777C47.3697 113.742 47.473 113.811 47.5246 113.897C47.559 114.001 47.4902 114.122 47.4041 114.156ZM47.2148 113.639C47.1115 113.673 47.0083 113.621 46.9738 113.518C46.9394 113.414 46.9911 113.311 47.0943 113.276C47.1976 113.242 47.3009 113.294 47.3353 113.397C47.3697 113.483 47.3181 113.604 47.2148 113.639ZM47.0427 113.121C46.9394 113.156 46.8189 113.104 46.7845 113C46.7501 112.897 46.8189 112.793 46.905 112.759C47.0083 112.724 47.1115 112.776 47.1632 112.88C47.1976 112.966 47.146 113.087 47.0427 113.121ZM46.8534 112.604C46.7501 112.638 46.6468 112.586 46.6124 112.483C46.578 112.379 46.6296 112.276 46.7329 112.241C46.8362 112.207 46.9394 112.259 46.9738 112.362C47.0083 112.466 46.9566 112.569 46.8534 112.604ZM46.6812 112.086C46.578 112.121 46.4747 112.069 46.4403 111.965C46.3887 111.862 46.4403 111.758 46.5436 111.724C46.6468 111.689 46.7673 111.741 46.8017 111.845C46.8362 111.948 46.7845 112.052 46.6812 112.086ZM45.0634 121.177L47.3869 116.261L45.7002 110.93L47.0255 110.879L48.8155 116.399L46.337 121.384L45.0634 121.177ZM33.1013 115.415L32.585 111.396L34.1685 111.31L34.7537 115.553L33.807 119.469L32.1375 119.21L33.1013 115.415ZM33.3939 111.707C33.4972 111.689 33.6005 111.758 33.6177 111.862C33.6177 111.983 33.5488 112.069 33.4456 112.086C33.3423 112.103 33.239 112.034 33.2218 111.914C33.2218 111.81 33.2907 111.724 33.3939 111.707ZM32.9981 119.038C33.1013 119.072 33.2046 119.003 33.239 118.9C33.2562 118.796 33.2046 118.693 33.1013 118.676C32.9981 118.641 32.8776 118.71 32.8604 118.814C32.826 118.917 32.8948 119.021 32.9981 119.038ZM33.1358 118.52C33.239 118.538 33.3423 118.486 33.3767 118.382C33.3939 118.279 33.3251 118.175 33.2218 118.141C33.1358 118.106 33.0153 118.175 32.9981 118.279C32.9637 118.382 33.0325 118.486 33.1358 118.52ZM33.2735 117.986C33.3767 118.02 33.48 117.951 33.4972 117.848C33.5316 117.744 33.4628 117.641 33.3595 117.606C33.2562 117.589 33.153 117.641 33.1358 117.744C33.1013 117.848 33.1702 117.968 33.2735 117.986ZM33.4112 117.451C33.5144 117.485 33.6177 117.416 33.6349 117.313C33.6693 117.209 33.6005 117.106 33.4972 117.089C33.3939 117.054 33.2907 117.123 33.2735 117.227C33.239 117.33 33.3079 117.434 33.4112 117.451ZM33.5316 116.933C33.6521 116.951 33.7554 116.899 33.7726 116.795C33.807 116.692 33.7382 116.588 33.6349 116.554C33.5316 116.537 33.4284 116.588 33.3939 116.692C33.3767 116.795 33.4456 116.899 33.5316 116.933ZM33.6693 116.399C33.7726 116.433 33.8759 116.364 33.9103 116.261C33.9447 116.157 33.8759 116.054 33.7726 116.019C33.6693 116.002 33.5661 116.054 33.5316 116.157C33.5144 116.261 33.5661 116.381 33.6693 116.399ZM33.4628 112.241C33.5661 112.224 33.6693 112.31 33.6865 112.414C33.6865 112.517 33.6177 112.621 33.5144 112.621C33.4112 112.638 33.3079 112.569 33.2907 112.466C33.2907 112.362 33.3595 112.259 33.4628 112.241ZM33.5316 112.793C33.6521 112.776 33.7382 112.845 33.7554 112.949C33.7726 113.052 33.6865 113.156 33.5833 113.173C33.48 113.19 33.3939 113.104 33.3767 113C33.3595 112.897 33.4284 112.793 33.5316 112.793ZM33.6177 113.328C33.721 113.311 33.807 113.38 33.8242 113.501C33.8414 113.604 33.7726 113.69 33.6521 113.708C33.5488 113.725 33.4628 113.656 33.4456 113.552C33.4284 113.432 33.4972 113.345 33.6177 113.328ZM33.6865 113.863C33.7898 113.863 33.8759 113.932 33.8931 114.035C33.9103 114.139 33.8414 114.242 33.7382 114.242C33.6177 114.26 33.5316 114.191 33.5144 114.087C33.4972 113.984 33.5833 113.88 33.6865 113.863ZM33.7554 114.415C33.8587 114.398 33.9619 114.467 33.9619 114.57C33.9791 114.674 33.9103 114.777 33.807 114.794C33.7037 114.812 33.6005 114.725 33.5833 114.622C33.5661 114.518 33.6521 114.432 33.7554 114.415ZM33.8242 114.95C33.9275 114.932 34.0308 115.019 34.048 115.122C34.048 115.226 33.9791 115.312 33.8759 115.329C33.7726 115.346 33.6693 115.277 33.6521 115.174C33.6521 115.053 33.721 114.967 33.8242 114.95ZM33.807 115.864C33.9103 115.898 34.0136 115.829 34.048 115.726C34.0652 115.622 34.0136 115.519 33.9103 115.502C33.807 115.467 33.7038 115.536 33.6693 115.64C33.6521 115.743 33.7037 115.847 33.807 115.864ZM32.3268 119.09L33.239 115.433L32.7399 111.534L34.048 111.465L34.5988 115.553L33.6865 119.297L32.3268 119.09ZM16.7332 107.394L14.9948 108.998C14.6334 108.619 14.2891 108.222 13.9277 107.843L16.7332 107.394ZM15.1669 109.154L17.1463 107.325L17.2323 107.429L15.253 109.257L15.1669 109.154ZM12.4819 106.152L14.4268 104.358L14.5645 104.496L12.6024 106.29L12.4819 106.152ZM12.7573 106.48L14.4612 104.893L13.7728 107.653C13.4285 107.273 13.0843 106.877 12.7573 106.48ZM6.13083 94.4911L6.18247 94.6636L7.92085 93.7666L7.83481 93.5941L6.13083 94.4911ZM6.25133 94.9051C6.38902 95.2846 6.50952 95.6814 6.64721 96.0609L7.73156 94.1289L6.25133 94.9051ZM6.76766 96.3714L6.85375 96.6129L9.55596 96.8889L9.46989 96.7336L6.88815 96.4749L8.14461 94.1979L8.05852 94.0426L6.76766 96.3714ZM6.957 96.8889C7.12912 97.2856 7.28404 97.6824 7.45615 98.0791L9.28058 97.1304L6.957 96.8889ZM7.55942 98.2861L7.61106 98.4069L9.7625 97.2856L9.69364 97.1649L7.55942 98.2861ZM8.71256 100.58L8.81583 100.753L10.9329 99.3556L10.8296 99.2004L8.71256 100.58ZM8.9191 100.943C9.17727 101.391 9.43546 101.805 9.69364 102.236L10.778 99.7351L8.9191 100.943ZM9.883 102.547C10.1584 102.978 10.4337 103.392 10.7263 103.806L12.6196 102.564L9.883 102.547ZM10.864 103.996L10.9329 104.099L13.1015 102.685L13.0327 102.564L10.864 103.996ZM67.1113 114.467L66.8188 113.604L66.0442 113.88L66.3712 114.812C66.595 114.691 66.8532 114.587 67.1113 114.467ZM65.6828 115.139L65.3386 114.139L64.564 114.415L64.9599 115.519C65.0976 115.45 65.2353 115.381 65.3902 115.312C65.459 115.26 65.5623 115.191 65.6828 115.139ZM63.1527 116.261L62.7224 115.053L61.5176 115.502L61.9307 116.709C62.3438 116.571 62.7568 116.416 63.1527 116.261ZM59.7276 117.434L59.3145 116.278L58.54 116.554L58.9531 117.692L59.7276 117.434ZM58.2302 117.917L57.8343 116.813L57.0598 117.089L57.4557 118.175C57.7138 118.089 57.972 118.003 58.2302 117.917ZM14.7711 104.72L14.8915 104.858L14.2547 107.377L16.8192 106.963L16.9397 107.101L14.0482 107.567L14.7711 104.72ZM15.1153 105.1L16.5955 106.721L14.6162 107.049L15.1153 105.1ZM18.9018 106.687L15.339 102.788L14.3063 103.737L17.8691 107.618L18.9018 106.687ZM19.814 106.307L15.8037 101.926L15.5111 102.202L19.5214 106.583L19.814 106.307ZM18.6609 106.67L15.3046 103.013L15.012 103.289L18.3683 106.946L18.6609 106.67ZM18.1962 107.101L14.8399 103.444L14.5473 103.72L17.9036 107.377L18.1962 107.101ZM11.105 99.6144L11.2083 99.7524L10.1756 102.15H12.7745L12.8606 102.305L9.95179 102.288L11.105 99.6144ZM11.3804 100.028L12.5852 101.874H10.5886L11.3804 100.028ZM14.8571 102.219L11.9828 97.8031L10.8124 98.5621L13.704 102.978L14.8571 102.219ZM15.8382 101.995L12.5852 97.0096L12.241 97.2339L15.4939 102.219L15.8382 101.995ZM14.6333 102.167L11.9139 98.0101L11.5869 98.2344L14.2891 102.392L14.6333 102.167ZM14.0998 102.512L11.3976 98.3551L11.0534 98.5794L13.7728 102.737L14.0998 102.512ZM8.2995 94.4911L9.31498 96.4404L7.31844 96.2506L8.2995 94.4911ZM11.5525 97.0096L9.10844 92.3349L7.88644 92.9731L10.3133 97.6479L11.5525 97.0096ZM12.5335 96.8889L9.77968 91.6104L9.43548 91.7829L12.1721 97.0614L12.5335 96.8889ZM11.3115 96.9406L9.02242 92.5246L8.67816 92.7144L10.9673 97.1304L11.3115 96.9406ZM10.7608 97.2339L8.47163 92.8179L8.11021 93.0076L10.4165 97.4064L10.7608 97.2339Z" fill="#2B2A29"/>
<path d="M98.931 74.4469H96.9517V83.5205H94.3355V74.4124H92.3906L93.0963 72.1699H98.931V74.4469ZM105.041 83.5377H102.683V82.3647L100.532 83.7792C100.274 83.5722 100.033 83.2272 99.8088 82.7615C99.5851 82.2957 99.4646 81.899 99.4646 81.554C99.4646 80.9502 99.6711 80.3982 100.067 79.898C100.463 79.3977 100.962 79.0527 101.547 78.8457L102.683 78.449V78.1385C102.683 77.759 102.545 77.5692 102.27 77.5692C101.788 77.5692 101.134 77.9315 100.325 78.656V75.9995C101.151 75.6717 102.012 75.4992 102.907 75.4992C103.492 75.4992 103.974 75.6372 104.353 75.9132C104.817 76.2065 105.041 76.6205 105.041 77.1725V83.5377ZM102.683 81.899V79.8117C102.408 79.829 102.184 79.9497 102.012 80.1567C101.84 80.3465 101.754 80.588 101.754 80.8812C101.754 81.5367 102.064 81.8645 102.683 81.899ZM110.824 73.6534L109.361 75.1197L107.915 73.6534L109.361 72.1872L110.824 73.6534ZM112.287 83.5205H109.878V82.5545L108.139 83.7792C107.416 83.348 106.934 82.8477 106.659 82.2612C106.435 81.761 106.332 81.071 106.332 80.1567C106.332 79.6565 106.332 78.8975 106.349 77.897C106.349 76.9137 106.349 76.1547 106.349 75.6545H108.724C108.724 76.0167 108.707 76.5687 108.707 77.2932C108.69 78.035 108.69 78.5697 108.69 78.9492C108.69 80.5017 108.931 81.4332 109.413 81.761C109.482 81.7955 109.619 81.8817 109.843 82.0025V75.62H112.287V83.5205ZM123.079 83.486H120.721V80.6052C120.721 79.2942 120.48 78.4145 120.015 78.0005C119.929 77.9487 119.809 77.8625 119.636 77.759V83.486H117.365V80.2257C117.365 79.6392 117.279 79.1562 117.141 78.794C116.986 78.4317 116.693 78.1212 116.263 77.8452V83.486H113.819V78.38L116.762 75.4992C116.986 75.6545 117.21 75.827 117.399 75.9822C117.881 76.379 118.242 76.7585 118.483 77.138L120.136 75.413C121.237 76.034 121.994 76.7067 122.425 77.4485C122.872 78.2075 123.079 79.1735 123.079 80.3982V83.486ZM133.354 83.486H130.962V75.62H133.354V83.486ZM130.222 81.7782L128.036 83.486H124.352V75.62H126.71V78.2937L128.673 76.9482C129.327 77.3967 129.757 77.9315 129.981 78.5697C130.153 79.0355 130.222 79.7082 130.222 80.6052V81.7782ZM127.812 82.6062V81.1055C127.812 80.4327 127.778 79.967 127.691 79.7255C127.537 79.277 127.227 78.9837 126.745 78.8112V80.1222C126.745 80.7777 126.796 81.2435 126.883 81.5367C127.037 81.9335 127.347 82.2957 127.812 82.6062ZM140.6 81.9507L138.466 83.5377H137.175V86.9877H134.697V75.62H137.089V76.6895L139.103 75.275C139.688 75.896 140.084 76.448 140.273 76.9137C140.497 77.4312 140.6 78.0867 140.6 78.9147V81.9507ZM138.208 82.5372V79.898C138.208 79.208 138.156 78.6732 138.053 78.311C137.898 77.69 137.588 77.3105 137.106 77.1552C137.106 77.4485 137.106 77.897 137.106 78.5007C137.089 79.1045 137.089 79.553 137.089 79.8462C137.089 81.209 137.468 82.1232 138.208 82.5372ZM146.831 77.207L145.282 78.8802L144.077 77.5002V79.2942C144.077 80.0877 144.232 80.6742 144.559 81.0365C144.851 81.3815 145.402 81.6575 146.177 81.8645L144.318 83.7447C143.371 83.2962 142.752 82.8822 142.442 82.5027C142.046 82.0197 141.839 81.3125 141.839 80.3637V77.3277L144.765 75.3957L146.831 77.207ZM153.147 83.486H150.721V81.1227C150.721 80.7605 150.652 80.45 150.497 80.2085C150.307 79.898 150.049 79.76 149.722 79.76V83.486H147.347V75.62H149.739V78.656C150.066 78.6387 150.29 78.5697 150.411 78.4662C150.6 78.311 150.703 77.8625 150.738 77.069C150.721 77.2587 150.721 76.7757 150.721 75.62H153.079V76.655C153.079 77.3967 152.992 77.9315 152.786 78.2765C152.562 78.6732 152.132 78.9837 151.478 79.2425C152.097 79.6047 152.511 79.9152 152.717 80.1912C153.01 80.5362 153.147 81.0365 153.147 81.6747V83.486ZM160.376 83.5205H157.967V82.5545L156.228 83.7792C155.505 83.348 155.023 82.8477 154.765 82.2612C154.559 81.7782 154.438 81.071 154.438 80.1567V75.6545H156.813V78.9492C156.813 79.6392 156.831 80.1395 156.882 80.4672C156.986 81.1227 157.192 81.554 157.502 81.761C157.571 81.7955 157.708 81.8817 157.932 82.0025V75.62H160.376V83.5205ZM166.194 73.6534L164.731 75.1197L163.268 73.6534L164.731 72.1872L166.194 73.6534ZM167.657 83.5205H165.23V82.5545L163.509 83.7792C162.786 83.348 162.287 82.8477 162.029 82.2612C161.805 81.761 161.684 81.071 161.684 80.1567C161.684 79.6565 161.684 78.8975 161.701 77.897C161.701 76.9137 161.719 76.1547 161.719 75.6545H164.077C164.077 76.0167 164.077 76.5687 164.059 77.2932C164.059 78.035 164.042 78.5697 164.042 78.9492C164.042 80.5017 164.283 81.4332 164.765 81.761C164.834 81.7955 164.972 81.8817 165.195 82.0025V75.62H167.657V83.5205ZM98.1909 96.8375H95.7641V94.457C95.7641 94.0947 95.6952 93.7842 95.5403 93.5427C95.351 93.2495 95.0928 93.0942 94.7658 93.0942V96.8375H92.3906V88.9715H94.783V92.0075C95.1101 91.973 95.3338 91.904 95.4543 91.8177C95.6436 91.6625 95.7469 91.1967 95.7813 90.4205C95.7641 90.6102 95.7641 90.1272 95.7641 88.9715H98.1221V90.0065C98.1221 90.731 98.036 91.2657 97.8295 91.6107C97.6057 92.0075 97.1582 92.3352 96.5214 92.5767C97.141 92.939 97.5541 93.2667 97.7606 93.5255C98.036 93.8877 98.1909 94.3707 98.1909 95.009V96.8375ZM105.403 95.285L103.268 96.8892H101.96V100.322H99.4818V88.9715H101.874V90.041L103.905 88.6092C104.49 89.2475 104.869 89.7995 105.076 90.248C105.282 90.7655 105.403 91.4382 105.403 92.249V95.285ZM103.01 95.8887V93.2495C103.01 92.5422 102.959 92.0075 102.855 91.6452C102.7 91.0415 102.373 90.6447 101.909 90.4895C101.909 90.7827 101.909 91.2312 101.891 91.835C101.891 92.4387 101.874 92.8872 101.874 93.1805C101.874 94.5605 102.253 95.4575 103.01 95.8887ZM111.65 96.8892H109.31V95.699L107.158 97.1307C106.883 96.9065 106.642 96.5615 106.418 96.0957C106.194 95.6472 106.091 95.2332 106.091 94.8882C106.091 94.2845 106.298 93.7325 106.693 93.2322C107.089 92.732 107.571 92.387 108.156 92.1972L109.31 91.8005V91.49C109.31 91.0932 109.172 90.9035 108.879 90.9035C108.397 90.9035 107.761 91.2657 106.952 92.0075V89.3337C107.761 89.006 108.621 88.8507 109.533 88.8507C110.101 88.8507 110.583 88.9887 110.979 89.2475C111.427 89.5407 111.65 89.972 111.65 90.524V96.8892ZM109.31 95.2505V93.1632C109.017 93.1805 108.793 93.284 108.621 93.491C108.449 93.698 108.363 93.9395 108.363 94.2155C108.363 94.871 108.673 95.216 109.31 95.2505ZM118.673 91.007L115.729 94.1982C116.16 94.595 116.693 94.9227 117.382 95.1642L115.626 97.0445C114.748 96.6822 114.112 96.2855 113.716 95.8025C113.268 95.2505 113.044 94.5432 113.044 93.6462V90.5585L116.039 88.6092L118.673 91.007ZM116.315 91.9385L115.299 90.8172V92.9562L116.315 91.9385ZM124.8 95.285L122.356 97.1135L120.015 96.113L119.017 96.941V88.1607L121.099 86.1425L121.771 86.1597C122.545 86.177 123.182 86.4357 123.664 86.9532C124.163 87.4535 124.421 88.1262 124.473 88.9715L124.49 89.4027L123.199 90.5067C123.905 90.9207 124.37 91.5072 124.593 92.2317C124.731 92.7147 124.8 93.4737 124.8 94.5432V95.285ZM122.545 89.3682V89.0922C122.545 88.6955 122.425 88.3677 122.167 88.0917C121.908 87.7985 121.581 87.626 121.186 87.5225V90.317L122.545 89.3682ZM122.511 95.6817V94.733C122.511 94.0775 122.459 93.5772 122.339 93.2667C122.149 92.801 121.771 92.4732 121.22 92.2317V93.0252C121.22 93.7325 121.289 94.25 121.426 94.5432C121.599 94.9572 121.96 95.3367 122.511 95.6817ZM131.685 91.007L128.741 94.1982C129.154 94.595 129.705 94.9227 130.376 95.1642L128.621 97.0445C127.743 96.6822 127.106 96.2855 126.71 95.8025C126.263 95.2505 126.056 94.5432 126.056 93.6462V90.5585L129.034 88.6092L131.685 91.007ZM129.309 91.9385L128.311 90.8172V92.9562L129.309 91.9385ZM137.691 96.8375C137.691 97.631 137.416 98.3037 136.865 98.8385C136.297 99.425 135.54 99.7182 134.611 99.7182C133.595 99.7182 132.872 99.6837 132.425 99.6147V97.3205C132.924 97.6655 133.561 97.838 134.318 97.838C134.851 97.838 135.196 97.5965 135.333 97.0962C135.385 96.8892 135.419 96.4235 135.419 95.699L133.509 97.0445C132.803 96.6132 132.339 96.044 132.098 95.3022C131.977 94.8365 131.891 94.0602 131.891 93.008V90.4895L134.352 88.6782L136.693 89.6615L137.691 88.8507V96.8375ZM135.419 95.354V92.8355C135.419 92.1627 135.351 91.6797 135.23 91.3692C135.092 90.9897 134.765 90.6275 134.266 90.2997V92.9562C134.266 93.5945 134.318 94.0775 134.421 94.3707C134.593 94.802 134.92 95.1297 135.419 95.354ZM144.869 96.8547H142.442V94.0257L140.721 95.2505C139.998 94.8192 139.516 94.3017 139.258 93.7152C139.034 93.2322 138.931 92.5422 138.931 91.6107V89.006H141.289V91.1967C141.289 91.8867 141.34 92.3352 141.444 92.5767C141.564 92.87 141.891 93.1805 142.425 93.4737V88.9715H144.869V96.8547ZM152.029 91.007L149.085 94.1982C149.499 94.595 150.049 94.9227 150.721 95.1642L148.965 97.0445C148.087 96.6822 147.45 96.2855 147.054 95.8025C146.607 95.2505 146.4 94.5432 146.4 93.6462V90.5585L149.378 88.6092L152.029 91.007ZM149.653 91.9385L148.655 90.8172V92.9562L149.653 91.9385ZM157.554 90.5585L155.987 92.2317L154.782 90.8517V92.6457C154.782 93.422 154.955 94.0085 155.264 94.388C155.574 94.7157 156.108 94.9917 156.882 95.216L155.041 97.0962C154.094 96.6477 153.457 96.2337 153.165 95.8542C152.751 95.3712 152.545 94.6467 152.545 93.698V90.662L155.471 88.73L157.554 90.5585ZM163.853 96.8375H161.426V94.457C161.426 94.0947 161.357 93.7842 161.202 93.5427C161.03 93.2495 160.755 93.0942 160.428 93.0942V96.8375H158.07V88.9715H160.462V92.0075C160.772 91.973 160.996 91.904 161.116 91.8177C161.306 91.6625 161.409 91.1967 161.443 90.4205C161.443 90.6102 161.426 90.1272 161.426 88.9715H163.801V90.0065C163.801 90.731 163.698 91.2657 163.491 91.6107C163.268 92.0075 162.837 92.3352 162.183 92.5767C162.803 92.939 163.216 93.2667 163.423 93.5255C163.715 93.8877 163.853 94.3707 163.853 95.009V96.8375ZM171.099 96.8547H168.672V95.8887L166.934 97.1307C166.228 96.6822 165.729 96.182 165.488 95.5955C165.264 95.1125 165.161 94.4225 165.161 93.491V89.006H167.519V92.2835C167.519 92.9735 167.536 93.491 167.588 93.8015C167.691 94.457 167.898 94.8882 168.207 95.0952C168.276 95.1297 168.414 95.216 168.638 95.354V88.9715H171.099V96.8547ZM176.899 87.005L175.436 88.4712L173.973 87.005L175.436 85.5387L176.899 87.005ZM178.362 96.8547H175.935V95.8887L174.214 97.1307C173.491 96.6822 172.992 96.182 172.734 95.5955C172.51 95.1125 172.39 94.4052 172.39 93.491C172.39 92.9907 172.39 92.249 172.407 91.2485C172.424 90.248 172.424 89.5062 172.424 89.006H174.782C174.782 89.3682 174.782 89.903 174.765 90.6447C174.765 91.3692 174.765 91.9212 174.765 92.2835C174.765 93.836 175.006 94.7847 175.488 95.0952C175.539 95.1297 175.677 95.216 175.901 95.354V88.9715H178.362V96.8547ZM101.65 110.172H99.2925V107.291C99.2925 105.963 99.0687 105.1 98.604 104.686C98.5179 104.634 98.3802 104.548 98.2081 104.445V110.172H95.9362V106.911C95.9362 106.325 95.8674 105.842 95.7125 105.48C95.5575 105.117 95.265 104.807 94.8519 104.531V110.172H92.3906V105.066L95.3338 102.185C95.5748 102.34 95.7813 102.513 95.9878 102.668C96.4698 103.065 96.8312 103.444 97.055 103.824L98.7245 102.099C99.8088 102.72 100.566 103.392 101.014 104.134C101.444 104.876 101.65 105.859 101.65 107.084V110.172ZM108.656 109.93C108.656 110.896 108.363 111.655 107.795 112.207C107.227 112.776 106.452 113.052 105.506 113.052C105.437 113.052 104.835 112.983 103.733 112.811H103.75V110.292C104.146 110.551 104.37 110.706 104.439 110.741C104.68 110.879 104.938 110.965 105.196 110.965C105.73 110.965 106.074 110.741 106.211 110.327C106.263 110.154 106.298 109.723 106.298 109.05L104.576 110.223C103.94 109.74 103.526 109.326 103.32 108.999C103.045 108.567 102.89 107.998 102.89 107.308V102.306H105.299V106.618C105.299 107.205 105.334 107.619 105.403 107.808C105.54 108.153 105.833 108.395 106.298 108.55V102.306L108.656 102.34V109.93ZM114.68 107.791L112.649 110.379C111.323 110.292 110.153 109.913 109.137 109.223L110.583 107.481C111.134 108.343 111.909 108.826 112.907 108.895C112.907 108.24 112.717 107.688 112.356 107.239C112.029 106.842 111.513 106.497 110.79 106.17C111.306 105.738 111.581 105.48 111.633 105.411C111.926 105.083 112.081 104.772 112.081 104.462C112.081 103.962 111.771 103.703 111.168 103.703C110.721 103.703 110.239 103.962 109.723 104.479V102.478C110.428 102.219 111.065 102.081 111.633 102.081C112.201 102.081 112.735 102.254 113.182 102.582C113.664 102.927 113.905 103.358 113.905 103.858C113.905 104.583 113.595 105.135 112.958 105.497C114.094 105.98 114.68 106.756 114.68 107.791ZM121.065 104.358L118.122 107.532C118.552 107.946 119.086 108.257 119.774 108.498L118.019 110.379C117.141 110.034 116.504 109.62 116.108 109.137C115.661 108.585 115.437 107.877 115.437 106.998V103.893L118.432 101.961L121.065 104.358ZM118.707 105.29L117.709 104.151V106.29L118.707 105.29ZM126.091 100.339L124.628 101.805L123.165 100.339L124.628 98.873L126.091 100.339ZM127.554 110.206H125.127V109.24L123.406 110.465C122.683 110.034 122.201 109.533 121.926 108.947C121.702 108.447 121.581 107.757 121.581 106.842C121.581 106.342 121.599 105.583 121.599 104.583C121.616 103.599 121.616 102.84 121.616 102.34H123.974C123.974 102.702 123.974 103.254 123.974 103.979C123.957 104.721 123.957 105.255 123.957 105.635C123.957 107.187 124.198 108.119 124.679 108.447C124.731 108.481 124.869 108.567 125.11 108.688V102.306H127.554V110.206Z" fill="#2B2A29"/>
</svg>
