<svg width="185" height="153" viewBox="0 0 185 153" fill="none" xmlns="http://www.w3.org/2000/svg">
<g clip-path="url(#clip0_4355_11266)">
<path d="M49.9375 64.0075L59.6421 54.1919H79.2267V78.3024H49.9375V64.0075Z" fill="#B39F44"/>
<path d="M49.9375 95.997H79.2267V80.564H49.9375V95.997Z" fill="#B39F44"/>
<path d="M81.3438 54.1919H91.2676V86.1815L81.563 95.9971L81.3438 54.1919Z" fill="#B39F44"/>
<path d="M18.5703 105.768H38.1696L47.8742 95.9524V63.9629L32.8934 94.9767L18.5703 67.5698V105.768Z" fill="black"/>
<path d="M6.57031 73.7638L16.2457 63.9629V105.768H6.61416L6.57031 73.7638Z" fill="black"/>
<path d="M54.1012 109.449H53.0489L51.4412 101.585V109.464H50.4766V99.5747H52.0112L53.6189 107.469L55.1681 99.5747H56.6881V109.464H55.6504V101.511L54.1012 109.449Z" fill="black"/>
<path d="M60.854 107.291C60.5178 108.769 60.0063 109.568 58.2378 109.479V108.489C59.0709 108.533 59.4509 108.267 59.6263 107.513L59.8601 106.863L57.6094 99.5747H58.6909L59.6848 103.004L60.3571 105.503L60.9271 103.004L61.8186 99.5747H62.944L60.854 107.291Z" fill="black"/>
<path d="M68.1883 101.969V102.221C68.1883 103.241 67.7937 103.965 66.9898 104.261C67.8083 104.542 68.1883 105.31 68.1883 106.301V107.084C68.1883 108.577 67.4868 109.568 65.9814 109.568C64.4906 109.568 63.7891 108.577 63.7891 107.084V106.123H64.8121V107.129C64.8121 108.03 65.1775 108.562 65.9521 108.562C66.756 108.562 67.1068 108.045 67.1068 107.055V106.271C67.1068 105.31 66.6683 104.808 65.8498 104.808H65.3821V103.817H65.9083C66.6244 103.817 67.1068 103.315 67.1068 102.457V101.999C67.1068 100.994 66.756 100.476 65.9521 100.476C65.1775 100.476 64.8121 101.023 64.8121 101.91V102.576H63.8037V101.955C63.8037 100.432 64.4906 99.4712 65.9814 99.4712C67.4868 99.4712 68.1883 100.462 68.1883 101.969Z" fill="black"/>
<path d="M72.8378 103.95V104.941H70.4555V108.459H73.3932V109.464H69.3594V99.5747H73.3932V100.58H70.4555V103.95H72.8378Z" fill="black"/>
<path d="M77.0869 104.882L75.6254 109.464H74.5V99.5747H75.4646V106.951L76.4731 103.832L77.8908 99.5747H79.1038V109.464H78.1392V101.6L77.0869 104.882Z" fill="black"/>
<path d="M51.5805 117.462V121.912H50.4844V112.022H51.5805V116.472H53.9775V112.022H55.0736V121.912H53.9775V117.462H51.5805Z" fill="black"/>
<path d="M57.1841 119.575C57.1841 120.477 57.5641 121.009 58.3533 121.009C59.1426 121.009 59.508 120.477 59.508 119.575V114.357C59.508 113.47 59.1426 112.923 58.3533 112.923C57.5641 112.923 57.1841 113.47 57.1841 114.357V119.575ZM56.1172 114.416C56.1172 112.894 56.848 111.918 58.3533 111.918C59.8587 111.918 60.5895 112.894 60.5895 114.416V119.516C60.5895 121.024 59.8587 122.014 58.3533 122.014C56.848 122.014 56.1172 121.024 56.1172 119.516V114.416Z" fill="black"/>
<path d="M63.6858 117.018C64.4896 117.018 64.8842 116.649 64.8842 115.688V114.387C64.8842 113.471 64.5627 113.027 63.7588 113.027H62.7212V117.018H63.6858ZM63.7588 112.022C65.2935 112.022 65.9512 112.938 65.9512 114.432V115.629C65.9512 117.196 65.235 118.009 63.6858 118.009H62.7212V121.912H61.625V112.022H63.7588Z" fill="black"/>
<path d="M69.3848 117.314L67.9379 121.912H66.8125V112.022H67.7625V119.398L68.771 116.279L70.2033 112.022H71.4163V121.912H70.4371V114.047L69.3848 117.314Z" fill="black"/>
<path d="M74.6011 113.027L74.3672 119.458C74.3234 121.025 73.8995 121.912 72.4087 121.926H72.2188V120.921C73.1249 120.921 73.2857 120.463 73.3149 119.517L73.578 112.022H77.5534V121.912H76.4718V113.027H74.6011Z" fill="black"/>
<path d="M80.8604 120.906C81.6496 120.906 81.9712 120.463 81.9712 119.546V118.245C81.9712 117.285 81.5912 116.915 80.7727 116.915H79.8081V120.906H80.8604ZM80.7727 115.925C82.3219 115.925 83.0527 116.738 83.0527 118.305V119.502C83.0527 120.995 82.3804 121.912 80.8604 121.912H78.7266V112.022H79.8081V115.925H80.7727Z" fill="black"/>
<path d="M88.3524 114.416V115.303H87.3147V114.357C87.3147 113.47 86.9639 112.923 86.1747 112.923C85.3854 112.923 85.0347 113.47 85.0347 114.357V119.575C85.0347 120.462 85.3854 121.009 86.1747 121.009C86.9639 121.009 87.3147 120.462 87.3147 119.575V118.289H88.3524V119.516C88.3524 121.024 87.6508 122.014 86.1454 122.014C84.6547 122.014 83.9531 121.024 83.9531 119.516V114.416C83.9531 112.908 84.6547 111.918 86.1454 111.918C87.6508 111.918 88.3524 112.908 88.3524 114.416Z" fill="black"/>
<path d="M91.0177 117.61L90.4331 118.585V121.912H89.3516V112.022H90.4331V116.797L93.0346 112.022H94.1454L91.6608 116.531L94.2185 121.912H93.1077L91.0177 117.61Z" fill="black"/>
<path d="M96.3091 118.97H98.4868L97.376 113.264L96.3091 118.97ZM96.1629 119.916L95.7829 121.912H94.7891L96.6598 112.022H98.2383L100.109 121.912H99.0129L98.6329 119.916H96.1629Z" fill="black"/>
<path d="M77.5906 97.564L76.9475 99.5005H76.1875L76.8306 97.564H77.5906Z" fill="black"/>
<path d="M19.0938 63.9629L32.7153 89.8177L45.2699 63.9629H19.0938Z" fill="black"/>
</g>
<defs>
<clipPath id="clip0_4355_11266">
<rect width="95" height="68" fill="white" transform="translate(6 54)"/>
</clipPath>
</defs>
</svg>
