<svg width="185" height="153" viewBox="0 0 185 153" fill="none" xmlns="http://www.w3.org/2000/svg">
<g clip-path="url(#clip0_4411_11575)">
<path d="M40.4576 88.7597C39.8618 87.645 33.2698 75.9408 32.7317 75.1337C31.9245 76.2483 25.7745 88.5483 25.294 89.3555L40.4576 88.7597ZM13.1094 102.424C16.0691 97.6003 31.5017 69.0605 32.7893 67.1387H32.9047C37.6132 74.288 50.3168 96.9469 53.9684 102.174L49.4135 104.98C48.3373 103.078 42.6485 92.7764 42.072 91.9693L23.4683 92.6803C22.8148 93.6221 18.4137 103.328 17.5105 105.038L13.1094 102.424Z" fill="#2B2A29"/>
<path d="M65.04 88.7597C64.4634 87.645 57.8714 75.9408 57.3332 75.1337C56.5261 76.2483 50.3569 88.5483 49.8764 89.3555L65.04 88.7597ZM37.7109 102.424C40.6514 97.6003 56.084 69.0605 57.3717 67.1387H57.487C62.1956 74.288 74.8992 96.9469 78.5507 102.174L73.9959 104.98C72.9196 103.078 67.2501 92.7764 66.6543 91.9693L48.0506 92.6803C47.4164 93.6221 43.0153 103.328 42.0928 105.038L37.7109 102.424Z" fill="#2B2A29"/>
<path d="M43.4944 66.197L45.0511 72.2125L46.627 66.197L50.5284 67.7153L48.8948 64.0445L55.2754 62.5839L48.8948 61.1233L50.5284 57.4333L46.627 58.9516L45.0511 52.9361L43.4751 58.9516L39.5737 57.4333L41.2073 61.1233L34.8459 62.5839L41.2073 64.0445L39.5737 67.7153L43.4944 66.197ZM45.0511 74.2497L43.1292 66.8889L38.6128 68.6378L40.477 64.3905L32.5781 62.5839L40.477 60.7581L38.6128 56.5108L43.1292 58.2789L45.0511 50.8989L46.9729 58.2789L51.5086 56.5108L49.6251 60.7581L57.5432 62.5839L49.6251 64.3905L51.5086 68.6378L46.9729 66.8889L45.0511 74.2497Z" fill="#2B2A29"/>
<path d="M41.5717 63.9293L45.0503 62.584H35.1719L41.5717 63.9293Z" fill="#2B2A29"/>
<path d="M41.5664 61.2193L45.045 62.5839L40.125 57.9521L41.5664 61.2193Z" fill="#2B2A29"/>
<path d="M43.6036 65.8512L45.045 62.584L40.125 67.1965L43.6036 65.8512Z" fill="#2B2A29"/>
<path d="M43.6094 59.2975L45.0508 62.5839V53.3013L43.6094 59.2975Z" fill="#2B2A29"/>
<path d="M46.4883 59.2975L45.0469 62.5839L49.9669 57.9521L46.4883 59.2975Z" fill="#2B2A29"/>
<path d="M48.5255 61.2192L45.0469 62.5838H54.9253L48.5255 61.2192Z" fill="#2B2A29"/>
<path d="M48.5255 63.9293L45.0469 62.584L49.9669 67.1965L48.5255 63.9293Z" fill="#2B2A29"/>
<path d="M46.4883 65.8512L45.0469 62.584V71.8666L46.4883 65.8512Z" fill="#2B2A29"/>
<path d="M43.9709 118.049L45.5469 124.065L47.1036 118.049L51.005 119.567L49.3906 115.877L55.752 114.417L49.3906 112.956L51.005 109.285L47.1036 110.804L45.5469 104.769L43.9517 110.804L40.0695 109.285L41.6839 112.956L35.3225 114.417L41.6839 115.877L40.0695 119.567L43.9709 118.049ZM45.5469 126.102L43.625 118.722L39.0894 120.49L40.9728 116.243L33.0547 114.417L40.9728 112.61L39.0894 108.363L43.6058 110.112L45.5469 102.751L47.4687 110.112L51.9851 108.363L50.1017 112.61L58.039 114.417L50.1017 116.243L51.9851 120.49L47.4687 118.722L45.5469 126.102Z" fill="#2B2A29"/>
<path d="M42.0483 115.782L45.5461 114.417H35.6484L42.0483 115.782Z" fill="#2B2A29"/>
<path d="M42.0508 113.052L45.5486 114.417L40.6094 109.804L42.0508 113.052Z" fill="#2B2A29"/>
<path d="M44.088 117.703L45.5486 114.417L40.6094 119.049L44.088 117.703Z" fill="#2B2A29"/>
<path d="M44.0859 111.15L45.5466 114.417V105.134L44.0859 111.15Z" fill="#2B2A29"/>
<path d="M46.9691 111.15L45.5469 114.417L50.4669 109.804L46.9691 111.15Z" fill="#2B2A29"/>
<path d="M49.0062 113.071L45.5469 114.417H55.4253L49.0062 113.071Z" fill="#2B2A29"/>
<path d="M49.0062 115.762L45.5469 114.417L50.4669 119.049L49.0062 115.762Z" fill="#2B2A29"/>
<path d="M46.9691 117.684L45.5469 114.417V123.719L46.9691 117.684Z" fill="#2B2A29"/>
<path d="M45.5478 135C46.2973 135 46.9123 134.385 46.9123 133.636C46.9123 132.886 46.2973 132.252 45.5478 132.252C44.7983 132.252 44.1641 132.867 44.1641 133.636C44.1641 134.404 44.7791 135 45.5478 135Z" fill="#2B2A29"/>
<path d="M31.0729 131.003C30.8999 131.483 31.0921 131.829 31.611 132.002L32.1491 132.175L32.6488 130.714L32.1107 130.541C31.5918 130.368 31.2459 130.522 31.0729 131.003ZM30.6309 130.83C30.7462 130.503 30.9384 130.272 31.1882 130.138C31.4765 129.984 31.8032 129.984 32.1876 130.099L32.7834 130.311L33.3791 128.581L33.8212 128.716L32.4374 132.752L31.4188 132.406C31.0345 132.271 30.7846 132.06 30.6501 131.791C30.5156 131.522 30.4963 131.195 30.6309 130.83Z" fill="#2B2A29"/>
<path d="M25.9076 127.774C25.677 128.235 25.6385 128.696 25.7539 129.119C25.8692 129.542 26.1382 129.849 26.5418 130.041C26.9454 130.234 27.349 130.253 27.7718 130.08C28.1754 129.907 28.5021 129.58 28.7328 129.119C28.9442 128.638 29.0018 128.196 28.8865 127.774C28.7712 127.332 28.5021 127.024 28.0985 126.832C27.6949 126.64 27.2914 126.64 26.8685 126.832C26.4649 127.005 26.1382 127.332 25.9076 127.793V127.774ZM25.4656 127.562C25.7539 126.966 26.1574 126.563 26.7148 126.351C27.2529 126.14 27.791 126.159 28.3099 126.409C28.8289 126.659 29.1748 127.062 29.3478 127.601C29.5207 128.158 29.4631 128.735 29.1748 129.33C28.8865 129.926 28.4637 130.33 27.9256 130.541C27.3874 130.733 26.8685 130.714 26.3304 130.464C25.8115 130.214 25.4656 129.83 25.2926 129.273C25.1196 128.715 25.1773 128.139 25.4656 127.562Z" fill="#2B2A29"/>
<path d="M22.0414 123.277C22.4642 123.219 22.9062 123.334 23.3483 123.623C23.848 123.93 24.117 124.372 24.1939 124.949C24.2708 125.506 24.1362 126.044 23.7711 126.582C23.4444 127.101 22.9831 127.447 22.4258 127.601C21.8492 127.755 21.3303 127.697 20.8691 127.389C20.4462 127.101 20.158 126.755 20.0234 126.332L20.3502 125.833C20.4462 126.352 20.7153 126.736 21.1189 126.986C21.4648 127.216 21.8492 127.255 22.3105 127.12C22.7525 126.986 23.1177 126.717 23.3675 126.313C23.6366 125.91 23.7519 125.487 23.7134 125.045C23.6558 124.583 23.4444 124.257 23.0984 124.007C22.6948 123.757 22.2336 123.661 21.7147 123.757L22.0414 123.277Z" fill="#2B2A29"/>
<path d="M18.2191 120.221C18.6419 120.221 19.0647 120.374 19.4683 120.72C19.9295 121.086 20.1409 121.566 20.1601 122.143C20.1601 122.7 19.968 123.219 19.5452 123.719C19.1416 124.18 18.6611 124.468 18.0845 124.564C17.508 124.66 16.9891 124.526 16.5662 124.161C16.1627 123.853 15.932 123.469 15.8359 123.027L16.2203 122.565C16.278 123.084 16.4894 123.507 16.8545 123.815C17.1812 124.064 17.5656 124.161 18.0269 124.064C18.4881 123.988 18.8725 123.776 19.18 123.411C19.4875 123.027 19.6605 122.604 19.6605 122.162C19.6605 121.72 19.5067 121.355 19.1608 121.086C18.7956 120.778 18.3536 120.624 17.8347 120.663L18.2191 120.221Z" fill="#2B2A29"/>
<path d="M14.9944 116.55L15.3211 116.877L12.9764 119.067L17.2237 118.645L13.9758 121.662L13.6683 121.335L15.9937 119.144L11.7656 119.567L14.9944 116.55Z" fill="#2B2A29"/>
<path d="M12.0306 112.745L12.2997 113.11L9.72437 115.032L13.9717 115.089L10.4162 117.722L10.128 117.338L12.7225 115.435L8.45594 115.378L12.0306 112.745ZM8.14844 116.435C8.34062 116.3 8.55203 116.262 8.76344 116.281C8.99406 116.319 9.16703 116.435 9.32078 116.627C9.45531 116.819 9.51297 117.011 9.49375 117.242C9.45531 117.453 9.34 117.645 9.14781 117.78L8.93641 117.472C9.16703 117.299 9.20547 117.088 9.01328 116.838C8.84031 116.588 8.62891 116.569 8.37906 116.742L8.14844 116.435Z" fill="#2B2A29"/>
<path d="M9.10677 108.517C9.52958 108.67 9.8563 108.978 10.1254 109.439C10.4136 109.939 10.4521 110.458 10.2599 110.996C10.0869 111.534 9.70255 111.957 9.14521 112.264C8.60709 112.572 8.03052 112.668 7.45396 112.553C6.8774 112.437 6.45459 112.149 6.18553 111.668C5.93568 111.226 5.83959 110.784 5.91646 110.342L6.43537 110.054C6.30084 110.535 6.33928 110.996 6.58912 111.438C6.78131 111.784 7.12724 111.995 7.58849 112.072C8.04974 112.168 8.49177 112.072 8.89537 111.841C9.3374 111.611 9.62568 111.265 9.79865 110.861C9.9524 110.438 9.93318 110.035 9.70255 109.67C9.47193 109.247 9.10677 108.978 8.58787 108.824L9.10677 108.517Z" fill="#2B2A29"/>
<path d="M7.49874 104.231L7.72937 104.769L6.40328 107.21L8.42124 106.345L8.59421 106.768L4.67359 108.459L4.4814 108.036L6.28796 107.268L3.80875 106.48L3.57812 105.961L6.15343 106.806L7.49874 104.231Z" fill="#2B2A29"/>
<path d="M6.07546 99.8491L6.20999 100.291L3.135 101.214L7.11327 102.713L2.86594 103.981L2.7314 103.539L5.8064 102.617L1.82812 101.118L6.07546 99.8491Z" fill="#2B2A29"/>
<path d="M5.1314 95.1406L5.20827 95.6019L2.03718 96.1592L5.80405 98.1195L1.4414 98.8883L1.36453 98.427L4.53562 97.8697L0.74953 95.9286L5.1314 95.1406ZM0 96.7358C0.230625 96.6973 0.44203 96.7358 0.614999 96.8703C0.807186 97.0048 0.922498 97.1778 0.960936 97.4084C0.999373 97.6583 0.960936 97.8505 0.826405 98.0427C0.711093 98.2348 0.518905 98.3309 0.288281 98.3694L0.230625 98.0042C0.518905 97.9466 0.653436 97.7736 0.59578 97.4853C0.538124 97.1778 0.365156 97.0625 0.0768749 97.1202L0 96.7358Z" fill="#2B2A29"/>
<path d="M0.918593 88.7788V90.1241L4.76234 90.0857V90.5661L0.476562 90.6046V88.798L0.918593 88.7788Z" fill="#2B2A29"/>
<path d="M3.01502 83.5323C2.4769 83.4746 2.03487 83.5707 1.66971 83.8206C1.30456 84.0704 1.09315 84.4356 1.05471 84.8776C0.997057 85.3196 1.13159 85.704 1.43909 86.0307C1.72737 86.3574 2.15018 86.5496 2.66909 86.6073C3.18799 86.6649 3.63002 86.5688 3.99518 86.2998C4.37955 86.0499 4.57174 85.704 4.62939 85.262C4.66783 84.8199 4.55252 84.4355 4.24502 84.1088C3.93752 83.7821 3.53393 83.5707 3.01502 83.5323ZM3.05346 83.0326C3.72611 83.1095 4.24502 83.3593 4.62939 83.8013C4.99455 84.2434 5.16752 84.7431 5.09064 85.3196C5.03299 85.877 4.76393 86.3382 4.30268 86.6841C3.84143 87.0301 3.26487 87.1646 2.61143 87.0877C1.95799 87.0301 1.43909 86.761 1.05471 86.319C0.670339 85.8962 0.516589 85.3965 0.574245 84.8199C0.65112 84.2434 0.920182 83.8013 1.36221 83.4554C1.84268 83.1095 2.40002 82.9557 3.05346 83.0326Z" fill="#2B2A29"/>
<path d="M5.93735 78.3625C6.12954 78.7469 6.16798 79.2082 6.05266 79.7079C5.91813 80.2844 5.61063 80.688 5.09173 80.9571C4.59204 81.2261 4.0347 81.2646 3.40048 81.13C2.78548 80.9955 2.30501 80.688 1.95908 80.2075C1.61314 79.7271 1.51705 79.2274 1.63236 78.6893C1.74767 78.1896 1.99751 77.8052 2.34345 77.5361L2.92001 77.6707C2.47798 77.9397 2.20892 78.3241 2.09361 78.7854C2.01673 79.1889 2.09361 79.5541 2.38189 79.9385C2.67017 80.3036 3.03533 80.5535 3.51579 80.6496C3.99626 80.7649 4.43829 80.7264 4.84188 80.5343C5.24548 80.3421 5.49532 80.0153 5.59141 79.6118C5.70673 79.1313 5.62985 78.6893 5.36079 78.228L5.93735 78.3625Z" fill="#2B2A29"/>
<path d="M3.76375 72.4238L7.18468 75.518L7.05015 75.9216L6.10843 75.076L2.6875 75.4027L2.84125 74.9415L5.68562 74.7109L3.61 72.8466L3.76375 72.4238Z" fill="#2B2A29"/>
<path d="M8.95343 70.3483L5.93609 68.8684L5.26344 70.2137L7.41593 71.2708C7.78109 71.4629 8.03093 71.6744 8.14624 71.9434L8.95343 70.3483ZM10.5101 70.1176L10.318 70.5212L9.54921 70.1561L8.41531 72.4431L9.18406 72.8083L8.97265 73.2118L7.81953 72.6353C7.99249 72.2893 7.76187 71.9434 7.12765 71.6359L4.64844 70.4251L5.72469 68.2534L9.14562 69.9254L9.33781 69.5603L10.5101 70.1176Z" fill="#2B2A29"/>
<path d="M10.6509 65.2744L8.82516 64.89L9.88218 66.4083L10.6509 65.2744ZM12.6305 65.236L12.3614 65.6396L11.1122 65.3705L10.1705 66.8119L10.8816 67.8497L10.6125 68.2533L7.92188 64.3135L12.6305 65.236Z" fill="#2B2A29"/>
<path d="M12.4344 60.6238C12.05 60.297 11.6656 60.3547 11.3197 60.7583L10.9545 61.2003L12.1461 62.1805L12.5112 61.7577C12.8572 61.3349 12.838 60.9505 12.4344 60.6238ZM12.7611 60.2778C13.0302 60.5085 13.1839 60.7583 13.2223 61.0466C13.2608 61.3733 13.1455 61.6808 12.8956 61.9883L12.492 62.4688L13.9142 63.6411L13.6067 63.987L10.3203 61.2772L11.0122 60.4508C11.262 60.1433 11.5503 59.9703 11.8578 59.9511C12.1653 59.9319 12.4728 60.028 12.7611 60.2778Z" fill="#2B2A29"/>
<path d="M18.3527 58.529C18.3142 58.9518 18.1028 59.3554 17.7185 59.7205C17.2957 60.1241 16.8152 60.2971 16.2386 60.2394C15.6621 60.1818 15.1624 59.9319 14.7203 59.4707C14.2783 59.0286 14.0477 58.5097 14.0092 57.9332C13.99 57.3374 14.163 56.8569 14.5666 56.4726C14.951 56.1266 15.3546 55.9344 15.7966 55.896L16.2002 56.3188C15.6813 56.2996 15.2585 56.4726 14.8933 56.8185C14.605 57.0876 14.4897 57.4527 14.5089 57.9332C14.5474 58.3944 14.7203 58.798 15.0663 59.144C15.4122 59.4899 15.7966 59.7013 16.2386 59.7397C16.6999 59.7974 17.0842 59.6821 17.3917 59.3746C17.7377 59.0479 17.9299 58.6251 17.9491 58.0869L18.3527 58.529Z" fill="#2B2A29"/>
<path d="M19.638 53.0321L18.8116 53.6664L21.137 56.6645L20.7527 56.9528L18.4272 53.9546L17.6008 54.5889L17.3125 54.2237L19.3689 52.667L19.638 53.0321Z" fill="#2B2A29"/>
<path d="M24.3105 53.0324C24.0222 52.5711 23.6378 52.4943 23.1766 52.7825L22.6384 53.1285L23.4841 54.4738L24.0222 54.1471C24.5027 53.8396 24.5987 53.4744 24.3105 53.0324ZM23.0612 51.5333C22.8306 51.1874 22.5231 51.1297 22.1195 51.3796L21.6967 51.6486L22.3886 52.7441L22.8306 52.475C23.042 52.3405 23.1573 52.206 23.1958 52.0522C23.1958 51.8985 23.1766 51.7255 23.0612 51.5333ZM24.7333 52.7633C24.9447 53.09 25.0023 53.4168 24.9255 53.7243C24.8486 54.0318 24.618 54.3008 24.272 54.5314L23.3303 55.108L21.0625 51.4949L21.8312 51.0144C22.5423 50.5916 23.0612 50.6685 23.4456 51.245C23.5417 51.418 23.5994 51.591 23.6186 51.7832C23.6378 51.9561 23.5994 52.1291 23.5033 52.2636C23.7531 52.1868 23.9837 52.206 24.1952 52.3021C24.4066 52.3789 24.5987 52.5327 24.7333 52.7633Z" fill="#2B2A29"/>
<path d="M28.9075 52.0138L27.0241 52.9363L25.1406 49.131L27.0241 48.2085L27.2162 48.6121L25.7556 49.3424L26.313 50.4571L27.6775 49.7844L27.8889 50.188L26.5052 50.8607L27.2355 52.3213L28.7153 51.6102L28.9075 52.0138Z" fill="#2B2A29"/>
<path d="M33.5159 50.226L33.0739 50.3798L32.3628 48.4194L30.4025 49.1113L31.1136 51.0909L30.6908 51.2446L29.2109 47.2471L29.653 47.0934L30.2487 48.6885L32.1898 47.9966L31.6133 46.3823L32.0553 46.2285L33.5159 50.226Z" fill="#2B2A29"/>
<path d="M38.1316 49.0349L37.6895 49.1502L37.1898 47.113L35.1719 47.5742L35.6523 49.6114L35.2103 49.7267L34.2109 45.5947L34.6722 45.4794L35.0758 47.1514L37.0937 46.671L36.6902 45.0181L37.1514 44.9028L38.1316 49.0349Z" fill="#2B2A29"/>
<path d="M43.0884 48.3622L42.6272 48.4199L42.1467 44.1918L42.608 44.1533L43.0884 48.3622ZM41.6086 47.2283C41.5509 46.671 41.205 46.4403 40.6092 46.498L40.1095 46.5557L40.3017 48.2277L40.8206 48.17C41.1281 48.1316 41.3587 48.0355 41.4741 47.8625C41.5894 47.728 41.647 47.4974 41.6086 47.2283ZM42.0891 47.1707C42.1275 47.555 42.0506 47.8625 41.8584 48.1316C41.6662 48.4007 41.3395 48.5544 40.8783 48.6121L39.8789 48.7274L39.3984 44.4993L39.8597 44.4608L40.0519 46.1136L40.59 46.056C41.032 45.9983 41.378 46.056 41.6278 46.2674C41.8969 46.4596 42.0314 46.7671 42.0891 47.1707Z" fill="#2B2A29"/>
<path d="M47.2809 43C47.2809 43.2498 47.1848 43.442 47.0311 43.5958C46.8773 43.7495 46.6659 43.8264 46.4353 43.8072C46.1855 43.8072 45.9933 43.7303 45.8395 43.5766C45.6666 43.4228 45.5897 43.2306 45.5897 43H45.9741C45.9741 43.3075 46.1278 43.442 46.4353 43.4612C46.7428 43.4612 46.8966 43.3075 46.8966 43H47.2809ZM47.9344 48.3044H47.4539V45.0948L44.8594 48.4389L44.8978 44.0186H45.3591L45.3398 47.2281L47.9536 43.8841V48.3044H47.9344Z" fill="#2B2A29"/>
<path d="M56.4042 49.4958L55.9622 49.3997L56.1736 46.5169L54.2709 49.2267L53.5598 45.9979L52.6566 48.7462L52.1953 48.6693L53.6367 44.4604L54.4631 48.2465L56.6925 45.0562L56.4042 49.4958Z" fill="#2B2A29"/>
<path d="M62.0573 46.8053L59.04 50.3032L58.6172 50.1686L59.4436 49.2077L59.0208 45.8252L59.482 45.9789L59.8087 48.7657L61.6153 46.6708L62.0573 46.8053Z" fill="#2B2A29"/>
<path d="M64.9185 51.3409C64.7455 51.7253 64.4764 51.9751 64.1113 52.0712C63.7846 52.1865 63.4578 52.1481 63.1311 51.9943C62.766 51.8406 62.5353 51.5907 62.4008 51.264C62.2855 50.9373 62.3047 50.5914 62.4777 50.2262L62.9005 50.4184C62.7852 50.6875 62.766 50.9181 62.8428 51.1295C62.9197 51.3409 63.0735 51.4754 63.3041 51.5907C63.5539 51.6868 63.7653 51.7061 63.9767 51.6292C64.1881 51.5331 64.3611 51.3601 64.4764 51.1103C64.5917 50.8604 64.611 50.649 64.5341 50.4568C64.4572 50.2454 64.2842 50.0917 64.0344 49.9764L63.6692 49.8226L63.8614 49.419L64.1689 49.5536C64.6302 49.765 64.9569 49.6304 65.1491 49.2076C65.2452 48.9962 65.2452 48.8232 65.1875 48.6503C65.1106 48.4965 64.9953 48.3812 64.8031 48.3043C64.611 48.2082 64.4188 48.189 64.265 48.2467C64.0728 48.3043 63.9383 48.4197 63.8614 48.6118L63.4386 48.4389C63.5731 48.1314 63.7846 47.9392 64.0536 47.8239C64.3419 47.7278 64.6494 47.747 64.9953 47.9007C65.3413 48.0545 65.5719 48.2659 65.668 48.5542C65.7641 48.8232 65.7449 49.0923 65.6103 49.3806C65.4181 49.8226 65.1106 50.034 64.7263 50.034C65.0914 50.38 65.1491 50.8028 64.9185 51.3409Z" fill="#2B2A29"/>
<path d="M67.9195 54.3582L66.0938 53.3011L68.2462 49.6304L70.0528 50.6682L69.8414 51.0718L68.4192 50.2454L67.785 51.3408L69.1111 52.1096L68.8805 52.494L67.5544 51.7252L66.728 53.1474L68.1502 53.9546L67.9195 54.3582Z" fill="#2B2A29"/>
<path d="M74.6073 52.5134C74.4536 52.7055 74.2806 52.8209 74.05 52.8401C73.8386 52.8785 73.6272 52.8209 73.435 52.6863C73.2428 52.5326 73.1275 52.3596 73.0891 52.1482C73.0698 51.9176 73.0891 51.7254 73.2428 51.5332L73.5503 51.7638C73.3773 51.9945 73.4158 52.2059 73.6464 52.398C73.8962 52.571 74.1076 52.5326 74.2998 52.302L74.6073 52.5134ZM71.9936 57.1835L71.6092 56.9144L73.5311 54.3199L69.4375 55.4923L72.0705 51.956L72.4548 52.2251L70.533 54.8004L74.6266 53.628L71.9936 57.1835Z" fill="#2B2A29"/>
<path d="M77.9681 60.5273L78.7561 58.8553L77.0264 59.528L77.9681 60.5273ZM77.5645 62.4684L77.2186 62.1033L77.7567 60.9502L76.5652 59.7202L75.3928 60.1814L75.0469 59.8355L79.5248 58.125L77.5645 62.4684Z" fill="#2B2A29"/>
<path d="M82.118 63.314C82.5216 63.0065 82.5792 62.6413 82.2333 62.1993L81.8873 61.7573L80.6573 62.6798L81.0033 63.1218C81.33 63.5638 81.7144 63.6215 82.118 63.314ZM82.387 63.7176C82.118 63.929 81.8105 64.0059 81.5222 63.9866C81.2147 63.9482 80.9456 63.7752 80.6958 63.4485L80.3114 62.9488L78.8316 64.0635L78.5625 63.6984L81.9642 61.123L82.6177 61.9687C82.8675 62.2954 82.9636 62.6029 82.9251 62.9104C82.8675 63.2179 82.6945 63.4677 82.387 63.7176Z" fill="#2B2A29"/>
<path d="M82.445 69.3875L82.1375 68.8878L83.0984 66.2933L81.2342 67.4272L80.9844 67.0236L84.6359 64.8135L84.8858 65.1979L83.2137 66.2164L85.7698 66.6393L86.0773 67.1389L83.4059 66.6585L82.445 69.3875Z" fill="#2B2A29"/>
<path d="M87.8081 71.6553L87.3661 70.6944L83.8875 72.3088L83.6953 71.8668L87.1547 70.2716L86.7127 69.3299L87.1355 69.1377L88.2309 71.4632L87.8081 71.6553Z" fill="#2B2A29"/>
<path d="M85.9464 77.6321L85.7927 77.1901L88.8484 76.1523L84.8125 74.8069L89.0214 73.3848L89.1751 73.8268L86.1194 74.8454L90.1553 76.2099L85.9464 77.6321Z" fill="#2B2A29"/>
<path d="M87.0255 82.0523L86.9102 81.4757L88.6591 79.3232L86.5258 79.8037L86.4297 79.3424L90.6001 78.4199L90.6962 78.862L88.7936 79.2848L91.0806 80.5148L91.1959 81.0721L88.832 79.7652L87.0255 82.0523Z" fill="#2B2A29"/>
<path d="M87.5977 86.6073L87.54 86.1461L90.7303 85.8194L87.1172 83.6092L91.5375 83.1479L91.5759 83.6092L88.3856 83.9359L91.9987 86.1461L87.5977 86.6073Z" fill="#2B2A29"/>
<path d="M87.4062 94.1988L87.4447 93.7376L90.6542 93.9682L87.4831 91.1431L91.9034 91.489V91.9503L88.6747 91.7004L91.8266 94.5256L87.4062 94.1988Z" fill="#2B2A29"/>
<path d="M87.6923 100.983L89.5566 100.752L88.0575 99.6568L87.6923 100.983ZM85.8281 101.656L85.9627 101.194L87.2311 101.041L87.6731 99.3685L86.6353 98.619L86.7506 98.1577L90.5944 101.021L85.8281 101.656Z" fill="#2B2A29"/>
<path d="M84.2344 105.903L84.4073 105.48L86.3676 106.249L87.1172 104.327L85.1569 103.558L85.3298 103.135L89.3081 104.692L89.1351 105.115L87.54 104.481L86.7905 106.402L88.3856 107.037L88.2126 107.459L84.2344 105.903Z" fill="#2B2A29"/>
<path d="M85.7187 111.418L86.2184 110.496L82.8359 108.728L83.0473 108.324L86.4298 110.073L86.9103 109.151L87.3331 109.362L86.1223 111.63L85.7187 111.418Z" fill="#2B2A29"/>
<path d="M81.9717 113.302L83.7975 113.667L82.7212 112.149L81.9717 113.302ZM79.9922 113.36L80.2612 112.956L81.5105 113.206L82.4522 111.765L81.7219 110.727L81.9717 110.323L84.7008 114.244L79.9922 113.36Z" fill="#2B2A29"/>
<path d="M80.2412 117.934C80.6448 118.26 81.01 118.203 81.3559 117.78L81.7211 117.338L80.5295 116.377L80.1644 116.8C79.8184 117.222 79.8377 117.607 80.2412 117.934ZM79.9145 118.28C79.6455 118.068 79.4917 117.799 79.4533 117.511C79.4148 117.203 79.5301 116.896 79.78 116.588L80.1836 116.089L78.7422 114.935L79.0305 114.57L82.3553 117.261L81.6826 118.087C81.4136 118.414 81.1445 118.568 80.8178 118.606C80.5295 118.645 80.222 118.529 79.9145 118.28Z" fill="#2B2A29"/>
<path d="M74.3594 119.682L74.7822 119.26L77.5689 119.586L76.0122 118.049L76.3389 117.722L79.3562 120.72L79.0295 121.047L77.6458 119.663L77.838 122.239L77.4152 122.642L77.2614 119.952L74.3594 119.682Z" fill="#2B2A29"/>
<path d="M73.3926 125.391L74.2191 124.737L71.8359 121.758L72.2011 121.47L74.5842 124.43L75.4106 123.776L75.6989 124.142L73.6809 125.737L73.3926 125.391Z" fill="#2B2A29"/>
<path d="M67.1094 124.987L67.513 124.737L69.2427 127.447L69.6078 123.238L71.9909 126.947L71.6066 127.197L69.8769 124.507L69.4925 128.716L67.1094 124.987Z" fill="#2B2A29"/>
<path d="M63.0547 127.082L63.5736 126.813L66.1105 128.005L65.1303 126.044L65.5531 125.852L67.4558 129.657L67.033 129.869L66.1681 128.12L65.4955 130.599L64.9766 130.868L65.7069 128.274L63.0547 127.082Z" fill="#2B2A29"/>
<path d="M58.6172 128.735L59.0592 128.581L60.1355 131.579L61.4423 127.562L62.9222 131.714L62.4801 131.867L61.4039 128.869L60.097 132.886L58.6172 128.735Z" fill="#2B2A29"/>
</g>
<defs>
<clipPath id="clip0_4411_11575">
<rect width="92" height="92" fill="white" transform="translate(0 43)"/>
</clipPath>
</defs>
</svg>
