<svg width="185" height="153" viewBox="0 0 185 153" fill="none" xmlns="http://www.w3.org/2000/svg">
<g clip-path="url(#clip0_4355_4105)">
<path fill-rule="evenodd" clip-rule="evenodd" d="M49.9234 72.8857L49.9062 72.2179C50.5434 72.2179 51.3529 72.1665 51.6973 72.1837C52.0934 72.1837 53.2473 72.1494 53.3851 72.1837C53.4023 72.5946 53.4196 73.3823 53.4023 73.8617C52.5929 73.8617 50.5951 73.8788 49.9234 73.8446V72.8857ZM48.5112 73.7761H45.084C45.1185 73.3823 45.1357 72.4576 45.1701 72.0295C46.1518 72.0809 47.254 72.1837 48.5973 72.3035L48.5112 73.7761ZM42.0184 73.7761C41.6223 73.7418 41.4673 73.7247 40.9162 73.6905C41.054 73.2281 41.9151 71.2761 42.0184 70.8309C42.3457 70.8823 42.3284 70.8652 42.759 70.9166C42.604 71.5844 42.1218 73.3138 42.0184 73.7761ZM55.8307 70.9508C56.2612 70.8823 56.1923 70.8823 56.554 70.8309C56.6573 71.0535 56.7434 71.3104 56.8468 71.5501L57.7596 73.6905H56.554C56.4507 73.1939 56.3129 72.783 56.1923 72.3035C56.1062 71.9439 55.934 71.2419 55.8307 70.9508ZM58.879 69.8207L59.2407 69.6323C59.3612 69.718 59.964 70.4029 60.0673 70.557L62.5646 73.3994H61.3762C61.204 73.0912 60.9973 72.8343 60.7734 72.5261C60.5323 72.1837 60.3601 71.9782 60.119 71.6186C59.8779 71.2933 59.7057 71.1049 59.4818 70.7796C59.344 70.5912 59.3096 70.5227 59.1718 70.3515L58.879 69.8207ZM37.4029 73.0398L37.1101 73.4679C36.7829 73.4507 36.5418 73.4165 36.094 73.3994C36.3007 73.1425 36.249 73.211 36.4557 72.9199L38.5051 70.557C38.6429 70.3686 39.1768 69.7351 39.349 69.6323C39.6073 69.7351 39.4696 69.6837 39.7107 69.8207C39.5212 70.2145 38.9184 70.9851 38.574 71.4474C38.3501 71.7385 38.1951 71.9439 37.9884 72.235C37.7301 72.5604 37.6096 72.6973 37.4029 73.0398ZM60.4462 68.3652C60.5668 68.2625 60.6701 68.1255 60.7907 68.1427C61.1179 68.194 61.6518 68.3652 62.5646 68.7248L68.4029 70.7453C68.7646 70.9508 68.4201 70.7625 68.7646 70.9508C68.5407 71.1734 68.644 71.0878 68.4201 71.2933C68.179 71.4816 67.9896 71.67 67.7484 71.8583L67.5762 72.0295C67.4212 72.1494 67.404 72.1837 67.1973 72.3549L63.8218 70.42C63.4429 70.2145 60.739 68.7591 60.4462 68.5707L60.2912 68.468L60.4462 68.3652ZM32.3912 71.7556L32.0296 72.0124C31.8401 72.1323 31.8573 72.1152 31.6851 72.2521C31.5646 72.3378 31.6162 72.3206 31.4612 72.4234C31.3062 72.3206 31.1512 72.1837 31.0307 72.0809C30.7207 71.8926 29.8768 71.1049 29.6185 70.8309C30.0146 70.6768 33.0457 69.7351 33.6829 69.5296C34.3373 69.307 35.009 69.1015 35.6807 68.8447C36.3179 68.6221 37.1446 68.4166 37.6612 68.1598C37.799 68.1084 37.7818 68.1255 37.954 68.057L38.0918 68.3481C37.8162 68.605 37.489 68.8276 36.8173 69.2556L32.3912 71.7556ZM61.824 65.9509C62.3579 66.0194 71.124 66.7728 71.1757 66.7728C71.0207 67.2523 70.814 67.8173 70.6246 68.2454L61.0834 66.4989C60.9112 66.4817 60.9629 66.4989 60.9973 66.2249C60.9973 66.1221 61.0146 65.9852 61.0146 65.8824C61.3418 65.8996 61.5657 65.9338 61.824 65.9509ZM36.7657 65.9509C37.0584 65.9338 37.2134 65.8824 37.5579 65.8824C37.5751 66.0023 37.5751 66.1221 37.5923 66.2249C37.5923 66.4475 37.5923 66.4475 37.5923 66.4817C37.5923 66.4989 37.5579 66.4989 37.489 66.4989L27.8618 68.1598C27.7929 67.8687 27.5001 67.0297 27.3968 66.7728C28.6196 66.7043 36.7484 65.9509 36.7657 65.9509ZM83.679 55.1805V52.0642C84.0234 52.0642 84.4368 52.0642 84.7812 52.0642V56.2422H83.6618L83.679 55.1805ZM80.9062 52.0642C81.4057 52.0642 81.3023 52.0642 81.9223 52.0642V56.2422C81.4746 56.2422 81.354 56.2422 80.9062 56.2422C80.9062 55.3346 80.9407 52.8518 80.9062 52.0642ZM78.0301 55.7456V52.0813H79.1323C79.1151 52.6806 79.0979 55.797 79.1323 56.2422H78.0129C78.0301 56.0367 78.0301 55.9853 78.0301 55.7456ZM72.8462 52.0642L73.3112 52.047V56.2422C73.1218 56.2422 72.9323 56.2422 72.7601 56.2422H72.2607V55.797L72.2951 52.0642H72.8462ZM28.1373 52.0642C28.6368 52.0642 28.6885 52.0813 29.0673 52.0642V56.2422C28.7057 56.2422 28.5507 56.2422 28.1201 56.2593C28.1546 55.0778 28.1373 53.297 28.1373 52.0642ZM25.2612 52.0642H26.1912V56.2422C25.8123 56.2422 25.6918 56.2422 25.2785 56.2422L25.2612 52.0642ZM22.4023 52.0813H23.3323V56.2422C22.9362 56.2422 22.8157 56.2593 22.4023 56.2422V52.0813ZM19.5262 55.3689V52.0642H20.4562L20.4735 56.2422H19.5262C19.5262 55.8312 19.5262 55.8312 19.5262 55.3689ZM66.4568 52.0642H67.3868V56.2422H66.9907C66.784 56.2422 66.6634 56.2422 66.4568 56.2422V52.0642ZM30.9273 52.0813H32.0123C32.0123 52.6806 32.0296 55.7456 32.0296 56.2422H30.9273V52.0813ZM13.7051 52.0642H14.6351L14.6179 56.2422C14.1357 56.2422 14.1184 56.2422 13.7051 56.2422V52.0642ZM75.154 52.0642H76.1873V56.2422L75.154 56.2593V54.5641V52.0642ZM17.494 55.3689L17.5112 56.2422C17.0807 56.2422 16.9773 56.2422 16.5812 56.2422L16.564 52.047H17.4768C17.4768 53.2285 17.494 54.1874 17.494 55.3689ZM70.2629 56.2422C69.8496 56.2593 69.729 56.2593 69.3329 56.2422V52.0813L70.3146 52.0642C70.2973 53.5196 70.2629 54.7696 70.2629 56.2422ZM9.72677 52.0128L11.3802 52.0299L11.2079 54.8038L11.139 55.4716L10.9324 57.8175L9.88177 71.8412L9.8301 72.372L7.97012 95.1797L7.84957 97.0461L7.28125 104.409C7.28125 104.923 7.29847 105.128 7.71181 105.231L47.1162 105.248C47.1507 105.248 47.2023 105.248 47.2368 105.248H47.409L47.5812 92.2174V91.2586L47.6673 83.7587C48.2357 83.7587 48.7696 83.793 49.3379 83.793L50.5434 83.8101C50.5607 83.8101 50.6984 83.8272 50.7329 83.8272C50.9568 83.8272 50.8707 83.8272 50.9223 83.8272C50.8018 85.2655 50.9051 92.5085 50.9051 94.5804C50.9051 96.0016 50.7501 104.614 51.0084 105.145C51.2496 105.402 77.2207 105.248 81.1818 105.248C82.594 105.248 90.5851 105.419 91.1707 105.145L88.6907 72.8001L88.6734 72.4405L87.7607 61.2249L87.7434 60.4201L87.0373 52.0299L88.7596 52.0128C88.8284 51.9443 88.8284 52.0128 88.8457 51.7731C88.8801 51.5676 88.8973 48.9649 88.7596 48.8279C88.5357 48.6053 67.9723 48.7423 64.0457 48.7423C63.0296 48.7423 62.9262 48.8279 62.4784 48.8279C62.4612 49.4786 62.3923 50.095 62.3923 51.2252C62.4096 51.6361 62.3579 51.5847 62.3751 51.9786L62.8573 51.9957L64.2868 52.0128L62.444 62.2352L53.7812 62.3037H53.3851C53.3851 62.3037 52.8857 62.2523 53.2646 62.6632C53.4023 62.9543 53.5401 62.9714 53.5918 63.2283C54.2462 64.3926 53.5918 65.8824 53.0751 66.8071C52.6618 67.3892 51.8523 68.2283 51.0946 68.5194L51.0429 68.5365C50.3368 69.0844 48.804 69.0159 48.0634 68.742L47.5984 68.5194C47.3573 68.4166 47.1851 68.3139 46.9957 68.194L46.6512 67.9543C46.5823 67.9029 46.3584 67.6803 46.324 67.6632C46.1518 67.4749 46.2379 67.5776 46.1518 67.4406L45.7557 66.9954C45.4801 66.6872 45.1529 65.6085 45.0323 65.0947C44.9462 64.4269 45.2218 63.468 45.4457 62.9543C45.5318 62.6461 46.0312 62.355 45.5662 62.3208C44.5157 62.2523 36.9379 62.4235 36.6107 62.2352L36.4212 61.8756L36.1801 61.1051L36.094 60.7455L35.2157 56.362C35.0779 55.6771 34.4062 52.4409 34.4751 52.0299L36.094 51.9272C36.404 51.8073 36.2834 51.2937 36.2834 50.4889C36.2834 49.9752 36.2662 49.2903 36.1973 48.8279C35.5946 48.554 24.6757 48.7423 22.9535 48.7423C21.2485 48.7423 10.3295 48.554 9.72677 48.8279C9.62344 48.9478 9.53733 51.8073 9.72677 52.0128Z" fill="#5C081F"/>
<path fill-rule="evenodd" clip-rule="evenodd" d="M5.73923 111.96C5.73923 111.24 5.54982 109.203 6.20427 109.203H6.56592V108.826H3.32812C3.39701 109.665 4.15481 108.655 4.15481 110.025V114.545C4.15481 115.196 3.94813 115.401 3.32812 115.453C3.34535 115.727 3.32813 115.829 3.60369 115.829H6.56592V115.453C5.44647 115.367 5.73923 114.322 5.73923 112.61C6.15257 112.884 6.70366 114.511 6.96199 115.059C7.40977 116.001 6.80699 115.829 9.44199 115.829V115.453C8.1331 115.35 8.15034 112.439 7.0309 112.148C7.58201 111.103 7.46146 110.025 7.9609 109.665C8.06423 111.018 9.33866 110.829 9.33866 109.665C9.33866 108.603 7.8059 108.347 7.25479 109.323C6.51423 110.641 7.13423 111.925 5.73923 111.96Z" fill="#5C081F"/>
<path fill-rule="evenodd" clip-rule="evenodd" d="M69.4183 120.795C69.4183 121.719 69.5905 124.236 69.2461 124.579C69.1427 124.664 69.1427 124.664 69.0222 124.733C68.9533 124.853 68.9533 124.836 68.8672 124.973H70.4516C70.2105 124.819 70.09 124.716 69.8833 124.562L70.0555 121.908L70.5205 123.209C70.6755 123.688 71.0372 124.459 71.0888 124.973C71.33 124.973 71.485 124.99 71.5366 124.921C71.6227 124.784 71.6055 124.579 71.7089 124.254L72.7594 121.343V124.562C72.5355 124.682 72.5011 124.87 72.2083 124.973H74.4127C74.275 124.63 73.8616 124.801 73.8616 123.928C73.8616 123.192 73.7066 120.709 74.0683 120.349C74.0855 120.332 74.1544 120.298 74.1716 120.281C74.2922 120.144 74.2922 120.178 74.4127 119.904H72.6561L71.6744 122.935C71.4505 122.233 70.7616 120.401 70.71 119.904H68.8672C69.005 120.23 69.4183 120.178 69.4183 120.795Z" fill="#5C081F"/>
<path fill-rule="evenodd" clip-rule="evenodd" d="M54.054 115.453C53.8474 115.607 53.6579 115.83 53.5546 115.83C53.434 115.83 53.2963 115.607 53.0379 115.453C52.8829 114.854 52.8657 115.145 53.5029 113.895C53.6751 113.552 53.8646 113.004 54.1401 112.799C54.1401 113.261 54.1401 113.706 54.1401 114.169C54.1229 114.768 54.0885 115.008 54.054 115.453ZM52.9518 113.809L53.0379 111.138C53.3307 111.069 53.434 110.761 53.5546 110.761C53.6579 110.761 53.8301 111.018 54.0885 111.138C54.054 111.874 54.2435 111.343 53.6579 112.491C53.5201 112.747 53.434 112.936 53.3135 113.158L52.9518 113.809ZM51.8324 111.6C51.8324 112.319 51.9701 115.076 51.6774 115.402C51.4707 115.624 51.3846 115.573 51.2812 115.83H55.8107C55.6901 115.556 55.4835 115.607 55.3285 115.299C55.1907 115.025 55.2424 111.48 55.294 111.361C55.4662 110.932 55.6729 111.104 55.8107 110.761H51.2812C51.3846 111.052 51.6085 110.984 51.7635 111.292C51.8496 111.463 51.8324 111.343 51.8324 111.6Z" fill="#5C081F"/>
<path fill-rule="evenodd" clip-rule="evenodd" d="M56.8324 111.6C56.8324 112.097 56.9012 114.991 56.7979 115.23C56.6257 115.658 56.419 115.487 56.2812 115.83H58.5201C58.2274 115.145 57.4351 116.035 58.5029 113.895C58.6063 113.689 58.6751 113.552 58.7957 113.364L59.1574 112.799C59.1574 113.86 59.3468 115.128 58.8301 115.521C58.6751 115.693 58.6751 115.727 58.6062 115.83H60.8107C60.7074 115.641 60.6729 115.624 60.4663 115.453C60.294 115.316 60.2596 115.265 60.2596 115.008C60.2596 114.494 60.2079 111.6 60.294 111.361C60.4318 111.069 60.3974 111.224 60.6385 111.052C60.7246 110.932 60.7418 110.932 60.8107 110.761H58.589C58.7785 111.224 59.0024 110.813 59.1057 111.446C59.1401 111.686 58.3307 113.21 58.1068 113.587C57.9862 113.775 58.0551 113.689 57.9518 113.809C57.9518 113.432 57.8829 111.566 58.0207 111.309C58.2274 110.898 58.3479 111.172 58.5029 110.761H56.2812C56.4018 111.052 56.6085 110.984 56.7635 111.292C56.8496 111.463 56.8324 111.343 56.8324 111.6Z" fill="#5C081F"/>
<path fill-rule="evenodd" clip-rule="evenodd" d="M34.9051 112.234C34.9051 111.566 35.1807 111.275 35.8179 111.224V113.159C35.2496 113.107 34.9051 112.851 34.9051 112.234ZM33.7857 112.063C33.7857 112.816 33.734 113.022 34.5262 113.433L33.5273 115.196C33.2173 115.522 33.1829 115.333 33.1484 115.83H34.6123L35.6284 113.878C35.6973 113.775 35.749 113.707 35.8179 113.621V115.368L35.5768 115.487C35.3873 115.607 35.4045 115.607 35.3184 115.83H37.5057C37.4023 115.676 37.4023 115.676 37.2473 115.505C37.0751 115.385 37.0234 115.436 37.0234 115.179V111.412C37.0234 111.138 37.0579 111.173 37.1784 111.104C37.5746 110.967 37.4884 111.258 37.4884 110.779C35.8696 110.813 33.7857 110.47 33.7857 112.063Z" fill="#5C081F"/>
<path fill-rule="evenodd" clip-rule="evenodd" d="M83.4049 115.282V113.347C84.7827 113.672 84.3349 114.939 84.0249 115.162C83.7322 115.299 83.6805 115.282 83.4049 115.282ZM83.4049 112.97V111.224C84.6105 111.515 84.2144 112.456 84.0249 112.679C83.7666 112.97 83.7838 112.867 83.4049 112.97ZM82.2855 111.6C82.2855 112.097 82.3544 114.991 82.251 115.23C82.1305 115.539 82.1477 115.384 81.9238 115.556C81.8205 115.658 81.8033 115.675 81.7344 115.83C83.181 115.778 85.6266 116.172 85.6266 114.357C85.6266 113.826 85.3166 113.295 84.6966 113.158L84.9722 112.97C85.8333 112.388 85.4544 110.83 84.2316 110.778C83.4566 110.778 82.5438 110.761 81.7344 110.761C81.8722 111.104 82.2855 110.984 82.2855 111.6Z" fill="#5C081F"/>
<path fill-rule="evenodd" clip-rule="evenodd" d="M23.8792 111.6C23.8792 112.097 23.9481 114.991 23.8448 115.23C23.7242 115.539 23.7415 115.384 23.5176 115.556C23.3798 115.727 23.4659 115.59 23.3281 115.83H25.5498C25.257 115.128 24.9987 116.497 24.9987 113.432H26.187C26.187 114.785 26.3592 115.128 25.8253 115.556C25.7048 115.658 25.7565 115.573 25.6531 115.83H27.7715C27.8576 115.573 27.3237 115.487 27.3065 115.179C27.3065 114.665 27.2376 111.6 27.3409 111.361C27.4615 111.069 27.4442 111.224 27.6853 111.052C27.8576 110.898 27.7542 111.018 27.8576 110.761H25.6531C25.9287 111.446 26.187 110.145 26.187 113.073H24.9987C24.9987 110.162 25.2398 111.446 25.5326 110.761H23.3281C23.4659 111.138 23.2937 110.83 23.6898 111.155C23.8448 111.292 23.8792 111.326 23.8792 111.6Z" fill="#5C081F"/>
<path fill-rule="evenodd" clip-rule="evenodd" d="M87.3792 113.809C87.3792 113.141 87.2759 111.121 88.292 111.172C89.4459 111.224 89.4459 115.35 88.292 115.436C87.672 115.487 87.3792 114.46 87.3792 113.809ZM86.0703 113.158C86.0703 114.511 86.7075 115.83 88.0164 115.83C88.8086 115.83 89.4286 115.812 89.9109 115.025C91.1164 113.056 90.0486 110.761 88.5848 110.761H87.9303C86.8281 110.761 86.0703 112.045 86.0703 113.158Z" fill="#5C081F"/>
<path fill-rule="evenodd" clip-rule="evenodd" d="M29.7151 113.809C29.7151 113.141 29.6118 111.121 30.6279 111.172C31.7818 111.224 31.7818 115.35 30.6279 115.436C30.0079 115.487 29.7151 114.46 29.7151 113.809ZM28.4062 113.158C28.4062 114.511 29.0435 115.83 30.3524 115.83C31.1446 115.83 31.7646 115.812 32.2468 115.025C33.4524 113.056 32.3846 110.761 30.9207 110.761H30.2663C29.164 110.761 28.4062 112.045 28.4062 113.158Z" fill="#5C081F"/>
<path fill-rule="evenodd" clip-rule="evenodd" d="M48.319 113.072C48.319 110.144 48.6118 111.445 48.8873 110.761H46.6484C46.8034 111.137 47.1995 110.949 47.1995 111.771V114.819C47.1823 115.144 47.1651 115.178 47.1134 115.452C46.9412 115.589 46.8379 115.709 46.6484 115.829H48.8701C48.8357 115.709 48.8184 115.675 48.7323 115.589C48.4568 115.35 48.3534 115.555 48.319 114.904C48.2845 114.493 48.319 113.963 48.319 113.534C48.5773 113.723 49.249 115.469 49.3351 115.829H50.9023C50.7129 115.298 50.7301 116.052 50.0412 114.476C49.8173 113.928 49.6968 113.466 49.249 113.158C49.6279 112.421 49.4901 111.702 49.8862 111.411C49.9034 112.216 50.8162 112.165 50.8162 111.411C50.8162 110.658 50.2823 110.761 49.8862 110.761C48.8701 110.761 49.4901 112.969 48.319 113.072Z" fill="#5C081F"/>
<path fill-rule="evenodd" clip-rule="evenodd" d="M38.9635 123.192C40.1002 123.123 39.6524 123.141 40.3585 123.123C40.3585 123.877 40.4963 124.305 40.1174 124.613C39.8935 124.819 39.928 124.75 39.7902 124.973H42.0119C41.9602 124.853 41.943 124.853 41.8913 124.784C41.6158 124.579 41.4608 124.63 41.4608 124.202C41.4608 123.706 41.4091 120.795 41.5124 120.555C41.633 120.264 41.5985 120.418 41.8397 120.247C41.9602 120.093 41.9258 120.144 42.0119 119.904H39.9624C40.1863 120.76 40.3585 119.322 40.3585 122.182C40.3585 122.73 39.4285 122.541 39.4285 122.541C39.3252 121.891 39.153 120.915 39.5663 120.298C39.6696 120.144 39.6869 120.11 39.7385 119.904H37.6719C37.8441 120.349 38.0508 120.058 38.1885 120.641C38.2747 120.932 38.223 121.394 38.223 121.719C38.223 122.49 38.2058 123.192 38.9635 123.192Z" fill="#5C081F"/>
<path fill-rule="evenodd" clip-rule="evenodd" d="M34.3366 124.562C34.4227 124.237 34.526 124.168 34.6294 123.843C34.991 122.833 34.991 121.531 34.991 120.436H35.7316C35.7316 125.316 36.1105 124.562 34.3366 124.562ZM33.8544 119.922L33.8716 120.35H34.4399C34.5433 121.497 34.5949 121.925 34.2849 123.227C34.0955 124.066 33.8888 124.408 33.2344 124.751V126.326H33.5099C33.6305 124.922 34.6294 124.973 35.6455 124.973C36.6444 124.973 36.8338 125.521 37.0233 126.326H37.2988V124.751C36.9544 124.665 36.7477 124.545 36.7477 124.117C36.7477 123.432 36.6444 120.829 36.8855 120.47C36.9888 120.384 36.8338 120.521 37.0922 120.299C37.3505 120.299 37.2988 120.23 37.2988 119.922H33.8544Z" fill="#5C081F"/>
<path fill-rule="evenodd" clip-rule="evenodd" d="M77.9433 111.601C77.9433 112.097 77.995 114.991 77.8917 115.231C77.7711 115.539 77.8056 115.385 77.5644 115.556C77.4439 115.642 77.4267 115.659 77.375 115.83C78.2706 115.83 79.1833 115.813 80.0789 115.83C80.6989 115.83 80.94 115.899 80.9917 115.368C81.0433 114.94 81.0778 114.546 81.0778 114.084C80.4578 114.135 80.94 114.289 80.4406 114.905C80.2167 115.197 79.8378 115.368 79.3211 115.368C78.8906 115.368 79.0456 113.912 79.0456 113.433C79.6139 113.741 79.545 113.861 79.7 114.546H79.9756V111.96H79.7C79.5278 112.697 79.6828 112.731 79.0456 113.073V111.224C79.4933 111.224 80.01 111.224 80.2511 111.601C80.5783 112.063 80.1994 112.286 80.8022 112.337V110.779H77.375C77.5128 111.104 77.9433 110.984 77.9433 111.601Z" fill="#5C081F"/>
<path fill-rule="evenodd" clip-rule="evenodd" d="M11.6706 113.158V111.223C12.1872 111.343 12.3594 111.617 12.3767 112.165C12.3939 112.73 12.1872 113.038 11.6706 113.158ZM10 111.035C10.2928 111.069 10.5511 111.103 10.5511 111.412V115.179C10.5511 115.487 10.2928 115.812 10 115.846H12.2389C12.1011 115.504 11.6706 115.607 11.6706 115.007V113.535C13.0139 113.535 13.5134 113.329 13.5134 111.959C13.5134 110.487 11.24 110.812 10 110.778V111.035Z" fill="#5C081F"/>
<path fill-rule="evenodd" clip-rule="evenodd" d="M39.6237 113.158V111.224C40.1403 111.343 40.3126 111.617 40.3298 112.165C40.347 112.73 40.1403 113.039 39.6237 113.158ZM37.9531 111.035C38.2459 111.069 38.5042 111.104 38.5042 111.412V115.179C38.5042 115.487 38.2287 115.71 37.9531 115.83H40.192C40.1576 115.71 40.1576 115.693 40.037 115.59C39.4859 115.162 39.6237 115.59 39.6237 113.535C40.967 113.535 41.4665 113.33 41.4665 111.96C41.4665 110.487 39.1931 110.813 37.9531 110.761V111.035Z" fill="#5C081F"/>
<path fill-rule="evenodd" clip-rule="evenodd" d="M18.7812 113.347C18.7812 114.614 19.5218 115.83 20.7274 115.83C21.4335 115.83 21.6918 115.898 22.2429 115.487C22.6218 115.196 22.5874 115.162 22.5874 114.545C22.0879 114.665 21.8468 115.693 20.934 115.367C19.8318 114.973 19.694 111.72 21.0029 111.206C21.6574 110.967 22.2946 111.754 22.3118 112.508H22.6735V110.761C22.3118 110.795 22.3979 110.71 22.3118 111.035C21.6574 110.984 22.0707 110.761 20.8307 110.761C19.6252 110.761 18.7812 112.148 18.7812 113.347Z" fill="#5C081F"/>
<path fill-rule="evenodd" clip-rule="evenodd" d="M42.0156 113.347C42.0156 114.614 42.7562 115.83 43.9617 115.83C44.6678 115.83 44.9262 115.898 45.4601 115.487C45.839 115.196 45.8217 115.162 45.8217 114.545C45.374 114.665 45.529 114.854 45.1328 115.145C44.1512 115.915 43.3245 115.025 43.3245 113.535C43.3245 110.111 45.5117 111.001 45.5462 112.508H45.9078V110.761C45.5462 110.795 45.6323 110.71 45.5462 111.035C44.8917 110.984 45.3051 110.761 44.0651 110.761C42.8595 110.761 42.0156 112.148 42.0156 113.347Z" fill="#5C081F"/>
<path fill-rule="evenodd" clip-rule="evenodd" d="M15.6473 112.884C15.8195 113.193 16.009 113.706 16.1123 114.083H15.2684C15.4061 113.689 15.5267 113.364 15.6473 112.884ZM13.8906 115.847H15.3717C15.2339 115.47 14.9067 115.504 14.9067 115.282C14.9584 114.956 14.9928 114.854 15.0961 114.443H16.2845C16.3706 114.819 16.4912 115.076 16.5773 115.453C16.1467 115.556 16.1812 115.658 16.1123 115.83H18.2306C18.0756 115.539 18.0756 115.59 17.5934 114.717L16.715 112.097C16.5773 111.72 16.3189 111.172 16.2845 110.761H15.9228L14.3039 115.247C14.0112 115.658 14.0112 115.35 13.8906 115.847Z" fill="#5C081F"/>
<path fill-rule="evenodd" clip-rule="evenodd" d="M79.6983 121.497H80.0599C80.0599 120.761 80.2322 120.538 80.7144 120.298C80.7316 120.316 80.7488 120.316 80.766 120.333L80.9555 120.521C81.0588 120.675 81.4722 122.199 80.2494 122.233V122.593C81.696 122.713 81.3172 124.459 80.6627 124.562C80.0772 124.665 79.8188 123.689 79.5605 124.185C79.4055 124.511 80.1288 124.99 80.5249 124.99C81.6444 124.99 82.471 124.99 82.471 123.432C82.471 122.918 82.0749 122.507 81.6444 122.405C81.7133 122.302 82.4366 121.874 82.3333 121.069C82.161 119.374 80.2666 120.042 80.2322 120.042C80.0427 120.059 80.0944 120.042 80.0772 119.939C80.0599 119.905 79.9566 119.888 79.6983 119.905V121.497Z" fill="#5C081F"/>
<path fill-rule="evenodd" clip-rule="evenodd" d="M76.7353 124.014C76.7353 124.271 76.5976 124.373 76.4598 124.476C76.2187 124.014 76.5459 123.74 75.8053 123.74C75.3748 123.74 75.2715 124.493 75.5987 124.819C75.8053 125.058 76.012 124.973 76.4426 124.973C77.2003 124.973 78.2337 121.325 78.6815 120.606C78.9226 120.264 78.9398 120.281 79.1292 119.904H78.1131C78.1303 120.469 77.9753 121.052 77.7859 121.48C77.6309 121.856 77.5103 122.182 77.2865 122.456C77.1315 121.993 77.0626 121.873 76.8903 121.462C76.7526 121.137 76.5287 120.709 76.4598 120.435C76.6492 120.161 76.6837 120.144 76.8215 119.904H74.7031C74.9098 120.504 74.8753 119.579 75.8226 121.891C75.9431 122.182 76.7353 123.825 76.7353 124.014Z" fill="#5C081F"/>
<path fill-rule="evenodd" clip-rule="evenodd" d="M57.309 109.768C57.7568 110.744 59.5135 110.607 59.7029 109.854C59.8407 109.306 59.7546 109.289 59.2379 109.289C58.9107 109.289 58.8762 109.374 58.8762 109.665C58.8418 110.128 58.859 109.991 58.3768 110.008C58.0668 110.025 58.2563 109.289 57.9463 109.289H57.3951C57.1885 109.289 57.2057 109.58 57.309 109.768Z" fill="#5C081F"/>
<path fill-rule="evenodd" clip-rule="evenodd" d="M65.7174 113.072C65.7174 110.144 66.0102 111.445 66.2858 110.761H64.0469C64.2019 111.137 64.6152 110.949 64.6152 111.771V114.819C64.5808 115.144 64.5635 115.178 64.5119 115.452C64.3397 115.589 64.2363 115.709 64.0469 115.829H66.2858C66.2341 115.709 66.2169 115.675 66.148 115.589C65.8552 115.35 65.7691 115.555 65.7174 114.904C65.7002 114.493 65.7174 113.963 65.7174 113.534C65.9758 113.723 66.6647 115.469 66.7335 115.829H68.318C68.1285 115.298 68.1285 116.052 67.4569 114.476C67.2158 113.928 67.0952 113.466 66.6474 113.158C67.0435 112.421 66.9058 111.702 67.3019 111.411C67.3191 112.216 68.2147 112.165 68.2147 111.411C68.2147 110.658 67.6808 110.761 67.3019 110.761C66.2685 110.761 66.8885 112.969 65.7174 113.072Z" fill="#5C081F"/>
<path fill-rule="evenodd" clip-rule="evenodd" d="M70.3424 113.176V111.241C70.8591 111.361 71.0313 111.635 71.0485 112.166C71.0658 112.748 70.8591 113.056 70.3424 113.176ZM68.6719 111.053C68.9647 111.087 69.223 111.121 69.223 111.429V115.197C69.223 115.505 68.9647 115.727 68.6719 115.847H70.9108C70.8763 115.727 70.8763 115.71 70.773 115.607C70.2219 115.179 70.3424 115.607 70.3424 113.553C71.703 113.553 72.1852 113.347 72.1852 111.977C72.1852 110.505 69.9119 110.83 68.6719 110.779V111.053Z" fill="#5C081F"/>
<path fill-rule="evenodd" clip-rule="evenodd" d="M73.9614 112.884C74.1336 113.193 74.3058 113.706 74.4092 114.083H73.5825C73.7203 113.689 73.8236 113.364 73.9614 112.884ZM72.1875 115.847H73.6858C73.5481 115.47 73.2208 115.504 73.2208 115.282C73.2725 114.956 73.3069 114.854 73.3931 114.443H74.5986C74.6847 114.819 74.8053 115.076 74.8742 115.453C74.4436 115.556 74.4781 115.658 74.4092 115.83H76.5447C76.3897 115.539 76.3897 115.59 75.9075 114.717L75.0292 112.097C74.8742 111.72 74.6331 111.172 74.5986 110.761H74.2369L72.6181 115.247C72.3253 115.658 72.3253 115.35 72.1875 115.847Z" fill="#5C081F"/>
<path fill-rule="evenodd" clip-rule="evenodd" d="M91.3636 111.548C91.3636 112.045 91.4153 114.956 91.3119 115.196C91.1397 115.607 90.9503 115.452 90.8125 115.778H93.0342C92.7586 115.093 91.9492 116 93.0342 113.843C93.1203 113.655 93.2064 113.518 93.3269 113.312L93.6714 112.747C93.6714 113.809 93.8608 115.076 93.3614 115.47C93.1892 115.641 93.2064 115.675 93.1375 115.778H95.3419C95.2386 115.607 95.2042 115.572 94.9803 115.401C94.8081 115.264 94.7908 115.213 94.7908 114.956C94.7908 114.459 94.7219 111.548 94.8253 111.309C94.9458 111.018 94.9286 111.172 95.1525 111.001C95.2558 110.898 95.2731 110.898 95.3419 110.727H93.1203C93.3097 111.172 93.5336 110.778 93.6197 111.394C93.6542 111.651 92.8447 113.158 92.6208 113.535C92.5175 113.723 92.5864 113.637 92.4658 113.757C92.4658 113.381 92.4142 111.514 92.5519 111.257C92.7586 110.846 92.8619 111.12 93.0342 110.727H90.8125C90.9158 111.001 91.1397 110.949 91.2947 111.24C91.3808 111.411 91.3636 111.292 91.3636 111.548Z" fill="#5C081F"/>
<path fill-rule="evenodd" clip-rule="evenodd" d="M91.8176 109.717C92.2826 110.71 94.0221 110.556 94.2287 109.802C94.3493 109.272 94.2804 109.254 93.7637 109.254C93.4193 109.254 93.4021 109.323 93.3848 109.614C93.3676 110.076 93.3848 109.956 92.9026 109.974C92.5754 109.974 92.7648 109.254 92.4548 109.254H91.9037C91.6971 109.254 91.7315 109.528 91.8176 109.717Z" fill="#5C081F"/>
<path fill-rule="evenodd" clip-rule="evenodd" d="M13.2956 122.319V120.384C13.8122 120.504 13.9844 120.778 14.0017 121.309C14.0189 121.891 13.8122 122.199 13.2956 122.319ZM11.625 120.196C11.9178 120.23 12.1761 120.264 12.1761 120.573V124.34C12.1761 124.648 11.9006 124.87 11.625 124.973H13.8639C13.8294 124.87 13.8294 124.853 13.7089 124.751C13.1578 124.322 13.2956 124.751 13.2956 122.679C14.6389 122.679 15.1384 122.49 15.1384 121.12C15.1384 119.648 12.865 119.973 11.625 119.922V120.196Z" fill="#5C081F"/>
<path fill-rule="evenodd" clip-rule="evenodd" d="M8.09087 122.217C8.09087 119.289 8.38363 120.59 8.65918 119.905H6.4375C6.57528 120.282 6.98863 120.093 6.98863 120.915V123.963C6.95418 124.289 6.93696 124.323 6.8853 124.597C6.71307 124.734 6.60972 124.854 6.4375 124.973H8.65918C8.60752 124.854 8.59031 124.819 8.52142 124.734C8.22865 124.494 8.14253 124.7 8.09087 124.049C8.07365 123.638 8.09087 123.107 8.09087 122.662C8.3492 122.867 9.02087 124.614 9.10698 124.973H10.6914C10.4847 124.443 10.5019 125.196 9.83028 123.621C9.58917 123.073 9.46861 122.611 9.02083 122.302C9.41695 121.566 9.27917 120.847 9.67528 120.556C9.6925 121.343 10.5881 121.309 10.5881 120.556C10.5881 119.802 10.0542 119.905 9.67528 119.905C8.64195 119.905 9.26198 122.114 8.09087 122.217Z" fill="#5C081F"/>
<path fill-rule="evenodd" clip-rule="evenodd" d="M17.0223 122.011C17.1945 122.319 17.384 122.833 17.4873 123.21H16.6606C16.7984 122.816 16.9018 122.49 17.0223 122.011ZM15.2656 124.973H16.764C16.6262 124.596 16.2817 124.631 16.2817 124.408C16.3506 124.083 16.3679 123.997 16.4712 123.569H17.6767C17.7628 123.946 17.8834 124.203 17.9523 124.596C17.5217 124.682 17.5562 124.785 17.4873 124.956H19.6228C19.4678 124.665 19.4679 124.716 18.9856 123.843L18.1073 121.223C17.9523 120.847 17.7112 120.299 17.6767 119.888H17.3151L15.6962 124.374C15.4034 124.785 15.4034 124.477 15.2656 124.973Z" fill="#5C081F"/>
<path fill-rule="evenodd" clip-rule="evenodd" d="M20.7089 120.726C20.7089 121.223 20.7606 124.134 20.6573 124.373C20.5367 124.664 20.5712 124.51 20.3301 124.682C20.2095 124.784 20.2095 124.801 20.1406 124.956C21.0362 124.956 21.9489 124.956 22.8445 124.956C23.4645 124.973 23.7056 125.024 23.7573 124.51C23.8089 124.065 23.8434 123.688 23.8434 123.209C23.2234 123.26 23.7056 123.432 23.2062 124.048C22.9823 124.339 22.6034 124.51 22.0867 124.51C21.6562 124.51 21.8112 123.038 21.8112 122.575C22.3795 122.867 22.3106 123.004 22.4656 123.671H22.7412V121.103H22.4656C22.2934 121.839 22.4484 121.873 21.8112 122.199V120.367C22.2589 120.367 22.7756 120.367 23.0167 120.726C23.3439 121.206 22.9651 121.411 23.5678 121.462V119.904H20.1406C20.2784 120.23 20.7089 120.11 20.7089 120.726Z" fill="#5C081F"/>
<path fill-rule="evenodd" clip-rule="evenodd" d="M26.1393 124.425V122.49C27.5171 122.816 27.0693 124.083 26.7593 124.322C26.4665 124.459 26.4149 124.442 26.1393 124.425ZM26.1393 122.131V120.384C27.3449 120.658 26.966 121.617 26.7593 121.84C26.501 122.114 26.5354 122.028 26.1393 122.131ZM25.0199 120.744C25.0199 121.24 25.0888 124.151 24.9854 124.391C24.8649 124.682 24.8821 124.528 24.6582 124.699C24.5549 124.819 24.5376 124.836 24.4688 124.973C25.9154 124.922 28.361 125.333 28.361 123.501C28.361 122.987 28.051 122.456 27.431 122.319L27.7065 122.131C28.5676 121.531 28.206 119.973 26.9832 119.922C26.191 119.922 25.2782 119.922 24.4688 119.922C24.6065 120.247 25.0199 120.127 25.0199 120.744Z" fill="#5C081F"/>
<path fill-rule="evenodd" clip-rule="evenodd" d="M29.5355 120.744C29.5355 121.24 29.5872 124.151 29.501 124.391C29.3805 124.682 29.3977 124.528 29.1566 124.699C29.0533 124.802 29.036 124.819 28.9844 124.973C29.8627 124.973 30.7755 124.973 31.671 124.973C32.291 124.99 32.5322 125.042 32.601 124.528C32.6527 124.083 32.6872 123.706 32.6872 123.227C32.0499 123.278 32.5322 123.449 32.0327 124.066C31.8088 124.34 31.4299 124.511 30.9305 124.511C30.4827 124.511 30.6377 123.055 30.6377 122.576C31.2233 122.884 31.1372 123.004 31.2922 123.689H31.5677V121.12H31.2922C31.1199 121.857 31.2749 121.891 30.6377 122.216V120.384C31.0855 120.384 31.6022 120.367 31.8605 120.744C32.1705 121.206 31.8088 121.429 32.4116 121.48L32.3944 119.922H28.9844C29.1049 120.247 29.5355 120.127 29.5355 120.744Z" fill="#5C081F"/>
<path fill-rule="evenodd" clip-rule="evenodd" d="M43.1933 120.727C43.1933 121.223 43.245 124.117 43.1417 124.357C43.0211 124.665 43.0556 124.511 42.8144 124.682C42.6939 124.768 42.6939 124.785 42.625 124.956C43.5206 124.956 44.4333 124.939 45.3289 124.956C45.9489 124.956 46.19 125.025 46.2417 124.494C46.2933 124.049 46.3278 123.672 46.3278 123.21C45.7078 123.261 46.19 123.415 45.6906 124.031C45.4667 124.323 45.0878 124.494 44.5711 124.494C44.1406 124.494 44.2956 123.038 44.2956 122.559C44.8639 122.867 44.7778 122.987 44.95 123.672H45.2256V121.086H44.95C44.7778 121.823 44.9328 121.857 44.2956 122.199V120.35C44.7433 120.35 45.26 120.35 45.5011 120.71C45.8283 121.189 45.4494 121.412 46.0522 121.463V119.888H42.625C42.7628 120.23 43.1933 120.11 43.1933 120.727Z" fill="#5C081F"/>
<path fill-rule="evenodd" clip-rule="evenodd" d="M46.9609 122.49C46.9609 123.775 47.6843 124.973 48.8898 124.973C49.5959 124.973 49.8543 125.042 50.4054 124.631C50.7843 124.34 50.7498 124.305 50.7498 123.689C50.3021 123.809 50.457 123.997 50.0609 124.305C49.0793 125.076 48.2526 124.168 48.2526 122.679C48.2526 119.254 50.4398 120.144 50.4743 121.668H50.8359V119.922C50.4743 119.956 50.5604 119.871 50.4743 120.196C49.8198 120.144 50.2332 119.922 48.9932 119.922C47.7876 119.922 46.9609 121.309 46.9609 122.49Z" fill="#5C081F"/>
<path fill-rule="evenodd" clip-rule="evenodd" d="M53.1221 122.199C53.1221 119.288 53.4149 120.59 53.6904 119.888H51.4688C51.6065 120.264 52.0199 120.093 52.0199 120.915V123.946C51.9854 124.271 51.9682 124.305 51.9165 124.596C51.7443 124.716 51.641 124.836 51.4688 124.973H53.6904C53.6388 124.836 53.6215 124.819 53.5526 124.716C53.2599 124.494 53.1738 124.682 53.1221 124.049C53.1049 123.62 53.1221 123.09 53.1221 122.662C53.3804 122.85 54.0693 124.614 54.1382 124.973H55.7226C55.5332 124.442 55.5332 125.179 54.8615 123.603C54.6204 123.055 54.4999 122.593 54.0521 122.285C54.4482 121.566 54.3104 120.829 54.7065 120.538C54.7238 121.343 55.6193 121.292 55.6193 120.538C55.6193 119.802 55.0854 119.905 54.7065 119.905C53.6732 119.905 54.2932 122.097 53.1221 122.199Z" fill="#5C081F"/>
<path fill-rule="evenodd" clip-rule="evenodd" d="M58.9603 124.614C58.7364 124.751 58.5642 124.973 58.4436 124.99C58.3231 124.99 58.2025 124.768 57.9442 124.614C57.7892 124.014 57.7719 124.305 58.4092 123.055C58.5642 122.713 58.7536 122.148 59.0464 121.942C59.0464 122.405 59.0464 122.867 59.0464 123.329C59.0292 123.929 58.9947 124.151 58.9603 124.614ZM57.8408 122.953L57.9442 120.281C58.2369 120.213 58.3403 119.922 58.4436 119.922C58.5642 119.922 58.7364 120.179 58.9947 120.281C58.9603 121.035 59.1497 120.487 58.5642 121.634C58.4264 121.891 58.3403 122.079 58.2197 122.319L57.8408 122.953ZM56.7386 120.744C56.7386 121.48 56.8764 124.237 56.5836 124.545C56.3769 124.785 56.2908 124.716 56.1875 124.99H60.7169C60.5964 124.699 60.3897 124.768 60.2347 124.459C60.0797 124.185 60.1486 120.641 60.2003 120.504C60.3725 120.093 60.5792 120.247 60.7169 119.922H56.1875C56.2908 120.196 56.5147 120.144 56.6697 120.453C56.7558 120.607 56.7386 120.487 56.7386 120.744Z" fill="#5C081F"/>
<path fill-rule="evenodd" clip-rule="evenodd" d="M61.7386 120.744C61.7386 121.257 61.8075 124.151 61.7042 124.391C61.5319 124.819 61.3253 124.648 61.1875 124.99H63.4092C63.1336 124.288 62.3414 125.196 63.4092 123.055C63.5125 122.85 63.5814 122.713 63.7019 122.507L64.0464 121.942C64.0464 123.004 64.2531 124.271 63.7364 124.665C63.5642 124.853 63.5814 124.888 63.5125 124.99H65.7169C65.6136 124.802 65.5792 124.785 65.3553 124.596C65.2003 124.459 65.1658 124.425 65.1658 124.151C65.1658 123.655 65.1142 120.761 65.2003 120.521C65.3208 120.213 65.3036 120.367 65.5447 120.196C65.6308 120.093 65.6481 120.093 65.7169 119.922H63.4953C63.6847 120.384 63.9086 119.973 63.9947 120.607C64.0464 120.847 63.2369 122.37 63.0131 122.747C62.8925 122.936 62.9614 122.833 62.8581 122.953C62.8581 122.576 62.7892 120.727 62.9269 120.453C63.1336 120.042 63.2369 120.316 63.4092 119.922H61.1875C61.3081 120.213 61.5147 120.144 61.6697 120.453C61.7558 120.607 61.7386 120.487 61.7386 120.744Z" fill="#5C081F"/>
<path fill-rule="evenodd" clip-rule="evenodd" d="M62.2026 118.912C62.6676 119.905 64.407 119.768 64.6137 118.998C64.7514 118.467 64.6653 118.45 64.1487 118.45C63.8042 118.45 63.787 118.518 63.7698 118.809C63.7526 119.272 63.7698 119.152 63.2876 119.169C62.9776 119.186 63.167 118.45 62.857 118.45H62.2887C62.0992 118.45 62.1164 118.724 62.2026 118.912Z" fill="#5C081F"/>
<path fill-rule="evenodd" clip-rule="evenodd" d="M83.4355 120.744C83.4355 121.257 83.4872 124.151 83.3839 124.391C83.2633 124.682 83.2977 124.528 83.0566 124.699C82.9361 124.802 82.9361 124.819 82.8672 124.99C83.7627 124.99 84.6755 124.973 85.5711 124.99C86.1911 124.99 86.4322 125.059 86.4839 124.528C86.5355 124.083 86.57 123.706 86.57 123.227C85.95 123.278 86.4322 123.449 85.9327 124.066C85.7089 124.357 85.33 124.528 84.8133 124.528C84.3827 124.528 84.5377 123.055 84.5377 122.593C85.1061 122.884 85.02 123.021 85.1922 123.689H85.4677V121.12H85.1922C85.02 121.857 85.1577 121.891 84.5377 122.216V120.384C84.9855 120.384 85.5022 120.384 85.7433 120.744C86.0705 121.223 85.6916 121.429 86.2944 121.48V119.922H82.8672C83.005 120.264 83.4355 120.127 83.4355 120.744Z" fill="#5C081F"/>
<path fill-rule="evenodd" clip-rule="evenodd" d="M87.5355 120.744C87.5355 121.24 87.5872 124.134 87.501 124.374C87.3288 124.802 87.1222 124.648 86.9844 124.973H89.206C88.9305 124.288 88.1383 125.179 89.206 123.038C89.2921 122.833 89.3783 122.713 89.4988 122.507L89.8433 121.942C89.8433 123.004 90.0327 124.271 89.5333 124.665C89.361 124.836 89.3783 124.87 89.3094 124.973H91.5138C91.4105 124.785 91.376 124.768 91.1521 124.596C90.9799 124.459 90.9627 124.408 90.9627 124.151C90.9627 123.638 90.8938 120.744 90.9971 120.504C91.1177 120.213 91.1005 120.367 91.3244 120.196C91.4277 120.093 91.4449 120.093 91.5138 119.922H89.2921C89.4816 120.367 89.7055 119.973 89.7916 120.59C89.826 120.847 89.0166 122.353 88.7927 122.73C88.6894 122.918 88.7583 122.833 88.6377 122.953C88.6377 122.576 88.586 120.71 88.7238 120.453C88.9305 120.042 89.0338 120.316 89.206 119.922H86.9844C87.0877 120.196 87.3116 120.127 87.4666 120.436C87.5527 120.607 87.5355 120.487 87.5355 120.744Z" fill="#5C081F"/>
<path fill-rule="evenodd" clip-rule="evenodd" d="M87.9973 118.912C88.4623 119.905 90.2017 119.751 90.3912 118.997C90.529 118.466 90.4601 118.432 89.9434 118.432C89.599 118.449 89.5817 118.518 89.5645 118.809C89.5473 119.271 89.5645 119.134 89.0823 119.168C88.7551 119.168 88.9445 118.432 88.6345 118.432H88.0834C87.8767 118.432 87.9112 118.723 87.9973 118.912Z" fill="#5C081F"/>
</g>
<defs>
<clipPath id="clip0_4355_4105">
<rect width="93" height="78.7653" fill="white" transform="translate(3 48)"/>
</clipPath>
</defs>
</svg>
