<svg width="185" height="153" viewBox="0 0 185 153" fill="none" xmlns="http://www.w3.org/2000/svg">
<path fill-rule="evenodd" clip-rule="evenodd" d="M39.5473 60.5198C42.1542 59.5502 44.3776 57.6974 46.1615 55.7972C48.471 56.9305 51.2676 57.5337 54.3571 57.4906C55.3309 60.1449 56.9165 62.3855 58.9202 64.3503C57.8128 67.0564 57.2914 69.7624 57.356 72.4641C54.5898 73.6663 52.3879 75.2434 50.5695 77.079C47.9627 76.006 45.2867 75.476 42.5463 75.4933C41.5035 72.8864 39.7671 70.4345 37.6944 68.5171C38.8363 65.8112 39.5774 63.2258 39.5473 60.5198ZM57.425 140.614L53.9262 130.66L56.6365 130.13L57.1363 131.944L58.0929 131.755L57.8817 129.885L60.6265 129.35L61.2643 139.864L57.425 140.614ZM57.5586 133.741C57.912 134.879 58.3213 136.292 58.7952 137.981C58.679 135.96 58.5626 134.491 58.4592 133.569L57.5586 133.741ZM70.7526 136.745L68.2577 137.757C67.4691 138.076 66.8486 138.257 66.3919 138.296C65.9351 138.339 65.5086 138.223 65.1078 137.947C64.7071 137.671 64.3365 137.115 64.0005 136.279C63.7721 135.715 63.7031 135.284 63.7893 134.991C63.8755 134.694 64.1556 134.383 64.6295 134.052C63.9962 134.155 63.5135 134.099 63.1817 133.875C62.8543 133.655 62.5613 133.228 62.307 132.595L61.9451 131.699C61.6822 131.044 61.5659 130.531 61.5831 130.152C61.6046 129.781 61.7555 129.467 62.0356 129.221C62.3113 128.971 62.9534 128.644 63.9616 128.235L66.8572 127.058L70.7526 136.745ZM67.5769 136.111L66.7107 133.957C66.6073 134.004 66.5255 134.039 66.4651 134.06C66.2281 134.159 66.0988 134.284 66.0816 134.431C66.0601 134.577 66.1721 134.939 66.4005 135.512C66.5212 135.818 66.6331 136.021 66.7409 136.12C66.8443 136.219 66.9435 136.266 67.0469 136.262C67.1459 136.258 67.3226 136.206 67.5769 136.111ZM66.1031 132.449L65.0087 129.734C64.6727 129.885 64.4701 130.027 64.4141 130.169C64.3623 130.307 64.4141 130.574 64.5692 130.966L64.9355 131.871C65.1035 132.285 65.2457 132.522 65.3664 132.574C65.487 132.63 65.7327 132.587 66.1031 132.449ZM72.6182 135.87L71.5799 134.064L72.9587 133.263L68.8006 126.024L71.1446 124.667L75.3028 131.901L76.6902 131.1L77.7287 132.905L72.6182 135.87ZM76.7506 128.023L78.7929 126.239L79.9779 127.61C80.3227 128.006 80.5596 128.234 80.6889 128.299C80.8138 128.359 80.956 128.325 81.1026 128.196C81.2663 128.053 81.3223 127.898 81.262 127.739C81.2016 127.58 80.9992 127.299 80.6544 126.903L77.4916 123.245C77.1599 122.861 76.9186 122.633 76.7721 122.555C76.6299 122.478 76.4791 122.508 76.3196 122.642C76.1731 122.775 76.1214 122.917 76.1774 123.077C76.2335 123.232 76.4489 123.529 76.8238 123.964L77.6813 124.955L75.6388 126.739L75.3717 126.433C74.665 125.615 74.2212 124.986 74.0402 124.546C73.8592 124.102 73.855 123.581 74.023 122.982C74.1954 122.379 74.5659 121.831 75.1434 121.327C75.7379 120.806 76.324 120.487 76.9014 120.362C77.4744 120.246 77.9958 120.319 78.4526 120.595C78.9136 120.871 79.4737 121.392 80.1459 122.163L82.1367 124.468C82.6279 125.037 82.977 125.477 83.1837 125.796C83.3906 126.115 83.5113 126.489 83.5457 126.92C83.5802 127.347 83.4939 127.791 83.2829 128.239C83.076 128.687 82.7486 129.101 82.3048 129.488C81.7058 130.014 81.1069 130.329 80.5122 130.436C79.9219 130.548 79.4135 130.479 78.9869 130.238C78.5645 129.997 78.0347 129.51 77.3969 128.773L76.7506 128.023ZM89.1731 122.103L86.2172 125.52L84.6488 124.15L85.8294 122.788L84.3299 121.478L83.2269 122.753L81.7402 121.457L82.8434 120.181L81.1155 118.673L79.8142 120.177L78.25 118.807L81.3266 115.252L89.1731 122.103ZM86.9799 114.174C86.8851 113.868 86.8722 113.532 86.924 113.153C86.9799 112.783 87.0963 112.438 87.2729 112.128C87.596 111.568 87.9883 111.249 88.445 111.175C88.9017 111.102 89.4576 111.253 90.1081 111.632L94.4128 114.127L93.0598 116.48L89.0051 114.131C88.656 113.929 88.3933 113.817 88.2295 113.804C88.0614 113.787 87.9365 113.851 87.8589 113.989C87.6564 114.338 87.8589 114.687 88.4579 115.032L92.5341 117.398L91.1769 119.755L82.1755 114.532L83.5285 112.175L86.9799 114.174ZM97.4894 106.548L96.5156 109.099C96.2527 109.792 95.9942 110.301 95.7443 110.628C95.4943 110.96 95.2315 111.175 94.96 111.287C94.6843 111.395 94.387 111.425 94.0724 111.382C93.7579 111.335 93.2967 111.193 92.6892 110.96L91.8446 110.637C91.2285 110.396 90.802 110.159 90.5693 109.922C90.3322 109.685 90.203 109.361 90.1814 108.965C90.1642 108.56 90.2589 108.086 90.4701 107.534L90.7287 106.854L86.8162 105.341L87.7857 102.803L97.4894 106.548ZM94.8652 108.448L92.392 107.496C92.3617 107.565 92.3359 107.625 92.3144 107.677C92.2281 107.909 92.2238 108.09 92.3014 108.224C92.379 108.357 92.5987 108.495 92.9607 108.633L93.7622 108.939C94.0896 109.068 94.3266 109.103 94.4688 109.034C94.6067 108.969 94.7403 108.775 94.8652 108.448ZM92.4135 102.549C91.3836 102.368 90.6598 102.217 90.2417 102.088C89.8238 101.967 89.4576 101.748 89.1516 101.429C88.8414 101.11 88.6302 100.713 88.5138 100.244C88.4019 99.7741 88.3976 99.2527 88.4966 98.6709C88.5958 98.1237 88.7724 97.6455 89.0266 97.2403C89.2852 96.8353 89.6127 96.5294 90.0177 96.3269C90.4228 96.1244 90.8407 96.034 91.2716 96.0555C91.7026 96.0813 92.4436 96.1891 93.4993 96.3743L95.2487 96.6845C96.2786 96.8655 97.0024 97.0207 97.4205 97.1456C97.8384 97.2663 98.2047 97.4903 98.5149 97.8092C98.8208 98.128 99.032 98.5201 99.1484 98.9898C99.2603 99.4595 99.2646 99.9852 99.1656 100.563C99.0664 101.114 98.8898 101.588 98.6356 101.993C98.377 102.402 98.0495 102.704 97.6445 102.907C97.2394 103.109 96.8215 103.2 96.3906 103.178C95.9596 103.152 95.2186 103.049 94.1629 102.859L92.4135 102.549ZM96.2484 100.468C96.7224 100.55 97.0284 100.58 97.1749 100.55C97.3127 100.524 97.3988 100.429 97.4291 100.27C97.4506 100.132 97.4162 100.015 97.3213 99.9249C97.2265 99.8344 96.9163 99.7395 96.3906 99.6491L91.612 98.8002C91.0173 98.6969 90.6469 98.6537 90.5003 98.6795C90.3538 98.7012 90.2634 98.8002 90.2331 98.9726C90.203 99.1493 90.2634 99.2785 90.4141 99.356C90.5649 99.4379 90.9398 99.5285 91.543 99.6362L96.2484 100.468ZM99.5878 88.084L99.6827 90.7813C99.7128 91.6345 99.6696 92.2851 99.5534 92.729C99.437 93.1728 99.1785 93.5391 98.7864 93.8234C98.3899 94.1078 97.7436 94.2629 96.8473 94.2974C96.2398 94.319 95.8133 94.2371 95.5676 94.056C95.322 93.8708 95.1281 93.5002 94.9773 92.9401C94.8566 93.5735 94.6369 94.0087 94.318 94.2457C93.9992 94.4827 93.4993 94.612 92.8228 94.6335L91.8577 94.668C91.1552 94.6938 90.6338 94.6292 90.2892 94.4827C89.9487 94.3319 89.7074 94.0863 89.5695 93.7372C89.4317 93.3926 89.3455 92.6729 89.3067 91.5828L89.1989 88.4459L99.5878 88.084ZM97.9116 90.8631L95.5978 90.9451C95.6064 91.0571 95.6107 91.1476 95.615 91.2079C95.6236 91.4707 95.6969 91.6345 95.8262 91.6991C95.9596 91.768 96.3345 91.7896 96.9508 91.768C97.2783 91.7594 97.5023 91.7207 97.6316 91.656C97.7608 91.5914 97.8427 91.5138 97.8729 91.4191C97.903 91.3199 97.9159 91.1347 97.9116 90.8631ZM93.9819 91.001L91.0648 91.1045C91.0949 91.475 91.1595 91.7164 91.2716 91.8155C91.3836 91.9145 91.6508 91.9534 92.0687 91.9405L93.0426 91.9059C93.4864 91.8887 93.7535 91.8327 93.8484 91.7379C93.9388 91.6431 93.9819 91.3974 93.9819 91.001ZM99.4629 85.7356L97.4248 86.1363L97.1188 84.5679L88.9534 86.1622L88.4363 83.4906L96.606 81.8963L96.2958 80.315L98.3382 79.9185L99.4629 85.7356ZM91.3965 77.2599C90.4486 77.708 89.7678 77.9967 89.3542 78.1347C88.9405 78.2769 88.514 78.307 88.0787 78.2208C87.6435 78.139 87.2471 77.9364 86.8851 77.6176C86.5274 77.2987 86.2215 76.8721 85.9759 76.3421C85.739 75.8337 85.6139 75.3424 85.5924 74.8642C85.5666 74.3815 85.6657 73.9421 85.8812 73.5456C86.0966 73.1449 86.3895 72.8303 86.7515 72.602C87.1221 72.3736 87.79 72.0331 88.7552 71.5764L90.371 70.8224C91.3147 70.3786 91.9955 70.0899 92.4092 69.9477C92.8271 69.8098 93.2494 69.7796 93.6846 69.8615C94.1198 69.9434 94.5163 70.1459 94.8781 70.4648C95.2401 70.7836 95.5417 71.2102 95.7916 71.7445C96.0243 72.2486 96.1536 72.7399 96.1751 73.2224C96.1967 73.7007 96.1019 74.1445 95.8865 74.5409C95.671 74.9417 95.378 75.252 95.0117 75.4846C94.6455 75.713 93.9776 76.0534 93.0081 76.5058L91.3965 77.2599ZM93.3442 73.3474C93.7837 73.1406 94.0508 72.9855 94.1543 72.8821C94.2534 72.7786 94.2663 72.6494 94.1973 72.5029C94.1414 72.3779 94.0465 72.3047 93.9173 72.2831C93.788 72.2615 93.4821 72.365 92.9952 72.5934L88.6001 74.653C88.0528 74.9072 87.7253 75.0883 87.6177 75.1916C87.5099 75.295 87.4927 75.4286 87.5702 75.588C87.6435 75.7517 87.7685 75.8207 87.9365 75.7992C88.1045 75.7777 88.4665 75.6355 89.018 75.3726L93.3442 73.3474ZM91.5689 68.2198L90.4874 66.5479L83.5113 71.0981L82.0376 68.8187L90.7545 63.1309L93.3098 67.0822L91.5689 68.2198ZM84.7436 65.0614C83.968 65.7637 83.4035 66.242 83.0459 66.4963C82.6883 66.7548 82.2919 66.9056 81.8523 66.9573C81.4128 67.0047 80.9733 66.9271 80.5337 66.729C80.0986 66.5307 79.6806 66.2119 79.2885 65.7766C78.9179 65.3587 78.6551 64.9278 78.4914 64.4753C78.3319 64.0229 78.2931 63.5705 78.3879 63.1266C78.4784 62.6828 78.6637 62.295 78.9481 61.9719C79.2324 61.6444 79.771 61.1187 80.564 60.4034L81.8867 59.2056C82.6623 58.5031 83.2269 58.0249 83.5845 57.7707C83.9421 57.5164 84.3386 57.3613 84.778 57.314C85.2176 57.2665 85.6571 57.3398 86.0966 57.5423C86.5317 57.7405 86.9498 58.0593 87.3376 58.4945C87.7124 58.9126 87.9752 59.3434 88.1346 59.7958C88.2985 60.2483 88.3329 60.6964 88.2424 61.1402C88.152 61.5884 87.9666 61.9719 87.6823 62.2993C87.3979 62.6269 86.8593 63.1481 86.0664 63.8678L84.7436 65.0614ZM85.4674 60.7481C85.8294 60.4207 86.0406 60.1966 86.1052 60.063C86.1699 59.9337 86.1483 59.8088 86.0406 59.6881C85.9458 59.5848 85.8337 59.5459 85.7044 59.5631C85.5752 59.5803 85.3123 59.77 84.9159 60.1277L81.3094 63.3895C80.8613 63.7945 80.6027 64.0617 80.5294 64.1952C80.4562 64.3245 80.4778 64.4538 80.5941 64.5873C80.7148 64.7209 80.8527 64.7512 81.0078 64.6822C81.1629 64.609 81.4645 64.3677 81.9213 63.9583L85.4674 60.7481ZM82.852 54.1986L76.5955 62.5363L74.4323 60.899L77.0565 57.4001L76.4273 56.9217L73.8033 60.425L71.6401 58.7876L77.8967 50.4455L80.0598 52.0829L77.8192 55.069L78.4482 55.5429L80.6889 52.5612L82.852 54.1986ZM70.2096 59.8864L68.5334 59.0677L69.3134 57.4517L65.3922 55.53L64.608 57.1415L62.9319 56.3229L64.6683 52.7508L65.1638 52.9921C65.7972 52.35 66.504 51.4452 67.2795 50.2731C68.0594 49.1011 68.8092 47.774 69.5287 46.2874L69.6666 46.003L75.0528 48.6444L71.4549 56.06L71.9503 56.3013L70.2096 59.8864ZM69.0203 54.8664L71.722 49.3036L71.0024 48.9503L70.968 49.0192C70.0933 50.8161 69.0117 52.5525 67.7191 54.233L69.0203 54.8664ZM64.0995 50.3507C63.8324 51.3676 63.617 52.0743 63.4576 52.4836C63.298 52.893 63.0438 53.2377 62.7035 53.5221C62.3587 53.8021 61.9494 53.9788 61.4755 54.0521C61.0014 54.1253 60.48 54.0822 59.9156 53.9314C59.377 53.7892 58.9202 53.5695 58.541 53.2765C58.1619 52.9878 57.886 52.6301 57.7223 52.2078C57.5543 51.7856 57.5026 51.359 57.5629 50.9281C57.6276 50.5015 57.7956 49.7647 58.0714 48.7305L58.5324 47.0027C58.7995 45.9901 59.015 45.2791 59.1787 44.8697C59.3381 44.4604 59.5881 44.1157 59.9285 43.8356C60.2733 43.5512 60.6826 43.3745 61.1565 43.3056C61.6305 43.2323 62.1519 43.2711 62.7164 43.4219C63.255 43.5685 63.7117 43.7839 64.0909 44.0769C64.4744 44.3699 64.7459 44.7275 64.9096 45.1498C65.0777 45.5721 65.1294 45.9987 65.0691 46.4253C65.0087 46.8562 64.8364 47.5887 64.5606 48.6271L64.0995 50.3507ZM62.3716 46.3348C62.4923 45.8651 62.5484 45.5592 62.5353 45.4127C62.5181 45.2705 62.432 45.1757 62.2769 45.1369C62.1433 45.0981 62.027 45.124 61.9235 45.2102C61.8287 45.2963 61.7081 45.6023 61.5702 46.1193L60.3163 50.829C60.1569 51.4107 60.0836 51.7813 60.0965 51.9278C60.1051 52.0786 60.1957 52.1777 60.3637 52.2208C60.536 52.2682 60.6697 52.2208 60.7601 52.0743C60.8506 51.9321 60.9756 51.5615 61.135 50.9669L62.3716 46.3348ZM51.1771 42.0086L53.896 42.1982C54.6285 42.2499 55.1887 42.3447 55.5765 42.4912C55.96 42.6334 56.2487 42.823 56.4296 43.0514C56.6149 43.2884 56.727 43.5598 56.7787 43.8744C56.826 44.1932 56.8303 44.6758 56.783 45.3265L56.7184 46.2357C56.6752 46.8992 56.5719 47.3775 56.4124 47.6705C56.2573 47.9679 55.9901 48.1833 55.6152 48.3212C55.2403 48.4591 54.7578 48.5065 54.1674 48.4634L53.4479 48.4117L53.1549 52.6172L50.4531 52.4276L51.1771 42.0086ZM53.7538 43.9735L53.5685 46.6278C53.646 46.6407 53.7107 46.645 53.7667 46.6493C54.0123 46.6666 54.1891 46.6192 54.2924 46.5028C54.3958 46.3865 54.4605 46.1366 54.4863 45.7488L54.5466 44.8913C54.5726 44.5337 54.5337 44.2967 54.4303 44.1846C54.3269 44.0683 54.1028 43.9993 53.7538 43.9735ZM47.7041 42L49.9749 52.3113L47.2172 52.5051L46.9414 50.6437L45.9676 50.7126L45.9503 52.5913L43.1624 52.7895L43.8045 42.2758L47.7041 42ZM46.7388 48.8038C46.5278 47.6318 46.2908 46.1797 46.0279 44.4475C45.8986 46.4683 45.8341 47.942 45.8253 48.8684L46.7388 48.8038ZM40.0299 42.9221L42.7187 53.0093L40.1031 53.7159L38.9742 49.4803L38.2115 49.6871L39.3405 53.9185L36.725 54.6251L34.0362 44.538L36.6517 43.8313L37.6126 47.4422L38.3752 47.2353L37.4144 43.6288L40.0299 42.9221ZM28.4992 46.7226L33.5407 55.8574L31.4723 57.008L28.0641 50.8462L30.6451 57.4691L29.1972 58.2748L25.0003 52.7335L28.3226 58.7617L26.2543 59.9165L21.2128 50.7816L24.2679 49.0796C24.66 49.5837 25.1124 50.1827 25.6251 50.8678L27.241 53.0007L25.4227 48.4375L28.4992 46.7226ZM22.54 57.5724C23.2552 58.3437 23.7379 58.8997 23.9964 59.2529C24.2592 59.6063 24.4187 60.0027 24.4747 60.4465C24.5307 60.886 24.4617 61.3299 24.2722 61.7736C24.0826 62.2174 23.7723 62.6355 23.3457 63.0362C22.9364 63.4197 22.5098 63.6912 22.0616 63.8635C21.6179 64.0315 21.1698 64.0746 20.7259 63.9928C20.2821 63.9109 19.8943 63.7299 19.5626 63.4498C19.235 63.1698 18.705 62.6355 17.9769 61.8512L16.7617 60.5456C16.0507 59.7786 15.5638 59.2185 15.3053 58.8651C15.0424 58.5117 14.883 58.1153 14.827 57.6758C14.771 57.2321 14.8399 56.7883 15.0295 56.3487C15.2234 55.9049 15.5293 55.4827 15.9602 55.0819C16.3652 54.6984 16.7919 54.427 17.24 54.2588C17.6881 54.0865 18.132 54.0435 18.5758 54.1253C19.024 54.2072 19.4117 54.3924 19.7392 54.6683C20.0709 54.9484 20.6009 55.4827 21.3292 56.2669L22.54 57.5724ZM18.231 56.9217C17.9036 56.5642 17.6752 56.3573 17.5416 56.2927C17.4123 56.2323 17.2874 56.254 17.171 56.3659C17.0677 56.4607 17.0288 56.5728 17.0505 56.7064C17.0677 56.8313 17.2615 57.0942 17.6278 57.4863L20.9371 61.0541C21.3464 61.4936 21.6179 61.7521 21.7471 61.821C21.8807 61.8943 22.01 61.8685 22.1393 61.7478C22.2685 61.6271 22.2987 61.485 22.2255 61.3342C22.1522 61.1791 21.9065 60.8774 21.4886 60.4293L18.231 56.9217ZM21.7299 66.5307L20.6312 68.0474L19.1834 66.9917L16.6195 70.538L18.0673 71.5937L16.9685 73.1105L13.767 70.775L14.0945 70.3269C13.5731 69.5857 12.8105 68.7283 11.7978 67.7587C10.7852 66.7849 9.6089 65.8112 8.28176 64.8416L8.02322 64.6563L11.5479 59.7829L18.1923 64.6348L18.5155 64.1866L21.7299 66.5307ZM16.6023 66.8366L11.6125 63.1956L11.1429 63.8463L11.2032 63.8936C12.8148 65.07 14.3315 66.4402 15.7534 68.0086L16.6023 66.8366ZM14.2366 74.7995L13.3878 76.9066L9.00134 75.127L12.8621 78.2165L11.9788 80.4055L2.33974 76.4929L3.1886 74.3902L7.5363 76.1526L3.75307 72.9812L4.59331 70.887L14.2366 74.7995ZM1.6374 72.1495L2.04243 71.1327C2.57673 71.3783 2.9473 71.71 3.16276 72.1409C3.37388 72.5676 3.37388 73.0415 3.16706 73.5629C2.95162 74.0886 2.62414 74.429 2.1717 74.5841C1.72357 74.7392 1.22805 74.7177 0.68081 74.5237L1.09016 73.5069C1.65463 73.6792 2.01658 73.5672 2.17601 73.1621C2.33974 72.7571 2.15877 72.4166 1.6374 72.1495ZM11.703 81.5688L11.2721 83.8008L6.62713 82.8916L11.0007 85.1884L10.5525 87.5065L0.349023 85.5158L0.779915 83.2838L5.38615 84.1843L1.06861 81.7929L1.4952 79.5781L11.703 81.5688ZM0 94.1293L0.0947969 91.4105L4.48128 91.5527C4.48559 91.0485 4.20981 90.7813 3.65828 90.7426L1.63308 90.6219C0.887638 90.5788 0.387803 90.4151 0.137885 90.1307L0.224064 87.6272C0.469673 87.8771 0.986742 88.0107 1.77958 88.0365L3.55917 88.084C4.63641 88.1141 5.23103 88.7476 5.33876 89.9799C5.52835 88.7562 6.17469 88.1701 7.26915 88.2176L8.91947 88.2865C9.708 88.3209 10.2725 88.2219 10.6129 87.9892L10.5267 90.497C10.2552 90.777 9.74678 90.9063 8.99704 90.8805L6.97184 90.8072C6.7133 90.7986 6.50648 90.8674 6.34705 91.0183C6.1833 91.1691 6.09713 91.363 6.0842 91.6086L10.4836 91.7766L10.3888 94.4956L0 94.1293ZM4.80445 96.5466L5.27412 99.2269L3.49885 99.5414C2.98178 99.6319 2.66292 99.718 2.54227 99.7956C2.42592 99.8731 2.38284 100.011 2.4173 100.205C2.45608 100.42 2.5595 100.545 2.72324 100.58C2.89129 100.61 3.23169 100.58 3.74877 100.489L8.50151 99.6448C9.00134 99.5586 9.3159 99.4681 9.46239 99.382C9.60028 99.3001 9.65199 99.1536 9.61751 98.951C9.58305 98.7528 9.48394 98.6365 9.3202 98.602C9.16077 98.5676 8.79451 98.602 8.23435 98.7012L6.94599 98.9295L6.47631 96.2493L6.87273 96.1803C7.93703 95.9908 8.69971 95.9348 9.16938 96.0037C9.63906 96.077 10.0872 96.3399 10.5138 96.7966C10.936 97.2534 11.2118 97.8566 11.3454 98.6106C11.4833 99.3906 11.4574 100.063 11.2635 100.623C11.0696 101.179 10.7378 101.588 10.2682 101.838C9.79419 102.092 9.06166 102.308 8.05769 102.484L5.06729 103.014C4.33047 103.148 3.7703 103.217 3.39543 103.234C3.01624 103.247 2.63276 103.161 2.24926 102.967C1.86577 102.777 1.53398 102.476 1.25821 102.062C0.982434 101.653 0.797151 101.157 0.693737 100.575C0.555851 99.787 0.594631 99.1105 0.805769 98.546C1.02121 97.9772 1.34008 97.5765 1.76235 97.3352C2.18893 97.0939 2.87836 96.8871 3.83063 96.7191L4.80445 96.5466ZM4.33908 111.74L3.36527 109.189C3.09812 108.495 2.95162 107.948 2.91714 107.534C2.88266 107.121 2.93007 106.78 3.06364 106.518C3.19722 106.25 3.39543 106.031 3.65828 105.854C3.92543 105.673 4.36063 105.47 4.96387 105.233L5.81273 104.91C6.42891 104.669 6.90289 104.561 7.23469 104.578C7.57078 104.6 7.87671 104.751 8.1611 105.031C8.44119 105.32 8.6911 105.738 8.90223 106.289L9.16077 106.97L13.0733 105.458L14.0471 108L4.33908 111.74ZM5.02421 108.564L7.49752 107.612C7.47598 107.534 7.45444 107.474 7.4329 107.422C7.34241 107.19 7.22606 107.052 7.07526 107.004C6.92874 106.961 6.67452 107.009 6.31688 107.147L5.51542 107.453C5.18364 107.582 4.98973 107.715 4.92941 107.862C4.86908 108.004 4.89924 108.237 5.02421 108.564ZM14.3358 113.352C14.995 112.938 15.5164 112.727 15.9129 112.722C16.305 112.709 16.6453 112.86 16.9341 113.162C17.2228 113.463 17.6063 113.993 18.0802 114.756L19.7349 117.419L10.9188 122.956L9.48394 120.647L12.5045 118.751L12.2848 118.393C11.8409 117.686 11.5479 117.122 11.4057 116.704C11.2635 116.286 11.2765 115.898 11.4488 115.54C11.6212 115.178 12.0133 114.808 12.6208 114.429L14.3358 113.352ZM15.5078 115.825L14.2323 116.622C13.8619 116.859 13.6593 117.036 13.6248 117.161C13.5903 117.285 13.6808 117.527 13.8877 117.884L16.7833 116.066C16.6023 115.773 16.4429 115.596 16.305 115.54C16.1628 115.484 15.8999 115.579 15.5078 115.825ZM14.478 108.965L15.9129 111.27L7.0968 116.807L5.66193 114.502L14.478 108.965ZM13.7756 125.99L20.5966 118.104L22.3806 119.664L17.7829 124.99L23.0958 120.289L24.3455 121.379L20.5923 127.235L25.0994 122.038L26.8834 123.598L20.0623 131.479L17.4252 129.178C17.7657 128.635 18.1707 128.002 18.636 127.287L20.0795 125.033L16.4299 128.308L13.7756 125.99ZM27.9088 124.089L29.8651 125.227L27.4995 129.342L31.0845 125.933L33.1227 127.114L27.9219 136.159L25.9656 135.025L28.3097 130.94L24.6557 134.263L22.708 133.138L27.9088 124.089ZM23.5397 136.258L22.596 135.706C22.9106 135.211 23.2941 134.887 23.7422 134.737C24.1947 134.586 24.66 134.65 25.1469 134.931C25.6381 135.215 25.9267 135.59 26.0173 136.06C26.1078 136.529 26.0173 137.02 25.7501 137.537L24.8065 136.99C25.0521 136.452 24.9917 136.077 24.6169 135.857C24.2377 135.637 23.88 135.771 23.5397 136.258ZM31.6188 137.805L33.545 127.424L36.1562 128.325L35.6865 130.148L36.6086 130.467L37.3541 128.743L39.9998 129.656L35.3159 139.084L31.6188 137.805ZM35.1565 131.919C34.8936 133.082 34.549 134.508 34.118 136.21C35.0186 134.401 35.6564 133.069 36.0226 132.22L35.1565 131.919ZM37.9702 139.791L38.3666 137.744L39.9308 138.05L41.5165 129.846L44.1751 130.363L42.5851 138.567L44.1622 138.878L43.7657 140.924L37.9702 139.791ZM49.3974 133.108C50.5997 133.108 51.5735 134.095 51.5735 135.31C51.5735 136.525 50.5997 137.512 49.3974 137.512C48.1953 137.512 47.2215 136.525 47.2215 135.31C47.2215 134.095 48.1953 133.108 49.3974 133.108ZM58.7306 87.6358C58.6962 87.6745 58.6616 87.7134 58.6272 87.7521C60.5792 94.1681 60.1483 100.58 58.6315 106.996H63.38C66.3186 91.1347 63.0481 77.6434 58.7565 72.658C59.9457 76.1051 60.9713 80.5217 60.3077 84.1628C60.1008 85.5977 59.5924 86.6706 58.7306 87.6358ZM57.7438 106.996C59.2649 101.097 59.6139 94.9566 57.912 88.3942C57.6189 88.6139 57.3 88.8078 56.9553 88.9672L57.1966 89.8334L57.494 90.8373L56.8864 90.4538L56.2831 90.1091L56.6106 89.4671L56.8088 89.0319C56.546 89.1483 56.2659 89.2473 55.9772 89.3249L56.1409 89.4196L55.891 89.8678L55.4687 89.6265L55.2534 90.0143L55.2491 90.0186L55.012 90.4495V90.4538L55.2577 90.0143L55.7014 90.2643L55.4558 90.6994L55.7531 90.8674L55.7834 90.8244L56.0677 90.3978L56.49 90.6822L56.4296 90.7727L56.5072 90.8201L56.3263 91.1519L56.5848 91.3286L56.7141 91.4019L56.4642 91.8499L56.3435 91.781V91.7853L56.3177 91.768L56.0634 91.6215L56.0548 91.6388L55.9083 91.557L55.6971 91.8758L55.6928 91.8844L55.4214 92.2937L55.6971 91.8801L56.1194 92.1645L55.8436 92.5781L56.1538 92.7936L56.1669 92.7764L56.2228 92.7074L56.4814 92.3713L56.8821 92.6901L56.8346 92.7548L56.8821 92.785L56.658 93.121L57.0415 93.3797L56.7571 93.8062L56.6752 93.7501L56.6537 93.776L56.3693 93.552L56.365 93.5649L56.2573 93.4916L55.9987 93.8191L55.9944 93.8277L55.6928 94.2156L56.003 93.8234L56.3995 94.1423L56.0936 94.5344L56.3995 94.7757L56.4598 94.7067L56.5201 94.6421L56.8002 94.3233L57.1794 94.668L57.0717 94.7886L57.1105 94.8187L56.9122 95.073L57.2269 95.3531L57.188 95.3962L57.2269 95.4263L56.9079 95.8271L56.546 95.5384L56.5373 95.5556L56.4555 95.4909L56.2314 95.7409L56.2271 95.7452L55.8997 96.1158H55.904L56.2314 95.7409L56.615 96.0856L56.2831 96.4562L56.5287 96.6759L56.559 96.6458L56.6193 96.5855L56.9209 96.2881L57.2785 96.6587L57.2052 96.732L57.2828 96.8052L57.0286 97.0895L57.2138 97.2835L57.3603 97.4171L57.02 97.8006L56.9122 97.7014L56.9079 97.7058L56.8606 97.6541L56.6795 97.4903L56.6623 97.5033L56.533 97.3869L56.2573 97.6627L56.2487 97.667L55.8997 98.0117L56.2573 97.6627L56.6106 98.0333L56.2573 98.3779L56.5805 98.7184L56.8735 98.4253L56.9467 98.5029L57.0028 98.4598L57.3044 98.8735L56.9812 99.1191L57.2613 99.4121L57.1751 99.4983L57.2138 99.5543L56.8088 99.8645L56.5158 99.4681L56.1626 99.7395H56.1581L55.7703 100.033V100.037L56.1669 99.7352L56.4728 100.149L56.0763 100.446L56.3564 100.825L56.6838 100.575L56.6969 100.593L56.727 100.567L57.02 100.989L56.6752 101.235L56.6709 101.239L56.9424 101.605L56.8907 101.64L56.9122 101.666L56.4986 101.963L56.2185 101.562L55.8566 101.821L55.8522 101.825L55.4515 102.109H55.4558L55.8609 101.821L56.1538 102.243L55.7488 102.527L55.9212 102.773L56.0936 102.665V102.67L56.4555 102.446L56.7184 102.885L56.5676 102.98L56.6451 103.092L56.3909 103.273L56.5633 103.557L56.5029 103.592L56.5848 103.708L56.1669 104.005L55.904 103.622L55.8867 103.635L55.7703 103.467L55.499 103.635L55.4946 103.639L55.0766 103.893L55.499 103.635L55.7617 104.074L55.3438 104.333L55.5722 104.716L55.7316 104.63H55.7359L55.9212 104.527L55.9342 104.518V104.522L56.1022 104.428L56.3435 104.884L56.1669 104.979L55.9298 105.126L56.1538 105.544L55.9858 105.634L55.6584 105.837L55.4214 105.436L55.4041 105.449L55.3783 105.406L55.0809 105.565L54.6501 105.798L55.0895 105.561L55.3265 106.018L54.8914 106.25L55.1112 106.664L55.473 106.47L55.7144 106.923L55.5808 106.996H56.3046L56.2271 106.823L55.904 106.203L56.5201 105.841L57.1277 105.453L56.8174 106.47L56.6709 106.996H57.7438ZM54.6974 106.996L54.6544 106.91L54.663 106.905L54.4433 106.487L54.439 106.492L54.202 106.039H54.1977L53.9563 105.587L54.4001 105.35L54.4044 105.345L54.8397 105.108H54.8483L55.1198 104.958L54.9043 104.596L54.6415 104.161H54.6371L54.37 103.721L54.8009 103.458L54.8095 103.454L55.2317 103.195L55.236 103.191L55.486 103.04L55.3309 102.82V102.825L55.0379 102.407H55.0336L54.7406 101.989L55.1499 101.696L55.1542 101.692L55.5593 101.403L55.9428 101.127L55.667 100.752H55.6627L55.361 100.343L55.3567 100.347L55.0508 99.9335L55.4558 99.6319L55.4601 99.6276L55.8566 99.3259L56.2056 99.063L55.8867 98.7356L55.5334 98.3693L55.5291 98.3736L55.1757 98.003L55.5377 97.6498L55.542 97.6455L55.8953 97.2964L55.8997 97.2921L56.1626 97.0379L55.9428 96.8397H55.9385L55.5636 96.4993L55.5593 96.5036L55.1801 96.1588L55.5119 95.784L55.5205 95.7753L55.8479 95.4048L56.0591 95.1635L55.7747 94.9351L55.3783 94.6163L55.374 94.6206L54.9733 94.3017L55.2835 93.9052L55.2878 93.9009L55.5937 93.5088L55.6023 93.5002L55.8393 93.1986L55.5549 93.0048L55.137 92.7203L55.1327 92.7246L54.7103 92.4359L54.9905 92.018L54.9948 92.0094L55.2706 91.5957L55.2749 91.5914L55.4687 91.2984L55.2059 91.1476H55.2016L54.7621 90.8977L54.7578 90.902L54.3139 90.6521L54.5595 90.2083L54.5638 90.2039L54.8052 89.7687L54.8095 89.7601L54.9387 89.5231C54.426 89.5835 53.8831 89.5878 53.3186 89.536C55.0809 95.3574 54.6285 101.174 53.1506 106.996H54.6974ZM52.2629 106.996C53.8099 101.403 54.1502 95.5815 52.362 89.3508C50.7807 88.7173 49.6733 87.959 48.7469 86.7784C46.3553 83.6888 43.8433 78.837 41.8871 76.5576C46.0193 88.2088 49.195 97.1973 46.0753 106.996H52.2629ZM45.7909 107.827C45.597 108.388 45.3773 108.948 45.1359 109.512L45.4678 109.185L45.4721 109.193L45.8081 108.862V108.857L46.1701 108.5L46.1658 108.495L46.5278 108.138L46.8767 108.5L46.881 108.495L47.2344 108.866L47.5878 109.228L47.5921 109.232L47.6007 109.223L47.605 109.228L47.941 108.896L48.303 108.538L48.2987 108.534L48.6607 108.172L49.014 108.534L49.3673 108.9L49.6905 109.232L49.6991 109.223L49.7034 109.228L50.0395 108.896L50.4015 108.538L50.3972 108.534L50.7591 108.172L51.1081 108.534L51.4658 108.9L51.8105 109.258L52.138 108.93H52.1336L52.4956 108.573L52.4913 108.569L52.8576 108.207L53.2066 108.569L53.5642 108.935L53.9133 109.297L53.9219 109.301L53.9262 109.292L53.9348 109.301L54.2709 108.969L54.6285 108.607L54.6242 108.603L54.9905 108.245L55.3395 108.607L55.6971 108.974L56.016 109.301L56.0246 109.292L56.0333 109.301L56.3693 108.969H56.365L56.727 108.607L56.7227 108.603L57.089 108.245L57.4379 108.607L57.7956 108.974L58.1058 109.292L58.429 108.969L58.7909 108.607L58.7866 108.603L59.1486 108.245L59.4976 108.607L59.8552 108.974L60.1612 109.284L60.1828 109.258L60.1914 109.267L60.5274 108.93L60.8851 108.573L60.8808 108.569L61.2471 108.207L61.596 108.569L61.9537 108.935L62.307 109.297H62.3027L62.656 109.659L62.7983 109.805C62.9491 109.142 63.0913 108.482 63.2205 107.827H45.7909ZM62.2941 110.021L62.2553 109.982L61.9063 110.327L61.553 109.956L61.8977 109.616L61.5917 109.297L61.5874 109.292L61.2427 108.939L61.5874 109.301L61.2255 109.659L60.8808 109.305L60.549 109.633L60.8377 109.93L60.8119 109.956L60.8549 109.999L60.4887 110.361L60.1957 110.055L60.1655 110.025L59.8638 110.327L59.8552 110.318L59.8122 110.361L59.4545 109.995L59.7992 109.65L59.4933 109.336L59.489 109.327L59.1443 108.974V108.978L59.4933 109.336L59.1271 109.697L58.7823 109.34L58.4592 109.659L58.4979 109.697L58.7909 109.999L58.429 110.361L58.3859 110.314L58.3773 110.327L58.0972 110.038L57.7655 110.361L57.7569 110.352L57.7481 110.361L57.3906 109.995L57.7309 109.659L57.7266 109.654L57.7352 109.646L57.4293 109.336L57.425 109.327L57.0846 108.974L57.0803 108.978L57.4293 109.336L57.0673 109.697L56.7184 109.34L56.3909 109.667L56.6752 109.965L56.6709 109.973L56.6969 109.999L56.3306 110.361L56.0376 110.055L56.0246 110.047L55.7058 110.361L55.6756 110.335L55.6498 110.361L55.2964 109.995L55.6412 109.65L55.3352 109.336L55.3309 109.327L54.9862 108.974V108.978L55.3309 109.336L54.969 109.697L54.6242 109.34L54.2924 109.667L54.5812 109.965L54.2192 110.327L54.2063 110.314L54.1977 110.322L53.9262 110.047L53.6073 110.361L53.547 110.296L53.5169 110.327L53.1635 109.956L53.5083 109.616L53.2023 109.297L53.1936 109.292L52.8533 108.939L53.1979 109.301L52.836 109.659L52.4913 109.305L52.1681 109.624L52.4655 109.926L52.0992 110.288L52.0949 110.279L52.0863 110.288L51.8019 109.999L51.4744 110.327L51.4313 110.279L51.4227 110.288L51.065 109.922L51.4098 109.577L51.1038 109.262L51.0995 109.254L50.7548 108.905L51.1038 109.262L50.7376 109.624L50.3929 109.267L50.061 109.598L50.3498 109.891L50.3412 109.9L50.367 109.926L50.005 110.288L49.7078 109.982V109.986L49.6948 109.973L49.3759 110.292L49.3501 110.262L49.3242 110.288L48.9666 109.922L49.3113 109.577L49.0053 109.262L49.001 109.254L48.6564 108.905L49.0053 109.262L48.6435 109.624L48.2944 109.267L47.9627 109.598L48.2513 109.891L47.8894 110.253L47.8807 110.245L47.8721 110.253L47.6007 109.973L47.2776 110.292L47.2172 110.227L47.1913 110.253L46.8337 109.887L47.1784 109.542L46.8724 109.223L46.8681 109.219L46.5235 108.866V108.87L46.8724 109.228L46.5062 109.585L46.1615 109.232L45.8297 109.56L46.1184 109.857L45.7564 110.219L45.4764 109.926L45.1445 110.253L44.9206 110.021C44.662 110.598 44.3819 111.175 44.0802 111.762H62.32C62.4535 111.244 62.5828 110.727 62.7035 110.21L62.5871 110.322L62.2941 110.021ZM43.6322 112.593C41.4992 116.441 38.3322 120.5 33.8423 124.951C55.4214 114.037 57.7223 113.175 57.0071 125.856C59.252 121.396 60.9152 116.937 62.1002 112.593H43.6322ZM61.2126 110.271L61.7297 110.766L62.2683 111.244L61.2169 111.232L60.1784 111.24L60.7127 110.757L61.2126 110.271ZM57.0544 110.309L57.5715 110.801L58.0929 111.266L58.6186 110.792L59.1141 110.309L59.6312 110.801L60.1741 111.283L59.1184 111.27L58.1058 111.275L58.1101 111.283L57.0587 111.27L56.0203 111.275L56.5546 110.792L57.0544 110.309ZM54.956 110.309L55.473 110.801L56.0117 111.283L54.9603 111.27L53.9219 111.275L54.4562 110.792L54.956 110.309ZM52.8231 110.271L53.3401 110.766L53.8787 111.244L52.8274 111.232L51.789 111.24L52.3233 110.757L52.8231 110.271ZM50.7246 110.236L51.2417 110.732L51.7847 111.21L50.729 111.197L49.6905 111.206L50.2291 110.723L50.7246 110.236ZM48.6262 110.236L49.1433 110.732L49.6862 111.21L48.6348 111.197L47.5921 111.206L48.1307 110.723L48.6262 110.236ZM46.4933 110.197L47.0103 110.693L47.5533 111.175L46.4976 111.163L45.4592 111.167L45.9978 110.684L46.4933 110.197ZM57.2181 98.0505L57.7094 97.5291L58.1877 96.9862L58.1662 98.0505L58.1705 99.1019L57.6965 98.5546L57.2181 98.0505ZM57.0717 100.244L57.6233 99.7956L58.1662 99.3173L58.011 100.369L57.8817 101.411L57.481 100.808L57.0717 100.244ZM56.3521 104.229L56.9467 103.837L57.4724 103.454L57.1406 102.928L56.7485 102.355L57.313 101.92L57.8688 101.455L57.6879 102.502L57.5285 103.54L57.5069 103.51L57.2785 104.445L57.0458 105.47L56.7055 104.828L56.3521 104.229ZM57.0028 94.0777L57.425 93.5002L57.8257 92.897L57.9464 93.9527L58.08 94.9695L58.1101 94.9265L58.1662 95.9908L58.2394 97.0379L57.7309 96.5294L57.2181 96.0598L57.6706 95.5083L58.0671 94.9826L57.5414 94.5172L57.0028 94.0777ZM56.7141 92.0567L57.0933 91.4449L57.4465 90.8115L57.6448 91.8586L57.8602 92.8841L57.2871 92.4531L56.7141 92.0567ZM54.2838 78.4449C57.0372 78.4449 59.2692 80.7028 59.2692 83.4863C59.2692 86.2699 57.0372 88.5278 54.2838 88.5278C51.5305 88.5278 49.2984 86.2699 49.2984 83.4863C49.2984 80.7028 51.5305 78.4449 54.2838 78.4449Z" fill="#2B2A29"/>
</svg>
