<svg width="185" height="153" viewBox="0 0 185 153" fill="none" xmlns="http://www.w3.org/2000/svg">
<g clip-path="url(#clip0_4411_11634)">
<path fill-rule="evenodd" clip-rule="evenodd" d="M57.315 90.6916L56.6573 84.7791C54.5262 83.3109 51.7111 82.0147 49.1985 82.557C46.6728 82.9935 45.7783 86.6309 43.0421 86.0621C43.9761 84.2897 46.094 81.5914 46.0414 79.1312C44.4102 77.0148 43.1342 74.0784 40.0823 73.88C38.4642 73.2716 36.6226 74.2504 35.0703 73.6948L35.1887 73.4832C37.0698 71.8033 40.2138 72.1869 41.6872 69.9912C41.8845 66.8167 43.1342 63.1528 40.4901 60.2825C39.7929 58.9995 38.0696 58.5763 37.767 56.9758C40.0823 56.4996 42.187 59.3037 44.3444 58.9202C45.8046 57.6107 47.0675 55.2959 46.5413 53.1267C46.6991 51.7246 45.1074 50.4019 45.331 48.9602L45.5152 48.8676L47.8962 50.759C48.5408 51.7246 48.8039 53.3251 50.1457 53.5632C52.6714 53.3251 55.1577 52.0156 56.6573 49.8331C57.8807 47.9946 56.8678 45.5079 58.3937 44L58.5253 44.0529C60.4985 46.8438 58.4069 49.9654 60.0644 52.4786C54.5394 52.9018 47.8173 55.5605 45.0548 60.5603C42.6475 65.1633 42.4765 69.8986 44.6865 74.5943C46.8044 78.1259 50.1457 81.0623 54.8156 81.7369C58.6568 82.557 63.8003 81.2739 66.3524 77.9539C68.9176 74.4355 69.7989 70.0045 68.7202 66.1157C67.8389 63.5232 66.2208 61.4069 64.3923 59.8196C66.8391 60.9571 68.6939 59.1979 70.7066 57.6768C71.8642 56.8832 74.1137 55.3621 75.7186 55.9837C72.9298 57.8884 69.9963 59.5815 69.0754 63.0735C69.3648 65.3353 69.9305 68.0998 71.9958 69.6076C74.4557 71.1155 78.4548 69.3034 80.3096 72.306C77.0998 71.9753 73.2455 71.6578 69.9962 73.3641C69.1149 74.872 68.786 76.5651 68.3519 78.1391C68.0888 79.3957 68.6939 80.7316 69.4043 81.975C70.8118 82.967 72.693 85.2288 72.1273 87.1865H71.93C69.9305 85.1098 68.1546 83.3638 65.7078 81.5914C64.1424 81.2078 62.2218 82.0411 60.9852 83.139C57.8807 84.6733 60.1565 88.8927 57.4861 90.6916H57.315Z" fill="#B27637"/>
<path fill-rule="evenodd" clip-rule="evenodd" d="M57.315 90.6916L56.6573 84.7791C54.5262 83.3109 51.7111 82.0147 49.1985 82.557C46.6728 82.9935 45.7783 86.6309 43.0421 86.0621C43.9761 84.2897 46.094 81.5914 46.0414 79.1312C44.4102 77.0148 43.1342 74.0784 40.0823 73.88C38.4642 73.2716 36.6226 74.2504 35.0703 73.6948L35.1887 73.4832C37.0698 71.8033 40.2138 72.1869 41.6872 69.9912C41.8845 66.8167 43.1342 63.1528 40.4901 60.2825C39.7929 58.9995 38.0696 58.5763 37.767 56.9758C39.7929 56.8038 41.7924 58.2985 43.6341 59.1979L44.1076 59.1582C45.6994 57.7694 47.199 55.1769 46.4097 52.796L45.331 48.8676H45.5547C47.3306 49.7141 48.2119 51.1029 49.1196 52.9018C49.3827 53.0341 49.5143 53.3251 49.83 53.5632C51.9084 53.4574 54.3421 52.5976 55.8154 50.8252C58.0649 49.2247 56.7889 45.7857 58.4069 44L58.5253 44.0529C60.4064 46.6322 58.4069 50.0316 60.0644 52.4257C54.0921 53.0341 46.8965 55.9176 44.3444 61.9359C43.1342 65.0575 42.8053 68.232 43.5288 71.4198C44.9759 76.1947 47.8962 79.4751 52.5004 81.2739C56.4074 82.2792 60.9852 82.3321 64.5502 79.647C67.7994 77.1339 69.4306 72.306 69.1675 68.3511C68.9176 65.1633 66.7865 61.8169 64.3923 59.8196C66.8391 60.9571 68.6939 59.1979 70.7066 57.6768C71.8642 56.8832 74.1137 55.3621 75.7186 55.9837C72.9298 57.8884 69.9963 59.5815 69.0754 63.0735C69.0754 63.219 69.1149 63.5232 69.1149 63.8142C69.6937 66.4067 70.4567 69.1976 73.035 70.1103C75.3634 70.5468 78.6652 69.859 80.3096 72.2398L80.2044 72.3853C76.8367 71.9753 73.1008 71.5653 69.8252 73.5361C68.8386 76.1154 67.5626 78.6682 68.9176 81.2739C70.1804 82.8612 72.693 84.5543 72.1536 87.1335L71.9958 87.1865C69.6937 85.3214 67.7336 81.8956 64.4186 81.4856C62.3928 82.0147 60.3669 83.0331 59.3803 84.9378C58.4727 86.8029 59.6434 89.6864 57.4203 90.6916H57.315Z" fill="#B27637"/>
<path fill-rule="evenodd" clip-rule="evenodd" d="M57.315 90.6916L56.6573 84.7791C54.5262 83.3109 51.7111 82.0147 49.1985 82.557C46.6728 82.9935 45.7783 86.6309 43.0421 86.0621C43.9761 84.2897 46.094 81.5914 46.0414 79.1312C44.4102 77.0148 43.1342 74.0784 40.0823 73.88C38.4642 73.2716 36.6226 74.2504 35.0703 73.6948L35.1887 73.4832C37.0698 71.8033 40.2138 72.1869 41.6872 69.9912C41.8845 66.8167 43.1342 63.1528 40.4901 60.2825C39.7929 58.9995 38.0696 58.5763 37.767 56.9758C40.0823 56.4996 42.187 59.3037 44.3444 58.9202C45.8046 57.6107 47.0675 55.2959 46.5413 53.1267C46.6991 51.7246 45.1074 50.4019 45.331 48.9602L45.5152 48.8676L47.8962 50.759C48.5408 51.7246 48.8039 53.3251 50.1457 53.5632C52.6714 53.3251 55.1577 52.0156 56.6573 49.8331C57.8807 47.9946 56.8678 45.5079 58.3937 44L58.5253 44.0529C60.4985 46.8438 58.4069 49.9654 60.0644 52.4786C54.5394 52.9018 47.8173 55.5605 45.0548 60.5603C42.6475 65.1633 42.4765 69.8986 44.6865 74.5943C46.8044 78.1259 50.1457 81.0623 54.8156 81.7369C58.6568 82.557 63.8003 81.2739 66.3524 77.9539C68.9176 74.4355 69.7989 70.0045 68.7202 66.1157C67.8389 63.5232 66.2208 61.4069 64.3923 59.8196C66.8391 60.9571 68.6939 59.1979 70.7066 57.6768C71.8642 56.8832 74.1137 55.3621 75.7186 55.9837C72.9298 57.8884 69.9963 59.5815 69.0754 63.0735C69.3648 65.3353 69.9305 68.0998 71.9958 69.6076C74.4557 71.1155 78.4548 69.3034 80.3096 72.306C77.0998 71.9753 73.2455 71.6578 69.9962 73.3641C69.1149 74.872 68.786 76.5651 68.3519 78.1391C68.0888 79.3957 68.6939 80.7316 69.4043 81.975C70.8118 82.967 72.693 85.2288 72.1273 87.1865H71.93C69.9305 85.1098 68.1546 83.3638 65.7078 81.5914C64.1424 81.2078 62.2218 82.0411 60.9852 83.139C57.8807 84.6733 60.1565 88.8927 57.4861 90.6916H57.315Z" fill="#B27637"/>
<path fill-rule="evenodd" clip-rule="evenodd" d="M49.0673 78.4035C45.555 75.7713 43.2003 70.6789 43.9764 66.3007C44.4105 63.4569 45.8049 60.2824 47.9755 58.2322C51.1063 55.1767 56.5261 53.4175 60.7882 53.4572C61.2092 53.563 61.6696 53.8672 61.8932 54.2905C62.3931 55.5603 61.8275 57.2401 62.9851 58.2322C60.2226 59.9914 56.5261 54.5947 54.8291 58.0999C53.6846 60.1369 50.9221 59.9914 48.7779 60.2427C48.5411 63.0997 48.6727 66.4594 46.0417 68.8932C45.6997 69.4488 46.3969 69.8588 46.7521 70.2424C48.8042 71.6577 49.7119 74.7793 49.975 77.1601L50.146 77.4379C52.4349 77.5834 54.9212 77.3718 56.7892 79.131C57.118 79.3955 57.6837 80.0304 58.3941 80.0304C59.9726 78.086 61.8932 76.975 64.6557 76.7501C63.998 73.9327 66.1554 72.3852 67.3656 70.4408C66.0896 68.6419 65.695 67.1208 66.1291 65.1499C63.827 64.7796 62.3536 63.4966 61.2092 61.6977C59.6832 62.5178 57.9731 62.3855 56.434 61.4067C55.5526 62.6897 54.5397 63.7611 53.4216 64.7796C52.1061 66.261 51.5536 68.3509 51.9877 70.2424C52.5007 72.1339 53.7767 73.364 55.5526 74.2502C57.118 74.8851 59.0518 74.5941 60.6567 73.7608C62.13 72.8084 63.1561 70.9963 63.0772 69.1578C62.7878 67.3589 61.6696 65.5997 59.6832 65.0574C58.3283 64.7796 56.4077 65.1632 55.4474 66.4065C54.5397 67.6763 54.5397 69.0387 55.3553 70.4408C55.7368 71.2344 56.6576 71.8032 57.6442 71.9354C58.5256 71.9354 59.6438 71.5519 60.1568 70.8244C60.6567 70.0043 60.7882 69.3033 60.4067 68.4832C60.0647 67.716 59.0913 67.1208 58.0915 67.2927C57.6442 67.3986 56.8681 67.6102 56.6971 68.2319C56.5261 68.6419 56.6971 69.1578 56.8681 69.6207C57.118 69.8588 57.7758 70.2424 58.2231 69.9911C58.4072 69.9911 58.4072 69.7133 58.5256 69.5413L58.4072 69.2768C58.3283 69.1974 58.0915 69.1578 57.881 68.999C57.7758 68.8403 57.7758 68.6154 57.881 68.3377C58.223 68.2319 58.5256 68.2319 58.986 68.298C59.3149 68.5493 59.6438 68.999 59.5122 69.6075C59.3807 70.1101 59.1176 70.4408 58.6572 70.7582C57.9731 70.9566 56.8681 70.7582 56.4077 70.1762C55.842 69.4488 55.7368 68.4832 56.0788 67.5441C56.5261 66.8166 57.3154 66.261 58.3283 65.9833C59.2097 65.9171 60.4067 66.3007 61.1039 66.9885C61.9722 68.0996 62.3536 69.6075 61.7748 70.9566C61.1039 72.491 59.4201 73.4962 57.6837 73.5359C56.434 73.5359 54.9212 72.9143 54.1056 71.8561C52.9217 70.5466 52.5665 68.3377 53.4216 66.6446C54.1056 64.9648 55.842 63.6553 57.881 63.3246C59.5122 63.0997 61.8275 64.0256 62.9851 65.2822C64.7215 67.3589 64.8399 70.1101 64.1032 72.5174C63.4192 73.6285 62.7878 74.6602 61.6959 75.4935C59.0913 77.1337 56.2367 77.1337 53.5136 75.7316C51.3563 74.5941 49.6856 71.9354 49.383 69.3033C49.0673 66.7107 50.6722 63.523 52.6717 61.5786C55.0133 59.3036 58.5256 58.92 61.4986 59.621C64.4189 60.7189 66.4316 62.7691 67.734 65.6658C69.1152 69.6075 67.997 74.6602 64.9846 77.967C63.2219 79.9511 60.0647 81.0621 57.3811 81.2738H57.118C54.5266 80.996 51.3826 80.2817 49.0673 78.4035Z" fill="#B27637"/>
<path fill-rule="evenodd" clip-rule="evenodd" d="M55.0938 59.0658L56.5276 57.4785L58.1325 58.2986L55.0938 59.0658Z" fill="#B27637"/>
<path fill-rule="evenodd" clip-rule="evenodd" d="M49.3814 61.407L52.1045 60.7192L49.513 63.8673C49.1973 63.2192 49.513 62.2536 49.3814 61.407Z" fill="#B27637"/>
<path fill-rule="evenodd" clip-rule="evenodd" d="M48.7804 70.9567L47.0703 69.1578L48.4121 66.9092L48.7804 70.9567Z" fill="#B27637"/>
<path fill-rule="evenodd" clip-rule="evenodd" d="M50.8321 76.4591L50.4375 74.5015L53.2526 76.631L52.7264 76.8162C52.1082 76.631 51.3846 76.8691 50.8321 76.4591Z" fill="#B27637"/>
<path fill-rule="evenodd" clip-rule="evenodd" d="M58.0645 79.0915L56.0781 77.6498L59.8009 77.3984L58.0645 79.0915Z" fill="#B27637"/>
<path fill-rule="evenodd" clip-rule="evenodd" d="M61.9688 76.4591L63.9946 74.2104L63.7973 76.1548C63.35 76.1945 62.8107 76.1945 62.3502 76.4591H61.9688Z" fill="#B27637"/>
<path fill-rule="evenodd" clip-rule="evenodd" d="M65.3516 71.7503L65.4042 68.8403L66.3908 70.4408C66.3908 70.9567 65.8251 71.1683 65.4305 71.5651L65.3516 71.7503Z" fill="#B27637"/>
<path fill-rule="evenodd" clip-rule="evenodd" d="M65.0541 66.9095L64.3438 65.3354L65.4093 66.0233C65.1462 66.2613 65.4356 66.5788 65.1462 66.8169L65.0541 66.9095Z" fill="#B27637"/>
<path d="M11.0078 100.506V100.215L11.3761 100.136C11.5077 100.136 11.6129 100.096 11.6787 100.056C11.7445 100.017 11.7971 99.977 11.8234 99.9109C11.8497 99.8448 11.8497 99.7522 11.8497 99.6331L11.7576 96.0089C11.7576 95.8634 11.7576 95.7576 11.7313 95.7047C11.7313 95.6518 11.6787 95.5989 11.6129 95.5592C11.534 95.5063 11.4156 95.4666 11.2578 95.4269L11.0078 95.374V95.083H15.27L15.3489 96.7099L15.0069 96.7893C14.9016 96.4851 14.7964 96.2338 14.6911 96.0618C14.5991 95.8766 14.4938 95.7576 14.3886 95.6782C14.2965 95.5989 14.1913 95.546 14.086 95.5327C13.9808 95.5063 13.8229 95.493 13.6256 95.493H12.8363L12.7311 99.6331C12.7179 99.7389 12.7442 99.8315 12.7837 99.9109C12.8232 99.9903 12.8889 100.043 12.9942 100.096C13.0863 100.136 13.2047 100.175 13.3494 100.189C13.4941 100.202 13.6782 100.215 13.9282 100.215V100.506H11.0078Z" fill="#666666"/>
<path d="M17.3122 100.189C16.8781 99.8844 16.5624 99.5008 16.3651 99.0379C16.1546 98.575 16.0625 98.0855 16.0625 97.5829C16.0625 97.3184 16.102 97.0406 16.1677 96.7628C16.2467 96.4718 16.3782 96.1941 16.5755 95.9163C16.7729 95.6385 17.0623 95.4005 17.4569 95.2153C17.8384 95.0301 18.3383 94.9375 18.9302 94.9375C19.5222 94.9375 19.9958 95.0301 20.3904 95.202C20.7719 95.3872 21.0745 95.6121 21.2718 95.8766C21.4691 96.1544 21.6138 96.4454 21.6927 96.7232C21.7585 97.0142 21.798 97.3051 21.8111 97.5829C21.8111 98.112 21.7059 98.6014 21.4954 99.0776C21.2849 99.5405 20.9692 99.9109 20.5351 100.202C20.101 100.493 19.5617 100.638 18.9302 100.638C18.2988 100.638 17.7463 100.48 17.3122 100.189ZM19.3775 100.149C19.5222 100.109 19.6932 100.003 19.8511 99.8315C20.0221 99.6728 20.1668 99.395 20.2852 99.0247C20.4036 98.6543 20.4694 98.1781 20.4694 97.5961C20.443 96.7232 20.2852 96.1279 19.9958 95.8237C19.7064 95.5195 19.3512 95.3608 18.9302 95.3608C18.5093 95.3608 18.1673 95.5195 17.8779 95.8237C17.5753 96.1279 17.4306 96.7232 17.4043 97.5961C17.4043 98.6808 17.5753 99.395 17.9173 99.7257C18.2462 100.056 18.5882 100.228 18.9302 100.228C19.0749 100.228 19.2196 100.202 19.3775 100.149Z" fill="#666666"/>
<path d="M24.2575 100.242C23.7707 99.9772 23.4024 99.6068 23.1525 99.1438C22.8894 98.6809 22.7578 98.165 22.7578 97.5963C22.771 97.2391 22.8367 96.9085 22.942 96.591C23.0604 96.2868 23.2314 96.009 23.4682 95.7577C23.6918 95.5064 23.9944 95.3212 24.3627 95.1625C24.7442 95.017 25.1783 94.9376 25.6782 94.9376C25.9281 94.9376 26.1781 94.9509 26.4017 94.9641C26.6911 94.9641 26.8753 94.9905 26.9673 94.9905C27.0857 94.9905 27.1778 94.9905 27.2304 94.9773C27.2831 94.9773 27.3225 94.9773 27.362 94.9509C27.4015 94.9376 27.4278 94.9376 27.4409 94.9376C27.533 94.9112 27.5856 94.8979 27.5988 94.8979V96.3662L27.2831 96.4323C27.1252 96.0752 26.9279 95.8106 26.7174 95.6254C26.4938 95.4535 26.2044 95.3609 25.8229 95.3609C25.6519 95.3609 25.4677 95.4006 25.2704 95.4667C25.0862 95.5329 24.902 95.6519 24.7179 95.8106C24.5469 95.9826 24.4022 96.2074 24.2969 96.4984C24.1785 96.8026 24.1259 97.1598 24.1259 97.5963C24.1259 98.0725 24.1917 98.4825 24.3101 98.8264C24.4416 99.1703 24.5995 99.4348 24.7968 99.6465C24.9941 99.8581 25.2178 100.004 25.4414 100.083C25.6782 100.176 25.915 100.228 26.1649 100.228C26.3228 100.228 26.4675 100.189 26.6122 100.136C26.7569 100.083 26.9016 99.9772 27.0594 99.8052C27.2041 99.6332 27.3357 99.3819 27.4409 99.0645L27.7698 99.0116L27.6382 100.348C27.2041 100.533 26.6516 100.625 25.9939 100.639C25.323 100.639 24.7442 100.506 24.2575 100.242Z" fill="#666666"/>
<path d="M29.968 100.586C29.7838 100.559 29.6128 100.519 29.4813 100.466L29.4023 99.1305L29.6786 99.0512C29.7444 99.276 29.8233 99.4612 29.9022 99.6199C29.9811 99.7654 30.0732 99.8977 30.2048 100.004C30.3232 100.096 30.4679 100.149 30.6389 100.149C30.9151 100.149 31.1256 99.9771 31.2966 99.6199L29.7707 96.7761C29.6654 96.5645 29.5865 96.4454 29.5602 96.4058C29.455 96.2074 29.3892 96.0883 29.376 96.0619C29.2445 95.837 29.1129 95.665 28.9814 95.5592C28.8498 95.4534 28.692 95.3873 28.5078 95.374V95.083H31.0204V95.374L30.9151 95.4005C30.9151 95.4005 30.8362 95.4005 30.7836 95.4005C30.7441 95.4137 30.7047 95.4137 30.6652 95.427C30.6389 95.4402 30.5994 95.4534 30.5731 95.4666C30.5468 95.4931 30.5205 95.5328 30.5073 95.5725C30.5073 95.6254 30.5205 95.6915 30.5468 95.7841C30.5731 95.8635 30.6257 95.9825 30.6915 96.1412C30.7704 96.2999 30.8362 96.4454 30.8888 96.5909L31.7834 98.6544H31.8754C32.0464 98.2708 32.1911 97.8872 32.3359 97.5036C32.4937 97.1068 32.5858 96.8026 32.6516 96.5909C32.6779 96.5116 32.7042 96.4322 32.7305 96.3396C32.77 96.2603 32.7963 96.1677 32.8226 96.0883C32.8226 96.0619 32.8226 96.0222 32.8357 95.9957C32.8357 95.9693 32.8489 95.9296 32.862 95.9031C32.8752 95.8635 32.8884 95.8238 32.8884 95.7973C32.9015 95.7973 32.9015 95.7576 32.9147 95.7047V95.5857C32.9147 95.5063 32.8489 95.4534 32.7042 95.427L32.3359 95.3608V95.0698H34.2301V95.3608C34.0986 95.3873 33.9802 95.427 33.8881 95.5195C33.796 95.5989 33.704 95.7179 33.6119 95.8634C33.5329 96.0222 33.4145 96.2603 33.2698 96.5777C33.2435 96.6571 33.2041 96.7364 33.1646 96.829C33.1251 96.9216 33.0988 96.9877 33.0857 97.0407C32.6516 98.0591 32.3753 98.694 32.2569 98.9586C32.1385 99.2231 31.9938 99.4877 31.8097 99.7787C31.6386 100.056 31.4413 100.268 31.244 100.414C31.0335 100.546 30.7836 100.625 30.4942 100.625C30.3363 100.625 30.1653 100.625 29.968 100.572V100.586Z" fill="#666666"/>
<path d="M34.5156 102.001V99.9904H34.8445C35.0155 99.9772 35.1997 99.8184 35.3838 99.501C35.5549 99.1703 35.7259 98.7735 35.8837 98.2841C36.0416 97.7947 36.16 97.3185 36.2521 96.8556C36.3441 96.4058 36.3836 96.0619 36.3836 95.8371C36.3704 95.6122 36.1731 95.4932 35.7916 95.4932C35.6732 95.4932 35.5812 95.4932 35.5154 95.5064L35.6075 95.0699C35.8706 95.0699 36.1337 95.0699 36.4231 95.0699C36.4888 95.0699 36.5941 95.0699 36.6993 95.0699C36.8177 95.0699 36.9493 95.0699 37.094 95.0699C37.2255 95.0699 37.436 95.0434 37.7385 95.017C37.8438 95.017 37.9359 95.0038 38.0411 95.0038C38.1463 95.0038 38.2516 94.9773 38.3437 94.9641C38.4357 94.9509 38.5278 94.9244 38.6462 94.8979L39.5802 100.004C39.8828 100.004 40.1064 99.9904 40.2511 99.9772V101.922L39.9222 102.014C39.7775 101.538 39.6591 101.207 39.5671 100.996C39.475 100.797 39.3829 100.665 39.2908 100.599C39.1987 100.533 39.0803 100.493 38.9225 100.493C38.8699 100.493 38.8304 100.493 38.8041 100.493H38.5147C38.5147 100.493 38.3963 100.506 38.3305 100.506H35.9758C35.8443 100.506 35.7127 100.533 35.5812 100.572C35.4628 100.625 35.3312 100.744 35.1997 100.943C35.0681 101.141 34.9629 101.459 34.8708 101.882L34.5156 102.001ZM38.5673 100.083L37.6202 96.1413C37.6202 96.1413 37.5938 95.9958 37.5675 95.8503C37.5412 95.7048 37.5018 95.599 37.4754 95.5328C37.436 95.4799 37.3834 95.4403 37.3044 95.4403C37.2255 95.4535 37.1597 95.5064 37.1071 95.6254C37.0545 95.7313 36.9887 95.9693 36.8835 96.3397C36.8309 96.5117 36.7782 96.7233 36.7125 96.9481C36.6862 97.054 36.5809 97.3979 36.4099 98.0063C36.3836 98.0857 36.3704 98.1783 36.331 98.2973C36.3047 98.4296 36.2652 98.5486 36.2257 98.6809C36.1994 98.7999 36.1731 98.9058 36.1468 98.9719C36.081 99.1968 36.0284 99.4216 35.9758 99.6597C35.9627 99.7126 35.9495 99.7655 35.9363 99.792C35.9232 99.8317 35.91 99.8846 35.91 99.9242C35.8969 99.9772 35.8837 100.03 35.8706 100.083H38.5673Z" fill="#666666"/>
<path d="M40.6328 100.506V100.215C40.8696 100.162 41.0538 100.004 41.1985 99.7125C41.2379 99.6464 41.2774 99.5406 41.3432 99.4083C41.4089 99.2628 41.4616 99.1437 41.5142 99.0247C41.58 98.8924 41.6326 98.7469 41.6852 98.6279C41.751 98.4956 41.8167 98.3369 41.8957 98.1517C42.0272 97.7814 42.1193 97.5433 42.1588 97.4375C42.2772 97.0936 42.3956 96.7761 42.4876 96.4851C42.5008 96.4322 42.5403 96.3132 42.5929 96.1147C42.6455 95.9031 42.6718 95.7841 42.6718 95.7312C42.6718 95.6253 42.6455 95.546 42.5929 95.5063C42.5271 95.4534 42.4482 95.4269 42.3429 95.4137C42.2377 95.4137 42.0535 95.4005 41.8167 95.4005L41.8957 94.9904C42.0272 94.9904 42.2772 94.9904 42.6455 94.9904C42.8165 94.9904 43.0401 94.9904 43.2769 94.964C43.5269 94.964 43.7768 94.9243 44.0136 94.8979C44.2635 94.8714 44.5135 94.8317 44.7634 94.7788L45.6448 99.1041C45.6974 99.3554 45.75 99.5538 45.8026 99.6728C45.8421 99.7919 45.921 99.8977 46.0131 100.004C46.1184 100.096 46.2631 100.162 46.4472 100.202V100.493H44.1451V100.202L44.5135 100.109C44.6187 100.083 44.6845 100.056 44.7239 100.017C44.7634 99.9771 44.7766 99.9506 44.7766 99.9374C44.7766 99.8712 44.7634 99.7919 44.7371 99.6861L44.3819 98.2443C44.1714 98.2179 43.8294 98.2046 43.3822 98.2046C42.9349 98.2046 42.606 98.2179 42.435 98.2311L41.9878 99.7257C41.9483 99.858 41.9351 99.9374 41.9351 99.9771C41.9614 100.109 42.1719 100.175 42.5797 100.202V100.493H40.6328V100.506ZM44.2635 97.7681C44.2372 97.6623 44.2109 97.5697 44.1846 97.5036C44.1846 97.4639 44.1583 97.3978 44.132 97.3184C44.1057 97.2258 44.0925 97.1465 44.0794 97.0935C44.0531 96.9877 44.0267 96.8951 44.0004 96.829C43.9873 96.7496 43.961 96.6835 43.9347 96.6041C43.8557 96.3396 43.8163 96.1809 43.8163 96.1412C43.7373 95.8634 43.6716 95.6783 43.6453 95.5857C43.6189 95.5063 43.5926 95.4534 43.5663 95.4137C43.54 95.3873 43.4874 95.3608 43.4348 95.3608C43.3558 95.3608 43.3032 95.4005 43.2769 95.4534C43.2375 95.5195 43.198 95.6783 43.1322 95.9163C43.0664 96.1677 43.027 96.3264 43.0007 96.419C42.9349 96.6703 42.8823 96.8555 42.8428 96.9613C42.8297 97.0142 42.777 97.1729 42.6981 97.4375C42.6718 97.5036 42.6455 97.5433 42.6323 97.5962C42.6323 97.6359 42.606 97.6888 42.5797 97.7681C42.8297 97.7814 43.0138 97.7946 43.1322 97.7946C43.2506 97.7946 43.3427 97.7946 43.3822 97.7946C43.7636 97.7946 44.0531 97.7946 44.2635 97.7549V97.7681Z" fill="#666666"/>
<path d="M46.896 100.506V100.215L47.2511 100.136C47.3959 100.109 47.5011 100.083 47.5669 100.043C47.6458 100.017 47.6853 99.9638 47.7116 99.9109C47.7379 99.8448 47.751 99.7522 47.751 99.6331L47.6458 96.0089C47.6458 95.8634 47.6326 95.7576 47.6195 95.7047C47.6063 95.6518 47.5669 95.5989 47.5011 95.5592C47.4353 95.5063 47.3169 95.4666 47.1328 95.4269L46.8828 95.374V95.083H49.5795C50.0926 95.083 50.5004 95.1227 50.8161 95.2021C51.1187 95.2682 51.3554 95.4137 51.5133 95.5989C51.6712 95.7973 51.7501 96.0618 51.7501 96.4189C51.7501 96.7099 51.6843 96.9745 51.5528 97.1993C51.4212 97.4242 51.2502 97.6094 51.0529 97.7417C50.8556 97.8739 50.6319 97.9665 50.3951 98.0326C50.1584 98.0988 49.9347 98.1385 49.6979 98.1385C49.5532 98.1385 49.4217 98.1385 49.3164 98.1252C49.1981 98.1252 49.106 98.0988 49.0534 98.0856C49.0007 98.0856 48.9481 98.0591 48.8955 98.0459C48.8955 97.8739 48.9218 97.7284 49.0007 97.6094C49.106 97.6755 49.2638 97.702 49.448 97.702C49.7111 97.702 49.961 97.6094 50.1847 97.4374C50.4083 97.2523 50.5267 96.9348 50.5267 96.4454C50.5267 96.2338 50.4741 96.0618 50.4215 95.9295C50.3557 95.7973 50.2504 95.6915 50.0794 95.6121C49.9216 95.546 49.6979 95.5063 49.3954 95.5063C49.1586 95.5063 48.935 95.5327 48.7245 95.5856L48.6192 99.6331C48.6192 99.7522 48.6324 99.8315 48.6587 99.8977C48.685 99.9638 48.7508 100.03 48.8692 100.07C48.9744 100.123 49.1454 100.162 49.3559 100.175L49.6585 100.215V100.506H46.896Z" fill="#666666"/>
<path d="M54.0387 100.242C53.552 99.9772 53.1836 99.6068 52.9206 99.1438C52.6706 98.6809 52.5391 98.165 52.5391 97.5963C52.5522 97.2391 52.618 96.9085 52.7232 96.591C52.8416 96.2868 53.0126 96.009 53.2363 95.7577C53.4731 95.5064 53.7756 95.3212 54.1439 95.1625C54.5123 95.017 54.9595 94.9376 55.4594 94.9376C55.7094 94.9376 55.9593 94.9509 56.1698 94.9641C56.4723 94.9641 56.6565 94.9905 56.7486 94.9905C56.867 94.9905 56.9591 94.9905 57.0117 94.9773C57.0643 94.9773 57.1038 94.9773 57.1432 94.9509C57.1827 94.9376 57.209 94.9376 57.2222 94.9376C57.3142 94.9112 57.3669 94.8979 57.38 94.8979V96.3662L57.0643 96.4323C56.9065 96.0752 56.7091 95.8106 56.4987 95.6254C56.275 95.4535 55.9856 95.3609 55.6041 95.3609C55.42 95.3609 55.2358 95.4006 55.0516 95.4667C54.8675 95.5329 54.6833 95.6519 54.4991 95.8106C54.3281 95.9826 54.1834 96.2074 54.0782 96.4984C53.9598 96.8026 53.9072 97.1598 53.9072 97.5963C53.9072 98.0725 53.9729 98.4825 54.0913 98.8264C54.2229 99.1703 54.3807 99.4348 54.5781 99.6465C54.7754 99.8581 54.9859 100.004 55.2226 100.083C55.4594 100.176 55.6962 100.228 55.9461 100.228C56.104 100.228 56.2487 100.189 56.3934 100.136C56.5381 100.083 56.6828 99.9772 56.8407 99.8052C56.9854 99.6332 57.1169 99.3819 57.2222 99.0645L57.551 99.0116L57.4195 100.348C56.9854 100.533 56.4329 100.625 55.7751 100.639C55.1042 100.639 54.5254 100.506 54.0387 100.242Z" fill="#666666"/>
<path d="M59.6852 100.506V100.215L60.1982 100.136C60.3298 100.136 60.435 100.096 60.5139 100.056C60.5797 100.017 60.6192 99.9638 60.6455 99.8977C60.6718 99.8315 60.685 99.7522 60.685 99.6331L60.5797 95.5063H60.1719C59.9088 95.5063 59.672 95.5724 59.4616 95.7179C59.2511 95.8634 59.0932 96.1676 58.9617 96.6174L58.6328 96.6835V95.083H63.6316L63.6711 96.6174L63.3554 96.6835C63.237 96.366 63.1317 96.128 63.0265 95.9692C62.9213 95.8105 62.8029 95.6915 62.645 95.6121C62.5003 95.546 62.303 95.5063 62.0531 95.5063H61.6716L61.5532 99.6331C61.5532 99.7919 61.5795 99.9109 61.6321 99.9903C61.6979 100.056 61.8294 100.109 62.0399 100.136L62.5661 100.215V100.506H59.6852Z" fill="#666666"/>
<path d="M64.5391 100.506V100.215L64.9074 100.136C65.0521 100.136 65.1573 100.096 65.2231 100.056C65.2889 100.017 65.3283 99.977 65.3547 99.9109C65.381 99.8448 65.3941 99.7522 65.3941 99.6331L65.302 96.0089C65.302 95.8634 65.302 95.7576 65.2757 95.7047C65.2757 95.6518 65.2231 95.5989 65.1442 95.5592C65.0784 95.5063 64.96 95.4666 64.789 95.4269L64.5391 95.374V95.083H67.4857C67.8541 95.083 68.1698 95.1095 68.446 95.1756C68.7091 95.2417 68.9328 95.3608 69.1169 95.5327C69.2879 95.7047 69.38 95.9295 69.3932 96.2338C69.3932 96.6967 69.1959 97.0274 68.8144 97.2522C68.7091 97.3184 68.5907 97.3845 68.4592 97.4242C68.3803 97.4639 68.3276 97.4903 68.3013 97.5036C68.2882 97.5036 68.2356 97.5432 68.1698 97.5697V97.702C68.446 97.7417 68.6828 97.7946 68.8801 97.8739C69.0775 97.9533 69.2222 98.0723 69.3406 98.2311C69.4589 98.3898 69.5116 98.6014 69.5116 98.8792C69.5116 99.0644 69.4458 99.2495 69.3669 99.4347C69.2748 99.6199 69.1432 99.7919 68.9591 99.9638C68.7749 100.123 68.525 100.255 68.2092 100.361C67.8935 100.453 67.5252 100.506 67.1042 100.506H64.5391ZM67.5515 100.017C67.7225 99.977 67.8935 99.8712 68.0382 99.6993C68.1829 99.5273 68.2619 99.2628 68.275 98.9189C68.275 98.4427 68.1698 98.1385 67.9856 98.0062C67.7883 97.8739 67.5383 97.8078 67.2489 97.8078C67.0779 97.8078 66.9332 97.8078 66.828 97.8475C66.8017 97.7813 66.7885 97.7152 66.7885 97.6623C66.7885 97.5829 66.8017 97.5036 66.828 97.4242C66.8543 97.4374 66.8938 97.4374 66.9464 97.4374C66.999 97.4374 67.0516 97.4374 67.1305 97.4374C67.1963 97.4374 67.2489 97.4374 67.2753 97.4374C67.4463 97.4374 67.6041 97.3845 67.7488 97.3184C67.8935 97.2523 68.0119 97.12 68.104 96.948C68.2092 96.7761 68.2487 96.538 68.2487 96.247C68.2487 96.0089 68.1961 95.837 68.104 95.7311C68.0251 95.6253 67.9067 95.546 67.7488 95.5195C67.6041 95.4931 67.3936 95.4798 67.1305 95.4798C66.8675 95.4798 66.6438 95.5063 66.407 95.546L66.2755 99.9374C66.407 99.977 66.4991 99.9903 66.5649 100.003C66.6307 100.003 66.7096 100.003 66.8017 100.03C66.8938 100.03 66.9464 100.03 66.9595 100.03C67.17 100.03 67.3673 100.03 67.5515 99.977V100.017Z" fill="#666666"/>
<path d="M70.2969 100.506V100.215L70.6521 100.136C70.7968 100.136 70.902 100.096 70.9678 100.056C71.0335 100.017 71.0862 99.977 71.1125 99.9109C71.1388 99.8448 71.1388 99.7522 71.1388 99.6331L71.0467 96.0089C71.0467 95.8634 71.0467 95.7576 71.0204 95.7047C71.0072 95.6518 70.9678 95.5989 70.902 95.5592C70.8231 95.5063 70.7047 95.4666 70.5468 95.4269L70.2969 95.374V95.083H74.8747L74.9142 96.4189L74.5985 96.4983C74.5196 96.2338 74.4406 96.0354 74.3485 95.8899C74.2433 95.7444 74.1249 95.6518 73.9539 95.5989C73.796 95.5327 73.5856 95.5063 73.3093 95.5063H72.1385L72.0991 97.3581C72.2569 97.3581 72.3885 97.3581 72.5069 97.3845H72.77C73.0594 97.3845 73.2699 97.3448 73.4277 97.2522C73.5724 97.1597 73.6645 97.0009 73.6777 96.7496H73.9671L73.9013 98.575H73.6119C73.5856 98.2575 73.5066 98.0327 73.3883 97.9268C73.2567 97.821 73.0462 97.7681 72.7437 97.7681C72.6779 97.7681 72.4674 97.7681 72.0859 97.7946L72.0202 99.977C72.0991 99.977 72.2701 100.003 72.52 100.03C72.7568 100.056 72.9278 100.083 73.0068 100.083H73.1778C74.0065 100.083 74.5459 99.7257 74.809 99.0115L75.1247 98.9718L75.0326 100.48L70.2969 100.506Z" fill="#666666"/>
<path d="M75.9062 100.506V100.215L76.2746 100.136C76.4061 100.136 76.5114 100.096 76.5771 100.056C76.6429 100.017 76.6955 99.977 76.7218 99.9109C76.7482 99.8448 76.7613 99.7522 76.7613 99.6331L76.6561 96.0089C76.6561 95.8634 76.6429 95.7576 76.6298 95.7047C76.6166 95.6518 76.5771 95.5989 76.5114 95.5592C76.4324 95.5063 76.314 95.4666 76.1562 95.4269L75.9062 95.374V95.083H78.4451V95.374L78.2346 95.4269C78.0505 95.4666 77.9321 95.5063 77.8663 95.5592C77.7874 95.6121 77.7479 95.665 77.7348 95.7179C77.7348 95.7708 77.7216 95.8766 77.7216 96.0089L77.6558 97.3977C78.0768 97.411 78.524 97.4242 78.9976 97.4242C79.6027 97.4242 80.0632 97.3978 80.3789 97.3448L80.3394 96.0089C80.3394 95.8634 80.3394 95.7576 80.3131 95.7047C80.3131 95.6518 80.2605 95.5989 80.1947 95.546C80.1158 95.5063 79.9974 95.4666 79.8395 95.4269L79.6159 95.374V95.083H82.1679V95.374L81.918 95.4269C81.7601 95.4534 81.6549 95.4931 81.576 95.546C81.5102 95.5856 81.4576 95.6518 81.4444 95.7179C81.4444 95.784 81.4181 95.8766 81.4181 96.0089L81.2997 99.6331C81.2997 99.8051 81.3392 99.9241 81.3918 99.9903C81.4576 100.056 81.5891 100.109 81.7996 100.136L82.1679 100.215V100.506H79.6159V100.215L79.9448 100.136C80.0763 100.136 80.1816 100.096 80.2473 100.056C80.3263 100.03 80.3789 99.977 80.4052 99.9109C80.4315 99.8448 80.4446 99.7522 80.4446 99.6331L80.3789 97.8739C80.1947 97.8739 79.9579 97.8475 79.6817 97.8475H78.603C78.4714 97.8475 78.3267 97.8475 78.1557 97.8607C77.9847 97.8607 77.8137 97.8607 77.6558 97.8607L77.6295 99.6199C77.6295 99.6993 77.6295 99.7786 77.6427 99.8315C77.669 99.8977 77.6953 99.9374 77.7216 99.977C77.7611 100.003 77.8005 100.043 77.8663 100.056C77.9321 100.083 78.011 100.109 78.1031 100.123L78.4451 100.202V100.493H75.9062V100.506Z" fill="#666666"/>
<path d="M82.7944 100.506V100.215L83.1627 100.136C83.2943 100.136 83.3995 100.096 83.4653 100.056C83.5311 100.017 83.5837 99.977 83.61 99.9109C83.6363 99.8448 83.6495 99.7522 83.6495 99.6331L83.5442 96.0089C83.5442 95.8634 83.5442 95.7576 83.5179 95.7047C83.5048 95.6518 83.4653 95.5989 83.3995 95.5592C83.3206 95.5063 83.2022 95.4666 83.0443 95.4269L82.7944 95.374V95.083H85.3333V95.374L85.1096 95.4269C84.9386 95.4666 84.8202 95.5063 84.7545 95.5592C84.6755 95.6121 84.6361 95.665 84.6229 95.7179C84.6098 95.7708 84.6098 95.8766 84.6098 96.0089L84.544 97.3977C84.9649 97.411 85.3991 97.4242 85.8858 97.4242C86.4909 97.4242 86.9513 97.3978 87.267 97.3448L87.2276 96.0089C87.2276 95.8634 87.2276 95.7576 87.2013 95.7047C87.1881 95.6518 87.1486 95.5989 87.0829 95.546C87.0039 95.5063 86.8855 95.4666 86.7277 95.4269L86.504 95.374V95.083H89.0561V95.374L88.8061 95.4269C88.6483 95.4534 88.543 95.4931 88.4641 95.546C88.3983 95.5856 88.3457 95.6518 88.3326 95.7179C88.3326 95.784 88.3063 95.8766 88.3063 96.0089L88.1879 99.6331C88.1879 99.8051 88.2273 99.9241 88.2799 99.9903C88.3457 100.056 88.4773 100.109 88.6877 100.136L89.0561 100.215V100.506H86.504V100.215L86.8329 100.136C86.9645 100.136 87.0697 100.096 87.1355 100.056C87.2144 100.03 87.2539 99.977 87.2933 99.9109C87.3196 99.8448 87.3328 99.7522 87.3328 99.6331L87.267 97.8739C87.0829 97.8739 86.8461 97.8475 86.5698 97.8475H85.4911C85.3596 97.8475 85.2149 97.8475 85.0439 97.8607C84.8729 97.8607 84.7018 97.8607 84.544 97.8607L84.5177 99.6199C84.5177 99.6993 84.5177 99.7786 84.5177 99.8315C84.544 99.8977 84.5703 99.9374 84.5966 99.977C84.6361 100.003 84.6755 100.043 84.7413 100.056C84.8071 100.083 84.886 100.109 84.9781 100.123L85.3201 100.202V100.493H82.7812L82.7944 100.506Z" fill="#666666"/>
<path d="M89.6875 100.506V100.215L90.0164 100.136C90.1611 100.109 90.2795 100.083 90.3452 100.043C90.411 100.003 90.4505 99.9506 90.4768 99.8844C90.4899 99.8315 90.5031 99.7389 90.5031 99.6331L90.4505 96.0089C90.4505 95.8237 90.4242 95.6915 90.3715 95.5989C90.3058 95.5195 90.1742 95.4666 89.9506 95.4269L89.6875 95.374V95.083H92.2527V95.374L91.9764 95.4269C91.7528 95.4666 91.6212 95.5195 91.5686 95.6121C91.516 95.6915 91.4765 95.8237 91.4765 96.0089L91.4239 99.977C91.6476 100.043 91.8843 100.083 92.1211 100.083C92.4632 100.083 92.7262 100.017 92.9104 99.8977C93.0946 99.7654 93.213 99.6067 93.2787 99.4083C93.3445 99.2231 93.3708 98.9982 93.3708 98.7469C93.3708 98.3369 93.2787 98.0591 93.1209 97.9268C92.9499 97.7813 92.7262 97.702 92.4368 97.702C92.2395 97.7152 92.0685 97.7549 91.9238 97.8078C91.858 97.6887 91.8317 97.5697 91.8317 97.4639C92.2001 97.3184 92.5816 97.2522 92.9762 97.2522C93.213 97.2522 93.4235 97.2787 93.6339 97.3316C93.8313 97.3845 94.0023 97.4771 94.1601 97.5829C94.3048 97.702 94.4232 97.8342 94.5153 98.0062C94.5942 98.1782 94.6337 98.3633 94.6337 98.575C94.6337 98.8527 94.5679 99.1173 94.4495 99.3554C94.318 99.5934 94.147 99.7919 93.9102 99.9638C93.6866 100.136 93.3971 100.268 93.0814 100.361C92.7526 100.466 92.3974 100.506 92.0159 100.506H89.6875ZM94.489 100.506V100.215L94.831 100.136C95.0415 100.096 95.173 100.043 95.2388 99.977C95.2783 99.9241 95.3046 99.8051 95.3046 99.6331L95.2783 96.0089C95.2783 95.8237 95.2388 95.6915 95.1862 95.5989C95.1336 95.5195 94.9889 95.4666 94.7652 95.4269L94.489 95.374V95.083H97.0542V95.374L96.7911 95.4269C96.5674 95.4666 96.4359 95.5195 96.3833 95.5989C96.3307 95.6782 96.2912 95.8237 96.2912 96.0089L96.2386 99.6331C96.2386 99.7522 96.2386 99.8448 96.2649 99.8977C96.2912 99.9506 96.3307 100.003 96.3964 100.043C96.4622 100.083 96.5806 100.109 96.7516 100.136L97.0542 100.215V100.506H94.489Z" fill="#666666"/>
<path d="M97.7109 100.506V100.215L98.0793 100.136C98.3029 100.096 98.4344 100.057 98.5002 99.9904C98.5528 99.9243 98.5791 99.8052 98.5791 99.6333L98.4871 96.009C98.4739 95.8768 98.4871 95.7842 98.4476 95.718C98.4344 95.6519 98.395 95.599 98.3161 95.5461C98.2503 95.5064 98.1319 95.4667 97.9609 95.427L97.7109 95.3741V95.0831H100.368V95.3741L100.105 95.427C99.8552 95.48 99.7105 95.5329 99.6578 95.6122C99.6052 95.6916 99.5789 95.8239 99.5789 96.009L99.4737 99.2629H99.5131L102.907 95.0831H104.209V95.3741L103.946 95.427C103.775 95.4667 103.657 95.5064 103.578 95.5593C103.512 95.6122 103.46 95.6651 103.446 95.7313C103.433 95.7842 103.42 95.8768 103.42 96.009L103.315 99.6333C103.315 99.8052 103.341 99.9243 103.407 99.9904C103.46 100.057 103.604 100.096 103.828 100.136L104.209 100.215V100.506H101.684V100.215L101.92 100.149C102.078 100.109 102.184 100.083 102.249 100.043C102.315 100.017 102.355 99.9639 102.394 99.911C102.42 99.8449 102.433 99.7523 102.433 99.6333L102.328 96.6704H102.289L99.1185 100.506H97.7109ZM100.276 94.0514L100.46 93.7737C100.684 93.9192 100.829 93.9985 100.908 93.9985C101 93.9985 101.131 93.9456 101.302 93.8398C101.486 93.7207 101.657 93.6017 101.815 93.4562C101.986 93.3107 102.105 93.2049 102.17 93.1123H102.591C102.591 93.1123 102.526 93.2049 102.499 93.2313C102.486 93.2578 102.46 93.2843 102.447 93.3239C102.42 93.3504 102.394 93.3768 102.381 93.4033C102.328 93.4959 102.276 93.562 102.236 93.6282C102.197 93.6943 102.131 93.7737 102.078 93.8662C101.934 94.0911 101.815 94.2631 101.723 94.3821C101.631 94.5144 101.565 94.607 101.526 94.6466C101.473 94.6863 101.434 94.7128 101.394 94.7128C101.276 94.7128 100.908 94.4879 100.276 94.0514Z" fill="#666666"/>
<path d="M2 115.413V112.464H2.48673C2.73667 112.437 2.99976 112.212 3.26286 111.736C3.52595 111.273 3.77589 110.678 3.99953 109.964C4.23631 109.249 4.40732 108.548 4.53887 107.874C4.68357 107.212 4.74935 106.71 4.74935 106.392C4.72304 106.048 4.43363 105.876 3.86798 105.876C3.71012 105.876 3.56542 105.876 3.47333 105.89L3.60488 105.242C3.97322 105.255 4.38101 105.268 4.78881 105.268C4.89405 105.268 5.03875 105.268 5.20977 105.268C5.36762 105.268 5.56494 105.255 5.78858 105.255C5.97274 105.255 6.28846 105.215 6.72256 105.175C6.86727 105.175 7.02512 105.149 7.16983 105.136C7.32768 105.136 7.47239 105.109 7.61709 105.096C7.73548 105.07 7.88018 105.043 8.0512 104.99L9.43245 112.477C9.86656 112.477 10.1954 112.477 10.4059 112.437V115.294L9.93233 115.426C9.7087 114.725 9.52453 114.236 9.39298 113.945C9.26144 113.641 9.12989 113.456 8.99834 113.35C8.86679 113.257 8.68263 113.204 8.45899 113.204H8.28798C8.28798 113.204 8.18274 113.204 8.11697 113.204C8.03804 113.204 7.95911 113.204 7.86703 113.204H4.14423C3.94691 113.204 3.74959 113.244 3.56542 113.31C3.38125 113.376 3.19708 113.561 2.99976 113.852C2.8156 114.143 2.65774 114.606 2.52619 115.215L2 115.4V115.413ZM7.9328 112.596L6.55155 106.829C6.55155 106.829 6.51209 106.617 6.47262 106.406C6.43316 106.194 6.38054 106.035 6.32792 105.943C6.2753 105.85 6.19637 105.797 6.10429 105.797C5.97274 105.797 5.8675 105.903 5.80173 106.062C5.7228 106.234 5.61756 106.577 5.45971 107.107C5.39393 107.371 5.315 107.675 5.20977 108.006C5.1703 108.152 5.0256 108.667 4.77566 109.554C4.74935 109.673 4.70988 109.805 4.65726 109.99C4.6178 110.175 4.56518 110.36 4.51256 110.546C4.45994 110.718 4.42048 110.863 4.39417 110.969C4.30209 111.3 4.21 111.63 4.13107 111.974C4.13107 112.067 4.10476 112.133 4.07845 112.186C4.07845 112.239 4.05215 112.305 4.03899 112.371C4.01268 112.45 3.99953 112.53 3.98637 112.596H7.9328Z" fill="#666666"/>
<path d="M10.9688 113.217V112.794C11.3108 112.728 11.5739 112.477 11.7843 112.053C11.837 111.948 11.9159 111.802 12.008 111.604C12.1001 111.405 12.1921 111.22 12.2579 111.048C12.35 110.85 12.4289 110.651 12.5079 110.466C12.5999 110.268 12.692 110.043 12.8104 109.778C13.0077 109.223 13.1393 108.879 13.2051 108.72C13.3761 108.231 13.5471 107.768 13.6786 107.331C13.7049 107.252 13.7576 107.067 13.8365 106.776C13.9023 106.485 13.9549 106.3 13.9549 106.22C13.9549 106.075 13.9154 105.956 13.8233 105.89C13.7444 105.824 13.626 105.784 13.4682 105.771C13.3103 105.757 13.0472 105.744 12.7052 105.744L12.8104 105.136C12.9946 105.149 13.3629 105.162 13.9023 105.162C14.1654 105.162 14.4811 105.162 14.8494 105.122C15.2046 105.096 15.5729 105.056 15.9281 105.017C16.2833 104.977 16.6516 104.924 17.0199 104.845L18.3091 111.194C18.388 111.564 18.467 111.829 18.5327 112.014C18.5985 112.199 18.7038 112.358 18.8616 112.49C19.0063 112.635 19.2168 112.741 19.4799 112.794V113.217H16.0991V112.794L16.6516 112.662C16.7963 112.622 16.9016 112.583 16.9542 112.53C17.0068 112.477 17.0331 112.437 17.0331 112.411C17.0331 112.318 17.0331 112.199 16.9805 112.04L16.4674 109.924C16.1517 109.884 15.6519 109.871 15.0073 109.871C14.3232 109.871 13.8628 109.871 13.5997 109.897L12.942 112.106C12.8893 112.292 12.863 112.411 12.863 112.464C12.9025 112.662 13.2182 112.768 13.8102 112.794V113.217H10.9688ZM16.2833 109.21C16.2438 109.051 16.2044 108.919 16.1649 108.826C16.1517 108.773 16.1386 108.681 16.0991 108.548C16.0596 108.416 16.0333 108.297 16.0202 108.218C15.9676 108.059 15.9281 107.94 15.9018 107.834C15.8755 107.728 15.836 107.609 15.7966 107.503C15.6913 107.107 15.6387 106.882 15.6255 106.829C15.5071 106.406 15.4282 106.141 15.3756 106.009C15.3361 105.89 15.2967 105.81 15.2572 105.757C15.2177 105.718 15.152 105.691 15.0599 105.691C14.9546 105.691 14.8757 105.731 14.8363 105.824C14.7836 105.916 14.7179 106.141 14.6258 106.511C14.5337 106.855 14.4679 107.093 14.4285 107.226C14.3364 107.596 14.2574 107.874 14.1917 108.032C14.1785 108.112 14.1127 108.337 13.9943 108.72C13.9549 108.813 13.9154 108.892 13.9023 108.945C13.8891 109.011 13.8628 109.104 13.8233 109.21C14.1917 109.236 14.4548 109.249 14.6258 109.249C14.7968 109.249 14.9283 109.263 15.0073 109.263C15.5466 109.263 15.9676 109.249 16.2833 109.21Z" fill="#666666"/>
<path d="M20.1382 113.218V112.794L20.6643 112.688C20.8748 112.649 21.0327 112.609 21.1248 112.556C21.23 112.503 21.2958 112.437 21.3352 112.345C21.3747 112.252 21.3879 112.12 21.3879 111.935L21.2432 106.63C21.2432 106.419 21.2168 106.273 21.2037 106.194C21.2037 106.115 21.1248 106.035 21.0327 105.969C20.9274 105.903 20.7433 105.837 20.4933 105.784L20.125 105.705V105.268H24.0714C24.8213 105.268 25.4132 105.321 25.8736 105.44C26.3341 105.559 26.6761 105.757 26.9129 106.035C27.1497 106.326 27.268 106.71 27.268 107.226C27.2549 107.662 27.1497 108.046 26.9655 108.376C26.7682 108.707 26.5182 108.972 26.2288 109.157C25.9394 109.355 25.6105 109.501 25.2685 109.593C24.9265 109.699 24.5845 109.752 24.2424 109.752C24.032 109.752 23.8478 109.752 23.6768 109.726C23.5058 109.699 23.3874 109.686 23.3085 109.673C23.2295 109.646 23.1506 109.633 23.0585 109.62C23.0585 109.368 23.1111 109.157 23.2164 108.985C23.3874 109.064 23.5979 109.104 23.8741 109.104C24.2688 109.104 24.6239 108.985 24.9528 108.72C25.2817 108.456 25.4527 107.98 25.4527 107.279C25.4395 106.961 25.3869 106.71 25.308 106.511C25.2159 106.313 25.0449 106.154 24.8081 106.048C24.5713 105.943 24.2424 105.89 23.8083 105.89C23.4532 105.89 23.1243 105.929 22.8217 105.996L22.677 111.935C22.677 112.106 22.6902 112.239 22.7296 112.331C22.7691 112.437 22.8612 112.517 23.0191 112.583C23.1901 112.662 23.4269 112.715 23.7557 112.741L24.1898 112.794V113.218H20.1382Z" fill="#666666"/>
<path d="M28.1875 113.218V112.794L28.7268 112.688C28.9242 112.662 29.082 112.609 29.1741 112.556C29.2793 112.517 29.3451 112.437 29.3846 112.345C29.4109 112.252 29.4372 112.12 29.4372 111.935L29.2925 106.63C29.2793 106.419 29.2662 106.273 29.253 106.194C29.2399 106.115 29.1741 106.035 29.0689 105.969C28.9636 105.89 28.7926 105.837 28.5558 105.784L28.1875 105.705V105.268H32.5154C33.0416 105.268 33.502 105.321 33.8967 105.414C34.3045 105.506 34.6333 105.678 34.8833 105.929C35.1464 106.181 35.2779 106.525 35.2911 106.961C35.2911 107.636 35.0148 108.138 34.4492 108.456C34.2913 108.548 34.1072 108.641 33.923 108.707C33.8177 108.773 33.7388 108.8 33.6994 108.826C33.673 108.826 33.6073 108.866 33.5152 108.919V109.117C33.9098 109.17 34.2519 109.249 34.5413 109.355C34.8307 109.474 35.0543 109.646 35.2253 109.884C35.3832 110.122 35.4621 110.44 35.4621 110.837C35.4489 111.114 35.3832 111.392 35.2516 111.657C35.1332 111.921 34.9359 112.186 34.6596 112.424C34.3966 112.662 34.0282 112.847 33.5678 112.993C33.1074 113.151 32.568 113.218 31.9366 113.218H28.1875ZM32.5944 112.503C32.8574 112.437 33.0942 112.292 33.3047 112.027C33.5283 111.789 33.6467 111.405 33.6599 110.89C33.6599 110.189 33.5152 109.752 33.2258 109.554C32.9364 109.368 32.5812 109.276 32.1602 109.276C31.8971 109.276 31.6998 109.276 31.542 109.329C31.5025 109.236 31.4762 109.144 31.4762 109.051C31.4762 108.932 31.5025 108.826 31.542 108.707C31.5814 108.707 31.6341 108.707 31.713 108.707C31.7788 108.72 31.8577 108.72 31.9761 108.734C32.0813 108.734 32.1471 108.747 32.1997 108.747C32.4496 108.734 32.6733 108.667 32.8838 108.575C33.0942 108.469 33.2652 108.297 33.4099 108.033C33.5546 107.781 33.6204 107.437 33.6204 107.001C33.6073 106.657 33.5415 106.406 33.4099 106.247C33.2916 106.088 33.1205 105.982 32.8969 105.943C32.6733 105.903 32.3707 105.877 31.9761 105.877C31.6077 105.877 31.2657 105.916 30.9105 105.982L30.7132 112.424C30.9105 112.464 31.0552 112.49 31.1473 112.503C31.2526 112.53 31.3578 112.53 31.5025 112.543C31.6341 112.543 31.713 112.569 31.7393 112.569C32.0419 112.569 32.3313 112.543 32.5944 112.49V112.503Z" fill="#666666"/>
<path d="M36.625 113.218V112.794L37.1643 112.688C37.3617 112.662 37.5195 112.609 37.6248 112.556C37.7168 112.517 37.7826 112.437 37.8221 112.345C37.8615 112.252 37.8747 112.12 37.8747 111.935L37.73 106.63C37.73 106.419 37.73 106.273 37.6905 106.194C37.6774 106.115 37.6116 106.035 37.5064 105.969C37.4143 105.89 37.2301 105.837 36.9933 105.784L36.625 105.705V105.268H40.3873V105.705L40.0321 105.784C39.7821 105.837 39.6111 105.89 39.5059 105.969C39.4007 106.035 39.3349 106.115 39.3217 106.207C39.2954 106.287 39.2823 106.432 39.2823 106.63L39.1507 111.392H39.1902L44.0048 105.268H45.8597V105.705L45.5045 105.784C45.2545 105.824 45.0967 105.89 44.9914 105.956C44.8862 106.022 44.8204 106.101 44.8073 106.194C44.781 106.273 44.7678 106.419 44.7547 106.63L44.6099 111.935C44.6099 112.186 44.6626 112.371 44.7547 112.464C44.8467 112.556 45.0309 112.636 45.3203 112.688L45.8597 112.794V113.218H42.2684V112.794L42.6236 112.702C42.8341 112.649 42.9919 112.596 43.084 112.556C43.1761 112.517 43.2419 112.45 43.2813 112.358C43.3208 112.265 43.3471 112.12 43.3471 111.935L43.2024 107.596H43.1498L38.6508 113.218H36.625Z" fill="#666666"/>
<path d="M46.7891 113.218V112.794L47.3284 112.688C47.5389 112.662 47.6836 112.609 47.7888 112.556C47.8809 112.517 47.9467 112.437 47.9861 112.345C48.0256 112.252 48.0388 112.12 48.0388 111.935L47.8941 106.63C47.8941 106.419 47.8809 106.273 47.8546 106.194C47.8414 106.115 47.7757 106.035 47.6836 105.969C47.5783 105.89 47.3942 105.837 47.1574 105.784L46.7891 105.705V105.268H50.525V105.705L50.1962 105.784C49.9462 105.837 49.762 105.89 49.6568 105.969C49.5516 106.035 49.4989 106.115 49.4858 106.207C49.4595 106.287 49.4595 106.432 49.4463 106.63L49.3674 108.654C49.9725 108.694 50.6171 108.707 51.3275 108.707C52.2088 108.707 52.8929 108.667 53.3533 108.601L53.3007 106.63C53.2875 106.419 53.2744 106.273 53.2612 106.181C53.2481 106.101 53.1823 106.035 53.077 105.969C52.9718 105.89 52.8008 105.837 52.5509 105.784L52.2351 105.705V105.268H55.9711V105.705L55.6028 105.784C55.3791 105.824 55.2081 105.877 55.1029 105.943C54.9976 106.022 54.9319 106.101 54.9056 106.207C54.8793 106.3 54.8661 106.445 54.8661 106.63L54.7082 111.935C54.7082 112.186 54.7477 112.371 54.8398 112.464C54.9319 112.556 55.1292 112.636 55.4318 112.688L55.9711 112.794V113.218H52.2351V112.794L52.7219 112.688C52.906 112.662 53.0639 112.609 53.1691 112.569C53.2612 112.517 53.3401 112.45 53.3796 112.358C53.4322 112.265 53.4454 112.12 53.4454 111.935L53.3533 109.368C53.077 109.342 52.735 109.316 52.3272 109.316H51.3275C51.117 109.316 50.9328 109.316 50.7487 109.316C50.5645 109.316 50.3409 109.316 50.0909 109.329C49.841 109.329 49.591 109.329 49.3542 109.355L49.3148 111.921C49.3148 112.054 49.3148 112.159 49.3542 112.239C49.3542 112.331 49.4069 112.397 49.4595 112.45C49.5121 112.503 49.5779 112.543 49.67 112.569C49.762 112.609 49.8804 112.649 50.0251 112.675L50.525 112.781V113.204H46.7891V113.218Z" fill="#666666"/>
<path d="M58.9613 112.754C58.3299 112.305 57.8563 111.749 57.5669 111.061C57.2775 110.387 57.1328 109.672 57.1328 108.945C57.1328 108.548 57.1986 108.151 57.3038 107.728C57.4091 107.305 57.6064 106.895 57.8958 106.485C58.1852 106.088 58.6061 105.744 59.1718 105.466C59.7506 105.202 60.461 105.056 61.3423 105.056C62.2237 105.056 62.9078 105.188 63.4734 105.453C64.0391 105.718 64.4732 106.048 64.7757 106.445C65.0651 106.855 65.2756 107.265 65.3809 107.688C65.4861 108.112 65.5387 108.535 65.5519 108.945C65.5519 109.712 65.4072 110.44 65.1046 111.127C64.802 111.802 64.3285 112.358 63.697 112.781C63.0525 113.204 62.2763 113.416 61.3423 113.416C60.4084 113.416 59.5928 113.191 58.9613 112.754ZM61.9869 112.701C62.2106 112.635 62.4473 112.477 62.6973 112.238C62.9341 112 63.1577 111.604 63.3287 111.061C63.4997 110.519 63.5918 109.818 63.5918 108.958C63.5523 107.675 63.3287 106.815 62.9078 106.366C62.4737 105.916 61.9606 105.691 61.3423 105.691C60.7241 105.691 60.211 105.916 59.7901 106.366C59.356 106.815 59.1323 107.675 59.106 108.958C59.106 110.559 59.356 111.59 59.8427 112.08C60.3294 112.569 60.8293 112.807 61.3423 112.807C61.5397 112.807 61.7633 112.768 61.9869 112.701Z" fill="#666666"/>
<path d="M66.7344 113.218V112.794L67.2606 112.688C67.471 112.662 67.6157 112.609 67.721 112.556C67.8131 112.517 67.892 112.437 67.9183 112.345C67.9578 112.252 67.9709 112.12 67.9709 111.935L67.8262 106.63C67.8262 106.419 67.8262 106.273 67.7999 106.194C67.7736 106.115 67.721 106.035 67.6157 105.969C67.5105 105.89 67.3395 105.837 67.0896 105.784L66.7344 105.705V105.268H71.0491C71.5753 105.268 72.0357 105.321 72.4435 105.414C72.8382 105.506 73.1671 105.678 73.4302 105.929C73.6801 106.181 73.8116 106.525 73.8248 106.961C73.8248 107.636 73.5486 108.138 72.9961 108.456C72.825 108.548 72.654 108.641 72.4699 108.707C72.3515 108.773 72.2725 108.8 72.2462 108.826C72.2068 108.826 72.141 108.866 72.0489 108.919V109.117C72.4435 109.17 72.7856 109.249 73.075 109.355C73.3644 109.474 73.588 109.646 73.759 109.884C73.93 110.122 74.009 110.44 74.009 110.837C73.9827 111.114 73.9169 111.392 73.7985 111.657C73.6669 111.921 73.4696 112.186 73.2065 112.424C72.9303 112.662 72.5751 112.847 72.1147 112.993C71.6411 113.151 71.1018 113.218 70.4703 113.218H66.7344ZM71.1281 112.503C71.3912 112.437 71.628 112.292 71.8516 112.027C72.0621 111.789 72.1805 111.405 72.1936 110.89C72.1936 110.189 72.0489 109.752 71.7595 109.554C71.4701 109.368 71.1281 109.276 70.7071 109.276C70.444 109.276 70.2335 109.276 70.0757 109.329C70.0362 109.236 70.0099 109.144 70.0099 109.051C70.0099 108.932 70.0362 108.826 70.0757 108.707C70.1152 108.707 70.1809 108.707 70.2467 108.707C70.3125 108.72 70.4046 108.72 70.5098 108.734C70.615 108.734 70.694 108.747 70.7334 108.747C70.9834 108.734 71.207 108.667 71.4175 108.575C71.628 108.469 71.8121 108.297 71.9437 108.033C72.0884 107.781 72.1673 107.437 72.1673 107.001C72.1673 106.657 72.0884 106.406 71.9568 106.247C71.8253 106.088 71.6543 105.982 71.4306 105.943C71.2202 105.903 70.9044 105.877 70.5098 105.877C70.1546 105.877 69.7994 105.916 69.4574 105.982L69.2601 112.424C69.4443 112.464 69.589 112.49 69.6942 112.503C69.7863 112.53 69.9047 112.53 70.0362 112.543C70.1678 112.543 70.2467 112.569 70.273 112.569C70.5756 112.569 70.865 112.543 71.1281 112.49V112.503Z" fill="#666666"/>
<path d="M77.5875 112.821C76.864 112.437 76.3246 111.908 75.9563 111.22C75.5748 110.546 75.3906 109.792 75.3906 108.958C75.3906 108.429 75.4959 107.94 75.6537 107.49C75.8247 107.04 76.0747 106.63 76.4167 106.273C76.7456 105.903 77.1928 105.612 77.7322 105.4C78.2847 105.189 78.9293 105.07 79.6528 105.056C80.0343 105.056 80.3894 105.056 80.7183 105.096C81.1393 105.122 81.4155 105.136 81.5471 105.136C81.7312 105.136 81.8628 105.136 81.9417 105.122C82.0075 105.122 82.0732 105.096 82.1259 105.083C82.1785 105.07 82.218 105.056 82.2443 105.056C82.3758 105.03 82.4679 105.003 82.481 105.003V107.159L82.0206 107.252C81.7838 106.723 81.5076 106.339 81.1787 106.075C80.863 105.81 80.4289 105.691 79.8764 105.691C79.6133 105.691 79.3371 105.731 79.0608 105.837C78.7846 105.929 78.5215 106.101 78.2584 106.353C78.0084 106.591 77.798 106.935 77.6269 107.358C77.4691 107.781 77.3902 108.323 77.3902 108.958C77.3902 109.646 77.4822 110.255 77.6664 110.757C77.8374 111.26 78.0742 111.657 78.3636 111.961C78.6662 112.265 78.9819 112.477 79.3239 112.609C79.6659 112.741 80.0211 112.807 80.3631 112.807C80.5999 112.807 80.8235 112.768 81.034 112.688C81.2445 112.609 81.4681 112.45 81.6786 112.199C81.9022 111.934 82.0864 111.577 82.2574 111.101L82.731 111.035L82.5468 112.979C81.9022 113.257 81.0866 113.403 80.1132 113.416C79.1397 113.416 78.2978 113.217 77.5875 112.821Z" fill="#666666"/>
<path d="M90.3644 112.993C90.0487 112.715 89.7199 112.384 89.3647 111.974C88.9963 111.577 88.6675 111.194 88.3518 110.81C88.0492 110.44 87.7993 110.136 87.6282 109.924C87.4835 109.726 87.3388 109.527 87.181 109.329C87.1547 109.289 87.1284 109.249 87.0889 109.197C87.0626 109.144 87.0363 109.117 87.0231 109.104C86.9837 109.038 86.9574 108.985 86.9574 108.932C86.9574 108.853 87.1284 108.654 87.4572 108.31C87.6151 108.152 87.7729 107.98 87.9177 107.821C88.0755 107.662 88.2202 107.503 88.3781 107.345C88.6017 107.12 88.8516 106.855 89.1147 106.551C89.2726 106.379 89.4305 106.207 89.5883 106.009C89.6278 105.956 89.6409 105.903 89.6409 105.837C89.6409 105.771 89.5752 105.731 89.4568 105.731C89.4041 105.718 89.3384 105.705 89.2594 105.705H89.1147V105.268H92.2456V105.691C91.8378 105.691 91.2327 105.996 90.4039 106.604C90.2592 106.71 90.1145 106.816 89.9829 106.935C89.8382 107.054 89.7067 107.16 89.562 107.279C89.3778 107.424 89.1542 107.609 88.8911 107.847C88.6412 108.059 88.4965 108.204 88.4965 108.271C88.4965 108.324 88.5491 108.456 88.6806 108.654C88.7069 108.707 88.7727 108.8 88.8648 108.919C88.97 109.051 89.0227 109.13 89.049 109.157C89.2594 109.501 89.4831 109.818 89.7067 110.109C89.7199 110.136 89.8251 110.281 90.0093 110.532C90.1803 110.784 90.3381 111.009 90.4828 111.194C90.8249 111.657 91.0616 111.961 91.18 112.106C91.3774 112.358 91.5484 112.49 91.6799 112.517C91.7588 112.517 91.8641 112.477 91.9956 112.397C92.1272 112.318 92.2061 112.265 92.2456 112.212L92.5876 112.636C92.4166 112.768 92.1535 112.927 91.7983 113.125C91.43 113.337 91.1669 113.429 91.0353 113.429C90.8906 113.416 90.667 113.284 90.3644 112.993ZM83.9844 113.218V112.794L84.4711 112.688C84.7079 112.649 84.8789 112.596 84.9841 112.543C85.0894 112.477 85.1683 112.411 85.1946 112.331C85.2209 112.239 85.2472 112.12 85.2472 111.935L85.142 106.63C85.142 106.432 85.1288 106.287 85.1025 106.194C85.0762 106.101 85.0104 106.022 84.9052 105.956C84.8 105.89 84.6158 105.837 84.3527 105.784L83.9844 105.705V105.268H87.7466V105.705L87.3915 105.784C87.1415 105.837 86.9705 105.89 86.8521 105.956C86.7469 106.022 86.6679 106.101 86.6548 106.194C86.6285 106.273 86.6153 106.419 86.6022 106.63L86.5101 111.935C86.5101 112.186 86.5627 112.358 86.6416 112.464C86.7337 112.556 86.9442 112.636 87.2731 112.688L87.8387 112.794V113.218H83.9844Z" fill="#666666"/>
<path d="M93.3203 113.218V112.794L93.8465 112.688C94.057 112.662 94.2148 112.609 94.3069 112.556C94.4122 112.517 94.4779 112.437 94.5174 112.345C94.5437 112.252 94.57 112.12 94.57 111.935L94.4253 106.63C94.4122 106.419 94.399 106.273 94.3859 106.194C94.3727 106.115 94.3069 106.035 94.2017 105.969C94.0964 105.89 93.9254 105.837 93.6886 105.784L93.3203 105.705V105.268H97.0694V105.705L96.7274 105.784C96.4775 105.837 96.2933 105.89 96.2012 105.969C96.096 106.035 96.0302 106.115 96.017 106.207C95.9907 106.287 95.9776 106.432 95.9776 106.63L95.8329 111.392H95.8855L100.7 105.268H102.555V105.705L102.187 105.784C101.95 105.824 101.779 105.89 101.674 105.956C101.582 106.022 101.516 106.101 101.489 106.194C101.489 106.273 101.463 106.419 101.45 106.63L101.305 111.935C101.305 112.186 101.358 112.371 101.437 112.464C101.529 112.556 101.726 112.636 102.016 112.688L102.555 112.794V113.218H98.9637V112.794L99.3189 112.702C99.5294 112.649 99.6741 112.596 99.7662 112.556C99.8582 112.517 99.924 112.45 99.9766 112.358C100.016 112.265 100.029 112.12 100.029 111.935L99.8977 107.596H99.8451L95.333 113.218H93.3203Z" fill="#666666"/>
<path d="M103.492 113.217V112.794L104.032 112.688C104.36 112.635 104.558 112.556 104.65 112.463C104.729 112.371 104.768 112.186 104.768 111.934L104.623 106.63C104.623 106.445 104.61 106.299 104.584 106.207C104.558 106.114 104.492 106.022 104.387 105.956C104.281 105.889 104.11 105.823 103.861 105.784L103.492 105.704V105.268H107.373V105.704L106.991 105.784C106.649 105.85 106.426 105.929 106.347 106.048C106.268 106.154 106.228 106.352 106.215 106.63L106.084 111.392H106.123L111.096 105.268H113.003V105.704L112.622 105.784C112.372 105.837 112.201 105.903 112.095 105.969C111.99 106.035 111.924 106.128 111.898 106.22C111.872 106.313 111.859 106.445 111.859 106.63L111.714 111.934C111.714 112.186 111.753 112.371 111.845 112.463C111.924 112.556 112.135 112.635 112.451 112.688L113.003 112.794V113.217H109.307V112.794L109.662 112.701C109.885 112.648 110.043 112.596 110.149 112.543C110.241 112.503 110.306 112.437 110.346 112.344C110.385 112.252 110.412 112.119 110.412 111.934L110.254 107.596H110.201L105.571 113.217H103.492ZM107.254 103.76L107.518 103.35C107.846 103.561 108.07 103.681 108.188 103.694C108.32 103.694 108.504 103.601 108.767 103.442C109.017 103.284 109.267 103.099 109.517 102.887C109.767 102.689 109.938 102.517 110.03 102.384H110.648C110.648 102.384 110.543 102.517 110.517 102.556C110.491 102.596 110.451 102.649 110.425 102.688C110.398 102.741 110.372 102.781 110.346 102.808C110.267 102.94 110.188 103.046 110.122 103.138C110.056 103.244 109.977 103.363 109.885 103.495C109.675 103.813 109.517 104.064 109.372 104.249C109.241 104.448 109.149 104.567 109.07 104.633C109.004 104.699 108.938 104.739 108.886 104.725C108.728 104.725 108.175 104.408 107.254 103.76Z" fill="#666666"/>
<path d="M34.4141 126.815V126.391C34.835 126.339 35.1244 126.193 35.2691 125.955C35.4138 125.704 35.4928 125.399 35.5191 125.042L35.7822 121.365C35.7953 121.206 35.8085 121.021 35.8216 120.796C35.8479 120.585 35.8479 120.386 35.8611 120.201C35.8611 119.963 35.8216 119.804 35.7559 119.685C35.6769 119.593 35.4928 119.487 35.177 119.408L34.7561 119.302V118.865H38.5315L39.7023 123.071H39.7549L41.544 118.865H44.6353V119.302L44.4775 119.355C44.1749 119.408 43.9776 119.5 43.8723 119.606C43.7671 119.725 43.7276 119.923 43.7276 120.214L44.0434 125.532C44.0565 125.836 44.1223 126.034 44.267 126.14C44.3985 126.246 44.6353 126.339 45.0037 126.391V126.815H41.4124V126.391L41.9781 126.272C42.2412 126.233 42.4253 126.167 42.5306 126.061C42.6358 125.968 42.6884 125.783 42.6884 125.532L42.2148 119.434H42.057L39.7417 125.201L39.084 125.36L36.8082 119.434H36.6372L36.4267 125.135C36.4136 125.32 36.4004 125.479 36.4004 125.638C36.4136 125.757 36.4267 125.876 36.4531 125.955C36.4794 126.034 36.532 126.1 36.6109 126.14C36.6767 126.18 36.7819 126.22 36.9266 126.246L37.6896 126.391V126.815H34.4141Z" fill="#666666"/>
<path d="M47.9099 126.934C47.6336 126.894 47.3968 126.828 47.1863 126.762L47.0811 124.791L47.4889 124.685C47.581 125.003 47.6862 125.28 47.8046 125.505C47.923 125.73 48.0677 125.915 48.2519 126.061C48.436 126.22 48.6465 126.286 48.8965 126.286C49.3043 126.286 49.62 126.034 49.8436 125.505L47.6204 121.352C47.4626 121.048 47.3574 120.863 47.3179 120.81C47.16 120.505 47.0679 120.333 47.0416 120.294C46.8443 119.963 46.647 119.725 46.4628 119.566C46.2787 119.408 46.0419 119.315 45.7656 119.302V118.865H49.4621V119.302H49.3043C49.3043 119.302 49.1727 119.341 49.1069 119.355C49.0412 119.355 48.9885 119.355 48.9359 119.381C48.8833 119.394 48.8438 119.421 48.7912 119.46C48.7518 119.487 48.7123 119.54 48.6991 119.593C48.6991 119.685 48.6991 119.778 48.7518 119.91C48.8044 120.029 48.8702 120.201 48.9754 120.439C49.0806 120.664 49.1727 120.876 49.2648 121.087L50.5803 124.13H50.7118C50.9486 123.561 51.1722 122.992 51.3827 122.423C51.6063 121.855 51.751 121.405 51.8431 121.087C51.8826 120.982 51.9221 120.863 51.9615 120.73C52.001 120.611 52.0536 120.479 52.0931 120.36C52.0931 120.32 52.0931 120.267 52.1194 120.228C52.1325 120.175 52.1457 120.135 52.1588 120.082C52.1588 120.029 52.1852 119.976 52.1983 119.937C52.1983 119.937 52.1983 119.87 52.2246 119.791V119.619C52.2246 119.5 52.1325 119.421 51.9221 119.394L51.3827 119.302V118.865H54.1584V119.302C53.9742 119.302 53.8032 119.394 53.6585 119.513C53.5138 119.646 53.3822 119.818 53.2638 120.029C53.1323 120.254 52.9613 120.598 52.7508 121.074C52.7113 121.193 52.6587 121.312 52.593 121.445C52.5403 121.577 52.5009 121.683 52.4746 121.762C51.83 123.243 51.4353 124.183 51.2643 124.566C51.0933 124.95 50.8697 125.347 50.6197 125.77C50.3566 126.18 50.0804 126.484 49.7778 126.696C49.4753 126.894 49.1069 127 48.686 127C48.4492 127 48.1861 126.973 47.9099 126.934Z" fill="#666666"/>
<path d="M56.6572 126.894C56.1704 126.815 55.7626 126.735 55.4601 126.643L55.2891 124.844L55.6969 124.712C55.7889 124.976 55.9205 125.241 56.1047 125.492C56.2757 125.743 56.5256 125.968 56.8282 126.14C57.1307 126.312 57.4991 126.391 57.92 126.391C58.5251 126.391 58.9329 126.233 59.1434 125.889C59.3539 125.545 59.4723 125.174 59.4854 124.764C59.4854 124.685 59.4854 124.592 59.4854 124.46C59.4854 124.143 59.446 123.878 59.3802 123.667C59.3013 123.455 59.196 123.283 59.0513 123.164C58.9066 123.045 58.7225 122.952 58.4988 122.899C58.2752 122.846 57.9989 122.82 57.6701 122.82C57.4728 122.82 57.2097 122.846 56.8676 122.913C56.8282 122.794 56.815 122.688 56.815 122.569C56.815 122.436 56.815 122.331 56.8676 122.251H57.6438C58.091 122.225 58.4462 122.119 58.7093 121.921C58.9592 121.722 59.1303 121.497 59.2223 121.233C59.3144 120.981 59.367 120.717 59.367 120.466C59.367 120.347 59.367 120.267 59.367 120.214C59.3407 119.91 59.2355 119.672 59.0513 119.513C58.8672 119.355 58.512 119.275 57.9989 119.275C57.6175 119.275 57.3017 119.328 57.0518 119.434C56.815 119.54 56.6045 119.698 56.4335 119.91C56.2625 120.122 56.0784 120.399 55.881 120.757L55.4601 120.69L55.6048 118.601C55.8284 118.693 56.1178 118.746 56.4467 118.759H56.644C56.644 118.759 56.7756 118.759 56.8545 118.759C57.0387 118.759 57.2491 118.733 57.4596 118.706C57.6832 118.706 57.8542 118.68 57.9726 118.68C58.1568 118.68 58.4067 118.68 58.7356 118.68C60.3668 118.68 61.1824 119.196 61.1824 120.241C61.1824 120.558 61.0772 120.876 60.893 121.18C60.7088 121.484 60.4063 121.749 59.9722 121.947C59.8801 122 59.7748 122.053 59.6696 122.093C59.5644 122.145 59.4986 122.172 59.4591 122.185C59.4197 122.212 59.3934 122.238 59.367 122.251C59.3407 122.251 59.3144 122.278 59.3013 122.291V122.45C59.3013 122.45 59.3802 122.476 59.4065 122.489C59.446 122.489 59.4723 122.489 59.5117 122.489C59.5381 122.489 59.5775 122.516 59.6301 122.529C59.9853 122.608 60.2221 122.661 60.3273 122.714C61.0772 122.979 61.4587 123.455 61.4587 124.116C61.4587 124.46 61.3929 124.791 61.2745 125.122C61.1429 125.439 60.9325 125.756 60.6562 126.047C60.38 126.338 59.9985 126.563 59.5512 126.748C59.0908 126.92 58.5514 127.013 57.92 127.013C57.578 127.013 57.157 126.973 56.6572 126.907V126.894Z" fill="#666666"/>
<path d="M62.7344 126.815V126.391L63.2737 126.272C63.471 126.246 63.6289 126.206 63.721 126.153C63.8262 126.1 63.892 126.034 63.9315 125.942C63.9709 125.849 63.9841 125.704 63.9841 125.532L63.8394 120.214C63.8394 120.003 63.8262 119.857 63.7999 119.778C63.7999 119.699 63.721 119.632 63.6157 119.553C63.5237 119.487 63.3395 119.421 63.1027 119.368L62.7344 119.302V118.865H69.4433L69.4959 120.823L69.0487 120.942C68.9303 120.558 68.8119 120.254 68.6672 120.042C68.5225 119.844 68.3383 119.699 68.1015 119.606C67.8647 119.527 67.549 119.487 67.1544 119.487H65.4443L65.3916 122.212C65.6153 122.212 65.8126 122.212 65.9836 122.212C66.1415 122.225 66.273 122.225 66.3651 122.225C66.786 122.225 67.1018 122.159 67.3254 122.027C67.549 121.907 67.6674 121.656 67.6937 121.299H68.1147L68.0226 123.958H67.5885C67.5622 123.495 67.4438 123.177 67.2596 123.019C67.0755 122.86 66.7597 122.78 66.3125 122.78C66.2335 122.78 65.9178 122.78 65.3653 122.833L65.2732 126.021C65.3916 126.048 65.6284 126.074 65.9968 126.114C66.3519 126.153 66.5887 126.167 66.7071 126.18H66.9571C68.1673 126.18 68.9697 125.664 69.3644 124.619L69.8116 124.553L69.6801 126.775L62.7344 126.801V126.815Z" fill="#666666"/>
<path d="M70.9609 126.815V126.392L71.5003 126.273C71.816 126.22 72.0265 126.14 72.1054 126.048C72.1975 125.955 72.237 125.783 72.237 125.532L72.0922 120.215C72.0922 120.029 72.0659 119.897 72.0396 119.791C72.0133 119.699 71.9607 119.619 71.8555 119.553C71.7502 119.474 71.5661 119.421 71.3293 119.368L70.9609 119.302V118.865H74.8416V119.302L74.4601 119.368C74.1049 119.434 73.8945 119.527 73.8155 119.633C73.7366 119.752 73.6971 119.95 73.684 120.215L73.5393 124.99H73.5919L78.5644 118.865H80.4718V119.302L80.0904 119.368C79.8404 119.434 79.6694 119.487 79.5642 119.566C79.4589 119.633 79.3932 119.712 79.3668 119.805C79.3405 119.897 79.3274 120.043 79.3274 120.215L79.1695 125.532C79.1695 125.783 79.2221 125.955 79.3011 126.048C79.3932 126.14 79.5905 126.22 79.9193 126.273L80.4718 126.392V126.815H76.7754V126.392L77.1174 126.286C77.3542 126.233 77.512 126.18 77.6041 126.14C77.6962 126.087 77.7751 126.021 77.8146 125.929C77.854 125.836 77.8672 125.704 77.8672 125.532L77.7225 121.18H77.6699L73.0262 126.815H70.9609ZM74.7101 117.344L74.9863 116.934C75.3152 117.159 75.5256 117.278 75.644 117.278C75.7756 117.278 75.9729 117.199 76.2228 117.04C76.4859 116.881 76.7359 116.696 76.9858 116.485C77.2226 116.273 77.3936 116.101 77.4989 115.982H78.104C78.104 115.982 78.0119 116.101 77.9856 116.154C77.9461 116.194 77.9198 116.233 77.8935 116.286C77.854 116.339 77.8277 116.366 77.8146 116.405C77.7225 116.524 77.6436 116.643 77.5909 116.736C77.5252 116.828 77.4462 116.948 77.3542 117.093C77.1437 117.41 76.9727 117.662 76.8411 117.847C76.7096 118.032 76.6043 118.164 76.5386 118.231C76.4728 118.297 76.407 118.323 76.3544 118.323C76.1834 118.323 75.644 117.992 74.7101 117.344Z" fill="#666666"/>
</g>
<defs>
<clipPath id="clip0_4411_11634">
<rect width="111" height="83" fill="white" transform="translate(2 44)"/>
</clipPath>
</defs>
</svg>
