<svg width="185" height="153" viewBox="0 0 185 153" fill="none" xmlns="http://www.w3.org/2000/svg">
<path fill-rule="evenodd" clip-rule="evenodd" d="M7.30521 115.644C4.34203 114.08 5.98201 106.505 6.00065 103.639C8.70292 95.7483 13.0079 89.7369 19.3816 84.2652C21.357 81.9574 23.053 79.7613 23.2393 76.7463C20.1643 73.6569 19.307 68.6691 14.4802 67.6827C10.697 63.7372 27.3393 65.3563 29.2775 65.3563C34.3839 69.0972 37.403 76.8952 39.7698 82.5902C41.5216 82.5902 49.1252 71.1816 50.6907 68.1853C51.3802 67.5153 51.5852 66.4544 52.2189 65.6169C56.8034 65.5983 61.4066 65.5797 66.0098 65.5611C67.7616 67.1988 65.4693 66.8825 64.6307 68.1853C64.6493 82.888 64.668 97.6094 64.6866 112.312C65.7116 112.461 69.9234 113.299 67.948 115.29C61.4066 115.29 54.8466 115.309 48.268 115.327C46.4789 113.634 51.4175 112.424 52.1257 111.884C52.1257 99.3216 52.1257 86.7405 52.1257 74.1408C49.9452 73.9361 45.1184 81.6411 43.9443 84.0047C40.8693 92.8077 42.2484 102.616 42.2484 111.847C43.497 113.317 46.2925 113.075 45.957 115.439C39.3225 115.383 32.6693 115.346 26.0348 115.29C25.923 112.461 28.122 113.447 29.5198 111.884C29.5384 102.541 30.6939 93.273 28.0475 84.4886C27.3952 83.6883 27.1343 82.9252 26.0907 82.8694C22.4007 85.8844 19.512 89.4577 16.9029 93.4033C16.2879 96.0647 13.9025 109.39 18.2075 110.321C22.1584 107.101 19.2325 98.633 19.2325 94.1477C20.947 92.7147 26.1093 92.3424 27.4698 94.1477C28.8861 103.323 25.8857 105.352 20.4998 112.07C19.0461 113.261 18.0957 114.787 16.3811 115.532C13.3434 115.569 10.3243 115.606 7.30521 115.644ZM2.55294 60.2197H72.4766V121.041H2.55294V60.2197ZM0.726562 58.6191H74.3216V122.641H0.726562V58.6191Z" fill="#2B2A29"/>
<path fill-rule="evenodd" clip-rule="evenodd" d="M156.209 110.842L158.408 104.589H159.62L161.819 110.842H160.552L160.086 109.614H157.924L157.495 110.842H156.209ZM159.023 106.208L158.166 108.906H159.862L159.023 106.208ZM153.06 108.087H152.538V110.842H151.252V104.589C153.265 104.589 155.837 104.402 155.837 106.357C155.837 107.51 154.923 108.087 153.06 108.087ZM153.041 107.324C154.066 107.324 154.569 107.064 154.569 106.338C154.569 105.333 153.712 105.333 152.538 105.333V107.324H153.041ZM146.649 110.842V104.589H150.413V105.352H147.916V107.194H150.227V107.939H147.916V110.06H150.413V110.842H146.649ZM144.506 109.185C144.506 108.125 143.984 107.957 142.567 107.957V110.042C143.574 110.042 144.506 110.116 144.506 109.185ZM145.81 109.297C145.81 111.121 143.089 110.842 141.282 110.842V104.589C142.81 104.589 145.642 104.291 145.642 105.854C145.642 106.617 145.642 107.306 144.375 107.622C145.68 107.883 145.81 108.515 145.81 109.297ZM143.238 107.269C144.412 107.269 144.412 106.636 144.412 106.04C144.412 105.259 143.35 105.333 142.567 105.333V107.269H143.238ZM136.753 110.842V104.589H140.536V105.352H138.039V107.194H140.331V107.939H138.039V110.06H140.536V110.842H136.753ZM135.877 110.693C131.05 112.461 129.876 104.533 134.367 104.533C135.076 104.533 135.579 104.589 135.896 104.7V105.482C131.479 103.788 131.926 111.642 135.877 109.874V110.693ZM121.546 105.277C119.291 105.277 119.626 110.135 121.546 110.135C123.484 110.135 123.819 105.277 121.546 105.277ZM121.546 104.533C125.012 104.533 124.714 108.59 123.614 110.042C122.738 111.214 120.353 111.195 119.496 110.023C118.452 108.627 118.042 104.533 121.546 104.533ZM114.743 110.842V104.589H118.135V105.352H116.011V110.842H114.743ZM111.109 105.277C108.873 105.277 109.208 110.135 111.109 110.135C113.066 110.135 113.383 105.277 111.109 105.277ZM111.109 104.533C114.594 104.533 114.296 108.59 113.197 110.042C112.302 111.214 109.935 111.195 109.059 110.023C108.034 108.646 107.624 104.533 111.109 104.533ZM102.984 110.842V104.589H104.251V107.548L106.469 104.589H107.811L105.556 107.566L107.811 110.842H106.432L104.251 107.641V110.842H102.984ZM102.145 110.693C97.3184 112.461 96.1443 104.533 100.636 104.533C101.344 104.533 101.847 104.589 102.164 104.7V105.482C97.747 103.788 98.2129 111.642 102.145 109.874V110.693ZM97.2624 110.693C92.3424 112.498 91.2056 104.533 95.7529 104.533C96.4611 104.533 96.9829 104.589 97.2811 104.7V105.482C92.8643 103.77 93.3302 111.661 97.2624 109.874V110.693ZM91.2988 104.589H92.5847L90.4229 109.483C90.0315 110.358 89.6215 110.898 88.1865 110.898V110.135C88.9693 110.135 89.1929 109.893 89.342 109.39L87.497 104.589H88.7643L89.9756 108.162L91.2988 104.589ZM84.1984 108.087H83.6579V110.842H82.3906V104.589C84.3847 104.589 86.9752 104.402 86.9752 106.357C86.9752 107.51 86.0434 108.087 84.1984 108.087ZM84.1611 107.324C85.1861 107.324 85.7079 107.064 85.7079 106.338C85.7079 105.333 84.8506 105.333 83.6579 105.333V107.324H84.1611Z" fill="#2B2A29"/>
<path fill-rule="evenodd" clip-rule="evenodd" d="M156.209 100.364L158.408 94.1291H159.619L161.818 100.364H160.551L160.085 99.1355H157.923L157.495 100.364H156.209ZM159.023 95.7296L158.166 98.4283H159.861L159.023 95.7296ZM147.897 97.628H147.356V100.364H146.071V94.1291C148.083 94.1291 150.674 93.9244 150.674 95.8971C150.674 97.0324 149.742 97.628 147.897 97.628ZM147.86 96.8649C148.885 96.8649 149.406 96.5858 149.406 95.8599C149.406 94.8549 148.531 94.8549 147.356 94.8549V96.8649H147.86ZM138.896 94.1291H140.163L138.02 99.0052C137.628 99.8799 137.218 100.42 135.783 100.42V99.6566C136.566 99.6566 136.771 99.4333 136.939 98.9121L135.075 94.1291H136.361L137.572 97.7024L138.896 94.1291ZM126.558 100.364V94.8921H124.806V94.1291H129.577V94.8921H127.844V100.364H126.558ZM115.786 94.1291V96.7905C117.221 96.7905 119.048 96.9021 119.048 98.1863C119.048 100.457 117.352 100.364 114.519 100.364V94.1291H115.786ZM117.743 98.726C117.743 97.6838 117.296 97.4977 115.786 97.4977V99.5821C116.7 99.5821 117.743 99.5635 117.743 98.726ZM108.388 94.1291V100.364H107.121V94.8921H105.406V98.7819C105.406 99.9172 104.977 100.457 103.244 100.457V99.7124C104.12 99.7124 104.195 99.3216 104.195 98.8005V94.1291H108.388ZM96.6282 94.1291H97.8955L95.7523 99.0052C95.361 99.8799 94.951 100.42 93.516 100.42V99.6566C94.2987 99.6566 94.5037 99.4333 94.6714 98.9121L92.8078 94.1291H94.0937L95.3051 97.7024L96.6282 94.1291ZM82.2969 100.364V94.1291H83.5828V97.0697L85.8005 94.1291H87.1237L84.8687 97.0883L87.1237 100.364H85.7632L83.5828 97.1627V100.364H82.2969Z" fill="#2B2A29"/>
<path fill-rule="evenodd" clip-rule="evenodd" d="M159.73 85.2521C158.556 85.2521 157.941 85.1218 157.941 84.1727C157.941 83.2979 158.705 83.2607 159.73 83.2607V85.2521ZM159.73 85.7546V88.7696H161.016V82.5349C159.022 82.5349 156.655 82.3116 156.655 84.1913C156.655 84.9916 157.177 85.6243 158.407 85.7174L156.19 88.7696H157.55L159.73 85.7546ZM150.394 88.7696L152.611 82.5349H153.804L156.022 88.7696H154.736L154.27 87.5599H152.108L151.68 88.7696H150.394ZM153.208 84.1355L152.35 86.8527H154.065L153.208 84.1355ZM144.915 88.7696V82.5349H146.2V84.9171H148.455V82.5349H149.723V88.7696H148.455V85.6988H146.2V88.7696H144.915ZM139.007 88.7696V82.5349H140.274V84.9171H142.529V82.5349H143.796V88.7696H142.529V85.6988H140.274V88.7696H139.007ZM134.255 88.7696V82.5349H138.038V83.298H135.54V85.1405H137.851V85.8849H135.54V88.0066H138.038V88.7696H134.255ZM131.962 87.1318C131.962 86.071 131.422 85.9035 130.005 85.9035V87.9879C131.03 87.9879 131.962 88.0438 131.962 87.1318ZM133.248 87.2435C133.248 89.0488 130.546 88.7696 128.72 88.7696V82.5349C130.248 82.5349 133.08 82.2185 133.08 83.7818C133.08 84.5635 133.099 85.2521 131.813 85.5685C133.136 85.8291 133.248 86.4618 133.248 87.2435ZM130.695 85.2149C131.85 85.2149 131.85 84.5821 131.85 83.9866C131.85 83.2049 130.788 83.2793 130.005 83.2793V85.2149H130.695ZM124.918 88.7696V83.3166H123.185V82.5349H127.955V83.3166H126.222V88.7696H124.918ZM122.514 88.6393C117.631 90.4632 116.438 82.4604 121.004 82.4604C121.731 82.4604 122.234 82.5349 122.532 82.6466V83.4096C118.115 81.7346 118.581 89.5885 122.514 87.8204V88.6393ZM113.773 88.7696V82.5349H117.556V83.298H115.059V85.1405H117.351V85.8849H115.059V88.0066H117.556V88.7696H113.773ZM108.574 85.4755V82.5349H109.841V85.4755L111.649 82.5349H112.972L111.145 85.4941L112.972 88.7696H111.593L109.841 85.5685V88.7696H108.574V85.5499L106.803 88.7696H105.368L107.288 85.4755L105.424 82.5349H106.766L108.574 85.4755ZM102.032 83.2235C99.7959 83.2235 100.113 88.081 102.032 88.081C103.989 88.081 104.306 83.2235 102.032 83.2235ZM102.032 82.4604C105.517 82.4604 105.219 86.5177 104.12 87.9879C103.225 89.1604 100.858 89.1418 99.9823 87.9693C98.9573 86.5735 98.5473 82.4604 102.032 82.4604ZM97.0191 88.7696H94.5032V90.0166H93.2546V87.9879C94.615 87.9879 94.0559 83.2793 94.0559 82.5349H97.8391V87.9879H98.2864V90.0352H97.0191V88.7696ZM96.5905 83.3166H95.2673V86.7038C95.2673 87.318 95.0809 87.746 94.7269 87.9879H96.5905V83.3166ZM91.0368 82.5349H92.3041L90.1423 87.4296C89.7696 88.3043 89.3596 88.8441 87.9246 88.8441V88.081C88.7073 88.081 88.9123 87.8391 89.08 87.3179L87.2164 82.5349H88.5023L89.7137 86.1082L91.0368 82.5349ZM81.9609 88.7696L83.6941 85.6057L82.0541 82.5349H83.34L84.3464 84.5821L85.39 82.5349H86.6759L84.9987 85.6057L86.7318 88.7696H85.4087L84.3464 86.6107L83.3028 88.7696H81.9609Z" fill="#2B2A29"/>
<path fill-rule="evenodd" clip-rule="evenodd" d="M157.871 77.1182V70.8835H161.636V71.6466H159.138V73.4891H161.431V74.2335H159.138V76.3365H161.636V77.1182H157.871ZM150.156 77.1182V70.8835H151.367V75.2571L153.846 70.8835H155.038V77.1182H153.827V72.8005L151.33 77.1182H150.156ZM142.515 77.1182V70.8835H143.801V73.2658H146.056V70.8835H147.323V77.1182H146.056V74.0474H143.801V77.1182H142.515ZM136.048 77.1182V70.8835H139.812V71.6466H137.315V73.4891H139.626V74.2335H137.315V76.3365H139.812V77.1182H136.048ZM128.351 77.1182V70.8835H129.637V73.2658H131.892V70.8835H133.159V77.1182H131.892V74.0474H129.637V77.1182H128.351ZM120.673 77.1182V70.8835H121.866V75.2571L124.363 70.8835H125.556V77.1182H124.344V72.8005L121.847 77.1182H120.673ZM116.443 77.1182H113.927V78.3652H112.659V76.3365C114.038 76.3365 113.479 71.628 113.479 70.8835H117.263V76.3365H117.691V78.3838H116.443V77.1182ZM115.995 71.6652H114.672V75.0525C114.672 75.6665 114.504 76.0946 114.15 76.3365H115.995V71.6652ZM106.099 77.1182V70.8835H109.883V71.6466H107.385V73.4891H109.696V74.2335H107.385V76.3365H109.883V77.1182H106.099ZM102.037 75.4805C102.037 74.4383 101.571 74.2522 100.08 74.2522V76.3365C100.993 76.3365 102.037 76.3179 102.037 75.4805ZM101.105 77.1182H98.8125V71.6652H97.3402V70.8835H100.098V73.5635C101.552 73.5635 103.323 73.6938 103.323 74.9966C103.323 76.0574 103.043 77.1182 101.105 77.1182ZM94.2093 70.8835V71.628H91.5443V73.5635C92.9793 73.5635 94.8057 73.6566 94.8057 74.9594C94.8057 77.1927 93.0725 77.1182 90.277 77.1182V70.8835H94.2093ZM93.5011 75.4805C93.5011 74.4383 93.0539 74.2522 91.5443 74.2522V76.3365C92.4575 76.3365 93.5011 76.3179 93.5011 75.4805ZM84.8352 71.5722C82.5989 71.5722 82.9157 76.4296 84.8352 76.4296C86.792 76.4296 87.1089 71.5722 84.8352 71.5722ZM84.8352 70.8091C88.3202 70.8091 88.0034 74.8663 86.9039 76.3365C86.028 77.509 83.6611 77.4904 82.7852 76.3179C81.7416 74.9222 81.3316 70.8091 84.8352 70.8091Z" fill="#2B2A29"/>
<path fill-rule="evenodd" clip-rule="evenodd" d="M157.869 66.6218V60.3871H161.634V61.1501H159.136V62.9926H161.429V63.7371H159.136V65.8401H161.634V66.6218H157.869ZM149.147 61.0571C146.911 61.0571 147.246 65.9332 149.147 65.9332C151.104 65.9332 151.421 61.0571 149.147 61.0571ZM149.147 60.3126C152.632 60.3126 152.334 64.3698 151.235 65.8401C150.34 67.0126 147.973 66.994 147.116 65.8215C146.072 64.4257 145.662 60.3126 149.147 60.3126ZM135.766 66.6218V60.3871H137.052V62.7507H139.307V60.3871H140.575V66.6218H139.307V63.551H137.052V66.6218H135.766ZM127.343 60.0335C126.56 60.0335 125.926 59.7171 125.926 59.1401H126.784C126.784 59.6985 127.883 59.6799 127.883 59.1401H128.741C128.741 59.7357 128.144 60.0335 127.343 60.0335ZM124.883 66.6218V60.3871H126.094V64.7607L128.591 60.3871H129.784V66.6218H128.573V62.2854L126.076 66.6218H124.883ZM115.192 66.6218V60.3871H118.956V61.1501H116.459V62.9926H118.751V63.7371H116.459V65.8401H118.956V66.6218H115.192ZM106.47 61.0757C106.116 61.0757 105.706 61.1501 105.221 61.2618V60.4615C106.899 60.0893 109.005 60.3685 109.005 61.876C109.005 62.5274 108.52 63.1229 107.607 63.3276C111.073 64.0535 108.501 67.7199 105.221 66.4915V65.6726C107.663 66.8637 109.228 63.7557 106.414 63.7557V63.0671C108.054 63.0671 108.352 61.0757 106.47 61.0757ZM98.0651 60.3871H99.351L97.1892 65.2818C96.7978 66.1379 96.3878 66.6777 94.9528 66.6777V65.9146C95.7356 65.9146 95.9406 65.6912 96.1083 65.1701L94.2447 60.3871H95.5306L96.7419 63.9604L98.0651 60.3871ZM82.0938 66.6218L82.8951 60.3871H84.0506L85.3551 64.7048L86.6597 60.3871H87.7592L88.5978 66.6218H87.4051L87.0324 62.2482L85.7651 66.6218H84.9078L83.6406 62.2482L83.2678 66.6218H82.0938Z" fill="#2B2A29"/>
<path d="M82.2656 115.197H85.3593V116.351H83.4397V121.431H82.2656V115.197ZM99.5043 115.197H100.772C101.461 115.197 101.946 115.253 102.244 115.383C102.542 115.513 102.784 115.718 102.971 115.997C103.138 116.276 103.232 116.611 103.232 117.002C103.232 117.449 103.101 117.802 102.877 118.081C102.654 118.379 102.337 118.584 101.946 118.696C101.722 118.751 101.293 118.789 100.697 118.789V121.431H99.5043V115.197ZM100.697 117.635H101.07C101.368 117.635 101.592 117.616 101.703 117.579C101.815 117.523 101.908 117.449 101.983 117.356C102.039 117.263 102.076 117.132 102.076 117.002C102.076 116.76 101.983 116.574 101.797 116.481C101.666 116.388 101.405 116.351 101.032 116.351H100.697V117.635ZM104.946 115.197H106.288L107.611 117.188L108.916 115.197H110.257L108.282 118.23L110.369 121.431H109.027L107.611 119.254L106.176 121.431H104.816L106.922 118.23L104.946 115.197ZM114.152 115.197H115.345L117.749 121.431H116.519L116.016 120.147H113.463L112.96 121.431H111.73L114.152 115.197ZM114.749 116.853L113.91 118.993H115.587L114.749 116.853ZM119.632 115.197H120.843V117.542H122.93V115.197H124.123V121.431H122.93V118.696H120.843V121.431H119.632V115.197ZM126.508 115.197H129.621V116.351H127.701V121.431H126.508V115.197ZM131.522 115.197H134.932V116.351H132.696V117.486H134.932V118.621H132.696V120.259H134.932V121.431H131.522V115.197ZM141.045 121.431L139.312 116.853L137.56 121.431H136.292L138.715 115.197H139.908L142.312 121.431H141.045ZM143.989 121.431V115.197H145.182V117.542H145.443C145.927 117.542 146.356 117.598 146.673 117.728C147.008 117.84 147.288 118.044 147.53 118.379C147.772 118.696 147.903 119.068 147.903 119.533C147.903 119.961 147.791 120.315 147.586 120.613C147.381 120.91 147.139 121.115 146.878 121.245C146.598 121.357 146.226 121.431 145.741 121.431H143.989ZM145.182 118.603V120.296H145.48C145.965 120.296 146.3 120.24 146.468 120.11C146.636 119.998 146.729 119.794 146.729 119.496C146.729 118.9 146.3 118.603 145.424 118.603H145.182ZM155.637 116.295L154.817 117.076C154.239 116.481 153.606 116.183 152.897 116.183C152.301 116.183 151.798 116.388 151.388 116.797C150.978 117.207 150.773 117.709 150.773 118.305C150.773 118.714 150.866 119.086 151.052 119.403C151.239 119.719 151.481 119.98 151.817 120.166C152.152 120.352 152.525 120.445 152.916 120.445C153.27 120.445 153.587 120.371 153.867 120.24C154.165 120.11 154.463 119.887 154.817 119.533L155.618 120.389C155.152 120.836 154.724 121.152 154.314 121.32C153.904 121.487 153.438 121.581 152.916 121.581C151.947 121.581 151.146 121.283 150.531 120.668C149.916 120.054 149.599 119.254 149.599 118.305C149.599 117.672 149.748 117.132 150.027 116.648C150.307 116.165 150.698 115.774 151.22 115.476C151.761 115.178 152.32 115.048 152.935 115.048C153.438 115.048 153.941 115.141 154.407 115.364C154.892 115.588 155.302 115.885 155.637 116.295ZM157.668 115.197H158.861V117.356L160.557 115.197H161.992L159.812 117.97L162.197 121.431H160.781L158.861 118.658V121.431H157.668V115.197ZM87.7634 120.203C87.9497 120.203 88.0988 120.278 88.2293 120.408C88.3597 120.538 88.4156 120.687 88.4156 120.873C88.4156 121.059 88.3597 121.208 88.2293 121.338C88.0988 121.469 87.9497 121.543 87.7634 121.543C87.577 121.543 87.4279 121.469 87.2974 121.338C87.167 121.208 87.0924 121.059 87.0924 120.873C87.0924 120.687 87.167 120.538 87.2974 120.408C87.4279 120.278 87.577 120.203 87.7634 120.203ZM94.0252 115.197H95.2179L97.622 121.431H96.392L95.9074 120.147H93.3543L92.8511 121.431H91.6211L94.0252 115.197ZM94.6215 116.853L93.7829 118.993H95.4788L94.6215 116.853Z" fill="#2B2A29"/>
</svg>
