<svg width="185" height="153" viewBox="0 0 185 153" fill="none" xmlns="http://www.w3.org/2000/svg">
<g clip-path="url(#clip0_4355_4102)">
<path fill-rule="evenodd" clip-rule="evenodd" d="M23.8954 67.7082H25.5708C25.6046 67.7082 25.6215 67.7082 25.6554 67.7082V67.7254H28.1431C28.6169 68.4213 29.3615 68.9135 30.2246 69.1002C30.2246 70.8992 30.2246 72.3589 30.2246 73.6149H35.4708C35.4877 72.3759 35.4877 70.8991 35.4877 69.117C36.4015 68.9642 37.1969 68.4552 37.7046 67.7254H40.1754V67.7082H41.7662C42.8154 67.7082 43.6615 66.8598 43.6615 65.8075C43.6615 64.7722 42.8154 63.9235 41.7662 63.9235H40.1754H37.7046C37.3492 63.4144 36.8585 63.007 36.2831 62.7694C38.4662 61.5644 39.9554 59.2389 39.9554 56.5743C39.9554 52.6876 36.8077 49.5308 32.9154 49.5308C29.04 49.5308 25.8923 52.6876 25.8923 56.5743C25.8923 59.2389 27.3646 61.5644 29.5477 62.7694C28.9892 63.007 28.4815 63.4144 28.1431 63.9235H25.6554C25.6215 63.9235 25.6046 63.9235 25.5708 63.9235H23.8954C22.8462 63.9235 22 64.7722 22 65.8075C22 66.8598 22.8462 67.7082 23.8954 67.7082ZM29.0062 56.3708C29.0062 54.1982 30.7492 52.45 32.9154 52.45C35.0815 52.45 36.8415 54.1982 36.8415 56.3708C36.8415 58.5432 35.0815 60.3082 32.9154 60.3082C30.7492 60.3082 29.0062 58.5432 29.0062 56.3708Z" fill="#2B2A29"/>
<path fill-rule="evenodd" clip-rule="evenodd" d="M64.0356 89.5525C63.9002 88.9924 63.6294 88.5851 62.9863 88.3644C62.4279 88.1777 61.8694 88.2965 61.4294 88.6699C61.4294 88.6699 52.6463 97.1732 55.1509 98.8025C55.7771 99.2099 56.5386 99.5833 57.3509 99.9227C54.3386 106.236 44.4894 111.345 39.5309 105.218C37.974 103.317 37.2971 100.364 36.9248 97.3768H28.7848C28.4125 100.364 27.7356 103.317 26.1786 105.218C21.2371 111.328 11.4048 106.27 8.37561 99.9736C9.23869 99.6172 10.051 99.2268 10.711 98.8025C13.1987 97.1732 4.4156 88.6699 4.4156 88.6699C3.99252 88.2965 3.41715 88.1777 2.87561 88.3644C2.21561 88.5851 1.94484 88.9924 1.80946 89.5525C1.80946 89.5525 -1.08439 102.248 1.94484 101.807C2.571 101.722 3.43406 101.535 4.36483 101.297C5.53252 107.968 10.2541 113.246 16.5494 116.115C21.2033 118.032 27.5833 117.303 30.8663 123.022C31.2556 123.837 31.9156 125.144 32.2202 125.772C32.3048 125.942 32.5586 126.179 32.7956 126.179C32.9986 126.179 33.3033 126.094 33.4386 125.772C33.7263 125.11 33.9633 123.939 34.4202 123.039C37.7033 116.997 44.4386 118.066 49.1602 116.115C55.4725 113.229 60.194 107.951 61.3617 101.264C62.3433 101.535 63.2402 101.722 63.9171 101.807C66.9463 102.248 64.0356 89.5525 64.0356 89.5525Z" fill="#2B2A29"/>
<path fill-rule="evenodd" clip-rule="evenodd" d="M21.6411 90.808C21.6411 90.9099 21.5903 90.9778 21.5226 91.0117L20.9134 91.3681V95.2209C20.9134 95.6452 20.9472 96.0356 20.5918 96.0865C20.2026 96.1374 19.7965 96.1374 19.3903 96.0865C19.0857 96.0695 19.1195 95.7131 19.1195 95.3227V93.3539C19.1195 92.9975 19.0688 92.709 18.9672 92.4714C18.9503 92.4374 18.9165 92.4204 18.8826 92.4204C18.8318 92.4204 18.798 92.4374 18.7811 92.4544C18.7134 92.5392 18.6626 92.692 18.6118 92.9126L18.2903 94.4911C18.1888 95.0172 18.0872 95.3906 18.0365 95.6622C17.9857 95.8319 17.918 95.9507 17.8672 96.0186C17.7488 96.1204 17.2749 96.1374 16.8519 96.1035C16.5473 96.0865 16.4626 96.0186 16.395 95.7301C16.3103 95.3227 16.0734 94.3723 16.0226 94.1686C15.8703 93.4558 15.735 92.9126 15.6334 92.5223C15.6165 92.4374 15.5657 92.3016 15.4811 92.1489C15.4303 92.0131 15.278 92.081 15.2611 92.1489C15.2103 92.2337 15.1934 92.4204 15.1934 92.675V95.2548C15.1934 95.6792 15.2103 96.0356 14.838 96.1035C14.4826 96.1374 14.0934 96.1374 13.7211 96.1035C13.3488 96.0695 13.3996 95.7471 13.3996 95.2379V91.3681L12.7904 91.0117C12.7227 90.9778 12.6719 90.9099 12.6719 90.808C12.6719 90.7232 12.7227 90.6383 12.7904 90.5874L13.3996 90.248V86.3273C13.3996 85.886 13.3488 85.5126 13.738 85.4956H15.5827C15.7519 85.4956 15.8703 85.5975 15.9211 85.8011L16.1242 86.8365L16.9195 90.842C16.9195 90.9099 16.9703 91.0457 17.038 91.2324C17.0888 91.4191 17.3088 91.453 17.4103 91.1984C17.4272 91.1645 17.4441 91.1475 17.4441 91.0796L17.7995 89.1108C17.9518 88.2961 18.0703 87.6342 18.1888 87.142C18.2226 86.9892 18.2395 86.7686 18.3072 86.497C18.4257 85.8181 18.3749 85.4956 18.8318 85.4956C19.5088 85.4787 20.0841 85.4787 20.558 85.4956C20.9641 85.5126 20.9134 85.869 20.9134 86.3103V90.248L21.5226 90.5874C21.5903 90.6383 21.6411 90.7232 21.6411 90.808Z" fill="#2B2A29"/>
<path fill-rule="evenodd" clip-rule="evenodd" d="M29.8396 85.9207C29.8396 86.0395 29.8058 86.1922 29.7719 86.3789C29.755 86.4977 29.1627 88.8909 28.8411 90.2656L29.315 90.5711C29.3827 90.6051 29.4335 90.673 29.4165 90.7748C29.4165 90.8766 29.3827 90.9445 29.2811 90.9954L28.5535 91.4028C27.7919 95.1537 27.6058 96.0872 25.5242 96.0872C25.2365 96.0872 25.135 95.9854 25.1181 95.6799C25.1181 95.5101 25.1011 95.3404 25.1011 95.1877C25.1011 95.0179 25.1181 94.8312 25.1181 94.6615C25.1181 94.5427 25.1688 94.4578 25.2196 94.4069C25.3381 94.3051 25.3719 94.3051 25.5581 94.3051C25.8965 94.3051 26.0827 94.0675 26.0827 93.6941C26.0827 93.2019 25.575 91.7932 25.3888 91.4198L24.5935 90.9954C24.4919 90.9445 24.4411 90.8766 24.4411 90.7748C24.4242 90.673 24.475 90.6051 24.5596 90.5711L25.0673 90.2487C25.0673 90.2317 25.0673 90.1808 25.0673 90.1468C24.9488 89.6037 24.5596 88.3138 24.0858 86.2601C24.0688 86.0734 24.0181 85.9037 24.0181 85.7849C24.0011 85.5982 24.0688 85.4963 24.3227 85.4794C24.475 85.4624 24.6442 85.4624 24.8473 85.4624C25.0504 85.4624 25.2535 85.4624 25.5073 85.4794C25.7104 85.4794 25.8288 85.5812 25.8965 85.8188C26.0488 86.5147 26.7258 89.8922 26.8104 90.2147C26.8273 90.3505 26.9119 90.4014 26.9627 90.4014C27.0304 90.4014 27.0981 90.3505 27.1319 90.1808C27.2165 89.8583 27.5211 88.3477 27.8596 86.3959C27.9611 85.9037 27.9781 85.683 28.1135 85.5642C28.1811 85.5133 28.2658 85.4794 28.4181 85.4624H28.9088C29.2473 85.4624 29.6704 85.4794 29.755 85.5473C29.8227 85.6152 29.8565 85.734 29.8396 85.9207Z" fill="#2B2A29"/>
<path fill-rule="evenodd" clip-rule="evenodd" d="M37.2435 92.4205V93.8292C37.2604 94.3214 36.9558 95.0173 36.7358 95.3059C36.1097 96.1715 35.4666 96.2393 34.5189 96.2393C33.2327 96.2393 32.1497 95.4247 31.9127 94.1687C31.8451 93.8632 31.8281 93.354 31.8281 93.0146C31.8281 92.8109 31.9466 92.6921 32.1666 92.6751C32.3527 92.6581 32.522 92.6581 32.6743 92.6581C32.8604 92.6581 33.0297 92.6581 33.182 92.6751C33.5035 92.6751 33.6051 92.7769 33.6051 93.1164V93.371C33.6051 93.9141 33.9774 94.3384 34.5866 94.3384C35.2466 94.3384 35.4835 93.8971 35.5343 93.5068C35.5512 93.3201 35.5512 93.1334 35.5512 92.9127V92.1829C35.5174 91.6568 35.1958 91.5889 34.6543 91.5889C34.5527 91.5889 34.2143 91.5889 33.9774 91.5719C33.7743 91.5719 33.6558 91.4531 33.6558 91.2494C33.6389 91.0627 33.622 90.876 33.622 90.6893C33.622 89.9934 33.6389 89.8237 34.0958 89.8237C34.2312 89.8067 34.485 89.8067 34.8066 89.8067C35.0943 89.8067 35.1281 89.7898 35.2804 89.654C35.3481 89.5691 35.382 89.4673 35.3989 89.3315V88.5168C35.3989 88.1434 35.4327 87.787 35.1281 87.4476C34.9758 87.2778 34.8066 87.193 34.5866 87.193C34.1635 87.193 33.7743 87.5833 33.7574 88.1604C33.7404 88.6696 33.825 88.7205 33.385 88.7545C33.2497 88.7545 33.0804 88.7714 32.9281 88.7714C32.7758 88.7714 32.6235 88.7545 32.4543 88.7545C32.082 88.7545 31.9804 88.6696 31.9635 88.2962C31.9635 88.1604 31.9466 88.0077 31.9466 87.8379C31.9466 87.4306 32.082 86.7856 32.3866 86.3953C32.8943 85.8182 33.2666 85.6315 33.6389 85.4957C33.7574 85.4448 33.9097 85.4278 34.0451 85.4109C34.2312 85.4109 34.5527 85.3939 34.9927 85.4109C35.145 85.4109 35.3143 85.4448 35.5174 85.5297C36.4989 85.8861 37.0912 86.7517 37.0912 87.6852V88.5678V89.3994C37.0912 90.6214 36.4143 90.4178 36.4143 90.7063C36.4143 90.9948 37.2435 90.7742 37.2435 92.4205Z" fill="#2B2A29"/>
<path fill-rule="evenodd" clip-rule="evenodd" d="M44.2539 95.7478C44.2201 96.1212 43.8478 96.0872 43.5431 96.0872H40.2431C40.0401 96.0872 39.7862 96.0872 39.6508 95.9684C39.5155 95.8496 39.5155 95.6459 39.5155 95.0858V91.3349L38.9231 90.9954C38.8385 90.9445 38.8047 90.8766 38.8047 90.7748C38.8047 90.6899 38.8385 90.6051 38.9231 90.5711L39.5155 90.2147V86.2601C39.5155 85.4963 39.5324 85.4624 40.277 85.4624H43.5431C43.8985 85.4624 44.1016 85.5133 44.1693 85.5642C44.3047 85.7 44.2878 86.4638 44.2708 86.8202C44.237 87.1766 43.9155 87.1427 43.4755 87.1427H41.9862C41.4785 87.1597 41.3431 87.3124 41.3093 87.7876C41.2924 88.2968 41.2924 88.806 41.3262 89.2812C41.3262 89.4849 41.3939 89.6376 41.4616 89.7225C41.6478 89.8922 41.9862 89.8753 42.4431 89.8753C42.6801 89.8753 42.8662 89.8753 42.9678 89.8922C43.3401 89.8922 43.4247 89.9941 43.4416 90.3675C43.4585 90.6899 43.4585 91.0124 43.4247 91.3179C43.4247 91.5386 43.3062 91.6404 43.1031 91.6574C42.8662 91.6743 42.5278 91.6743 42.0878 91.6743C41.5124 91.6743 41.3601 91.7422 41.3262 92.4042C41.2924 92.7606 41.2924 93.1679 41.3093 93.6432C41.3431 94.1354 41.4785 94.2881 41.9862 94.3051H43.4585C43.9155 94.3051 44.2201 94.2711 44.2708 94.6106C44.2878 95.0179 44.2878 95.3913 44.2539 95.7478Z" fill="#2B2A29"/>
<path fill-rule="evenodd" clip-rule="evenodd" d="M46.9777 90.1804V86.1919C46.9777 85.8354 46.9438 85.4621 47.2654 85.4451C47.4854 85.4111 47.7223 85.4111 47.9762 85.4111C48.7208 85.4111 48.7546 85.4451 48.7546 86.1919C48.7546 86.124 48.7546 87.2272 48.7715 89.4845C48.7715 89.9937 48.7546 90.0277 48.8392 90.3162C48.8731 90.5029 49.11 90.5368 49.1777 90.3501C49.2115 90.2992 49.2454 90.2144 49.2792 90.1295C49.4146 89.5864 49.99 87.7024 50.2269 86.9047C50.2608 86.7689 50.3115 86.5653 50.3962 86.3277C50.4808 86.0561 50.5485 85.8524 50.5654 85.7506C50.6331 85.5299 50.7685 85.4281 50.9546 85.4281H52.3931C52.7315 85.4451 52.7146 85.8185 52.7146 86.2767V90.1804L53.3069 90.5368C53.3915 90.5878 53.4423 90.6556 53.4423 90.7575C53.4423 90.8593 53.3915 90.9102 53.3069 90.9781L52.7146 91.3176V95.1703C52.7146 95.6456 52.7654 96.0359 52.2915 96.0869H51.7669C50.9208 96.0869 50.9038 96.0869 50.9038 95.2722V91.9795C50.9038 91.657 50.8869 91.4534 50.8362 91.3176C50.7685 91.1478 50.5654 91.0969 50.4808 91.2836L50.2946 91.7758C50.3285 91.7079 49.9562 92.8621 49.1777 95.2722L49.11 95.4758C49.0592 95.5947 49.0423 95.6625 49.0254 95.7304C48.8731 96.2057 48.1792 96.0869 47.8238 96.0869C47.0115 96.0869 46.9777 96.0529 46.9777 95.2552V91.3176L46.3854 90.9781C46.2838 90.9102 46.25 90.8593 46.25 90.7575C46.25 90.6556 46.2838 90.5878 46.3854 90.5368L46.9777 90.1804Z" fill="#2B2A29"/>
<path fill-rule="evenodd" clip-rule="evenodd" d="M12.9272 43.5571C12.978 43.7438 13.0457 43.9305 13.0964 44.1342C12.8595 44.2021 12.6057 44.287 12.3518 44.3549C12.2841 44.1512 12.2334 43.9475 12.1657 43.7438C11.9795 43.1668 11.6072 42.9122 11.0318 43.0989C10.4564 43.2856 10.3041 43.7269 10.5072 44.3039C10.8965 45.4241 11.2857 46.5443 11.6749 47.6645C11.8611 48.2246 12.2334 48.4961 12.758 48.3095C13.2995 48.1397 13.418 47.7154 13.2318 47.1383C13.1472 46.8498 13.0626 46.5783 12.978 46.3067C13.2149 46.2218 13.4518 46.1539 13.7057 46.0691L13.9426 46.8668C14.2303 47.8512 13.9595 48.6319 12.9611 48.9714C11.9626 49.2939 11.2688 48.8356 10.9134 47.8851C10.5242 46.7989 10.1349 45.6957 9.7457 44.6094C9.40724 43.659 9.67799 42.8273 10.7949 42.4539C11.9118 42.0805 12.6226 42.5727 12.9272 43.5571Z" fill="#2B2A29"/>
<path fill-rule="evenodd" clip-rule="evenodd" d="M18.5474 43.4719C18.5981 43.6925 18.6489 43.8962 18.6827 44.1169C18.1243 44.2526 17.5489 44.3884 16.9735 44.5242C17.1766 45.3049 17.3627 46.0687 17.5489 46.8494C18.2258 46.6797 18.9027 46.527 19.5797 46.3742C19.6304 46.5949 19.6812 46.8155 19.732 47.0361C18.8012 47.2398 17.8874 47.4605 16.9735 47.6981C16.4151 45.5256 15.8566 43.3531 15.2812 41.1976C16.2966 40.926 17.295 40.6884 18.3104 40.4678L18.4627 41.1297C17.735 41.2994 16.9904 41.4691 16.2628 41.6389C16.4489 42.3857 16.6351 43.1325 16.8212 43.8793C17.3966 43.7265 17.972 43.5907 18.5474 43.4719Z" fill="#2B2A29"/>
<path fill-rule="evenodd" clip-rule="evenodd" d="M22.8785 39.6363C24.0293 39.4665 24.5539 39.9248 24.6724 40.8922C24.6893 40.9941 24.7062 41.1129 24.7231 41.2147C24.8077 41.9106 24.6385 42.3858 24.0462 42.6404C24.757 42.7253 25.0954 43.2175 25.18 43.9473C25.197 44.134 25.2308 44.3207 25.2477 44.5074C25.3662 45.5088 24.9431 46.1367 23.8939 46.2895C23.3693 46.3574 22.8616 46.4422 22.337 46.5271L21.2031 39.9078C21.7616 39.806 22.32 39.7211 22.8785 39.6363ZM23.0985 42.4876C23.7247 42.4028 24.0293 42.1652 23.9277 41.4693C23.9108 41.3335 23.8939 41.2147 23.877 41.0789C23.8093 40.4849 23.5385 40.2303 22.9462 40.3152C22.6754 40.3491 22.4047 40.4 22.1339 40.4509C22.2524 41.1638 22.3708 41.8766 22.4724 42.5895C22.6924 42.5556 22.8954 42.5216 23.0985 42.4876ZM23.7924 45.6106C24.3508 45.5257 24.5708 45.2032 24.4862 44.5922C24.4524 44.3886 24.4354 44.2019 24.4016 43.9982C24.3 43.2684 23.9616 43.0478 23.2677 43.1496C23.0477 43.1835 22.8108 43.2175 22.5908 43.2684C22.7262 44.0831 22.8447 44.9147 22.98 45.7294C23.2508 45.6955 23.5216 45.6446 23.7924 45.6106Z" fill="#2B2A29"/>
<path fill-rule="evenodd" clip-rule="evenodd" d="M30.3236 41.91L30.3574 42.5889C29.782 42.6059 29.1897 42.6398 28.6143 42.6908C28.6651 43.4885 28.7159 44.2692 28.7836 45.0669C29.4605 45.016 30.1543 44.982 30.8482 44.9651C30.8482 45.1857 30.8482 45.4233 30.8651 45.644C29.9343 45.6779 29.0036 45.7288 28.0728 45.8137C27.8866 43.5733 27.7005 41.333 27.5312 39.1096C28.5636 39.0247 29.5789 38.9568 30.6112 38.9229C30.6282 39.1605 30.6282 39.3811 30.6451 39.6017C29.9005 39.6357 29.1559 39.6696 28.4113 39.7206C28.462 40.4843 28.5128 41.2481 28.5636 42.0118C29.1559 41.9779 29.7482 41.944 30.3236 41.91Z" fill="#2B2A29"/>
<path fill-rule="evenodd" clip-rule="evenodd" d="M35.1819 38.9065C36.3665 38.9405 36.8404 39.6024 36.7896 40.6038C36.7727 40.8753 36.7727 41.1469 36.7557 41.4184C36.6881 42.4877 36.1465 42.9969 35.0127 42.9799C34.7757 42.9629 34.5557 42.9629 34.3188 42.9629L34.2681 45.6107C34.0142 45.6107 33.7773 45.5937 33.5234 45.5937C33.5234 43.3533 33.5404 41.1129 33.5404 38.8726C34.0988 38.8726 34.6404 38.8895 35.1819 38.9065ZM35.0296 42.301C35.6219 42.318 35.9265 42.0634 35.9434 41.4354C35.9604 41.1299 35.9773 40.8414 35.9773 40.5359C36.0111 39.9248 35.7742 39.6024 35.165 39.5854C34.9111 39.5854 34.6404 39.5684 34.3696 39.5684C34.3527 40.468 34.3357 41.3845 34.3357 42.284C34.5557 42.284 34.7927 42.301 35.0296 42.301Z" fill="#2B2A29"/>
<path fill-rule="evenodd" clip-rule="evenodd" d="M40.1443 42.9292L39.8397 45.9333C39.5858 45.9163 39.332 45.8824 39.0781 45.8654C39.2812 43.642 39.4843 41.4016 39.6874 39.1782C39.9581 39.1952 40.2458 39.2292 40.5166 39.2461L40.212 42.2672C40.8043 42.3181 41.3797 42.386 41.972 42.4709C42.1074 41.4695 42.2258 40.4681 42.3612 39.4668C42.632 39.5007 42.9197 39.5347 43.1904 39.5856C42.8689 41.792 42.5643 44.0154 42.2427 46.2388C42.0058 46.2049 41.752 46.1709 41.4981 46.137C41.6335 45.1356 41.752 44.1342 41.8874 43.1328C41.295 43.0649 40.7197 42.997 40.1443 42.9292Z" fill="#2B2A29"/>
<path fill-rule="evenodd" clip-rule="evenodd" d="M47.187 42.9798C46.967 42.9289 46.73 42.878 46.4931 42.8271C46.6624 41.9615 46.8316 41.0959 47.0008 40.2303C46.73 40.1794 46.4593 40.1115 46.1716 40.0605L44.9531 46.6798C45.4439 46.7647 45.9347 46.8665 46.4254 46.9684C47.4577 47.189 48.067 46.6968 48.287 45.6954C48.3547 45.4408 48.4224 45.1863 48.4731 44.9147C48.727 43.8794 48.3208 43.2174 47.187 42.9798ZM46.5608 46.3064C47.1193 46.4252 47.407 46.1707 47.5254 45.5766C47.5931 45.2711 47.6608 44.9826 47.7285 44.694C47.8639 44.0661 47.6439 43.7436 47.0516 43.6248C46.8316 43.5739 46.5947 43.5399 46.3577 43.489L45.8331 46.1537C46.07 46.2046 46.3239 46.2555 46.5608 46.3064ZM50.9439 41.1298C50.3854 43.3023 49.827 45.4748 49.2685 47.6303C49.0316 47.5794 48.7777 47.5115 48.5408 47.4436C49.0654 45.2711 49.607 43.0986 50.1316 40.9261C50.4024 40.994 50.6731 41.0619 50.9439 41.1298Z" fill="#2B2A29"/>
<path fill-rule="evenodd" clip-rule="evenodd" d="M54.7311 45.8821C55.188 45.3051 55.645 44.711 56.1019 44.1339C55.5265 45.8142 54.9342 47.4945 54.3588 49.1748C54.5788 49.2597 54.7988 49.3275 55.0019 49.4124C55.7634 47.3078 56.5249 45.1863 57.2865 43.0817C56.9819 42.9798 56.6773 42.878 56.3896 42.7592C55.6788 43.6078 54.985 44.4564 54.308 45.3051C53.9019 45.8482 53.4788 46.4083 53.0896 46.9514C53.5803 45.356 54.088 43.7606 54.5788 42.1821C54.3419 42.0973 54.105 42.0294 53.868 41.9445C53.225 44.1 52.565 46.2385 51.9219 48.3771C52.1757 48.4619 52.4296 48.5468 52.6834 48.6147C53.3434 47.6982 54.0373 46.7817 54.7311 45.8821ZM57.185 41.5881C56.9988 42.1482 56.4573 42.3349 55.7634 42.0973C55.0696 41.8596 54.765 41.4014 54.9173 40.8413C55.0865 40.8922 55.2557 40.9431 55.425 40.994C55.3403 41.3674 55.5603 41.5541 55.8988 41.6729C56.2373 41.7918 56.525 41.7578 56.6773 41.4184C56.8465 41.4693 57.0157 41.5371 57.185 41.5881Z" fill="#2B2A29"/>
<path fill-rule="evenodd" clip-rule="evenodd" d="M1.46841 130.287C1.23148 130.677 0.994563 131.067 0.75764 131.458C0.520717 131.373 0.283798 131.288 0.046875 131.203C1.24841 129.251 2.41609 127.299 3.56686 125.313C3.90532 125.449 4.26072 125.568 4.61611 125.67C4.32841 127.944 4.09147 130.219 3.87147 132.493C3.60071 132.408 3.34686 132.34 3.07609 132.255C3.12686 131.797 3.17763 131.322 3.2284 130.864C2.63609 130.677 2.06072 130.49 1.46841 130.287ZM1.78995 129.71C2.29765 129.879 2.80532 130.049 3.31301 130.219C3.46532 128.912 3.61765 127.605 3.76995 126.281C3.12688 127.435 2.44995 128.572 1.78995 129.71Z" fill="#2B2A29"/>
<path fill-rule="evenodd" clip-rule="evenodd" d="M9.78178 127.214C10.831 127.486 11.1356 128.199 10.8818 129.183C10.8141 129.454 10.7633 129.709 10.6956 129.981C10.4418 131.016 9.78178 131.423 8.68178 131.135C8.46178 131.067 8.22486 131.016 8.00486 130.948C7.76793 131.797 7.53101 132.662 7.31101 133.511C7.04024 133.443 6.76947 133.358 6.51562 133.29L8.34332 126.824C8.81716 126.96 9.30793 127.078 9.78178 127.214ZM8.85101 130.49C9.42639 130.643 9.76486 130.456 9.93409 129.828C10.0018 129.539 10.0695 129.251 10.1541 128.962C10.3064 128.368 10.1541 128.012 9.61255 127.876C9.37562 127.808 9.1387 127.74 8.90178 127.689C8.66486 128.555 8.41099 129.421 8.17407 130.303C8.41099 130.371 8.63101 130.422 8.85101 130.49Z" fill="#2B2A29"/>
<path fill-rule="evenodd" clip-rule="evenodd" d="M14.709 132.272C14.1336 133.138 13.5413 134.003 12.949 134.869C12.6952 134.818 12.4413 134.767 12.1875 134.699C12.9152 133.681 13.626 132.645 14.3198 131.61C14.0998 130.456 13.8798 129.302 13.6937 128.165C13.9475 128.215 14.2183 128.266 14.4721 128.317C14.6413 129.268 14.8106 130.218 14.9967 131.169C15.5213 130.371 16.0459 129.556 16.5536 128.725C16.7906 128.776 17.0275 128.81 17.2475 128.86C16.6383 129.845 16.029 130.846 15.3859 131.831C15.6398 133.053 15.9106 134.275 16.1983 135.497C15.9106 135.446 15.6229 135.395 15.3352 135.344C15.1152 134.326 14.9121 133.29 14.709 132.272Z" fill="#2B2A29"/>
<path fill-rule="evenodd" clip-rule="evenodd" d="M19.9203 134.699C19.768 135.14 19.6157 135.582 19.4634 136.006C19.2095 135.972 18.9557 135.938 18.7188 135.904C19.4972 133.749 20.2587 131.593 20.9864 129.438C21.3418 129.471 21.7141 129.522 22.0695 129.573C22.2387 131.848 22.4418 134.122 22.6618 136.396C22.408 136.379 22.1203 136.345 21.8664 136.311C21.8157 135.853 21.7818 135.395 21.7311 134.937C21.1218 134.869 20.5295 134.784 19.9203 134.699ZM20.1064 134.088C20.6311 134.156 21.1726 134.224 21.6972 134.275C21.5787 132.968 21.4772 131.644 21.3757 130.337C20.9695 131.593 20.5464 132.832 20.1064 134.088Z" fill="#2B2A29"/>
<path fill-rule="evenodd" clip-rule="evenodd" d="M26.4151 133.681C26.3474 134.7 26.2797 135.701 26.212 136.702C25.9244 136.685 25.6705 136.668 25.3828 136.651L25.9074 129.947C26.1444 129.964 26.3982 129.981 26.652 129.998C26.5844 131 26.5167 132.018 26.449 133.019C27.0244 133.053 27.5997 133.087 28.1751 133.121C28.2259 132.12 28.2767 131.101 28.3274 130.1C28.5813 130.117 28.8351 130.117 29.089 130.134C29.0044 132.374 28.9028 134.615 28.8182 136.855C28.5474 136.838 28.2767 136.821 28.0059 136.821C28.0567 135.803 28.1074 134.801 28.1413 133.8C27.5659 133.766 26.9905 133.732 26.4151 133.681Z" fill="#2B2A29"/>
<path fill-rule="evenodd" clip-rule="evenodd" d="M32.5779 130.897C32.5779 132.9 32.561 134.919 32.561 136.922C32.2902 136.922 32.0364 136.922 31.7656 136.922C31.7825 134.682 31.7995 132.441 31.8333 130.201C32.7302 130.218 33.6441 130.201 34.541 130.184C34.541 130.422 34.5579 130.642 34.5579 130.88C33.8979 130.88 33.2379 130.897 32.5779 130.897Z" fill="#2B2A29"/>
<path fill-rule="evenodd" clip-rule="evenodd" d="M39.8744 132.917C39.8913 133.138 39.9082 133.359 39.9251 133.579C39.3498 133.63 38.7744 133.664 38.199 133.698C38.2498 134.496 38.3005 135.293 38.3344 136.091C39.0621 136.04 39.7898 135.989 40.5175 135.938C40.5344 136.159 40.5513 136.38 40.5682 136.617C39.5698 136.702 38.5713 136.753 37.5728 136.804L37.2344 130.1C38.1651 130.049 39.0959 129.981 40.0267 129.913C40.0436 130.134 40.0605 130.371 40.0775 130.592C39.4005 130.643 38.7236 130.694 38.0298 130.745C38.0805 131.509 38.1144 132.272 38.1651 133.036C38.7405 132.985 39.299 132.951 39.8744 132.917Z" fill="#2B2A29"/>
<path fill-rule="evenodd" clip-rule="evenodd" d="M44.1912 130.168C44.3265 131.611 44.4619 133.07 44.5804 134.513C44.6819 135.582 44.445 136.227 43.3281 136.363C43.2773 136.363 43.2435 136.363 43.1927 136.38C43.1588 136.142 43.1419 135.922 43.125 135.701C43.785 135.616 43.8696 135.294 43.8188 134.649C43.6835 132.952 43.5481 131.271 43.4127 129.574C44.3265 129.472 45.2404 129.336 46.1542 129.201C46.4927 131.424 46.8312 133.631 47.1527 135.854C46.8819 135.888 46.6281 135.922 46.3573 135.973C46.0696 133.97 45.7819 131.984 45.5112 129.981C45.0712 130.049 44.6312 130.1 44.1912 130.168Z" fill="#2B2A29"/>
<path fill-rule="evenodd" clip-rule="evenodd" d="M50.8042 131.067C51.9042 130.847 52.5304 131.288 52.7673 132.323L52.9365 133.104C53.1565 134.106 52.7842 134.835 51.6673 135.056C51.1427 135.158 50.6181 135.26 50.0935 135.362L48.875 128.742C49.1288 128.691 49.3827 128.657 49.6365 128.606C49.8058 129.472 49.975 130.338 50.1273 131.203C50.3642 131.169 50.5842 131.118 50.8042 131.067ZM51.5319 134.394C52.1242 134.275 52.2935 133.919 52.1581 133.325C52.1073 133.019 52.0396 132.731 51.9888 132.442C51.8535 131.797 51.515 131.611 50.9396 131.729C50.7196 131.78 50.4827 131.831 50.2627 131.865C50.4319 132.765 50.6012 133.647 50.7704 134.53C51.0242 134.479 51.2781 134.445 51.5319 134.394Z" fill="#2B2A29"/>
<path fill-rule="evenodd" clip-rule="evenodd" d="M57.8073 128.318C57.875 128.521 57.9258 128.708 57.9765 128.895C57.7396 128.963 57.5027 129.03 57.2658 129.098C57.1981 128.895 57.1475 128.691 57.0967 128.487C56.9275 127.893 56.5888 127.622 56.0473 127.758C55.5227 127.893 55.3535 128.318 55.5058 128.912C55.8104 130.049 56.0981 131.203 56.3858 132.34C56.5381 132.934 56.8936 133.223 57.469 133.07C58.0444 132.917 58.1965 132.493 58.0273 131.899C57.9596 131.627 57.875 131.356 57.8073 131.067C58.0442 130.999 58.2981 130.931 58.535 130.864C58.6027 131.135 58.6873 131.39 58.755 131.661C59.0427 132.646 58.7212 133.443 57.6212 133.732C56.5212 134.02 55.8442 133.494 55.6073 132.51C55.3365 131.39 55.0488 130.253 54.7781 129.132C54.5242 128.148 54.8458 127.384 55.8612 127.113C56.8765 126.841 57.5365 127.333 57.8073 128.318Z" fill="#2B2A29"/>
<path fill-rule="evenodd" clip-rule="evenodd" d="M62.2234 129.234C62.1726 129.488 62.105 129.743 62.0373 129.998L62.7311 132.136C62.4773 132.221 62.2065 132.306 61.9526 132.391C61.2757 130.252 60.5988 128.131 59.9219 125.992C60.1588 125.907 60.4126 125.822 60.6496 125.754C60.988 126.773 61.3265 127.808 61.6649 128.843C61.9357 127.604 62.1726 126.382 62.3926 125.16C62.6296 125.075 62.8834 124.991 63.1203 124.906C62.9173 126.06 62.6973 127.214 62.4603 128.385C63.425 129.336 64.4403 130.286 65.4557 131.203C65.185 131.304 64.9142 131.389 64.6603 131.491C63.8311 130.744 63.0188 129.998 62.2234 129.234Z" fill="#2B2A29"/>
<path fill-rule="evenodd" clip-rule="evenodd" d="M19.1938 78.3673C19.1938 78.4352 19.16 78.4861 19.1092 78.52L18.6861 78.7576V81.4223C18.6861 81.7109 18.703 81.9824 18.4661 82.0164C18.1954 82.0503 17.9246 82.0503 17.6369 82.0164C17.4338 81.9994 17.4507 81.7448 17.4507 81.4902V80.1324C17.4507 79.8778 17.4169 79.6742 17.3492 79.5214C17.3492 79.4875 17.3154 79.4705 17.2984 79.4705C17.2646 79.4705 17.2307 79.4875 17.2138 79.5044C17.18 79.5553 17.1292 79.6742 17.0954 79.8269L16.8754 80.9132C16.8077 81.2696 16.74 81.5242 16.7061 81.7278C16.6723 81.8297 16.6385 81.9145 16.5877 81.9655C16.5031 82.0333 16.1816 82.0503 15.8939 82.0333C15.6739 82.0164 15.6231 81.9654 15.5723 81.7618C15.5216 81.4902 15.3523 80.8283 15.3185 80.6925C15.2169 80.2003 15.1154 79.8269 15.0477 79.5554C15.0308 79.4875 14.9969 79.4026 14.9462 79.2838C14.9123 79.1989 14.8108 79.2498 14.7938 79.2838C14.76 79.3517 14.7431 79.4705 14.7431 79.6572V81.4393C14.7431 81.7278 14.76 81.9824 14.5062 82.0333C14.2523 82.0503 13.9815 82.0503 13.7277 82.0333C13.4738 81.9994 13.5077 81.7788 13.5077 81.4223V78.7576L13.0846 78.52C13.0339 78.4861 13 78.4352 13 78.3673C13 78.2994 13.0339 78.2485 13.0846 78.2145L13.5077 77.9769V75.2783C13.5077 74.9728 13.4739 74.7182 13.7446 74.7012H15.0139C15.1323 74.7012 15.2169 74.7691 15.2338 74.9049L15.3861 75.6347L15.9277 78.3842C15.9446 78.4352 15.9785 78.537 16.0123 78.6558C16.0631 78.7916 16.1984 78.8086 16.2831 78.6388C16.2831 78.6219 16.3 78.6049 16.3 78.554L16.5538 77.1962C16.6554 76.6361 16.74 76.1778 16.8077 75.8384C16.8246 75.7365 16.8585 75.5838 16.8923 75.3971C16.9769 74.9218 16.943 74.7012 17.2646 74.7012C17.7215 74.6842 18.1277 74.6842 18.4492 74.7012C18.7369 74.7182 18.6861 74.9558 18.6861 75.2613V77.9769L19.1092 78.2145C19.16 78.2485 19.1938 78.2994 19.1938 78.3673Z" fill="#2B2A29"/>
<path fill-rule="evenodd" clip-rule="evenodd" d="M24.9637 78.3507C24.9637 78.4186 24.9468 78.4695 24.8791 78.5035L24.4561 78.7411L24.473 80.031C24.473 80.1498 24.4391 80.4213 24.3545 80.8457C24.3545 80.9475 24.3037 81.0324 24.253 81.1172C23.4237 82.4581 21.6976 82.3732 21.0207 81.1172C20.9022 80.8796 20.8514 80.608 20.8514 80.2686V78.7411L20.4284 78.5035C20.3607 78.4695 20.3438 78.4186 20.3438 78.3507C20.3438 78.2828 20.3607 78.2489 20.4284 78.1979L20.8514 77.9603C20.8514 77.1966 20.8514 76.6365 20.8514 76.3479C20.8345 75.7369 21.1222 75.1938 21.7314 74.7695C21.8499 74.6677 21.9684 74.6167 22.1037 74.5998C22.933 74.464 23.4576 74.5828 23.8976 75.0071C24.3207 75.4145 24.4561 76.0085 24.4561 76.5686V77.9603L24.8791 78.1979C24.9468 78.2319 24.9637 78.2828 24.9637 78.3507ZM23.153 80.0649V76.5177C23.153 76.3819 23.1361 76.2631 23.1022 76.1612C22.933 75.6351 22.1714 75.703 22.0868 76.2461C22.0868 76.297 22.0868 76.4158 22.0868 76.5686V79.997C22.0868 80.2007 22.0868 80.3535 22.1376 80.4383C22.3068 80.8796 22.8991 80.8796 23.1022 80.4723C23.1361 80.3704 23.153 80.2346 23.153 80.0649Z" fill="#2B2A29"/>
<path fill-rule="evenodd" clip-rule="evenodd" d="M30.1865 76.9756V77.6885C30.1527 78.3843 29.7127 78.9784 29.0527 79.233C28.9512 79.2669 28.7988 79.2839 28.6127 79.3009C28.3758 79.3009 28.2235 79.3178 28.1558 79.3178C27.8004 79.3688 27.8681 79.6064 27.8681 79.9458V81.5922C27.8681 81.7789 27.8342 81.9146 27.7835 81.9486C27.6988 82.0504 27.1742 82.0334 26.8527 82.0165C26.5988 81.9995 26.6327 81.7619 26.6327 81.5073V78.7408L26.2096 78.5032C26.1588 78.4692 26.125 78.4183 26.125 78.3504C26.125 78.2825 26.1588 78.2486 26.2096 78.2146L26.6327 77.977V75.1765C26.6327 74.6674 26.6327 74.6504 27.1573 74.6504H27.7665H28.3588C28.985 74.6504 30.0681 74.9389 30.1696 76.1949C30.1865 76.2288 30.1865 76.5004 30.1865 76.9756ZM28.2912 75.9233C27.7496 75.8724 27.8681 76.11 27.8681 76.9756V77.8073C27.885 77.977 27.9696 78.0788 28.1558 78.1128C28.5619 78.1807 28.9342 77.9091 29.0019 77.5018C29.0865 76.7889 29.0696 75.9742 28.2912 75.9233Z" fill="#2B2A29"/>
<path fill-rule="evenodd" clip-rule="evenodd" d="M35.4001 80.6928C35.1293 82.1525 33.2001 82.7295 32.117 81.2699C31.9647 81.0662 31.897 80.7947 31.897 80.4552V78.741L31.4909 78.4864C31.4401 78.4525 31.4062 78.4015 31.4062 78.3506C31.4062 78.2658 31.4401 78.2318 31.4909 78.1809L31.897 77.9433C31.9139 77.1116 31.9139 76.5855 31.897 76.2969C31.8632 75.669 32.3032 74.9731 32.997 74.7185C33.1324 74.6676 33.2339 74.6506 33.3524 74.6506C33.6401 74.6336 33.8601 74.6506 33.9955 74.6506C34.097 74.6506 34.1986 74.6676 34.2832 74.7015C34.537 74.8034 34.8416 75.041 35.1801 75.4483C35.5016 75.8217 35.4509 76.6364 35.4339 76.9589C35.417 77.1965 35.3493 77.2644 35.0955 77.2644C34.8755 77.2814 34.6724 77.2814 34.4524 77.2644C34.1647 77.2474 34.2155 77.1965 34.1986 76.5515C34.1816 76.1442 33.9278 75.8726 33.6232 75.8726C33.4878 75.8726 33.3524 75.9405 33.2509 76.0593C33.0478 76.28 33.0647 76.5176 33.0647 76.7891C33.0478 77.9942 33.0478 79.0125 33.0647 79.8272C33.0647 79.963 33.0647 80.1158 33.0816 80.2346C33.1155 80.4892 33.2678 80.7947 33.5893 80.8116C33.9278 80.8286 34.1986 80.5231 34.1986 80.1327V79.5557C34.2324 79.335 34.2662 79.2502 34.5032 79.2502C34.7062 79.2502 34.9601 79.2502 35.197 79.2502C35.3493 79.2671 35.417 79.352 35.417 79.5048C35.4509 80.0818 35.4509 80.4722 35.4001 80.6928Z" fill="#2B2A29"/>
<path fill-rule="evenodd" clip-rule="evenodd" d="M40.9677 81.9993C40.7985 82.0163 40.7647 82.0163 40.4431 82.0163H40.1385C39.8677 82.0333 39.6647 81.9144 39.5631 81.6089C39.5462 81.575 39.4785 81.3713 39.3262 80.9979C39.0724 80.353 38.937 79.9796 38.8862 79.8947C38.8354 79.725 38.7677 79.6232 38.717 79.5553C38.6662 79.5043 38.5477 79.5043 38.497 79.5553C38.4124 79.6741 38.3616 79.8099 38.3616 79.9966C38.3616 79.9626 38.3616 80.319 38.3616 81.0149V81.7278C38.3447 81.9314 38.277 81.9993 38.0739 82.0163C37.8708 82.0163 37.6677 82.0163 37.4647 81.9993C37.2954 81.9993 37.2277 81.9314 37.2108 81.7447C37.2108 81.6768 37.2108 81.558 37.2108 81.3713V78.7406L36.7877 78.486C36.737 78.4521 36.7031 78.4011 36.7031 78.3502C36.7031 78.2654 36.737 78.2314 36.7877 78.1805L37.2108 77.9429V75.2612C37.2108 74.9387 37.1939 74.7011 37.4308 74.6842C37.6677 74.6842 37.9047 74.6842 38.1416 74.6842C38.3785 74.7011 38.3616 74.9387 38.3616 75.1764V75.6007C38.3616 75.9231 38.3447 76.1098 38.4124 76.3305C38.4293 76.4323 38.5477 76.4663 38.6324 76.3984C38.6831 76.3644 38.7677 76.2456 38.8354 76.0929C38.9031 75.9741 38.9877 75.8043 39.0893 75.6007C39.2077 75.38 39.2924 75.2103 39.3431 75.0915C39.4616 74.8708 39.5124 74.7011 39.6985 74.6842C40.0877 74.6502 40.4431 74.6502 40.7308 74.6842C40.7985 74.7011 40.8493 74.769 40.8154 74.8539C40.7816 74.9387 40.7308 75.0406 40.68 75.1424C40.5447 75.414 40.1893 76.1098 39.6647 77.1791C39.5631 77.3658 39.5124 77.4507 39.5293 77.4167C39.4447 77.5865 39.4447 77.7562 39.5124 77.9089C39.597 78.0787 39.6816 78.2823 39.7831 78.5369C40.1724 79.4704 40.5616 80.4718 40.9847 81.5241C41.0354 81.6089 41.0693 81.7108 41.0862 81.8126C41.1031 81.8805 41.0524 81.9654 40.9677 81.9993Z" fill="#2B2A29"/>
<path fill-rule="evenodd" clip-rule="evenodd" d="M46.8544 78.3507C46.8544 78.4186 46.8375 78.4695 46.7698 78.5035L46.3467 78.7411L46.3636 80.031C46.3636 80.1498 46.3298 80.4213 46.2451 80.8457C46.2451 80.9475 46.1944 81.0324 46.1436 81.1172C45.3144 82.4581 43.5882 82.3732 42.9113 81.1172C42.7928 80.8796 42.7421 80.608 42.7421 80.2686V78.7411L42.319 78.5035C42.2682 78.4695 42.2344 78.4186 42.2344 78.3507C42.2344 78.2828 42.2682 78.2489 42.319 78.1979L42.7421 77.9603C42.759 77.1966 42.7421 76.6365 42.7421 76.3479C42.7251 75.7369 43.0128 75.1938 43.6221 74.7695C43.7405 74.6677 43.859 74.6167 43.9944 74.5998C44.8236 74.464 45.3482 74.5828 45.7882 75.0071C46.2282 75.4145 46.3467 76.0085 46.3467 76.5686V77.9603L46.7698 78.1979C46.8375 78.2319 46.8544 78.2828 46.8544 78.3507ZM45.0436 80.0649V76.5177C45.0436 76.3819 45.0267 76.2631 44.9928 76.1612C44.8236 75.6351 44.0621 75.703 43.9775 76.2461C43.9775 76.297 43.9775 76.4158 43.9775 76.5686V79.997C43.9775 80.2007 43.9775 80.3535 44.0282 80.4383C44.1975 80.8796 44.8067 80.8796 44.9928 80.4723C45.0267 80.3704 45.0436 80.2346 45.0436 80.0649Z" fill="#2B2A29"/>
<path fill-rule="evenodd" clip-rule="evenodd" d="M48.6483 77.9432V75.1765C48.6483 74.9389 48.6145 74.6843 48.8345 74.6674C49.0037 74.6504 49.156 74.6504 49.3422 74.6504C49.8499 74.6504 49.8668 74.6674 49.8668 75.1765C49.8668 75.1426 49.8668 75.8894 49.8837 77.4509C49.8837 77.8073 49.8668 77.8412 49.9345 78.0279C49.9514 78.1637 50.1206 78.1807 50.1714 78.0619C50.1883 78.0109 50.2052 77.96 50.2222 77.8921C50.3406 77.5187 50.7129 76.2288 50.8822 75.6687C50.916 75.5839 50.9499 75.4481 51.0006 75.2784C51.0683 75.0917 51.1022 74.9559 51.136 74.871C51.1699 74.7353 51.2714 74.6504 51.3899 74.6504H52.3883C52.6252 74.6674 52.6083 74.9219 52.6083 75.2444V77.9432L53.0145 78.1808C53.0652 78.2148 53.0991 78.2655 53.0991 78.3334C53.0991 78.4013 53.0652 78.4353 53.0145 78.4862L52.6083 78.7238V81.3715C52.6083 81.711 52.6422 81.9656 52.3206 82.0165H51.9483C51.3729 82.0165 51.356 82.0165 51.356 81.4564V79.1821C51.356 78.9614 51.3391 78.8087 51.3222 78.7238C51.2714 78.605 51.136 78.571 51.0683 78.6899L50.9329 79.0463C50.9668 78.9784 50.696 79.7761 50.1714 81.4564L50.1206 81.5922C50.0868 81.677 50.0699 81.7281 50.0699 81.7621C49.9514 82.0845 49.4775 82.0165 49.2237 82.0165C48.6652 82.0165 48.6483 81.9995 48.6483 81.4394V78.7238L48.2252 78.4862C48.1745 78.4353 48.1406 78.4013 48.1406 78.3334C48.1406 78.2655 48.1745 78.2148 48.2252 78.1808L48.6483 77.9432Z" fill="#2B2A29"/>
<path fill-rule="evenodd" clip-rule="evenodd" d="M50.7497 74.2092C50.1235 74.1922 49.6327 74.0395 49.3958 73.2757C49.3789 73.1569 49.3281 72.9193 49.3281 72.7665C49.3281 72.6817 49.3958 72.6138 49.4974 72.6138H49.7512H50.005C50.2758 72.6138 50.225 72.7665 50.242 72.9023C50.2927 73.2757 50.5127 73.5133 50.7497 73.5133C50.9697 73.5133 51.1897 73.2757 51.2574 72.9193C51.2912 72.7326 51.3081 72.6307 51.4943 72.6307H51.9004C52.1035 72.6307 52.1881 72.6817 52.1712 72.8514C52.0697 73.7509 51.4943 74.2262 50.7497 74.2092Z" fill="#2B2A29"/>
<path fill-rule="evenodd" clip-rule="evenodd" d="M35.56 84.2741H30.2969V83.1709H35.56V84.2741Z" fill="#2B2A29"/>
<path fill-rule="evenodd" clip-rule="evenodd" d="M49.734 85.0715C49.1079 85.0545 48.6171 84.8848 48.3802 84.138C48.3463 84.0192 48.3125 83.7646 48.3125 83.6288C48.3125 83.527 48.3633 83.4761 48.4817 83.4761H48.7187H48.9894C49.2433 83.4761 49.2094 83.6119 49.2263 83.7476C49.2771 84.138 49.4802 84.3586 49.7171 84.3586C49.954 84.3586 50.174 84.138 50.2417 83.7646C50.2756 83.5779 50.2756 83.4761 50.4787 83.4761H50.8848C51.0879 83.4761 51.1725 83.527 51.1556 83.7137C51.054 84.6132 50.4787 85.0885 49.734 85.0715Z" fill="#2B2A29"/>
</g>
<defs>
<clipPath id="clip0_4355_4102">
<rect width="66" height="98.4407" fill="white" transform="translate(0 38.5591)"/>
</clipPath>
</defs>
</svg>
