<svg width="150" height="78" viewBox="0 0 150 78" fill="none" xmlns="http://www.w3.org/2000/svg">
<path d="M131.856 39.7787C131.233 40.8009 130.967 41.8568 130.996 43.0285C131.025 44.094 131.354 45.0825 131.595 46.095C131.88 47.2908 132.232 48.4721 132.537 49.663C132.86 50.9118 133.164 52.1606 133.478 53.4094C133.637 54.041 133.734 54.6919 133.961 55.2946C134.188 55.8973 134.55 56.4518 134.844 57.0304C134.936 57.2136 135.057 57.4113 135.066 57.6042C135.086 58.149 135.38 58.5106 135.786 58.8096C136.042 59.0024 136.259 59.1615 136.071 59.5666C135.979 59.7642 136.056 60.121 136.187 60.3236C136.563 60.9263 136.592 61.5965 136.684 62.257C136.795 63.0526 136.819 63.8578 136.94 64.6485C137.041 65.2994 137.229 65.9359 137.374 66.582C137.408 66.7266 137.447 66.8906 137.408 67.0304C137.234 67.6427 137.365 68.231 137.519 68.8192C137.548 68.9253 137.514 69.0458 137.519 69.1567C137.524 69.4749 137.534 69.7884 137.548 70.1066C137.548 70.1644 137.601 70.2319 137.587 70.2753C137.403 70.7093 137.35 71.2397 136.959 71.5241C136.269 72.0159 135.515 72.4209 134.801 72.879C134.463 73.096 134.101 73.1538 133.705 73.1538C133.256 73.1538 132.802 73.1876 132.363 73.2744C132.049 73.3371 131.803 73.5492 131.759 73.9156C131.716 74.2821 131.899 74.5039 132.184 74.6919C132.343 74.7932 132.483 74.9234 132.633 75.0391C132.445 75.1114 132.266 75.2127 132.073 75.2464C131.638 75.3187 131.194 75.3669 130.755 75.4103C130.065 75.473 129.789 76.0275 130.176 76.6013C130.639 77.2859 131.368 77.4306 132.116 77.5559C134.217 77.9128 136.331 77.7585 138.441 77.8067C139.421 77.8308 140.397 77.9127 141.377 77.9465C141.652 77.9561 141.946 77.9465 142.202 77.8597C142.738 77.6765 143.057 77.2763 143.023 76.6929C142.97 75.825 142.83 74.9619 142.801 74.094C142.762 73.0478 142.227 72.1413 142.048 71.1384C142.029 71.042 142.014 70.907 142.062 70.8395C142.482 70.2657 142.453 69.5617 142.647 68.9205C143.038 67.6283 143.028 66.2782 143.284 64.9716C143.67 63.0237 143.709 61.0613 143.641 59.094C143.607 58.0381 143.53 56.9725 143.361 55.9311C143.226 55.0776 142.941 54.2435 142.7 53.4046C142.511 52.7536 142.386 52.1124 142.367 51.4277C142.318 49.9089 142.492 48.4046 142.584 46.8954C142.637 46.0709 142.593 45.2416 142.603 44.4123C142.603 44.229 142.584 44.0073 142.676 43.8674C143.158 43.1104 143.154 42.2474 143.226 41.4084C143.269 40.907 143.496 40.5309 143.791 40.1693C144.172 39.7016 144.573 39.2483 144.925 38.7565C145.07 38.5492 145.128 38.2696 145.186 38.0092C145.374 37.1847 145.572 36.365 145.703 35.5309C145.79 34.9619 145.828 34.3689 145.79 33.7903C145.732 32.879 145.93 32.0111 146.094 31.1288C146.248 30.285 146.384 29.4364 146.524 28.5878C146.664 27.7392 146.76 26.8809 146.939 26.042C147.195 24.8559 147.151 23.6553 147.228 22.4595C147.253 22.0979 147.306 21.7363 147.286 21.3795C147.262 20.9793 147.166 20.5887 147.103 20.1934C147.084 20.0584 147.045 19.9185 147.05 19.7835C147.103 18.419 146.91 17.0931 146.427 15.8105C146.398 15.7382 146.408 15.6562 146.398 15.5502C146.562 15.5405 146.712 15.5405 146.857 15.5164C147.537 15.4055 147.851 14.9185 148.054 14.3303C148.353 13.4672 148.619 12.5897 148.947 11.7363C149.145 11.2204 149.024 10.743 148.875 10.2753C148.653 9.56656 148.363 8.88189 148.122 8.18276C148.03 7.92239 148.015 7.63792 147.938 7.36791C147.861 7.10754 147.682 7.0304 147.402 7.07861C146.495 7.23773 145.669 7.57042 144.872 8.03329C143.94 8.57331 142.893 8.78064 141.845 9.00243C141.454 9.0844 141.077 9.27244 140.71 9.4412C140.45 9.55692 140.411 9.46049 140.348 9.22905C140.117 8.40455 140.397 7.66685 140.672 6.92432C141.493 4.71603 140.899 2.7681 139.537 0.984112C139.098 0.40552 138.456 0.10658 137.727 0.0390779C136.467 -0.0766405 135.24 0.0535427 134.072 0.579097C133.357 0.902144 132.807 1.44699 132.285 2.01593C132.078 2.24255 132.063 2.51256 132.179 2.79703C132.218 2.89347 132.247 3.01401 132.223 3.11044C132.078 3.63117 131.899 4.14226 131.764 4.66781C131.643 5.13069 131.754 5.5791 132.001 5.97447C132.271 6.40359 132.223 6.83271 132.112 7.28112C132.068 7.45952 132.03 7.64274 131.991 7.82596C131.928 8.13937 132.054 8.33223 132.368 8.37563C132.604 8.40456 132.619 8.54438 132.648 8.73725C132.686 8.96868 132.792 9.18565 132.855 9.40745C132.995 9.89925 133.174 10.3911 133.246 10.8925C133.299 11.2686 133.439 11.5965 133.816 11.6591C134.13 11.7122 134.458 11.7074 134.772 11.6881C135.023 11.6736 135.202 11.6784 135.346 11.9436C135.458 12.1413 135.684 12.2811 135.878 12.4258C136.066 12.5656 136.187 12.8019 136.003 12.9176C135.491 13.2503 135.472 13.771 135.482 14.2435C135.506 15.2271 135.095 16.0613 134.661 16.8713C134.323 17.5077 134.342 18.1972 134.183 18.8578C133.879 20.121 133.536 21.3747 133.227 22.6331C133.121 23.0719 133.058 23.5203 132.961 23.9639C132.817 24.5955 132.628 25.2175 132.517 25.8587C132.459 26.1866 132.512 26.5338 132.527 26.8713C132.565 27.5993 132.599 28.3274 132.657 29.0506C132.691 29.4894 132.657 29.8655 132.329 30.2368C131.841 30.7816 131.498 31.4084 131.445 32.1992C131.407 32.7633 131.112 33.3033 130.987 33.8674C130.924 34.1519 130.967 34.4605 130.967 34.7594C130.972 35.2127 131.064 35.6803 130.982 36.1143C130.813 36.9822 131.025 37.797 131.17 38.636C131.252 39.1278 131.523 39.4749 131.846 39.7835L131.856 39.7787Z" fill="#C5C5C6"/>
<g clip-path="url(#clip0_2088_10640)">
<path d="M117.747 27.1638C117.747 27.1638 117.906 27.2799 118.076 27.3572C119.392 27.9373 119.532 28.5802 118.424 29.4889C117.916 29.9095 117.253 30.2285 116.614 30.3832C114.66 30.8473 112.685 31.234 110.706 31.6014C107.126 32.2636 103.68 33.2835 100.472 35.0769C95.8027 37.6872 91.0654 40.1815 86.396 42.7918C85.2104 43.454 84.112 44.3048 83.0668 45.1749C81.8329 46.2045 81.9297 46.8861 83.4297 47.5435C84.9007 48.1864 86.4347 48.6891 87.9492 49.2305C89.125 49.6462 90.2961 50.0813 91.4961 50.41C95.8462 51.604 97.4962 54.8717 97.9221 58.9563C98.0624 60.2856 97.7382 61.6681 97.5591 63.0216C97.3414 64.6361 96.1752 65.2887 94.7333 65.54C93.8236 65.6996 93.0977 65.2693 92.8268 64.4186C92.5461 63.534 92.0187 63.2101 91.1622 63.1569C90.146 63.0941 89.638 62.5189 89.3767 61.5183C88.8589 59.5557 88.3895 59.2463 86.3814 59.3623C83.6136 59.5219 80.841 59.7007 78.078 59.9279C77.6909 59.9569 77.1441 60.1889 76.9796 60.4935C75.5376 63.1376 74.0617 65.7721 72.8182 68.508C72.1311 70.0211 72.4311 70.3304 74.0182 70.8621C74.8166 71.1328 75.6828 71.2489 76.4328 71.6114C77.2457 72.0029 78.0586 72.5008 78.6828 73.1389C79.3361 73.806 79.2296 74.5214 78.5425 75.3528C76.636 77.6828 74.2747 78.1178 71.4294 77.7843C67.5874 77.3299 64.3696 75.7444 61.5195 73.2162C60.5082 72.3171 60.1065 71.2489 60.363 69.9775C61.2195 65.7237 61.0066 61.3297 62.3711 57.1243C63.2808 54.3206 61.7711 52.7012 58.8242 52.8076C53.0805 53.0154 47.3368 53.2861 41.5883 53.4988C40.5189 53.5375 39.9092 53.9581 39.5705 55.0022C38.2979 58.9031 38.0753 62.8862 38.4527 66.9419C38.5495 68.0053 39.0866 68.6096 40.0108 69.0253C40.9931 69.47 42.0722 69.847 42.8706 70.5286C43.4609 71.0362 43.9787 71.9884 43.9835 72.7474C43.9835 73.8205 42.8899 74.2604 41.9657 74.2942C38.5543 74.4199 35.1381 74.4489 31.7267 74.4586C30.8074 74.4586 29.8783 74.3184 28.9783 74.125C27.1153 73.7286 26.4185 72.7522 26.2008 70.8476C25.8863 68.0585 25.5379 65.2645 25.025 62.5092C24.7008 60.7593 24.2265 60.653 22.7459 61.6778C19.1796 64.1479 16.407 67.3624 14.0843 70.9878C13.2908 72.2301 13.2133 72.8827 14.5247 73.6996C15.0666 74.038 15.415 74.8259 15.6376 75.4833C15.7392 75.7927 15.4392 76.4791 15.1344 76.6435C14.2924 77.093 13.3779 77.4459 12.4488 77.6828C9.20679 78.5239 6.58414 77.4749 4.54215 74.8984C2.46628 72.2833 0.913018 69.3878 0.10977 66.1298C-0.277337 64.5684 0.216225 63.6258 1.8082 63.447C4.11633 63.1908 5.04539 61.7019 5.78573 59.7829C7.34383 55.7466 7.94869 51.5556 8.14224 47.2583C8.26805 44.4885 8.53903 41.7187 8.80033 38.9585C9.02775 36.5851 9.8068 34.4098 11.2923 32.515C13.5472 29.6436 15.357 26.4291 18.2312 24.046C22.591 20.4302 27.7637 18.8012 33.1542 17.6218C39.0673 16.3263 44.9029 16.8967 50.7385 18.1922C53.9128 18.8979 57.1113 19.5408 60.3291 19.9904C61.4082 20.1402 62.6034 19.6858 63.7066 19.3813C66.1793 18.6949 68.5939 17.7281 71.1052 17.2737C72.6149 16.9982 74.3666 17.1625 75.8279 17.6604C79.7329 18.9946 83.691 19.391 87.7169 18.8012C90.9783 18.3227 94.1962 17.5638 97.4382 16.9595C98.1834 16.8193 98.6672 16.51 98.9092 15.751C99.0108 15.4272 99.364 15.0646 99.6786 14.9728C99.8818 14.9148 100.366 15.258 100.467 15.5239C100.748 16.2344 101.237 16.2103 101.832 16.1233C104.372 15.7559 106.893 15.7704 109.342 16.6501C110.319 17.003 111.292 17.3221 111.8 18.429C111.969 18.7964 112.632 18.9994 113.111 19.1541C115.216 19.8357 117.35 20.4206 119.44 21.1457C121.144 21.7354 121.448 22.9004 120.311 24.2974C119.527 25.2641 118.652 26.1487 117.737 27.1638H117.747Z" fill="#57A5DB"/>
</g>
<defs>
<clipPath id="clip0_2088_10640">
<rect width="121" height="63" fill="white" transform="translate(0 14.9678)"/>
</clipPath>
</defs>
</svg>
