<svg width="246" height="530" viewBox="0 0 246 530" fill="none" xmlns="http://www.w3.org/2000/svg">
<path d="M123 404.689C55.2394 404.689 0.310661 349.982 0.310664 282.5C0.310667 215.018 55.2394 160.311 123 160.311C190.761 160.311 245.689 215.018 245.689 282.5C245.689 349.982 190.761 404.689 123 404.689Z" stroke="#626261" stroke-width="0.621302"/>
<path d="M216 0C214.895 -4.77336e-08 214 0.89543 214 2C214 3.10457 214.895 4 216 4C217.105 4 218 3.10457 218 2C218 0.895431 217.105 4.77336e-08 216 0ZM215.625 2L215.625 203L216.375 203L216.375 2L215.625 2Z" fill="#626261"/>
<path d="M123 0C121.895 -4.77336e-08 121 0.89543 121 2C121 3.10457 121.895 4 123 4C124.105 4 125 3.10457 125 2C125 0.895431 124.105 4.77336e-08 123 0ZM122.625 2L122.625 160L123.375 160L123.375 2L122.625 2Z" fill="#626261"/>
<path d="M123 530C124.105 530 125 529.105 125 528C125 526.895 124.105 526 123 526C121.895 526 121 526.895 121 528C121 529.105 121.895 530 123 530ZM123.375 528L123.375 405L122.625 405L122.625 528L123.375 528Z" fill="#626261"/>
<path d="M30 0C28.8954 -4.77336e-08 28 0.89543 28 2C28 3.10457 28.8954 4 30 4C31.1046 4 32 3.10457 32 2C32 0.895431 31.1046 4.77336e-08 30 0ZM29.625 2L29.625 203L30.375 203L30.375 2L29.625 2Z" fill="#626261"/>
</svg>
