<svg width="988" height="338" viewBox="0 0 988 338" fill="none" xmlns="http://www.w3.org/2000/svg">
<circle cx="494" cy="169" r="168.625" stroke="#626261" stroke-width="0.75"/>
<path d="M0 74.625C0 75.7296 0.89543 76.625 2 76.625C3.10457 76.625 4 75.7296 4 74.625C4 73.5204 3.10457 72.625 2 72.625C0.89543 72.625 0 73.5204 0 74.625ZM2 75H354V74.25H2V75Z" fill="#626261"/>
<path d="M0 168.625C0 169.73 0.89543 170.625 2 170.625C3.10457 170.625 4 169.73 4 168.625C4 167.52 3.10457 166.625 2 166.625C0.89543 166.625 0 167.52 0 168.625ZM2 169H325V168.25H2V169Z" fill="#626261"/>
<path d="M988 168.625C988 169.73 987.105 170.625 986 170.625C984.895 170.625 984 169.73 984 168.625C984 167.52 984.895 166.625 986 166.625C987.105 166.625 988 167.52 988 168.625ZM986 169H663V168.25H986V169Z" fill="#626261"/>
<path d="M0 261.625C0 262.73 0.89543 263.625 2 263.625C3.10457 263.625 4 262.73 4 261.625C4 260.52 3.10457 259.625 2 259.625C0.89543 259.625 0 260.52 0 261.625ZM2 262H354V261.25H2V262Z" fill="#626261"/>
</svg>
